/* XPM */
static char * YCombi_xpm[] = {
"48 48 245 2",
"  	c None",
". 	c #8FB93D",
"+ 	c #85B13B",
"@ 	c #7EAA39",
"# 	c #86B13B",
"$ 	c #83AE3A",
"% 	c #8BB53D",
"& 	c #84AE3A",
"* 	c #7FAA39",
"= 	c #7DA938",
"- 	c #7FA838",
"; 	c #88B23B",
"> 	c #85AE3A",
", 	c #83AC3A",
"' 	c #87B13B",
") 	c #85B03B",
"! 	c #80AB39",
"~ 	c #7BA738",
"{ 	c #88B33C",
"] 	c #8AB53D",
"^ 	c #7EAA38",
"/ 	c #8CB63D",
"( 	c #7AA537",
"_ 	c #78A537",
": 	c #82AD3A",
"< 	c #7FA938",
"[ 	c #749D34",
"} 	c #7CA638",
"| 	c #8DB73D",
"1 	c #8EB73D",
"2 	c #86B23B",
"3 	c #87B23B",
"4 	c #75A236",
"5 	c #7CA838",
"6 	c #8AB43C",
"7 	c #84AF3B",
"8 	c #81AC3A",
"9 	c #92BB3F",
"0 	c #73A036",
"a 	c #81AB39",
"b 	c #88AF3B",
"c 	c #82AB39",
"d 	c #83AC39",
"e 	c #85AF3A",
"f 	c #8BB43C",
"g 	c #90B93E",
"h 	c #93BD3E",
"i 	c #8AB53C",
"j 	c #87B23C",
"k 	c #8FB93E",
"l 	c #93BB3E",
"m 	c #94BC3F",
"n 	c #81AC39",
"o 	c #000000",
"p 	c #8EB83E",
"q 	c #84AF3A",
"r 	c #7CA738",
"s 	c #8FB83E",
"t 	c #8CB43D",
"u 	c #89B23C",
"v 	c #89B43C",
"w 	c #95BE3F",
"x 	c #9AC140",
"y 	c #9CC040",
"z 	c #93BC3F",
"A 	c #8CB73D",
"B 	c #91BA3F",
"C 	c #94BD3F",
"D 	c #91BA3E",
"E 	c #8FB83D",
"F 	c #99BF40",
"G 	c #FFE700",
"H 	c #82AE3A",
"I 	c #78A436",
"J 	c #7FAB39",
"K 	c #7DA838",
"L 	c #8EB83D",
"M 	c #8DB63D",
"N 	c #89B23B",
"O 	c #88B23C",
"P 	c #93BD3F",
"Q 	c #8BB63D",
"R 	c #80AB3A",
"S 	c #80AC39",
"T 	c #85B13C",
"U 	c #82AC39",
"V 	c #7BA036",
"W 	c #81A638",
"X 	c #87B03B",
"Y 	c #87B13C",
"Z 	c #83AD3A",
"` 	c #7EA939",
" .	c #7DA638",
"..	c #7AA437",
"+.	c #7BA838",
"@.	c #82AE39",
"#.	c #77A337",
"$.	c #7BA336",
"%.	c #7FA437",
"&.	c #84AD3A",
"*.	c #85B03A",
"=.	c #77A437",
"-.	c #729E34",
";.	c #7AA236",
">.	c #8CB53D",
",.	c #8AB23C",
"'.	c #769933",
").	c #81A838",
"!.	c #89B53C",
"~.	c #7AA737",
"{.	c #8EB73C",
"].	c #78A437",
"^.	c #88B33B",
"/.	c #82AD39",
"(.	c #8CB33B",
"_.	c #8EB53D",
":.	c #75A237",
"<.	c #85AD3A",
"[.	c #8AB33C",
"}.	c #93B93E",
"|.	c #91B93D",
"1.	c #92BC3E",
"2.	c #94BE3F",
"3.	c #84B03B",
"4.	c #98BF40",
"5.	c #FFD100",
"6.	c #80AC3A",
"7.	c #83AF3A",
"8.	c #92BD3F",
"9.	c #90BA3E",
"0.	c #92BB3E",
"a.	c #97C040",
"b.	c #719F35",
"c.	c #FFFFFF",
"d.	c #8CB63C",
"e.	c #7EA838",
"f.	c #80A939",
"g.	c #8FBA3E",
"h.	c #7DA939",
"i.	c #81AD3A",
"j.	c #84B03A",
"k.	c #7CA737",
"l.	c #7CA938",
"m.	c #6F9D34",
"n.	c #719D35",
"o.	c #7FA537",
"p.	c #91BB3E",
"q.	c #82AE3B",
"r.	c #709B34",
"s.	c #7BA938",
"t.	c #6F9C35",
"u.	c #749C34",
"v.	c #759C34",
"w.	c #7AA336",
"x.	c #79A538",
"y.	c #83AF3B",
"z.	c #8CB33C",
"A.	c #93BA3E",
"B.	c #7FAA38",
"C.	c #8DB83E",
"D.	c #86AF3A",
"E.	c #8FB43C",
"F.	c #96BE3F",
"G.	c #8DB83D",
"H.	c #89B33C",
"I.	c #95BD3F",
"J.	c #85AF3B",
"K.	c #7DA839",
"L.	c #77A136",
"M.	c #7EA638",
"N.	c #79A336",
"O.	c #86AE3A",
"P.	c #789734",
"Q.	c #7C9E36",
"R.	c #7FAA3A",
"S.	c #90BA3D",
"T.	c #9ABF40",
"U.	c #96BD40",
"V.	c #80A637",
"W.	c #82A437",
"X.	c #76A437",
"Y.	c #7AA637",
"Z.	c #86B03B",
"`.	c #90B63C",
" +	c #98BB3F",
".+	c #97BE40",
"++	c #77A436",
"@+	c #86B13A",
"#+	c #8BB03A",
"$+	c #83AB39",
"%+	c #98C040",
"&+	c #99BE40",
"*+	c #91B93E",
"=+	c #7AA738",
"-+	c #799B34",
";+	c #7A9E34",
">+	c #98C140",
",+	c #92BC3F",
"'+	c #80AD39",
")+	c #82AC3A",
"!+	c #749B34",
"~+	c #7EA236",
"{+	c #82A938",
"]+	c #7BA236",
"^+	c #7EA537",
"/+	c #81AA39",
"(+	c #7DA236",
"_+	c #7EA337",
":+	c #74A035",
"<+	c #7DA336",
"[+	c #84A938",
"}+	c #8EB93E",
"|+	c #779F35",
"1+	c #769E35",
"2+	c #83A838",
"3+	c #8BB63C",
"4+	c #8AB33B",
"5+	c #84AE3B",
"6+	c #89B13B",
"7+	c #7DA738",
"8+	c #8FB63D",
"9+	c #88B13B",
"0+	c #89B03B",
"a+	c #87B03C",
"b+	c #89B43D",
"c+	c #8CB53C",
"d+	c #91BB3F",
"e+	c #96BF3F",
"f+	c #8EB63D",
"g+	c #88B03B",
"h+	c #F6E000",
"i+	c #8EB73E",
"j+	c #719E34",
"k+	c #79A537",
"l+	c #84AB39",
"m+	c #7EAB39",
"n+	c #7DA135",
"o+	c #7DA337",
"p+	c #7EA938",
"q+	c #7BA537",
"r+	c #8FB73D",
"s+	c #95BE40",
"t+	c #729C34",
"u+	c #90B83E",
"v+	c #87AF3B",
". + @ # $ % & * = - ; > , ' @ ) ! ~ ! { ] ) ^ / . + @ # $ % & * = - ; > , ' @ ) ! ~ ! { ] ) ^ / ",
"( _ : < { ! [ } | 1 2 3 @ 4 5 $ 3 1 | 6 7 8 6 9 ( _ : < { ! [ } | 1 2 3 @ 4 5 $ 3 1 | 6 7 8 6 9 ",
"0 a b c ! d e f g h i j k 6 l m n * o o o o o o o o o o o o o f g h i j k 6 l m n * p q r 5 # 8 ",
"j s t u v 1 w x y z A B C D E F D * o G G G G G G G G G G G o x y z A B C D E F D * H v I J $ K ",
"] w | 3 L M N v | m k g p k O v P Q o G G G G G G G G G G G o v | m k g p k O v P Q 4 R S p L ) ",
"k T 5 & U V W X # O i Y Z S ` : J  .o o o o o o o o o o o o o X # O i Y Z S ` : J  ...+.$ A @.; ",
"% #.) $ $.%.&., { *.6 =.-.;.- >.,.'.).L !.H ~.{.% #.) $ $.%.&., { *.6 =.-.;.- >.,.'.).L !.H ~.{.",
"].#.^./.(._.o r = + $ :.~ <.<.[.}.|.1.2.D 6 ) M ].#.^./.(._.9 r = + $ :.~ <.<.[.}.|.1.2.D 6 ) M ",
"v 3.*.L 4.o 5.o { 8 6.7.{ | v v 6 8.9.: 6 z 0.3 v 3.*.L 4.4.a.1.{ 8 6.7.{ | v v 6 o 9.: 6 z 0.3 ",
"B ].b.i o 5.c.5.o f # { d./ e.f.3.i = ~ v 7 v k B ].b.i ! *.g.A i f # { d./ e.f.o 5.o ~ v 7 v k ",
"{ H h.i.H o 5.o q # A j.+.k.o o o o l.8 m.n.O 9.{ H h.i.H 7.q o o o o j.+.k.o.o 5.5.5.o m.n.O 9.",
"` K d.>.9.z o v p.g 3 q.4 r.o G G o s.t.u.v.w.' ` K d.>.9.z j o G G o q.4 r.o 5.5.5.c.5.o v.w.' ",
"x.j w | / 9.6 3 | k H y./ y.o G G o ! K z.A.L ! x.j w | / 9.6 o G G o y./ y.B.o 5.5.5.o z.A.L ! ",
"C.s p ) S &.' # D.5 3.e E.F.o G G o G.d.i H.v E C.s p ) S &.' o G G o e E.F.k I.o 5.o d.i H.v E ",
"! J.7 K.$ L.M.H.N...O.P.Q.E o G G o v 7.5 R.8 6 ! J.7 K.$ L.M.o G G o P.Q.E S.T.U.o v 7.5 R.8 6 ",
"q / Q H # & u.+.| 6 V.W.' X.o G G o | ) J Y._ Z.q / Q H # & u.o G G o W.' X.3.G.0.g | ) J Y._ Z.",
"Y.@ / q ) | `. +.+p b ' Q / o G G o 2 ++H @+l.i Y.@ / q ) | #+o G G o ' Q / 2.[.$+| 2 ++H @+l.i ",
"Z.1 L C . 9 %+&+*+^.Z.J L o o G G o o d.a.k = =+Z.1 L C . 9 o o G G o o L a.O.-+;+< ) d.a.k = =+",
"B >+,+g B D H.'+a /.)++ *.o o G G o o o Y 4 a $ B >+,+g B o o o G G o o *.e.!+~+{+]+^+i Y 4 a $ ",
"Q L D 1 ' a o./+U (+_+:+o G o G G o G o o <+[+}+Q L D 1 o o G o G G o G o < <.|+1+2+W : :.<+[+}+",
"n 1 L 3+n = U $+4+Z.u.o o G o G G o G G o o o o o o o o o G G o G G o G o o ; 5+.+*+6+7+< 8+9+) ",
"6 g i 8 7 0+a+b+c+6.r o G G o G G o G G G G G G G G G G G G G o G G o G G o q.C H.d+e+H.f+0.m | ",
",+) 7 ) k / E A l.# g+o G G o G G o G G G G G G G G G G G G h+o G G o G G o i v v | Z.' E . i+| ",
"L + K Z.@ j l.].j+k+l+o G o o G G o o G G G G G G G G G G G o o G G o o G o J 3 L 5 b.m+' H J 6.",
". + @ # $ % & * = - ; o G o G G G G o o G G G G G G G G G o o G G G G o G o @ ) ! ~ ! { ] ) ^ / ",
"( _ : < { ! [ } | 1 2 o o G G G G G G o o G G G G G G G o o G G G G G G o o 5 $ 3 1 | 6 7 8 6 9 ",
"0 a b c ! d e f g h i o o G G G G G G G o o o o o o o o o G G G G G G G o o l m n * p q r 5 # 8 ",
"j s t u v 1 w x y z A o G G G G G G G G G G G G G G G G G G G G G G G G G o E F D * H v I J $ K ",
"] w | 3 L M N v | m k o G G G G G G G G G G G G G G G G G G G G G G G G G o O v P Q 4 R S p L ) ",
"k T 5 & U V W X # O i o G G G G G G G G G G G G G G G G G G G G G G G G G o ` : o o o o $ A @.; ",
"% #.) $ $.%.&., { *.6 o G G G G G G G G G G G G G G G G G G G G G G G G G o - >.o G G o !.H ~.{.",
"].#.^./.(._.9 r = + $ o G G G G G G G G G G G G G G G G G G G G G G G G G o <.[.o G G o D 6 ) M ",
"v 3.*.L 4.4.a.1.{ 8 6.o G G G G G G G G G G G G G G G G G G G G G G G G G o v v o G G o 6 z 0.3 ",
"B ].b.i ! *.g.A i f # o G G G G G G G G G G G G G G G G G G G G G G G G G o e.f.o G G o v 7 v k ",
"{ H h.i.H o q v q # A o G G G G G G G G G G G G G G G G G G G G G G G G G o o.n+o o o o m.n.O 9.",
"` K d.>.o 5.o v p.g 3 o G G G G G G G G G G G G G G G G G G G G G G G G G o o.o+$.p+s.t.u.v.w.' ",
"x.j w o 5.5.5.o | k H o G G G G G G G G G G G G G G G G G G G G G G G G G o B.q+r+D ! K z.A.L ! ",
"C.s o 5.5.5.c.5.o 5 3.o G G G G G G G G G G G G G G G G G G G G G G G G G o k I.s+p.G.d.i H.v E ",
"! J.7 o 5.5.5.o N...O.o G G G G G G G G G G G G G G G G G G G G G G G G G o S.T.U.H.v 7.5 R.8 6 ",
"q / Q H o 5.o +.| 6 V.o G G G G G G G G G G G G G G G G G G G G G G G G G o 3.G.0.g | ) J Y._ Z.",
"Y.@ / q ) o `. +.+p b o G G G G G G G G G G G G G G G G G G G G G G G G G o 2.[.$+| 2 ++H @+l.i ",
"Z.1 L C . 9 %+&+*+^.Z.o G G G G G G G G G G G G G G G G G G G G G G G G G o O.-+;+< ) d.a.k = =+",
"B >+,+g B D H.'+a /.)++ o G G G G G G G G G G G G G G G G G G G G G G G o e.!+~+{+]+^+i Y 4 a $ ",
"Q L D 1 ' a o./+U (+_+:+m.o G G G G G G G G G G G G G G G G G G G G G o m.< <.|+1+2+W : :.<+[+}+",
"n 1 L 3+n = U $+4+Z.u.t+j u+o o o o o o o o o o o o o o o o o o o o o t+j u+; 5+.+*+6+7+< 8+9+) ",
"6 g i 8 7 0+a+b+c+6.r >.,+* q.C H.d+e+H.f+0.m | 6 g i 8 7 0+a+b+c+6.r >.,+* q.C H.d+e+H.f+0.m | ",
",+) 7 ) k / E A l.# g+v+& : i v v | Z.' E . i+| ,+) 7 ) k / E A l.# g+v+& : i v v | Z.' E . i+| ",
"L + K Z.@ j l.].j+k+l+%.).f J 3 L 5 b.m+' H J 6.L + K Z.@ j l.].j+k+l+%.).f J 3 L 5 b.m+' H J 6."};
