/* XPM */
static char * YCombi2_xpm[] = {
"48 48 246 2",
"  	c None",
". 	c #8FB93D",
"+ 	c #85B13B",
"@ 	c #7EAA39",
"# 	c #86B13B",
"$ 	c #83AE3A",
"% 	c #8BB53D",
"& 	c #84AE3A",
"* 	c #7FAA39",
"= 	c #7DA938",
"- 	c #7FA838",
"; 	c #88B23B",
"> 	c #85AE3A",
", 	c #83AC3A",
"' 	c #87B13B",
") 	c #85B03B",
"! 	c #80AB39",
"~ 	c #7BA738",
"{ 	c #88B33C",
"] 	c #8AB53D",
"^ 	c #7EAA38",
"/ 	c #8CB63D",
"( 	c #7AA537",
"_ 	c #78A537",
": 	c #82AD3A",
"< 	c #7FA938",
"[ 	c #749D34",
"} 	c #7CA638",
"| 	c #8DB73D",
"1 	c #8EB73D",
"2 	c #86B23B",
"3 	c #87B23B",
"4 	c #75A236",
"5 	c #7CA838",
"6 	c #8AB43C",
"7 	c #84AF3B",
"8 	c #81AC3A",
"9 	c #92BB3F",
"0 	c #73A036",
"a 	c #81AB39",
"b 	c #88AF3B",
"c 	c #82AB39",
"d 	c #83AC39",
"e 	c #85AF3A",
"f 	c #8BB43C",
"g 	c #90B93E",
"h 	c #93BD3E",
"i 	c #8AB53C",
"j 	c #87B23C",
"k 	c #8FB93E",
"l 	c #93BB3E",
"m 	c #94BC3F",
"n 	c #81AC39",
"o 	c #000000",
"p 	c #8EB83E",
"q 	c #84AF3A",
"r 	c #7CA738",
"s 	c #8FB83E",
"t 	c #8CB43D",
"u 	c #89B23C",
"v 	c #89B43C",
"w 	c #95BE3F",
"x 	c #9AC140",
"y 	c #9CC040",
"z 	c #93BC3F",
"A 	c #8CB73D",
"B 	c #91BA3F",
"C 	c #94BD3F",
"D 	c #91BA3E",
"E 	c #8FB83D",
"F 	c #99BF40",
"G 	c #FFE700",
"H 	c #82AE3A",
"I 	c #78A436",
"J 	c #7FAB39",
"K 	c #7DA838",
"L 	c #8EB83D",
"M 	c #8DB63D",
"N 	c #89B23B",
"O 	c #88B23C",
"P 	c #93BD3F",
"Q 	c #8BB63D",
"R 	c #80AB3A",
"S 	c #80AC39",
"T 	c #85B13C",
"U 	c #82AC39",
"V 	c #7BA036",
"W 	c #81A638",
"X 	c #87B03B",
"Y 	c #87B13C",
"Z 	c #83AD3A",
"` 	c #7EA939",
" .	c #7DA638",
"..	c #7AA437",
"+.	c #7BA838",
"@.	c #82AE39",
"#.	c #77A337",
"$.	c #7BA336",
"%.	c #7FA437",
"&.	c #85B03A",
"*.	c #77A437",
"=.	c #729E34",
"-.	c #7AA236",
";.	c #8CB53D",
">.	c #8AB23C",
",.	c #769933",
"'.	c #81A838",
").	c #89B53C",
"!.	c #7AA737",
"~.	c #8EB73C",
"{.	c #84AD3A",
"].	c #78A437",
"^.	c #88B33B",
"/.	c #82AD39",
"(.	c #8CB33B",
"_.	c #FFD100",
":.	c #75A237",
"<.	c #85AD3A",
"[.	c #8AB33C",
"}.	c #93B93E",
"|.	c #91B93D",
"1.	c #92BC3E",
"2.	c #94BE3F",
"3.	c #8EB53D",
"4.	c #84B03B",
"5.	c #80AC3A",
"6.	c #83AF3A",
"7.	c #92BD3F",
"8.	c #90BA3E",
"9.	c #92BB3E",
"0.	c #98BF40",
"a.	c #97C040",
"b.	c #719F35",
"c.	c #FFFFFF",
"d.	c #8CB63C",
"e.	c #7EA838",
"f.	c #80A939",
"g.	c #8FBA3E",
"h.	c #7DA939",
"i.	c #81AD3A",
"j.	c #84B03A",
"k.	c #7CA737",
"l.	c #7CA938",
"m.	c #6F9D34",
"n.	c #719D35",
"o.	c #7FA537",
"p.	c #7DA135",
"q.	c #80A838",
"r.	c #7AA738",
"s.	c #91BB3E",
"t.	c #82AE3B",
"u.	c #709B34",
"v.	c #7BA938",
"w.	c #6F9C35",
"x.	c #749C34",
"y.	c #759C34",
"z.	c #7AA336",
"A.	c #7DA337",
"B.	c #79A538",
"C.	c #83AF3B",
"D.	c #8CB33C",
"E.	c #93BA3E",
"F.	c #7FAA38",
"G.	c #7BA537",
"H.	c #8DB83E",
"I.	c #86AF3A",
"J.	c #8FB43C",
"K.	c #96BE3F",
"L.	c #8DB83D",
"M.	c #89B33C",
"N.	c #95BD3F",
"O.	c #95BE40",
"P.	c #85AF3B",
"Q.	c #7DA839",
"R.	c #77A136",
"S.	c #7EA638",
"T.	c #79A336",
"U.	c #86AE3A",
"V.	c #789734",
"W.	c #7C9E36",
"X.	c #7FAA3A",
"Y.	c #90BA3D",
"Z.	c #9ABF40",
"`.	c #96BD40",
" +	c #80A637",
".+	c #82A437",
"++	c #76A437",
"@+	c #7AA637",
"#+	c #86B03B",
"$+	c #90B63C",
"%+	c #98BB3F",
"&+	c #97BE40",
"*+	c #77A436",
"=+	c #86B13A",
"-+	c #8BB03A",
";+	c #83AB39",
">+	c #98C040",
",+	c #99BE40",
"'+	c #91B93E",
")+	c #799B34",
"!+	c #7A9E34",
"~+	c #98C140",
"{+	c #92BC3F",
"]+	c #80AD39",
"^+	c #82AC3A",
"/+	c #749B34",
"(+	c #7EA236",
"_+	c #82A938",
":+	c #7BA236",
"<+	c #7EA537",
"[+	c #81AA39",
"}+	c #7DA236",
"|+	c #7EA337",
"1+	c #74A035",
"2+	c #7DA336",
"3+	c #84A938",
"4+	c #8EB93E",
"5+	c #779F35",
"6+	c #769E35",
"7+	c #83A838",
"8+	c #8BB63C",
"9+	c #8AB33B",
"0+	c #84AE3B",
"a+	c #89B13B",
"b+	c #7DA738",
"c+	c #8FB63D",
"d+	c #88B13B",
"e+	c #89B03B",
"f+	c #87B03C",
"g+	c #89B43D",
"h+	c #8CB53C",
"i+	c #91BB3F",
"j+	c #96BF3F",
"k+	c #8EB63D",
"l+	c #88B03B",
"m+	c #F6E000",
"n+	c #8EB73E",
"o+	c #719E34",
"p+	c #79A537",
"q+	c #84AB39",
"r+	c #7EAB39",
"s+	c #7EA938",
"t+	c #8FB73D",
"u+	c #729C34",
"v+	c #90B83E",
"w+	c #87AF3B",
". + @ # $ % & * = - ; > , ' @ ) ! ~ ! { ] ) ^ / . + @ # $ % & * = - ; > , ' @ ) ! ~ ! { ] ) ^ / ",
"( _ : < { ! [ } | 1 2 3 @ 4 5 $ 3 1 | 6 7 8 6 9 ( _ : < { ! [ } | 1 2 3 @ 4 5 $ 3 1 | 6 7 8 6 9 ",
"0 a b c ! d e f g h i j k 6 l m n * o o o o o o o o o o o o o f g h i j k 6 l m n * p q r 5 # 8 ",
"j s t u v 1 w x y z A B C D E F D * o G G G G G G G G G G G o x y z A B C D E F D * H v I J $ K ",
"] w | 3 L M N v | m k g p k O v P Q o G G G G G G G G G G G o v | m k g p k O v P Q 4 R S p L ) ",
"k T 5 & U V W X # O i Y Z S ` : J  .o o o o o o o o o o o o o X # O i Y Z S ` : J  ...+.$ A @.; ",
"% #.) $ $.%.o , { &.6 *.=.-.- ;.>.,.'.L ).H !.~.% #.) $ $.%.{., { &.6 *.=.-.- ;.>.,.'.L ).H !.~.",
"].#.^./.(.o _.o = + $ :.~ <.<.[.}.|.1.2.D 6 ) M ].#.^./.(.3.9 r = + $ :.~ <.<.[.}.|.1.2.D 6 ) M ",
"v 4.&.L o _._._.o 8 5.6.{ | v v 6 7.8.: 6 z 9.3 v 4.&.L 0.0.a.1.{ 8 5.6.{ | v v 6 7.8.: 6 z 9.3 ",
"B ].b.o _._._.c._.o # { d./ e.f.4.i = ~ v 7 v k B ].b.i ! &.g.A i f # { d./ e.f.4.i = ~ v 7 v k ",
"{ H h.i.o _._._.o # A j.+.k.o o o o l.8 m.n.O 8.{ H h.i.H 6.q o o o o j.+.k.o.p.q.r.o 8 m.n.O 8.",
"` K d.;.8.o _.o s.g 3 t.4 u.o G G o v.w.x.y.z.' ` K d.;.8.z j o G G o t.4 u.o.A.$.o _.o x.y.z.' ",
"B.j w | / 8.o 3 | k H C./ C.o G G o ! K D.E.L ! B.j w | / 8.6 o G G o C./ C.F.G.o _.c._.o E.L ! ",
"H.s p ) S {.' # I.5 4.e J.K.o G G o L.d.i M.v E H.s p ) S {.' o G G o e J.K.k N.O.o _.o i M.v E ",
"! P.7 Q.$ R.S.M.T...U.V.W.E o G G o v 6.5 X.8 6 ! P.7 Q.$ R.S.o G G o V.W.E Y.Z.`.M.o 6.5 X.8 6 ",
"q / Q H # & x.+.| 6  +.+' ++o G G o | ) J @+_ #+q / Q H # & x.o G G o .+' ++4.L.9.g | ) J @+_ #+",
"@+@ / q ) | $+%+&+p b ' Q / o G G o 2 *+H =+l.i @+@ / q ) | -+o G G o ' Q / 2.[.;+| 2 *+H =+l.i ",
"#+1 L C . 9 >+,+'+^.#+J L o o G G o o d.a.k = r.#+1 L C . 9 o o G G o o L a.U.)+!+< ) d.a.k = r.",
"B ~+{+g B D M.]+a /.^++ &.o o G G o o o Y 4 a $ B ~+{+g B o o o G G o o &.e./+(+_+:+<+i Y 4 a $ ",
"Q L D 1 ' a o.[+U }+|+1+o G o G G o G o o 2+3+4+Q L D 1 o o G o G G o G o < <.5+6+7+W : :.2+3+4+",
"n 1 L 8+n = U ;+9+#+x.o o G o G G o G G o o o o o o o o o G G o G G o G o o ; 0+&+'+a+b+< c+d+) ",
"6 g i 8 7 e+f+g+h+5.r o G G o G G o G G G G G G G G G G G G G o G G o G G o t.C M.i+j+M.k+9.m | ",
"{+) 7 ) k / E A l.# l+o G G o G G o G G G G G G G G G G G G m+o G G o G G o i v v | #+' E . n+| ",
"L + K #+@ j l.].o+p+q+o G o o G G o o G G G G G G G G G G G o o G G o o G o J 3 L 5 b.r+' H J 5.",
". + @ # $ % & * = - ; o G o G G G G o o G G G G G G G G G o o G G G G o G o @ ) ! ~ ! { ] ) ^ / ",
"( _ : < { ! [ } | 1 2 o o G G G G G G o o G G G G G G G o o G G G G G G o o 5 $ 3 1 | 6 7 8 6 9 ",
"0 a b c ! d e f g h i o o G G G G G G G o o o o o o o o o G G G G G G G o o l m n * p q r 5 # 8 ",
"j s t u v 1 w x y z A o G G G G G G G G G G G G G G G G G G G G G G G G G o E F D * H v I J $ K ",
"] w | 3 L M N v | m k o G G G G G G G G G G G G G G G G G G G G G G G G G o O v P Q 4 R S p L ) ",
"k T 5 & U V W X # O i o G G G G G G G G G G G G G G G G G G G G G G G G G o ` : o o o o $ A @.; ",
"% #.) $ $.%.{., { &.6 o G G G G G G G G G G G G G G G G G G G G G G G G G o - ;.o G G o ).H !.~.",
"].#.^./.(.3.9 r = + $ o G G G G G G G G G G G G G G G G G G G G G G G G G o <.[.o G G o D 6 ) M ",
"v 4.&.L 0.0.a.1.{ 8 5.o G G G G G G G G G G G G G G G G G G G G G G G G G o v v o G G o 6 z 9.3 ",
"B ].b.i ! &.g.o i f # o G G G G G G G G G G G G G G G G G G G G G G G G G o e.f.o G G o v 7 v k ",
"{ H h.i.H 6.o _.o # A o G G G G G G G G G G G G G G G G G G G G G G G G G o o.p.o o o o m.n.O 8.",
"` K d.;.8.o _.c._.o 3 o G G G G G G G G G G G G G G G G G G G G G G G G G o o.A.$.s+v.w.x.y.z.' ",
"B.j w | / 8.o _.o k H o G G G G G G G G G G G G G G G G G G G G G G G G G o F.G.t+D ! K D.E.L ! ",
"H.s p ) S {.' o I.5 4.o G G G G G G G G G G G G G G G G G G G G G G G G G o k N.O.s.L.d.i M.v E ",
"! P.7 Q.$ R.S.M.T...U.o G G G G G G G G G G G G G G G G G G G G G G G G G o Y.Z.`.M.v 6.5 X.8 6 ",
"q / Q H # & x.+.| 6  +o G G G G G G G G G G G G G G G G G G G G G G G G G o 4.L.9.g | ) J @+_ #+",
"@+@ / q ) | $+%+&+p b o G G G G G G G G G G G G G G G G G G G G G G G G G o 2.[.;+| 2 *+H =+l.i ",
"#+1 L C . 9 >+,+'+^.#+o G G G G G G G G G G G G G G G G G G G G G G G G G o U.)+!+< ) d.a.k = r.",
"B ~+{+g B D M.]+a /.^++ o G G G G G G G G G G G G G G G G G G G G G G G o e./+(+_+:+<+i Y 4 a $ ",
"Q L D 1 ' a o.[+U }+|+1+m.o G G G G G G G G G G G G G G G G G G G G G o m.< <.5+6+7+W : :.2+3+4+",
"n 1 L 8+n = U ;+9+#+x.u+j v+o o o o o o o o o o o o o o o o o o o o o u+j v+; 0+&+'+a+b+< c+d+) ",
"6 g i 8 7 e+f+g+h+5.r ;.{+* t.C M.i+j+M.k+9.m | 6 g i 8 7 e+f+g+h+5.r ;.{+* t.C M.i+j+M.k+9.m | ",
"{+) 7 ) k / E A l.# l+w+& : i v v | #+' E . n+| {+) 7 ) k / E A l.# l+w+& : i v v | #+' E . n+| ",
"L + K #+@ j l.].o+p+q+%.'.f J 3 L 5 b.r+' H J 5.L + K #+@ j l.].o+p+q+%.'.f J 3 L 5 b.r+' H J 5."};
