/* XPM */
static char * BFlowerConso_xpm[] = {
"48 48 249 2",
"  	c None",
". 	c #8FB93D",
"+ 	c #85B13B",
"@ 	c #7EAA39",
"# 	c #86B13B",
"$ 	c #83AE3A",
"% 	c #8BB53D",
"& 	c #84AE3A",
"* 	c #7FAA39",
"= 	c #7DA938",
"- 	c #7FA838",
"; 	c #88B23B",
"> 	c #85AE3A",
", 	c #83AC3A",
"' 	c #87B13B",
") 	c #85B03B",
"! 	c #80AB39",
"~ 	c #7BA738",
"{ 	c #88B33C",
"] 	c #8AB53D",
"^ 	c #7EAA38",
"/ 	c #8CB63D",
"( 	c #7AA537",
"_ 	c #78A537",
": 	c #82AD3A",
"< 	c #7FA938",
"[ 	c #749D34",
"} 	c #7CA638",
"| 	c #8DB73D",
"1 	c #8EB73D",
"2 	c #86B23B",
"3 	c #87B23B",
"4 	c #75A236",
"5 	c #7CA838",
"6 	c #8AB43C",
"7 	c #84AF3B",
"8 	c #81AC3A",
"9 	c #92BB3F",
"0 	c #73A036",
"a 	c #81AB39",
"b 	c #88AF3B",
"c 	c #82AB39",
"d 	c #83AC39",
"e 	c #85AF3A",
"f 	c #8BB43C",
"g 	c #90B93E",
"h 	c #93BD3E",
"i 	c #8AB53C",
"j 	c #87B23C",
"k 	c #8FB93E",
"l 	c #93BB3E",
"m 	c #94BC3F",
"n 	c #81AC39",
"o 	c #8EB83E",
"p 	c #84AF3A",
"q 	c #7CA738",
"r 	c #8FB83E",
"s 	c #8CB43D",
"t 	c #89B23C",
"u 	c #89B43C",
"v 	c #95BE3F",
"w 	c #9AC140",
"x 	c #9CC040",
"y 	c #93BC3F",
"z 	c #8CB73D",
"A 	c #91BA3F",
"B 	c #94BD3F",
"C 	c #91BA3E",
"D 	c #8FB83D",
"E 	c #99BF40",
"F 	c #82AE3A",
"G 	c #78A436",
"H 	c #7FAB39",
"I 	c #7DA838",
"J 	c #8EB83D",
"K 	c #8DB63D",
"L 	c #89B23B",
"M 	c #88B23C",
"N 	c #000000",
"O 	c #8BB63D",
"P 	c #80AB3A",
"Q 	c #80AC39",
"R 	c #93BD3F",
"S 	c #85B13C",
"T 	c #82AC39",
"U 	c #7BA036",
"V 	c #81A638",
"W 	c #87B03B",
"X 	c #87B13C",
"Y 	c #83AD3A",
"Z 	c #7EA939",
"` 	c #FFFFFF",
" .	c #7AA437",
"..	c #7BA838",
"+.	c #82AE39",
"@.	c #7DA638",
"#.	c #77A337",
"$.	c #7BA336",
"%.	c #7FA437",
"&.	c #84AD3A",
"*.	c #85B03A",
"=.	c #77A437",
"-.	c #729E34",
";.	c #81A838",
">.	c #709530",
",.	c #7AA737",
"'.	c #8EB73C",
").	c #7AA236",
"!.	c #8CB53D",
"~.	c #8AB23C",
"{.	c #769933",
"].	c #89B53C",
"^.	c #78A437",
"/.	c #88B33B",
"(.	c #82AD39",
"_.	c #8CB33B",
":.	c #8EB53D",
"<.	c #75A237",
"[.	c #85AD3A",
"}.	c #8AB33C",
"|.	c #93B93E",
"1.	c #91B93D",
"2.	c #92BC3E",
"3.	c #94BE3F",
"4.	c #84B03B",
"5.	c #98BF40",
"6.	c #97C040",
"7.	c #80AC3A",
"8.	c #83AF3A",
"9.	c #92BB3E",
"0.	c #92BD3F",
"a.	c #90BA3E",
"b.	c #719F35",
"c.	c #8FBA3E",
"d.	c #759831",
"e.	c #8CB63C",
"f.	c #7EA838",
"g.	c #80A939",
"h.	c #7DA939",
"i.	c #81AD3A",
"j.	c #FFD100",
"k.	c #84B03A",
"l.	c #7CA737",
"m.	c #7FA537",
"n.	c #7DA135",
"o.	c #80A838",
"p.	c #7AA738",
"q.	c #7CA938",
"r.	c #6F9D34",
"s.	c #719D35",
"t.	c #91BB3E",
"u.	c #6E912F",
"v.	c #7DA337",
"w.	c #7EA938",
"x.	c #7BA938",
"y.	c #6F9C35",
"z.	c #749C34",
"A.	c #759C34",
"B.	c #7AA336",
"C.	c #79A538",
"D.	c #7BA537",
"E.	c #8FB73D",
"F.	c #8CB33C",
"G.	c #93BA3E",
"H.	c #8DB83E",
"I.	c #CFBA4A",
"J.	c #86AF3A",
"K.	c #95BE40",
"L.	c #8DB83D",
"M.	c #89B33C",
"N.	c #85AF3B",
"O.	c #7DA839",
"P.	c #77A136",
"Q.	c #7EA638",
"R.	c #79A336",
"S.	c #9ABF40",
"T.	c #96BD40",
"U.	c #7FAA3A",
"V.	c #86B03B",
"W.	c #80A637",
"X.	c #7AA637",
"Y.	c #90B63C",
"Z.	c #98BB3F",
"`.	c #97BE40",
" +	c #83AB39",
".+	c #77A436",
"++	c #86B13A",
"@+	c #98C040",
"#+	c #99BE40",
"$+	c #91B93E",
"%+	c #86AE3A",
"&+	c #799B34",
"*+	c #7A9E34",
"=+	c #98C140",
"-+	c #92BC3F",
";+	c #80AD39",
">+	c #82AC3A",
",+	c #31D600",
"'+	c #749B34",
")+	c #7EA236",
"!+	c #82A938",
"~+	c #7BA236",
"{+	c #7EA537",
"]+	c #81AA39",
"^+	c #7DA236",
"/+	c #7EA337",
"(+	c #74A035",
"_+	c #779F35",
":+	c #769E35",
"<+	c #83A838",
"[+	c #7DA336",
"}+	c #84A938",
"|+	c #8EB93E",
"1+	c #8BB63C",
"2+	c #8AB33B",
"3+	c #729C34",
"4+	c #89B13B",
"5+	c #90B83E",
"6+	c #84AE3B",
"7+	c #7DA738",
"8+	c #8FB63D",
"9+	c #88B13B",
"0+	c #89B03B",
"a+	c #87B03C",
"b+	c #89B43D",
"c+	c #8CB53C",
"d+	c #82AE3B",
"e+	c #96BF3F",
"f+	c #8EB63D",
"g+	c #91BB3F",
"h+	c #88B03B",
"i+	c #87AF3B",
"j+	c #8EB73E",
"k+	c #719E34",
"l+	c #79A537",
"m+	c #84AB39",
"n+	c #7EAB39",
"o+	c #709B34",
"p+	c #83AF3B",
"q+	c #7FAA38",
"r+	c #8FB43C",
"s+	c #96BE3F",
"t+	c #95BD3F",
"u+	c #789734",
"v+	c #7C9E36",
"w+	c #90BA3D",
"x+	c #39D507",
"y+	c #82A437",
"z+	c #76A437",
". + @ # $ % & * = - ; > , ' @ ) ! ~ ! { ] ) ^ / . + @ # $ % & * = - ; > , ' @ ) ! ~ ! { ] ) ^ / ",
"( _ : < { ! [ } | 1 2 3 @ 4 5 $ 3 1 | 6 7 8 6 9 ( _ : < { ! [ } | 1 2 3 @ 4 5 $ 3 1 | 6 7 8 6 9 ",
"0 a b c ! d e f g h i j k 6 l m n * o p q 5 # 8 0 a b c ! d e f g h i j k 6 l m n * o p q 5 # 8 ",
"j r s t u 1 v w x y z A B C D E C * F u G H $ I j r s t u 1 v w x y z A B C D E C * F u G H $ I ",
"] v | 3 J K L u | m k g o k M u N O 4 P Q o J ) ] v | 3 J K L u | m k g o k M u R O 4 P Q o J ) ",
"k S 5 & T U V W # M i X Y Q Z N ` N  ...$ z +.; k S 5 & T U V W # M i X Y Q Z : H @. ...$ z +.; ",
"% #.) $ $.%.&., { *.6 =.-.N - ` ` ` ;.N >.F ,.'.% #.) $ $.%.&., { *.6 =.-.).- !.~.{.;.J ].F ,.'.",
"^.#./.(._.:.9 q = + $ <.N ` N ` ` ` N ` N 6 ) K ^.#./.(._.:.9 q = + $ <.~ [.[.}.|.1.2.3.C 6 ) K ",
"u 4.*.J 5.5.6.2.{ 8 7.8.N ` ` N ` N ` ` N y 9.3 u 4.*.J 5.5.6.2.{ 8 7.8.{ | u u 6 0.a.: 6 y 9.3 ",
"A ^.b.i ! *.c.z i f N N N ` ` ` N ` ` ` N N N d.A ^.b.i ! *.c.z i f # { e./ f.g.4.i = ~ u 7 u k ",
"{ F h.i.F 8.p u p N ` ` ` N ` N j.N ` N ` ` ` N { F h.i.F 8.p u p # z k.N l.m.n.o.p.q.8 r.s.M a.",
"Z I e.!.a.y j u t.g N ` ` ` N j.j.j.N ` ` ` N u.Z I e.!.a.y j u t.g 3 N j.N m.v.$.w.x.y.z.A.B.' ",
"C.j v | / a.6 3 N ` ` N ` N j.j.j.j.j.N ` N ` ` N j v | / a.6 3 | k N j.j.j.N D.E.C ! I F.G.J ! ",
"H.r o ) Q &.' N ` ` ` ` N j.j.j.I.j.j.j.N ` ` ` ` N o ) Q &.' # J.N j.j.j.` j.N K.t.L.e.i M.u D ",
"! N.7 O.$ P.Q.M.N ` ` N ` N j.j.j.j.j.N ` N ` ` N N.7 O.$ P.Q.M.R. .N j.j.j.N S.T.M.u 8.5 U.8 6 ",
"p / O F # & z...| 6 N ` ` ` N j.j.j.N ` ` ` N V.p / O F # & z...| 6 W.N j.N 4.L.9.g | ) H X._ V.",
"X.@ / p ) | Y.Z.`.N ` ` ` N ` N j.N ` N ` ` ` N X.@ / p ) | Y.Z.`.o b ' N / 3.}. +| 2 .+F ++q.i ",
"V.1 J B . 9 @+#+$+/.N N N ` ` ` N ` ` ` N N N p.V.1 J B . 9 @+#+$+/.V.H J 6.%+&+*+< ) e.6.k = p.",
"A =+-+g A C M.;+a (.>++ N ` ` N ` N ` ` N ,+N $ A =+-+g A C M.;+a (.>++ *.f.'+)+!+~+{+i X 4 a $ ",
"O J C 1 ' a m.]+T ^+/+(+N ` N ` ` ` N ` N ,+,+N O J C 1 ' a m.]+T ^+/+(+r.< [._+:+<+V : <.[+}+|+",
"n 1 J 1+n = T  +2+V.z.3+j N ; ` ` ` 4+N < N ,+,+N 1 J 1+n = T  +2+V.z.3+j 5+; 6+`.$+4+7+< 8+9+) ",
"6 g i 8 7 0+a+b+c+7.q !.-+* d+N ` N e+M.f+9.N ,+N g i 8 7 0+a+b+c+7.q !.-+* d+B M.g+e+M.f+9.m | ",
"-+) 7 ) k / D z q.# h+i+& : i u N | V.' D . N ,+N ) 7 ) N N D z q.# h+i+& : i u u | V.' D . j+| ",
"J + I V.@ j q.^.k+l+m+%.;.f H 3 J 5 b.n+' F N ,+N + I N ,+,+N ^.k+l+m+%.;.f H 3 J 5 b.n+' F H 7.",
". + @ # $ % & * = - ; > , ' @ ) ! ~ ! { ] ) N ,+N + N ,+,+,+N * = - ; > , ' @ ) ! ~ ! { ] ) ^ / ",
"( _ : < { ! [ } | 1 2 3 @ 4 5 $ 3 1 | 6 7 8 N ,+N _ N ,+,+N [ } | 1 2 3 @ 4 5 $ 3 1 | 6 7 8 6 9 ",
"0 a b c ! d e f g h i j k 6 l m n * o p q 5 N ,+N a N N N d e f g h i j k 6 l m n * o p q 5 # 8 ",
"j r s t u 1 v w x y z A B C D E C N N u G H N ,+N N s t u 1 v w x y z A B C D E C * F u G H $ I ",
"] v | 3 J K L u | m k g o k M u N ,+,+N Q o N ,+N v | 3 J K L u | m k g o k M u R O 4 P Q o J ) ",
"k S 5 & T U V W # M i X Y Q Z : N ,+,+,+N z N ,+N S 5 & T U V W # M i X Y Q Z : H @. ...$ z +.; ",
"% #.) $ $.%.&., { *.6 =.-.).- !.~.N ,+,+N F N ,+N #.) $ $.%.&., { *.6 =.-.).- !.~.{.;.J ].F ,.'.",
"^.#./.(._.:.9 q = + $ <.~ [.[.}.|.1.N N N 6 N ,+N #./.(._.:.9 q = + $ <.~ [.N }.|.1.2.3.C 6 ) K ",
"u 4.*.J 5.5.6.2.N 8 7.8.{ | u u 6 0.a.: 6 N N ,+N 4.*.J N N 6.2.{ 8 7.8.{ N j.N 6 0.a.: 6 y 9.3 ",
"A ^.b.i ! *.c.N j.N # { e./ f.g.4.i = ~ u 7 N ,+N ^.b.N ,+,+N z i f # { N j.` j.N i = ~ u 7 u k ",
"{ F h.i.F 8.N j.j.j.N k...l.m.n.o.p.q.8 r.s.N ,+N F N ,+,+,+N u p # z k...N j.N o.p.q.8 r.s.M a.",
"Z I e.!.a.N j.j.j.` j.N 4 o+m.v.$.N N y.z.A.N ,+N I N ,+,+N j u t.g 3 d+4 o+N v.$.w.x.y.z.A.B.' ",
"C.j v | / a.N j.j.j.N p+/ p+q+D.N ,+,+N F.G.N ,+N j N N N a.6 3 | k F p+/ p+q+D.E.C ! I F.G.J ! ",
"H.r o ) Q &.' N j.N 4.e r+s+k t+N ,+,+,+N M.N ,+N N o ) Q &.' # J.5 4.e r+s+k t+K.t.L.e.i M.u D ",
"! N.7 O.$ P.Q.M.N  .%+u+v+D w+S.T.N ,+,+N U.N x+N N.7 O.$ P.Q.M.R. .%+u+v+D w+S.T.M.u 8.5 U.8 6 ",
"p / O F # & z...| 6 W.y+' z+4.L.9.g N N N X.N ,+N / O F # & z...| 6 W.y+' z+4.L.9.g | ) H X._ V.",
"X.@ / p ) | Y.Z.`.o b ' O / 3.}. +| 2 .+F N N ,+N @ / p ) | Y.Z.`.o b ' O / 3.}. +| 2 .+F ++q.i ",
"V.1 J B . 9 @+#+$+/.V.H J 6.%+&+*+< ) e.6.k N ,+N 1 J B . 9 @+#+$+/.V.H J 6.%+&+*+< ) e.6.k = p.",
"A =+-+g A C M.;+a (.>++ *.f.'+)+!+~+{+i X 4 N ,+N =+-+g A C M.;+a (.>++ *.f.'+)+!+~+{+i X 4 a $ ",
"O J C 1 ' a m.]+T ^+/+(+r.< [._+:+<+V : <.[+N ,+N J C 1 ' a m.]+T ^+/+(+r.< [._+:+<+V : <.[+}+|+",
"n 1 J 1+n = T  +2+V.z.3+j 5+; 6+`.$+4+7+< 8+9+) n 1 J 1+n = T  +2+V.z.3+j 5+; 6+`.$+4+7+< 8+9+) ",
"6 g i 8 7 0+a+b+c+7.q !.-+* d+B M.g+e+M.f+9.m | 6 g i 8 7 0+a+b+c+7.q !.-+* d+B M.g+e+M.f+9.m | ",
"-+) 7 ) k / D z q.# h+i+& : i u u | V.' D . j+| -+) 7 ) k / D z q.# h+i+& : i u u | V.' D . j+| ",
"J + I V.@ j q.^.k+l+m+%.;.f H 3 J 5 b.n+' F H 7.J + I V.@ j q.^.k+l+m+%.;.f H 3 J 5 b.n+' F H 7."};
