/* XPM */
static char * BFlowerConso2_xpm[] = {
"48 48 249 2",
"  	c None",
". 	c #8FB93D",
"+ 	c #85B13B",
"@ 	c #7EAA39",
"# 	c #86B13B",
"$ 	c #83AE3A",
"% 	c #8BB53D",
"& 	c #84AE3A",
"* 	c #7FAA39",
"= 	c #7DA938",
"- 	c #7FA838",
"; 	c #88B23B",
"> 	c #85AE3A",
", 	c #83AC3A",
"' 	c #87B13B",
") 	c #85B03B",
"! 	c #80AB39",
"~ 	c #7BA738",
"{ 	c #88B33C",
"] 	c #8AB53D",
"^ 	c #7EAA38",
"/ 	c #8CB63D",
"( 	c #7AA537",
"_ 	c #78A537",
": 	c #82AD3A",
"< 	c #7FA938",
"[ 	c #749D34",
"} 	c #7CA638",
"| 	c #8DB73D",
"1 	c #8EB73D",
"2 	c #86B23B",
"3 	c #87B23B",
"4 	c #75A236",
"5 	c #7CA838",
"6 	c #8AB43C",
"7 	c #84AF3B",
"8 	c #81AC3A",
"9 	c #92BB3F",
"0 	c #73A036",
"a 	c #81AB39",
"b 	c #88AF3B",
"c 	c #82AB39",
"d 	c #83AC39",
"e 	c #85AF3A",
"f 	c #8BB43C",
"g 	c #90B93E",
"h 	c #93BD3E",
"i 	c #8AB53C",
"j 	c #87B23C",
"k 	c #8FB93E",
"l 	c #93BB3E",
"m 	c #94BC3F",
"n 	c #81AC39",
"o 	c #8EB83E",
"p 	c #84AF3A",
"q 	c #7CA738",
"r 	c #8FB83E",
"s 	c #8CB43D",
"t 	c #89B23C",
"u 	c #89B43C",
"v 	c #95BE3F",
"w 	c #9AC140",
"x 	c #9CC040",
"y 	c #93BC3F",
"z 	c #8CB73D",
"A 	c #91BA3F",
"B 	c #94BD3F",
"C 	c #91BA3E",
"D 	c #8FB83D",
"E 	c #99BF40",
"F 	c #82AE3A",
"G 	c #78A436",
"H 	c #7FAB39",
"I 	c #7DA838",
"J 	c #8EB83D",
"K 	c #8DB63D",
"L 	c #89B23B",
"M 	c #88B23C",
"N 	c #93BD3F",
"O 	c #8BB63D",
"P 	c #80AB3A",
"Q 	c #80AC39",
"R 	c #000000",
"S 	c #85B13C",
"T 	c #82AC39",
"U 	c #7BA036",
"V 	c #81A638",
"W 	c #87B03B",
"X 	c #87B13C",
"Y 	c #83AD3A",
"Z 	c #7EA939",
"` 	c #7DA638",
" .	c #7AA437",
"..	c #7BA838",
"+.	c #82AE39",
"@.	c #FFFFFF",
"#.	c #77A337",
"$.	c #7BA336",
"%.	c #7FA437",
"&.	c #84AD3A",
"*.	c #85B03A",
"=.	c #77A437",
"-.	c #729E34",
";.	c #7AA236",
">.	c #8CB53D",
",.	c #8AB23C",
"'.	c #769933",
").	c #81A838",
"!.	c #89B53C",
"~.	c #7AA737",
"{.	c #8EB73C",
"].	c #6D902F",
"^.	c #78A437",
"/.	c #88B33B",
"(.	c #82AD39",
"_.	c #8CB33B",
":.	c #8EB53D",
"<.	c #75A237",
"[.	c #85AD3A",
"}.	c #8AB33C",
"|.	c #93B93E",
"1.	c #91B93D",
"2.	c #92BC3E",
"3.	c #94BE3F",
"4.	c #84B03B",
"5.	c #98BF40",
"6.	c #97C040",
"7.	c #80AC3A",
"8.	c #83AF3A",
"9.	c #92BD3F",
"0.	c #90BA3E",
"a.	c #92BB3E",
"b.	c #719F35",
"c.	c #8FBA3E",
"d.	c #8CB63C",
"e.	c #7EA838",
"f.	c #80A939",
"g.	c #759831",
"h.	c #7DA939",
"i.	c #81AD3A",
"j.	c #FFD100",
"k.	c #7CA737",
"l.	c #7FA537",
"m.	c #7DA135",
"n.	c #80A838",
"o.	c #7AA738",
"p.	c #7CA938",
"q.	c #6F9D34",
"r.	c #719D35",
"s.	c #709B34",
"t.	c #7DA337",
"u.	c #7EA938",
"v.	c #7BA938",
"w.	c #6F9C35",
"x.	c #749C34",
"y.	c #759C34",
"z.	c #7AA336",
"A.	c #6E912F",
"B.	c #79A538",
"C.	c #7FAA38",
"D.	c #7BA537",
"E.	c #8FB73D",
"F.	c #8CB33C",
"G.	c #93BA3E",
"H.	c #8DB83E",
"I.	c #96BE3F",
"J.	c #95BD3F",
"K.	c #95BE40",
"L.	c #91BB3E",
"M.	c #8DB83D",
"N.	c #CFBA4A",
"O.	c #89B33C",
"P.	c #85AF3B",
"Q.	c #7DA839",
"R.	c #77A136",
"S.	c #7EA638",
"T.	c #79A336",
"U.	c #7C9E36",
"V.	c #90BA3D",
"W.	c #9ABF40",
"X.	c #96BD40",
"Y.	c #7FAA3A",
"Z.	c #82A437",
"`.	c #76A437",
" +	c #7AA637",
".+	c #86B03B",
"++	c #90B63C",
"@+	c #98BB3F",
"#+	c #97BE40",
"$+	c #83AB39",
"%+	c #77A436",
"&+	c #86B13A",
"*+	c #98C040",
"=+	c #99BE40",
"-+	c #91B93E",
";+	c #86AE3A",
">+	c #799B34",
",+	c #7A9E34",
"'+	c #98C140",
")+	c #92BC3F",
"!+	c #80AD39",
"~+	c #82AC3A",
"{+	c #749B34",
"]+	c #7EA236",
"^+	c #82A938",
"/+	c #7BA236",
"(+	c #7EA537",
"_+	c #31D600",
":+	c #81AA39",
"<+	c #7DA236",
"[+	c #7EA337",
"}+	c #74A035",
"|+	c #779F35",
"1+	c #769E35",
"2+	c #83A838",
"3+	c #7DA336",
"4+	c #84A938",
"5+	c #8EB93E",
"6+	c #8BB63C",
"7+	c #8AB33B",
"8+	c #729C34",
"9+	c #90B83E",
"0+	c #84AE3B",
"a+	c #89B13B",
"b+	c #7DA738",
"c+	c #8FB63D",
"d+	c #88B13B",
"e+	c #89B03B",
"f+	c #87B03C",
"g+	c #89B43D",
"h+	c #8CB53C",
"i+	c #82AE3B",
"j+	c #91BB3F",
"k+	c #96BF3F",
"l+	c #8EB63D",
"m+	c #88B03B",
"n+	c #87AF3B",
"o+	c #8EB73E",
"p+	c #719E34",
"q+	c #79A537",
"r+	c #84AB39",
"s+	c #7EAB39",
"t+	c #84B03A",
"u+	c #83AF3B",
"v+	c #8FB43C",
"w+	c #86AF3A",
"x+	c #789734",
"y+	c #39D507",
"z+	c #80A637",
". + @ # $ % & * = - ; > , ' @ ) ! ~ ! { ] ) ^ / . + @ # $ % & * = - ; > , ' @ ) ! ~ ! { ] ) ^ / ",
"( _ : < { ! [ } | 1 2 3 @ 4 5 $ 3 1 | 6 7 8 6 9 ( _ : < { ! [ } | 1 2 3 @ 4 5 $ 3 1 | 6 7 8 6 9 ",
"0 a b c ! d e f g h i j k 6 l m n * o p q 5 # 8 0 a b c ! d e f g h i j k 6 l m n * o p q 5 # 8 ",
"j r s t u 1 v w x y z A B C D E C * F u G H $ I j r s t u 1 v w x y z A B C D E C * F u G H $ I ",
"] v | 3 J K L u | m k g o k M u N O 4 P Q o J ) ] v | 3 J K R u | m k g o k M u N O 4 P Q o J ) ",
"k S 5 & T U V W # M i X Y Q Z : H `  ...$ z +.; k S 5 & T R @.R # M i X Y Q Z : H `  ...$ z +.; ",
"% #.) $ $.%.&., { *.6 =.-.;.- >.,.'.).J !.F ~.{.% #.].R $.@.@.@.{ R 6 =.-.;.- >.,.'.).J !.F ~.{.",
"^.#./.(._.:.9 q = + $ <.~ [.[.}.|.1.2.3.C 6 ) K ^.#.R @.R @.@.@.R @.R <.~ [.[.}.|.1.2.3.C 6 ) K ",
"u 4.*.J 5.5.6.2.{ 8 7.8.{ | u u 6 9.0.: 6 y a.3 u 4.R @.@.R @.R @.@.R 8.{ | u u 6 9.0.: 6 y a.3 ",
"A ^.b.i ! *.c.z i f R { d./ e.f.4.i = ~ u 7 u g.R R R @.@.@.R @.@.@.R R R / e.f.4.i = ~ u 7 u k ",
"{ F h.i.F 8.p u p R j.R ..k.l.m.n.o.p.8 q.r.M R @.@.@.R @.R j.R @.R @.@.@.R l.m.n.o.p.8 q.r.M 0.",
"Z I d.>.0.y j u R j.j.j.R s.l.t.$.u.v.w.x.y.z.A.R @.@.@.R j.j.j.R @.@.@.R s.l.t.$.u.v.w.x.y.z.' ",
"B.j v | / 0.6 R j.j.j.@.j.R C.D.E.C ! I F.G.R @.@.R @.R j.j.j.j.j.R @.R @.@.R D.E.C ! I F.G.J ! ",
"H.r o ) Q &.' # R j.j.j.R I.k J.K.L.M.d.i R @.@.@.@.R j.j.j.N.j.j.j.R @.@.@.@.R K.L.M.d.i O.u D ",
"! P.7 Q.$ R.S.O.T.R j.R U.D V.W.X.O.u 8.5 Y.R @.@.R @.R j.j.j.j.j.R @.R @.@.R W.X.O.u 8.5 Y.8 6 ",
"p / O F # & x...| 6 R Z.' `.4.M.a.g | ) H  +_ .+R @.@.@.R j.j.j.R @.@.@.R `.4.M.a.g | ) H  +_ .+",
" +@ / p ) | ++@+#+o b ' O / 3.}.$+| 2 %+F &+p.R @.@.@.R @.R j.R @.R @.@.@.R 3.}.$+| 2 %+F &+p.i ",
".+1 J B . 9 *+=+-+/..+H J 6.;+>+,+< ) d.6.k = o.R R R @.@.@.R @.@.@.R R R 6.;+>+,+< ) d.6.k = o.",
"A '+)+g A C O.!+a (.~++ *.e.{+]+^+/+(+i X 4 a $ R _+R @.@.R @.R @.@.R + *.e.{+]+^+/+(+i X 4 a $ ",
"O J C 1 ' a l.:+T <+[+}+q.< [.|+1+2+V : <.3+4+R _+_+R @.R @.@.@.R @.R }+q.< [.|+1+2+V : <.3+4+5+",
"n 1 J 6+n = T $+7+.+x.8+j 9+; 0+#+-+a+b+< c+R _+_+R J R n @.@.@.7+R x.8+j 9+; 0+#+-+a+b+< c+d+) ",
"6 g i 8 7 e+f+g+h+7.q >.)+* i+B O.j+k+O.l+a.R _+R g i 8 7 R @.R h+7.q >.)+* i+B O.j+k+O.l+a.m | ",
")+) 7 ) k / D z p.# m+n+& : i u u R R ' D . R _+R ) 7 ) k / R z p.# m+n+& : i u u | .+' D . o+| ",
"J + I .+@ j p.^.p+q+r+%.).f H 3 R _+_+R ' F R _+R + I .+@ j p.^.p+q+r+%.).f H 3 J 5 b.s+' F H 7.",
". + @ # $ % & * = - ; > , ' @ ) R _+_+_+R ) R _+R + @ # $ % & * = - ; > , ' @ ) ! ~ ! { ] ) ^ / ",
"( _ : < { ! [ } | 1 2 3 @ 4 5 $ 3 R _+_+R 8 R _+R _ : < { ! [ } | 1 2 3 @ 4 5 $ 3 1 | 6 7 8 6 9 ",
"0 a b c ! d e f g h i j k 6 l m n * R R R 5 R _+R a b c ! d e f g h i j k 6 l m n * o p q 5 # 8 ",
"j r s t u 1 v w x y z A B C D E C * F u G R R _+R r s t R R v w x y z A B C D E C * F u G H $ I ",
"] v | 3 J K L u | m k g o k M u N O 4 P Q o R _+R v | R _+_+R u | m k g o k M u N O 4 P Q o J ) ",
"k S 5 & T U V W # M i X Y Q Z : H `  ...$ z R _+R S R _+_+_+R W # M i X Y Q Z : H `  ...$ z +.; ",
"% #.) $ $.%.&., { *.6 =.-.;.- >.,.'.).J !.F R _+R #.R _+_+R &., { *.6 =.-.;.- >.,.'.).J !.F ~.{.",
"^.#./.(._.:.9 q = + $ <.~ [.[.}.|.1.2.3.C 6 R _+R #.R R R :.9 q = + $ <.~ [.[.}.|.1.2.3.C 6 ) K ",
"u 4.*.J 5.5.6.2.{ 8 7.8.{ | u u 6 R R : 6 y R _+R R *.J 5.5.6.2.{ 8 7.8.{ | u u 6 9.0.: 6 y a.3 ",
"A ^.b.i ! *.c.z R f # { d./ e.f.R _+_+R u 7 R _+R ^.b.i ! *.c.z i f # { d./ e.f.4.i = ~ u 7 u k ",
"{ F h.i.F 8.p R j.R z t+..k.l.m.R _+_+_+R r.R _+R F h.i.F 8.p u p # z t+..k.l.m.n.o.p.8 q.r.M 0.",
"Z I d.>.0.y R j.@.j.R i+4 s.l.t.$.R _+_+R y.R _+R I d.>.R R j u L.g 3 i+4 s.R t.$.u.v.w.x.y.z.' ",
"B.j v | / 0.6 R j.R F u+/ u+C.D.E.C R R R G.R _+R j v R _+_+R 3 | k F u+/ R j.R E.C ! I F.G.J ! ",
"H.r o ) Q &.' # R 5 4.e v+I.k J.K.L.M.d.i R R _+R r R _+_+_+R # w+5 4.e R j.j.j.R L.M.d.i O.u D ",
"! P.7 Q.$ R.S.O.T. .;+x+U.D V.W.X.O.u 8.5 Y.R y+R P.R _+_+R S.O.T. .;+R j.j.j.@.j.R u 8.5 Y.8 6 ",
"p / O F # & x...| 6 z+Z.' `.4.M.a.g | ) H  +R _+R / R R R & x...| 6 z+Z.R j.j.j.R g | ) H  +_ .+",
" +@ / p ) | ++@+#+o b ' O / 3.}.$+| 2 %+F &+R _+R R / p ) | ++@+#+o b ' O R j.R $+| 2 %+F &+p.i ",
".+1 J B . 9 *+=+-+/..+H J 6.;+>+,+< ) d.6.k R _+R 1 J B . 9 *+=+-+/..+H J 6.R >+,+< ) d.6.k = o.",
"A '+)+g A C O.!+a (.~++ *.e.{+]+^+/+(+i X 4 R _+R '+)+g A C O.!+a (.~++ *.e.{+]+^+/+(+i X 4 a $ ",
"O J C 1 ' a l.:+T <+[+}+q.< [.|+1+2+V : <.3+R _+R J C 1 ' a l.:+T <+[+}+q.< [.|+1+2+V : <.3+4+5+",
"n 1 J 6+n = T $+7+.+x.8+j 9+; 0+#+-+a+b+< c+d+) n 1 J 6+n = T $+7+.+x.8+j 9+; 0+#+-+a+b+< c+d+) ",
"6 g i 8 7 e+f+g+h+7.q >.)+* i+B O.j+k+O.l+a.m | 6 g i 8 7 e+f+g+h+7.q >.)+* i+B O.j+k+O.l+a.m | ",
")+) 7 ) k / D z p.# m+n+& : i u u | .+' D . o+| )+) 7 ) k / D z p.# m+n+& : i u u | .+' D . o+| ",
"J + I .+@ j p.^.p+q+r+%.).f H 3 J 5 b.s+' F H 7.J + I .+@ j p.^.p+q+r+%.).f H 3 J 5 b.s+' F H 7."};
