/* XPM */
static char * BFlowerConso22_xpm[] = {
"48 48 249 2",
"  	c None",
". 	c #8FB93D",
"+ 	c #85B13B",
"@ 	c #7EAA39",
"# 	c #86B13B",
"$ 	c #83AE3A",
"% 	c #8BB53D",
"& 	c #84AE3A",
"* 	c #7FAA39",
"= 	c #7DA938",
"- 	c #7FA838",
"; 	c #88B23B",
"> 	c #85AE3A",
", 	c #83AC3A",
"' 	c #87B13B",
") 	c #85B03B",
"! 	c #80AB39",
"~ 	c #7BA738",
"{ 	c #88B33C",
"] 	c #8AB53D",
"^ 	c #7EAA38",
"/ 	c #8CB63D",
"( 	c #7AA537",
"_ 	c #78A537",
": 	c #82AD3A",
"< 	c #7FA938",
"[ 	c #749D34",
"} 	c #7CA638",
"| 	c #8DB73D",
"1 	c #8EB73D",
"2 	c #86B23B",
"3 	c #87B23B",
"4 	c #75A236",
"5 	c #7CA838",
"6 	c #8AB43C",
"7 	c #84AF3B",
"8 	c #81AC3A",
"9 	c #92BB3F",
"0 	c #73A036",
"a 	c #81AB39",
"b 	c #88AF3B",
"c 	c #82AB39",
"d 	c #83AC39",
"e 	c #85AF3A",
"f 	c #8BB43C",
"g 	c #90B93E",
"h 	c #93BD3E",
"i 	c #8AB53C",
"j 	c #87B23C",
"k 	c #8FB93E",
"l 	c #93BB3E",
"m 	c #94BC3F",
"n 	c #81AC39",
"o 	c #8EB83E",
"p 	c #84AF3A",
"q 	c #7CA738",
"r 	c #8FB83E",
"s 	c #8CB43D",
"t 	c #89B23C",
"u 	c #89B43C",
"v 	c #95BE3F",
"w 	c #9AC140",
"x 	c #9CC040",
"y 	c #93BC3F",
"z 	c #8CB73D",
"A 	c #91BA3F",
"B 	c #94BD3F",
"C 	c #91BA3E",
"D 	c #8FB83D",
"E 	c #99BF40",
"F 	c #82AE3A",
"G 	c #78A436",
"H 	c #7FAB39",
"I 	c #7DA838",
"J 	c #8EB83D",
"K 	c #8DB63D",
"L 	c #89B23B",
"M 	c #88B23C",
"N 	c #93BD3F",
"O 	c #8BB63D",
"P 	c #80AB3A",
"Q 	c #80AC39",
"R 	c #000000",
"S 	c #85B13C",
"T 	c #82AC39",
"U 	c #7BA036",
"V 	c #81A638",
"W 	c #87B03B",
"X 	c #87B13C",
"Y 	c #83AD3A",
"Z 	c #7EA939",
"` 	c #7DA638",
" .	c #7AA437",
"..	c #7BA838",
"+.	c #82AE39",
"@.	c #FFFFFF",
"#.	c #77A337",
"$.	c #7BA336",
"%.	c #7FA437",
"&.	c #84AD3A",
"*.	c #85B03A",
"=.	c #77A437",
"-.	c #729E34",
";.	c #7AA236",
">.	c #8CB53D",
",.	c #8AB23C",
"'.	c #769933",
").	c #81A838",
"!.	c #89B53C",
"~.	c #7AA737",
"{.	c #8EB73C",
"].	c #6D902F",
"^.	c #78A437",
"/.	c #88B33B",
"(.	c #82AD39",
"_.	c #8CB33B",
":.	c #8EB53D",
"<.	c #75A237",
"[.	c #85AD3A",
"}.	c #8AB33C",
"|.	c #93B93E",
"1.	c #91B93D",
"2.	c #92BC3E",
"3.	c #94BE3F",
"4.	c #84B03B",
"5.	c #98BF40",
"6.	c #97C040",
"7.	c #80AC3A",
"8.	c #83AF3A",
"9.	c #92BD3F",
"0.	c #90BA3E",
"a.	c #92BB3E",
"b.	c #719F35",
"c.	c #8FBA3E",
"d.	c #8CB63C",
"e.	c #7EA838",
"f.	c #80A939",
"g.	c #759831",
"h.	c #7DA939",
"i.	c #81AD3A",
"j.	c #84B03A",
"k.	c #7CA737",
"l.	c #7FA537",
"m.	c #7DA135",
"n.	c #80A838",
"o.	c #7AA738",
"p.	c #7CA938",
"q.	c #6F9D34",
"r.	c #719D35",
"s.	c #FFD100",
"t.	c #91BB3E",
"u.	c #709B34",
"v.	c #7DA337",
"w.	c #7EA938",
"x.	c #7BA938",
"y.	c #6F9C35",
"z.	c #749C34",
"A.	c #759C34",
"B.	c #7AA336",
"C.	c #6E912F",
"D.	c #79A538",
"E.	c #83AF3B",
"F.	c #7FAA38",
"G.	c #7BA537",
"H.	c #8FB73D",
"I.	c #8CB33C",
"J.	c #93BA3E",
"K.	c #8DB83E",
"L.	c #86AF3A",
"M.	c #8FB43C",
"N.	c #96BE3F",
"O.	c #95BD3F",
"P.	c #95BE40",
"Q.	c #8DB83D",
"R.	c #CFBA4A",
"S.	c #89B33C",
"T.	c #85AF3B",
"U.	c #7DA839",
"V.	c #77A136",
"W.	c #7EA638",
"X.	c #79A336",
"Y.	c #789734",
"Z.	c #7C9E36",
"`.	c #90BA3D",
" +	c #9ABF40",
".+	c #96BD40",
"++	c #7FAA3A",
"@+	c #80A637",
"#+	c #82A437",
"$+	c #76A437",
"%+	c #7AA637",
"&+	c #86B03B",
"*+	c #90B63C",
"=+	c #98BB3F",
"-+	c #97BE40",
";+	c #83AB39",
">+	c #77A436",
",+	c #86B13A",
"'+	c #98C040",
")+	c #99BE40",
"!+	c #91B93E",
"~+	c #86AE3A",
"{+	c #799B34",
"]+	c #7A9E34",
"^+	c #98C140",
"/+	c #92BC3F",
"(+	c #80AD39",
"_+	c #82AC3A",
":+	c #749B34",
"<+	c #7EA236",
"[+	c #82A938",
"}+	c #7BA236",
"|+	c #7EA537",
"1+	c #31D600",
"2+	c #81AA39",
"3+	c #7DA236",
"4+	c #7EA337",
"5+	c #74A035",
"6+	c #779F35",
"7+	c #769E35",
"8+	c #83A838",
"9+	c #7DA336",
"0+	c #84A938",
"a+	c #8EB93E",
"b+	c #8BB63C",
"c+	c #8AB33B",
"d+	c #729C34",
"e+	c #90B83E",
"f+	c #84AE3B",
"g+	c #89B13B",
"h+	c #7DA738",
"i+	c #8FB63D",
"j+	c #88B13B",
"k+	c #89B03B",
"l+	c #87B03C",
"m+	c #89B43D",
"n+	c #8CB53C",
"o+	c #82AE3B",
"p+	c #91BB3F",
"q+	c #96BF3F",
"r+	c #8EB63D",
"s+	c #88B03B",
"t+	c #87AF3B",
"u+	c #8EB73E",
"v+	c #719E34",
"w+	c #79A537",
"x+	c #84AB39",
"y+	c #7EAB39",
"z+	c #39D507",
". + @ # $ % & * = - ; > , ' @ ) ! ~ ! { ] ) ^ / . + @ # $ % & * = - ; > , ' @ ) ! ~ ! { ] ) ^ / ",
"( _ : < { ! [ } | 1 2 3 @ 4 5 $ 3 1 | 6 7 8 6 9 ( _ : < { ! [ } | 1 2 3 @ 4 5 $ 3 1 | 6 7 8 6 9 ",
"0 a b c ! d e f g h i j k 6 l m n * o p q 5 # 8 0 a b c ! d e f g h i j k 6 l m n * o p q 5 # 8 ",
"j r s t u 1 v w x y z A B C D E C * F u G H $ I j r s t u 1 v w x y z A B C D E C * F u G H $ I ",
"] v | 3 J K L u | m k g o k M u N O 4 P Q o J ) ] v | 3 J K R u | m k g o k M u N O 4 P Q o J ) ",
"k S 5 & T U V W # M i X Y Q Z : H `  ...$ z +.; k S 5 & T R @.R # M i X Y Q Z : H `  ...$ z +.; ",
"% #.) $ $.%.&., { *.6 =.-.;.- >.,.'.).J !.F ~.{.% #.].R $.@.@.@.{ R 6 =.-.;.- >.,.'.).J !.F ~.{.",
"^.#./.(._.:.9 q = + $ <.~ [.[.}.|.1.2.3.C 6 ) K ^.#.R @.R @.@.@.R @.R <.~ [.[.}.|.1.2.3.C 6 ) K ",
"u 4.*.J 5.5.6.2.{ 8 7.8.{ | u u 6 9.0.: 6 y a.3 u 4.R @.@.R @.R @.@.R 8.{ | u u 6 9.0.: 6 y a.3 ",
"A ^.b.i ! *.c.z i f # { d./ e.f.4.i = ~ u 7 u g.R R R @.@.@.R @.@.@.R R R / e.f.4.i = ~ u 7 u k ",
"{ F h.i.F 8.p u p # R j...k.l.m.n.o.p.8 q.r.M R @.@.@.R @.R s.R @.R @.@.@.R l.m.n.o.p.8 q.r.M 0.",
"Z I d.>.0.y j u t.R s.R 4 u.l.v.$.w.x.y.z.A.B.C.R @.@.@.R s.s.s.R @.@.@.R u.l.v.$.w.x.y.z.A.B.' ",
"D.j v | / 0.6 3 R s.@.s.R E.F.G.H.C ! I I.J.R @.@.R @.R s.s.s.s.s.R @.R @.@.R G.H.C ! I I.J.J ! ",
"K.r o ) Q &.' # L.R s.R M.N.k O.P.t.Q.d.i R @.@.@.@.R s.s.s.R.s.s.s.R @.@.@.@.R P.t.Q.d.i S.u D ",
"! T.7 U.$ V.W.S.X. .R Y.Z.D `. +.+S.u 8.5 ++R @.@.R @.R s.s.s.s.s.R @.R @.@.R  +.+S.u 8.5 ++8 6 ",
"p / O F # & z...| 6 @+#+' $+4.Q.a.g | ) H %+_ &+R @.@.@.R s.s.s.R @.@.@.R $+4.Q.a.g | ) H %+_ &+",
"%+@ / p ) | *+=+-+o b ' O / 3.}.;+| 2 >+F ,+p.R @.@.@.R @.R s.R @.R @.@.@.R 3.}.;+| 2 >+F ,+p.i ",
"&+1 J B . 9 '+)+!+/.&+H J 6.~+{+]+< ) d.6.k = o.R R R @.@.@.R @.@.@.R R R 6.~+{+]+< ) d.6.k = o.",
"A ^+/+g A C S.(+a (._++ *.e.:+<+[+}+|+i X 4 a $ R 1+R @.@.R @.R @.@.R + *.e.:+<+[+}+|+i X 4 a $ ",
"O J C 1 ' a l.2+T 3+4+5+q.< [.6+7+8+V : <.9+0+R 1+1+R @.R @.@.@.R @.R 5+q.< [.6+7+8+V : <.9+0+a+",
"n 1 J b+n = T ;+c+&+z.d+j e+; f+-+!+g+h+< i+R 1+1+R J R n @.@.@.c+R z.d+j e+; f+-+!+g+h+< i+j+) ",
"6 g i 8 7 k+l+m+n+7.q >./+* o+B S.p+q+S.r+a.R 1+R g i 8 7 R @.R n+7.q >./+* o+B S.p+q+S.r+a.m | ",
"/+) 7 ) k / D z p.# s+t+& : i u u R R ' D . R 1+R ) 7 ) k / R z p.# s+t+& : i u u | &+' D . u+| ",
"J + I &+@ j p.^.v+w+x+%.).f H 3 R 1+1+R ' F R 1+R + I &+@ j p.^.v+w+x+%.).f H 3 J 5 b.y+' F H 7.",
". + @ # $ % & * = - ; > , ' @ ) R 1+1+1+R ) R 1+R + @ # $ % & * = - ; > , ' @ ) ! ~ ! { ] ) ^ / ",
"( _ : < { ! [ } | 1 2 3 @ 4 5 $ 3 R 1+1+R 8 R 1+R _ : < { ! [ } | 1 2 3 @ 4 5 $ 3 1 | 6 7 8 6 9 ",
"0 a b c ! d e f g h i j k 6 l m n * R R R 5 R 1+R a b c ! d e f g h i j k 6 l m n * o p q 5 # 8 ",
"j r s t u 1 v w x y z A B C D E C * F u G R R 1+R r s t R R v w x y z A B C D E C * F u G H $ I ",
"] v | 3 J K L u | m k g o k M u N O 4 P Q o R 1+R v | R 1+1+R u | m k g o k M u N O 4 P Q o J ) ",
"k S 5 & T U V W # R i X Y Q Z : H `  ...$ z R 1+R S R 1+1+1+R W # M i X Y Q Z : H `  ...$ z +.; ",
"% #.) $ $.%.&., R s.R =.-.;.- >.,.'.).J !.F R 1+R #.R 1+1+R &., { *.6 =.-.;.R >.,.'.).J !.F ~.{.",
"^.#./.(._.:.9 R s.s.s.R ~ [.[.}.|.1.2.3.C 6 R 1+R #.R R R :.9 q = + $ <.~ R s.R |.1.2.3.C 6 ) K ",
"u 4.*.J 5.5.R s.s.s.@.s.R | u u 6 R R : 6 y R 1+R R *.J 5.5.6.2.{ 8 7.8.R s.@.s.R 9.0.: 6 y a.3 ",
"A ^.b.i ! *.c.R s.s.s.R d./ e.f.R 1+1+R u 7 R 1+R ^.b.i ! *.c.z i f # { d.R s.R 4.i = ~ u 7 u k ",
"{ F h.i.F 8.p u R s.R j...k.l.m.R 1+1+1+R r.R 1+R F h.i.F 8.p u p # z j...k.R m.n.o.p.8 q.r.M 0.",
"Z I d.>.0.y j u t.R 3 o+4 u.l.v.$.R 1+1+R A.R 1+R I d.>.R R j u t.g 3 o+4 u.l.v.$.w.x.y.z.A.B.' ",
"D.j v | / 0.6 3 | k F E./ E.F.G.H.C R R R J.R 1+R j v R 1+1+R 3 | k F E./ E.F.G.H.C ! I I.J.J ! ",
"K.r o ) Q &.' # L.5 4.e M.N.k O.P.t.Q.d.i R R 1+R r R 1+1+1+R # L.5 4.e M.N.k O.P.t.Q.d.i S.u D ",
"! T.7 U.$ V.W.S.X. .~+Y.Z.D `. +.+S.u 8.5 ++R z+R T.R 1+1+R W.S.X. .~+Y.Z.D `. +.+S.u 8.5 ++8 6 ",
"p / O F # & z...| 6 @+#+' $+4.Q.a.g | ) H %+R 1+R / R R R & z...| 6 @+#+' $+4.Q.a.g | ) H %+_ &+",
"%+@ / p ) | *+=+-+o b ' O / 3.}.;+| 2 >+F ,+R 1+R R / p ) | *+=+-+o b ' O / 3.}.;+| 2 >+F ,+p.i ",
"&+1 J B . 9 '+)+!+/.&+H J 6.~+{+]+< ) d.6.k R 1+R 1 J B . 9 '+)+!+/.&+H J 6.~+{+]+< ) d.6.k = o.",
"A ^+/+g A C S.(+a (._++ *.e.:+<+[+}+|+i X 4 R 1+R ^+/+g A C S.(+a (._++ *.e.:+<+[+}+|+i X 4 a $ ",
"O J C 1 ' a l.2+T 3+4+5+q.< [.6+7+8+V : <.9+R 1+R J C 1 ' a l.2+T 3+4+5+q.< [.6+7+8+V : <.9+0+a+",
"n 1 J b+n = T ;+c+&+z.d+j e+; f+-+!+g+h+< i+j+) n 1 J b+n = T ;+c+&+z.d+j e+; f+-+!+g+h+< i+j+) ",
"6 g i 8 7 k+l+m+n+7.q >./+* o+B S.p+q+S.r+a.m | 6 g i 8 7 k+l+m+n+7.q >./+* o+B S.p+q+S.r+a.m | ",
"/+) 7 ) k / D z p.# s+t+& : i u u | &+' D . u+| /+) 7 ) k / D z p.# s+t+& : i u u | &+' D . u+| ",
"J + I &+@ j p.^.v+w+x+%.).f H 3 J 5 b.y+' F H 7.J + I &+@ j p.^.v+w+x+%.).f H 3 J 5 b.y+' F H 7."};
