/* XPM */
static char * grass_font_xpm[] = {
"48 48 240 2",
"  	c None",
". 	c #8FB93D",
"+ 	c #85B13B",
"@ 	c #7EAA39",
"# 	c #86B13B",
"$ 	c #83AE3A",
"% 	c #8BB53D",
"& 	c #84AE3A",
"* 	c #7FAA39",
"= 	c #7DA938",
"- 	c #7FA838",
"; 	c #88B23B",
"> 	c #85AE3A",
", 	c #83AC3A",
"' 	c #87B13B",
") 	c #85B03B",
"! 	c #80AB39",
"~ 	c #7BA738",
"{ 	c #88B33C",
"] 	c #8AB53D",
"^ 	c #7EAA38",
"/ 	c #8CB63D",
"( 	c #7AA537",
"_ 	c #78A537",
": 	c #82AD3A",
"< 	c #7FA938",
"[ 	c #749D34",
"} 	c #7CA638",
"| 	c #8DB73D",
"1 	c #8EB73D",
"2 	c #86B23B",
"3 	c #87B23B",
"4 	c #75A236",
"5 	c #7CA838",
"6 	c #8AB43C",
"7 	c #84AF3B",
"8 	c #81AC3A",
"9 	c #92BB3F",
"0 	c #73A036",
"a 	c #81AB39",
"b 	c #88AF3B",
"c 	c #82AB39",
"d 	c #83AC39",
"e 	c #85AF3A",
"f 	c #8BB43C",
"g 	c #90B93E",
"h 	c #93BD3E",
"i 	c #8AB53C",
"j 	c #87B23C",
"k 	c #8FB93E",
"l 	c #93BB3E",
"m 	c #94BC3F",
"n 	c #81AC39",
"o 	c #8EB83E",
"p 	c #84AF3A",
"q 	c #7CA738",
"r 	c #8FB83E",
"s 	c #8CB43D",
"t 	c #89B23C",
"u 	c #89B43C",
"v 	c #95BE3F",
"w 	c #9AC140",
"x 	c #9CC040",
"y 	c #93BC3F",
"z 	c #8CB73D",
"A 	c #91BA3F",
"B 	c #94BD3F",
"C 	c #91BA3E",
"D 	c #8FB83D",
"E 	c #99BF40",
"F 	c #82AE3A",
"G 	c #78A436",
"H 	c #7FAB39",
"I 	c #7DA838",
"J 	c #8EB83D",
"K 	c #8DB63D",
"L 	c #89B23B",
"M 	c #88B23C",
"N 	c #93BD3F",
"O 	c #8BB63D",
"P 	c #80AB3A",
"Q 	c #80AC39",
"R 	c #85B13C",
"S 	c #82AC39",
"T 	c #7BA036",
"U 	c #81A638",
"V 	c #87B03B",
"W 	c #87B13C",
"X 	c #83AD3A",
"Y 	c #7EA939",
"Z 	c #7DA638",
"` 	c #7AA437",
" .	c #7BA838",
"..	c #82AE39",
"+.	c #77A337",
"@.	c #7BA336",
"#.	c #7FA437",
"$.	c #84AD3A",
"%.	c #85B03A",
"&.	c #77A437",
"*.	c #729E34",
"=.	c #7AA236",
"-.	c #8CB53D",
";.	c #8AB23C",
">.	c #769933",
",.	c #81A838",
"'.	c #89B53C",
").	c #7AA737",
"!.	c #8EB73C",
"~.	c #78A437",
"{.	c #88B33B",
"].	c #82AD39",
"^.	c #8CB33B",
"/.	c #8EB53D",
"(.	c #75A237",
"_.	c #85AD3A",
":.	c #8AB33C",
"<.	c #93B93E",
"[.	c #91B93D",
"}.	c #92BC3E",
"|.	c #94BE3F",
"1.	c #84B03B",
"2.	c #98BF40",
"3.	c #97C040",
"4.	c #80AC3A",
"5.	c #83AF3A",
"6.	c #92BD3F",
"7.	c #90BA3E",
"8.	c #92BB3E",
"9.	c #719F35",
"0.	c #8FBA3E",
"a.	c #8CB63C",
"b.	c #7EA838",
"c.	c #80A939",
"d.	c #7DA939",
"e.	c #81AD3A",
"f.	c #84B03A",
"g.	c #7CA737",
"h.	c #7FA537",
"i.	c #7DA135",
"j.	c #80A838",
"k.	c #7AA738",
"l.	c #7CA938",
"m.	c #6F9D34",
"n.	c #719D35",
"o.	c #91BB3E",
"p.	c #82AE3B",
"q.	c #709B34",
"r.	c #7DA337",
"s.	c #7EA938",
"t.	c #7BA938",
"u.	c #6F9C35",
"v.	c #749C34",
"w.	c #759C34",
"x.	c #7AA336",
"y.	c #79A538",
"z.	c #83AF3B",
"A.	c #7FAA38",
"B.	c #7BA537",
"C.	c #8FB73D",
"D.	c #8CB33C",
"E.	c #93BA3E",
"F.	c #8DB83E",
"G.	c #86AF3A",
"H.	c #8FB43C",
"I.	c #96BE3F",
"J.	c #95BD3F",
"K.	c #95BE40",
"L.	c #8DB83D",
"M.	c #89B33C",
"N.	c #85AF3B",
"O.	c #7DA839",
"P.	c #77A136",
"Q.	c #7EA638",
"R.	c #79A336",
"S.	c #86AE3A",
"T.	c #789734",
"U.	c #7C9E36",
"V.	c #90BA3D",
"W.	c #9ABF40",
"X.	c #96BD40",
"Y.	c #7FAA3A",
"Z.	c #80A637",
"`.	c #82A437",
" +	c #76A437",
".+	c #7AA637",
"++	c #86B03B",
"@+	c #90B63C",
"#+	c #98BB3F",
"$+	c #97BE40",
"%+	c #83AB39",
"&+	c #77A436",
"*+	c #86B13A",
"=+	c #98C040",
"-+	c #99BE40",
";+	c #91B93E",
">+	c #799B34",
",+	c #7A9E34",
"'+	c #98C140",
")+	c #92BC3F",
"!+	c #80AD39",
"~+	c #82AC3A",
"{+	c #749B34",
"]+	c #7EA236",
"^+	c #82A938",
"/+	c #7BA236",
"(+	c #7EA537",
"_+	c #81AA39",
":+	c #7DA236",
"<+	c #7EA337",
"[+	c #74A035",
"}+	c #779F35",
"|+	c #769E35",
"1+	c #83A838",
"2+	c #7DA336",
"3+	c #84A938",
"4+	c #8EB93E",
"5+	c #8BB63C",
"6+	c #8AB33B",
"7+	c #729C34",
"8+	c #90B83E",
"9+	c #84AE3B",
"0+	c #89B13B",
"a+	c #7DA738",
"b+	c #8FB63D",
"c+	c #88B13B",
"d+	c #89B03B",
"e+	c #87B03C",
"f+	c #89B43D",
"g+	c #8CB53C",
"h+	c #91BB3F",
"i+	c #96BF3F",
"j+	c #8EB63D",
"k+	c #88B03B",
"l+	c #87AF3B",
"m+	c #8EB73E",
"n+	c #719E34",
"o+	c #79A537",
"p+	c #84AB39",
"q+	c #7EAB39",
". + @ # $ % & * = - ; > , ' @ ) ! ~ ! { ] ) ^ / . + @ # $ % & * = - ; > , ' @ ) ! ~ ! { ] ) ^ / ",
"( _ : < { ! [ } | 1 2 3 @ 4 5 $ 3 1 | 6 7 8 6 9 ( _ : < { ! [ } | 1 2 3 @ 4 5 $ 3 1 | 6 7 8 6 9 ",
"0 a b c ! d e f g h i j k 6 l m n * o p q 5 # 8 0 a b c ! d e f g h i j k 6 l m n * o p q 5 # 8 ",
"j r s t u 1 v w x y z A B C D E C * F u G H $ I j r s t u 1 v w x y z A B C D E C * F u G H $ I ",
"] v | 3 J K L u | m k g o k M u N O 4 P Q o J ) ] v | 3 J K L u | m k g o k M u N O 4 P Q o J ) ",
"k R 5 & S T U V # M i W X Q Y : H Z `  .$ z ..; k R 5 & S T U V # M i W X Q Y : H Z `  .$ z ..; ",
"% +.) $ @.#.$., { %.6 &.*.=.- -.;.>.,.J '.F ).!.% +.) $ @.#.$., { %.6 &.*.=.- -.;.>.,.J '.F ).!.",
"~.+.{.].^./.9 q = + $ (.~ _._.:.<.[.}.|.C 6 ) K ~.+.{.].^./.9 q = + $ (.~ _._.:.<.[.}.|.C 6 ) K ",
"u 1.%.J 2.2.3.}.{ 8 4.5.{ | u u 6 6.7.: 6 y 8.3 u 1.%.J 2.2.3.}.{ 8 4.5.{ | u u 6 6.7.: 6 y 8.3 ",
"A ~.9.i ! %.0.z i f # { a./ b.c.1.i = ~ u 7 u k A ~.9.i ! %.0.z i f # { a./ b.c.1.i = ~ u 7 u k ",
"{ F d.e.F 5.p u p # z f. .g.h.i.j.k.l.8 m.n.M 7.{ F d.e.F 5.p u p # z f. .g.h.i.j.k.l.8 m.n.M 7.",
"Y I a.-.7.y j u o.g 3 p.4 q.h.r.@.s.t.u.v.w.x.' Y I a.-.7.y j u o.g 3 p.4 q.h.r.@.s.t.u.v.w.x.' ",
"y.j v | / 7.6 3 | k F z./ z.A.B.C.C ! I D.E.J ! y.j v | / 7.6 3 | k F z./ z.A.B.C.C ! I D.E.J ! ",
"F.r o ) Q $.' # G.5 1.e H.I.k J.K.o.L.a.i M.u D F.r o ) Q $.' # G.5 1.e H.I.k J.K.o.L.a.i M.u D ",
"! N.7 O.$ P.Q.M.R.` S.T.U.D V.W.X.M.u 5.5 Y.8 6 ! N.7 O.$ P.Q.M.R.` S.T.U.D V.W.X.M.u 5.5 Y.8 6 ",
"p / O F # & v. .| 6 Z.`.'  +1.L.8.g | ) H .+_ ++p / O F # & v. .| 6 Z.`.'  +1.L.8.g | ) H .+_ ++",
".+@ / p ) | @+#+$+o b ' O / |.:.%+| 2 &+F *+l.i .+@ / p ) | @+#+$+o b ' O / |.:.%+| 2 &+F *+l.i ",
"++1 J B . 9 =+-+;+{.++H J 3.S.>+,+< ) a.3.k = k.++1 J B . 9 =+-+;+{.++H J 3.S.>+,+< ) a.3.k = k.",
"A '+)+g A C M.!+a ].~++ %.b.{+]+^+/+(+i W 4 a $ A '+)+g A C M.!+a ].~++ %.b.{+]+^+/+(+i W 4 a $ ",
"O J C 1 ' a h._+S :+<+[+m.< _.}+|+1+U : (.2+3+4+O J C 1 ' a h._+S :+<+[+m.< _.}+|+1+U : (.2+3+4+",
"n 1 J 5+n = S %+6+++v.7+j 8+; 9+$+;+0+a+< b+c+) n 1 J 5+n = S %+6+++v.7+j 8+; 9+$+;+0+a+< b+c+) ",
"6 g i 8 7 d+e+f+g+4.q -.)+* p.B M.h+i+M.j+8.m | 6 g i 8 7 d+e+f+g+4.q -.)+* p.B M.h+i+M.j+8.m | ",
")+) 7 ) k / D z l.# k+l+& : i u u | ++' D . m+| )+) 7 ) k / D z l.# k+l+& : i u u | ++' D . m+| ",
"J + I ++@ j l.~.n+o+p+#.,.f H 3 J 5 9.q+' F H 4.J + I ++@ j l.~.n+o+p+#.,.f H 3 J 5 9.q+' F H 4.",
". + @ # $ % & * = - ; > , ' @ ) ! ~ ! { ] ) ^ / . + @ # $ % & * = - ; > , ' @ ) ! ~ ! { ] ) ^ / ",
"( _ : < { ! [ } | 1 2 3 @ 4 5 $ 3 1 | 6 7 8 6 9 ( _ : < { ! [ } | 1 2 3 @ 4 5 $ 3 1 | 6 7 8 6 9 ",
"0 a b c ! d e f g h i j k 6 l m n * o p q 5 # 8 0 a b c ! d e f g h i j k 6 l m n * o p q 5 # 8 ",
"j r s t u 1 v w x y z A B C D E C * F u G H $ I j r s t u 1 v w x y z A B C D E C * F u G H $ I ",
"] v | 3 J K L u | m k g o k M u N O 4 P Q o J ) ] v | 3 J K L u | m k g o k M u N O 4 P Q o J ) ",
"k R 5 & S T U V # M i W X Q Y : H Z `  .$ z ..; k R 5 & S T U V # M i W X Q Y : H Z `  .$ z ..; ",
"% +.) $ @.#.$., { %.6 &.*.=.- -.;.>.,.J '.F ).!.% +.) $ @.#.$., { %.6 &.*.=.- -.;.>.,.J '.F ).!.",
"~.+.{.].^./.9 q = + $ (.~ _._.:.<.[.}.|.C 6 ) K ~.+.{.].^./.9 q = + $ (.~ _._.:.<.[.}.|.C 6 ) K ",
"u 1.%.J 2.2.3.}.{ 8 4.5.{ | u u 6 6.7.: 6 y 8.3 u 1.%.J 2.2.3.}.{ 8 4.5.{ | u u 6 6.7.: 6 y 8.3 ",
"A ~.9.i ! %.0.z i f # { a./ b.c.1.i = ~ u 7 u k A ~.9.i ! %.0.z i f # { a./ b.c.1.i = ~ u 7 u k ",
"{ F d.e.F 5.p u p # z f. .g.h.i.j.k.l.8 m.n.M 7.{ F d.e.F 5.p u p # z f. .g.h.i.j.k.l.8 m.n.M 7.",
"Y I a.-.7.y j u o.g 3 p.4 q.h.r.@.s.t.u.v.w.x.' Y I a.-.7.y j u o.g 3 p.4 q.h.r.@.s.t.u.v.w.x.' ",
"y.j v | / 7.6 3 | k F z./ z.A.B.C.C ! I D.E.J ! y.j v | / 7.6 3 | k F z./ z.A.B.C.C ! I D.E.J ! ",
"F.r o ) Q $.' # G.5 1.e H.I.k J.K.o.L.a.i M.u D F.r o ) Q $.' # G.5 1.e H.I.k J.K.o.L.a.i M.u D ",
"! N.7 O.$ P.Q.M.R.` S.T.U.D V.W.X.M.u 5.5 Y.8 6 ! N.7 O.$ P.Q.M.R.` S.T.U.D V.W.X.M.u 5.5 Y.8 6 ",
"p / O F # & v. .| 6 Z.`.'  +1.L.8.g | ) H .+_ ++p / O F # & v. .| 6 Z.`.'  +1.L.8.g | ) H .+_ ++",
".+@ / p ) | @+#+$+o b ' O / |.:.%+| 2 &+F *+l.i .+@ / p ) | @+#+$+o b ' O / |.:.%+| 2 &+F *+l.i ",
"++1 J B . 9 =+-+;+{.++H J 3.S.>+,+< ) a.3.k = k.++1 J B . 9 =+-+;+{.++H J 3.S.>+,+< ) a.3.k = k.",
"A '+)+g A C M.!+a ].~++ %.b.{+]+^+/+(+i W 4 a $ A '+)+g A C M.!+a ].~++ %.b.{+]+^+/+(+i W 4 a $ ",
"O J C 1 ' a h._+S :+<+[+m.< _.}+|+1+U : (.2+3+4+O J C 1 ' a h._+S :+<+[+m.< _.}+|+1+U : (.2+3+4+",
"n 1 J 5+n = S %+6+++v.7+j 8+; 9+$+;+0+a+< b+c+) n 1 J 5+n = S %+6+++v.7+j 8+; 9+$+;+0+a+< b+c+) ",
"6 g i 8 7 d+e+f+g+4.q -.)+* p.B M.h+i+M.j+8.m | 6 g i 8 7 d+e+f+g+4.q -.)+* p.B M.h+i+M.j+8.m | ",
")+) 7 ) k / D z l.# k+l+& : i u u | ++' D . m+| )+) 7 ) k / D z l.# k+l+& : i u u | ++' D . m+| ",
"J + I ++@ j l.~.n+o+p+#.,.f H 3 J 5 9.q+' F H 4.J + I ++@ j l.~.n+o+p+#.,.f H 3 J 5 9.q+' F H 4."};
