/* XPM */
static char * N1_xpm[] = {
"48 48 245 2",
"  	c None",
". 	c #8FB93D",
"+ 	c #85B13B",
"@ 	c #7EAA39",
"# 	c #86B13B",
"$ 	c #83AE3A",
"% 	c #8BB53D",
"& 	c #84AE3A",
"* 	c #7FAA39",
"= 	c #7DA938",
"- 	c #7FA838",
"; 	c #88B23B",
"> 	c #85AE3A",
", 	c #83AC3A",
"' 	c #87B13B",
") 	c #85B03B",
"! 	c #80AB39",
"~ 	c #7BA738",
"{ 	c #88B33C",
"] 	c #8AB53D",
"^ 	c #7EAA38",
"/ 	c #8CB63D",
"( 	c #7AA537",
"_ 	c #78A537",
": 	c #82AD3A",
"< 	c #7FA938",
"[ 	c #749D34",
"} 	c #7CA638",
"| 	c #8DB73D",
"1 	c #8EB73D",
"2 	c #86B23B",
"3 	c #87B23B",
"4 	c #75A236",
"5 	c #7CA838",
"6 	c #8AB43C",
"7 	c #84AF3B",
"8 	c #81AC3A",
"9 	c #92BB3F",
"0 	c #73A036",
"a 	c #81AB39",
"b 	c #88AF3B",
"c 	c #82AB39",
"d 	c #83AC39",
"e 	c #85AF3A",
"f 	c #8BB43C",
"g 	c #90B93E",
"h 	c #93BD3E",
"i 	c #8AB53C",
"j 	c #87B23C",
"k 	c #8FB93E",
"l 	c #93BB3E",
"m 	c #94BC3F",
"n 	c #81AC39",
"o 	c #8EB83E",
"p 	c #84AF3A",
"q 	c #7CA738",
"r 	c #8FB83E",
"s 	c #8CB43D",
"t 	c #89B23C",
"u 	c #89B43C",
"v 	c #95BE3F",
"w 	c #9AC140",
"x 	c #9CC040",
"y 	c #93BC3F",
"z 	c #8CB73D",
"A 	c #91BA3F",
"B 	c #94BD3F",
"C 	c #91BA3E",
"D 	c #8FB83D",
"E 	c #99BF40",
"F 	c #82AE3A",
"G 	c #78A436",
"H 	c #7FAB39",
"I 	c #7DA838",
"J 	c #8EB83D",
"K 	c #8DB63D",
"L 	c #89B23B",
"M 	c #88B23C",
"N 	c #93BD3F",
"O 	c #8BB63D",
"P 	c #80AB3A",
"Q 	c #80AC39",
"R 	c #85B13C",
"S 	c #82AC39",
"T 	c #7BA036",
"U 	c #81A638",
"V 	c #87B03B",
"W 	c #87B13C",
"X 	c #83AD3A",
"Y 	c #7EA939",
"Z 	c #7DA638",
"` 	c #7AA437",
" .	c #7BA838",
"..	c #82AE39",
"+.	c #77A337",
"@.	c #7BA336",
"#.	c #7FA437",
"$.	c #84AD3A",
"%.	c #85B03A",
"&.	c #77A437",
"*.	c #729E34",
"=.	c #7AA236",
"-.	c #8CB53D",
";.	c #8AB23C",
">.	c #769933",
",.	c #81A838",
"'.	c #89B53C",
").	c #7AA737",
"!.	c #8EB73C",
"~.	c #78A437",
"{.	c #88B33B",
"].	c #82AD39",
"^.	c #8CB33B",
"/.	c #8EB53D",
"(.	c #75A237",
"_.	c #85AD3A",
":.	c #8AB33C",
"<.	c #93B93E",
"[.	c #91B93D",
"}.	c #92BC3E",
"|.	c #94BE3F",
"1.	c #84B03B",
"2.	c #98BF40",
"3.	c #97C040",
"4.	c #80AC3A",
"5.	c #83AF3A",
"6.	c #92BD3F",
"7.	c #90BA3E",
"8.	c #92BB3E",
"9.	c #719F35",
"0.	c #8FBA3E",
"a.	c #8CB63C",
"b.	c #7EA838",
"c.	c #80A939",
"d.	c #7DA939",
"e.	c #81AD3A",
"f.	c #84B03A",
"g.	c #7CA737",
"h.	c #7FA537",
"i.	c #7DA135",
"j.	c #80A838",
"k.	c #7AA738",
"l.	c #7CA938",
"m.	c #6F9D34",
"n.	c #719D35",
"o.	c #000000",
"p.	c #82AE3B",
"q.	c #709B34",
"r.	c #7DA337",
"s.	c #7EA938",
"t.	c #7BA938",
"u.	c #6F9C35",
"v.	c #749C34",
"w.	c #759C34",
"x.	c #7AA336",
"y.	c #91BB3E",
"z.	c #79A538",
"A.	c #29380C",
"B.	c #83AF3B",
"C.	c #7FAA38",
"D.	c #7BA537",
"E.	c #8CB33C",
"F.	c #93BA3E",
"G.	c #8DB83E",
"H.	c #FFFFFF",
"I.	c #695A5A",
"J.	c #8FB43C",
"K.	c #96BE3F",
"L.	c #89B33C",
"M.	c #86AF3A",
"N.	c #85AF3B",
"O.	c #7DA839",
"P.	c #7FAA3A",
"Q.	c #77A136",
"R.	c #7EA638",
"S.	c #79A336",
"T.	c #7AA637",
"U.	c #86B03B",
"V.	c #86B13A",
"W.	c #90B63C",
"X.	c #98BB3F",
"Y.	c #98C040",
"Z.	c #99BE40",
"`.	c #91B93E",
" +	c #98C140",
".+	c #92BC3F",
"++	c #80AD39",
"@+	c #82AC3A",
"#+	c #749B34",
"$+	c #7DA336",
"%+	c #84A938",
"&+	c #8EB93E",
"*+	c #81AA39",
"=+	c #7DA236",
"-+	c #7EA337",
";+	c #74A035",
">+	c #8BB63C",
",+	c #8FB63D",
"'+	c #88B13B",
")+	c #83AB39",
"!+	c #8AB33B",
"~+	c #729C34",
"{+	c #E0B0B0",
"]+	c #87B03C",
"^+	c #89B43D",
"/+	c #8CB53C",
"(+	c #8EB63D",
"_+	c #88B03B",
":+	c #87AF3B",
"<+	c #8EB73E",
"[+	c #719E34",
"}+	c #79A537",
"|+	c #84AB39",
"1+	c #7EAB39",
"2+	c #8FB73D",
"3+	c #95BD3F",
"4+	c #95BE40",
"5+	c #8DB83D",
"6+	c #90BA3D",
"7+	c #86AE3A",
"8+	c #789734",
"9+	c #7C9E36",
"0+	c #9ABF40",
"a+	c #96BD40",
"b+	c #80A637",
"c+	c #82A437",
"d+	c #76A437",
"e+	c #97BE40",
"f+	c #77A436",
"g+	c #799B34",
"h+	c #7A9E34",
"i+	c #7EA236",
"j+	c #82A938",
"k+	c #7BA236",
"l+	c #7EA537",
"m+	c #779F35",
"n+	c #769E35",
"o+	c #83A838",
"p+	c #90B83E",
"q+	c #84AE3B",
"r+	c #89B13B",
"s+	c #7DA738",
"t+	c #89B03B",
"u+	c #91BB3F",
"v+	c #96BF3F",
". + @ # $ % & * = - ; > , ' @ ) ! ~ ! { ] ) ^ / . + @ # $ % & * = - ; > , ' @ ) ! ~ ! { ] ) ^ / ",
"( _ : < { ! [ } | 1 2 3 @ 4 5 $ 3 1 | 6 7 8 6 9 ( _ : < { ! [ } | 1 2 3 @ 4 5 $ 3 1 | 6 7 8 6 9 ",
"0 a b c ! d e f g h i j k 6 l m n * o p q 5 # 8 0 a b c ! d e f g h i j k 6 l m n * o p q 5 # 8 ",
"j r s t u 1 v w x y z A B C D E C * F u G H $ I j r s t u 1 v w x y z A B C D E C * F u G H $ I ",
"] v | 3 J K L u | m k g o k M u N O 4 P Q o J ) ] v | 3 J K L u | m k g o k M u N O 4 P Q o J ) ",
"k R 5 & S T U V # M i W X Q Y : H Z `  .$ z ..; k R 5 & S T U V # M i W X Q Y : H Z `  .$ z ..; ",
"% +.) $ @.#.$., { %.6 &.*.=.- -.;.>.,.J '.F ).!.% +.) $ @.#.$., { %.6 &.*.=.- -.;.>.,.J '.F ).!.",
"~.+.{.].^./.9 q = + $ (.~ _._.:.<.[.}.|.C 6 ) K ~.+.{.].^./.9 q = + $ (.~ _._.:.<.[.}.|.C 6 ) K ",
"u 1.%.J 2.2.3.}.{ 8 4.5.{ | u u 6 6.7.: 6 y 8.3 u 1.%.J 2.2.3.}.{ 8 4.5.{ | u u 6 6.7.: 6 y 8.3 ",
"A ~.9.i ! %.0.z i f # { a./ b.c.1.i = ~ u 7 u k A ~.9.i ! %.0.z i f # { a./ b.c.1.i = ~ u 7 u k ",
"{ F d.e.F 5.p u p # z f. .g.h.i.j.k.l.8 m.n.M 7.{ F d.e.F 5.p u p # z f. .g.h.i.j.k.l.8 m.n.M 7.",
"Y I a.-.7.y j u o.g 3 p.4 q.h.r.o.s.t.u.v.w.x.' Y I a.-.7.y j u y.g 3 p.4 q.h.r.@.s.t.u.v.w.x.' ",
"z.j v | / 7.6 o.A.k F B./ B.C.D.o.o.! I E.F.J ! z.j v | / 7.6 3 | k F o.o.o.o.o.o.C ! I E.F.J ! ",
"G.r o ) Q $.o.H.I.o.1.e J.K.k o.I.H.o.a.i L.u D G.r o ) Q $.' # M.o.o.o.I.I.I.I.o.o.o.a.i L.u D ",
"! N.7 O.$ o.o.I.I.I.o.o.o.o.o.I.I.I.o.o.5 P.8 6 ! N.7 O.$ Q.R.L.S.o.I.I.I.I.I.I.I.I.o.o.5 P.8 6 ",
"p / O F # o.I.I.I.I.I.I.I.I.I.I.I.I.I.o.H T._ U.p / O F # & v. .o.I.I.I.I.I.I.I.I.I.I.o.H T._ U.",
"T.@ / p ) o.I.I.I.I.I.I.H.H.I.I.I.I.I.o.F V.l.i T.@ / p ) | W.X.o.o.I.o.o.o.o.I.I.I.I.o.F V.l.i ",
"U.1 J B . o.I.I.I.I.I.I.H.H.H.I.I.I.I.o.3.k = k.U.1 J B . 9 Y.Z.`.o.o.o.J 3.o.o.I.I.I.o.3.k = k.",
"A  +.+g A o.I.I.o.I.I.H.H.H.H.H.o.I.I.o.W 4 a $ A  +.+g A C L.++a ].@++ %.b.#+o.I.I.I.o.W 4 a $ ",
"O J C 1 ' o.I.I.o.H.H.H.I.H.H.H.o.H.I.o.(.$+%+&+O J C 1 ' a h.*+S =+-+;+m.< o.I.I.I.I.o.(.$+%+&+",
"n 1 J >+n o.I.H.H.H.H.H.o.H.H.H.H.H.I.o.< ,+'+o.o.o.o.o.o.= S )+!+U.v.~+j o.I.I.I.I.I.o.< ,+'+) ",
"6 g i 8 7 o.H.H.H.H.H.o.{+o.H.H.H.H.H.o.o.o.o.H.H.H.H.H.H.o.]+^+/+4.q -.o.o.I.I.I.I.o.L.(+8.m | ",
".+) 7 ) k o.H.H.H.H.H.H.H.H.H.H.H.H.H.o.H.H.I.I.I.I.I.I.I.H.o.z l.# _+:+o.I.I.I.I.o.o.' D . <+| ",
"J + I U.@ j o.H.H.H.H.H.H.H.H.H.H.H.o.H.I.I.I.I.I.I.I.I.I.I.H.o.[+}+|+o.I.I.I.I.o.5 9.1+' F H 4.",
". + @ # $ % & o.H.H.H.H.H.H.H.H.H.o.H.I.I.I.I.I.I.I.I.I.I.I.I.H.o.- o.o.I.I.I.o.! ~ ! { ] ) ^ / ",
"( _ : < { ! [ } o.H.H.H.H.H.H.H.o.H.I.I.I.I.I.I.I.I.I.I.I.I.I.I.H.o.o.I.I.I.o.$ 3 1 | 6 7 8 6 9 ",
"0 a b c ! d e f g o.H.H.H.H.H.o.H.I.I.I.I.I.I.I.I.I.I.I.I.I.I.I.I.I.I.I.o.o.l m n * o p q 5 # 8 ",
"j r s t u 1 v w x o.o.H.H.H.I.I.I.I.I.I.I.I.I.I.I.I.I.I.I.I.I.I.I.I.I.I.o.C D E C * F u G H $ I ",
"] v | 3 J K L u | m o.o.H.I.I.I.I.I.I.I.I.I.I.I.I.I.I.I.I.I.I.I.I.I.I.I.o.k M u N O 4 P Q o J ) ",
"k R 5 & S T U V # M i o.I.I.I.I.I.I.I.I.I.I.I.I.I.I.I.I.I.I.I.I.I.I.I.o.o.Q Y : H Z `  .$ z ..; ",
"% +.) $ @.#.$., { %.6 o.I.I.I.I.I.I.I.I.I.I.I.I.I.I.I.I.I.I.I.I.I.I.I.o.*.=.- -.;.>.,.J '.F ).!.",
"~.+.{.].^./.9 q = + $ o.I.I.I.I.I.I.I.I.I.I.I.I.I.I.I.I.I.I.I.I.I.I.I.o.~ _._.:.<.[.}.|.C 6 ) K ",
"u 1.%.J 2.2.3.}.{ 8 4.o.I.I.o.o.I.I.I.o.I.I.I.I.I.o.I.I.I.o.o.I.I.I.o.5.{ | u u 6 6.7.: 6 y 8.3 ",
"A ~.9.i ! %.0.z i f # o.I.o.b.c.o.I.o.~ o.o.o.o.o.~.o.I.o.%.0.o.I.o.# { a./ b.c.1.i = ~ u 7 u k ",
"{ F d.e.F 5.p u p # z o.I.o.h.i.o.I.o.8 m.n.M 7.{ F o.I.o.5.p o.I.o.z f. .g.h.i.j.k.l.8 m.n.M 7.",
"Y I a.-.7.y j u y.g 3 o.I.o.h.r.o.I.o.u.v.w.x.' Y I o.I.o.y j o.I.o.3 p.4 q.h.r.@.s.t.u.v.w.x.' ",
"z.j v | / 7.6 3 | k F o.H.o.C.D.o.H.o.I E.F.J ! z.j o.H.o.7.6 o.H.o.F B./ B.C.D.2+C ! I E.F.J ! ",
"G.r o ) Q $.' # M.5 1.o.H.o.k 3+o.H.o.a.i L.u D G.o.o.H.o.$.' o.H.o.1.e J.K.k 3+4+y.5+a.i L.u D ",
"! N.7 O.$ Q.R.L.S.` o.H.H.o.6+o.H.H.o.5.5 P.8 6 ! o.H.H.o.Q.o.H.H.o.7+8+9+D 6+0+a+L.u 5.5 P.8 6 ",
"p / O F # & v. .| 6 o.o.o.o.1.o.o.o.o.) H T._ U.p o.o.o.o.& o.o.o.o.b+c+' d+1.5+8.g | ) H T._ U.",
"T.@ / p ) | W.X.e+o b ' O / |.:.)+| 2 f+F V.l.i T.@ / p ) | W.X.e+o b ' O / |.:.)+| 2 f+F V.l.i ",
"U.1 J B . 9 Y.Z.`.{.U.H J 3.7+g+h+< ) a.3.k = k.U.1 J B . 9 Y.Z.`.{.U.H J 3.7+g+h+< ) a.3.k = k.",
"A  +.+g A C L.++a ].@++ %.b.#+i+j+k+l+i W 4 a $ A  +.+g A C L.++a ].@++ %.b.#+i+j+k+l+i W 4 a $ ",
"O J C 1 ' a h.*+S =+-+;+m.< _.m+n+o+U : (.$+%+&+O J C 1 ' a h.*+S =+-+;+m.< _.m+n+o+U : (.$+%+&+",
"n 1 J >+n = S )+!+U.v.~+j p+; q+e+`.r+s+< ,+'+) n 1 J >+n = S )+!+U.v.~+j p+; q+e+`.r+s+< ,+'+) ",
"6 g i 8 7 t+]+^+/+4.q -..+* p.B L.u+v+L.(+8.m | 6 g i 8 7 t+]+^+/+4.q -..+* p.B L.u+v+L.(+8.m | ",
".+) 7 ) k / D z l.# _+:+& : i u u | U.' D . <+| .+) 7 ) k / D z l.# _+:+& : i u u | U.' D . <+| ",
"J + I U.@ j l.~.[+}+|+#.,.f H 3 J 5 9.1+' F H 4.J + I U.@ j l.~.[+}+|+#.,.f H 3 J 5 9.1+' F H 4."};
