/* XPM */
static char * N2_xpm[] = {
"48 48 245 2",
"  	c None",
". 	c #8FB93D",
"+ 	c #85B13B",
"@ 	c #7EAA39",
"# 	c #86B13B",
"$ 	c #83AE3A",
"% 	c #8BB53D",
"& 	c #84AE3A",
"* 	c #7FAA39",
"= 	c #7DA938",
"- 	c #7FA838",
"; 	c #88B23B",
"> 	c #85AE3A",
", 	c #83AC3A",
"' 	c #87B13B",
") 	c #85B03B",
"! 	c #80AB39",
"~ 	c #7BA738",
"{ 	c #88B33C",
"] 	c #8AB53D",
"^ 	c #7EAA38",
"/ 	c #8CB63D",
"( 	c #7AA537",
"_ 	c #78A537",
": 	c #82AD3A",
"< 	c #7FA938",
"[ 	c #749D34",
"} 	c #7CA638",
"| 	c #8DB73D",
"1 	c #8EB73D",
"2 	c #86B23B",
"3 	c #87B23B",
"4 	c #75A236",
"5 	c #7CA838",
"6 	c #8AB43C",
"7 	c #84AF3B",
"8 	c #81AC3A",
"9 	c #92BB3F",
"0 	c #73A036",
"a 	c #81AB39",
"b 	c #88AF3B",
"c 	c #82AB39",
"d 	c #83AC39",
"e 	c #85AF3A",
"f 	c #8BB43C",
"g 	c #90B93E",
"h 	c #93BD3E",
"i 	c #8AB53C",
"j 	c #87B23C",
"k 	c #8FB93E",
"l 	c #93BB3E",
"m 	c #94BC3F",
"n 	c #81AC39",
"o 	c #8EB83E",
"p 	c #84AF3A",
"q 	c #7CA738",
"r 	c #8FB83E",
"s 	c #8CB43D",
"t 	c #89B23C",
"u 	c #89B43C",
"v 	c #95BE3F",
"w 	c #9AC140",
"x 	c #9CC040",
"y 	c #93BC3F",
"z 	c #8CB73D",
"A 	c #91BA3F",
"B 	c #94BD3F",
"C 	c #91BA3E",
"D 	c #8FB83D",
"E 	c #99BF40",
"F 	c #82AE3A",
"G 	c #78A436",
"H 	c #7FAB39",
"I 	c #7DA838",
"J 	c #8EB83D",
"K 	c #8DB63D",
"L 	c #89B23B",
"M 	c #88B23C",
"N 	c #93BD3F",
"O 	c #8BB63D",
"P 	c #80AB3A",
"Q 	c #80AC39",
"R 	c #85B13C",
"S 	c #82AC39",
"T 	c #7BA036",
"U 	c #81A638",
"V 	c #87B03B",
"W 	c #87B13C",
"X 	c #83AD3A",
"Y 	c #7EA939",
"Z 	c #7DA638",
"` 	c #7AA437",
" .	c #7BA838",
"..	c #82AE39",
"+.	c #77A337",
"@.	c #7BA336",
"#.	c #7FA437",
"$.	c #84AD3A",
"%.	c #85B03A",
"&.	c #77A437",
"*.	c #729E34",
"=.	c #7AA236",
"-.	c #8CB53D",
";.	c #8AB23C",
">.	c #769933",
",.	c #81A838",
"'.	c #89B53C",
").	c #7AA737",
"!.	c #8EB73C",
"~.	c #78A437",
"{.	c #88B33B",
"].	c #82AD39",
"^.	c #8CB33B",
"/.	c #8EB53D",
"(.	c #75A237",
"_.	c #85AD3A",
":.	c #8AB33C",
"<.	c #93B93E",
"[.	c #91B93D",
"}.	c #92BC3E",
"|.	c #94BE3F",
"1.	c #84B03B",
"2.	c #98BF40",
"3.	c #97C040",
"4.	c #80AC3A",
"5.	c #83AF3A",
"6.	c #92BD3F",
"7.	c #90BA3E",
"8.	c #92BB3E",
"9.	c #000000",
"0.	c #719F35",
"a.	c #8FBA3E",
"b.	c #8CB63C",
"c.	c #7EA838",
"d.	c #80A939",
"e.	c #695A5A",
"f.	c #7DA939",
"g.	c #81AD3A",
"h.	c #84B03A",
"i.	c #7CA737",
"j.	c #7FA537",
"k.	c #7DA135",
"l.	c #80A838",
"m.	c #7AA738",
"n.	c #7CA938",
"o.	c #6F9D34",
"p.	c #719D35",
"q.	c #82AE3B",
"r.	c #709B34",
"s.	c #7DA337",
"t.	c #7EA938",
"u.	c #7BA938",
"v.	c #6F9C35",
"w.	c #749C34",
"x.	c #759C34",
"y.	c #7AA336",
"z.	c #91BB3E",
"A.	c #79A538",
"B.	c #29380C",
"C.	c #83AF3B",
"D.	c #7FAA38",
"E.	c #7BA537",
"F.	c #8CB33C",
"G.	c #93BA3E",
"H.	c #8DB83E",
"I.	c #FFFFFF",
"J.	c #8FB43C",
"K.	c #96BE3F",
"L.	c #89B33C",
"M.	c #86AF3A",
"N.	c #85AF3B",
"O.	c #7DA839",
"P.	c #7FAA3A",
"Q.	c #77A136",
"R.	c #7EA638",
"S.	c #79A336",
"T.	c #86AE3A",
"U.	c #789734",
"V.	c #7C9E36",
"W.	c #90BA3D",
"X.	c #9ABF40",
"Y.	c #7AA637",
"Z.	c #86B03B",
"`.	c #80A637",
" +	c #82A437",
".+	c #76A437",
"++	c #8DB83D",
"@+	c #86B13A",
"#+	c #90B63C",
"$+	c #98BB3F",
"%+	c #97BE40",
"&+	c #98C040",
"*+	c #99BE40",
"=+	c #91B93E",
"-+	c #799B34",
";+	c #98C140",
">+	c #92BC3F",
",+	c #80AD39",
"'+	c #82AC3A",
")+	c #749B34",
"!+	c #7EA236",
"~+	c #7DA336",
"{+	c #84A938",
"]+	c #8EB93E",
"^+	c #81AA39",
"/+	c #7DA236",
"(+	c #7EA337",
"_+	c #74A035",
":+	c #8BB63C",
"<+	c #8FB63D",
"[+	c #88B13B",
"}+	c #83AB39",
"|+	c #8AB33B",
"1+	c #729C34",
"2+	c #90B83E",
"3+	c #E0B0B0",
"4+	c #8EB63D",
"5+	c #8CB53C",
"6+	c #88B03B",
"7+	c #87AF3B",
"8+	c #8EB73E",
"9+	c #84AB39",
"0+	c #7EAB39",
"a+	c #8FB73D",
"b+	c #95BD3F",
"c+	c #95BE40",
"d+	c #96BD40",
"e+	c #77A436",
"f+	c #7A9E34",
"g+	c #82A938",
"h+	c #7BA236",
"i+	c #7EA537",
"j+	c #779F35",
"k+	c #769E35",
"l+	c #83A838",
"m+	c #84AE3B",
"n+	c #89B13B",
"o+	c #7DA738",
"p+	c #89B03B",
"q+	c #87B03C",
"r+	c #89B43D",
"s+	c #91BB3F",
"t+	c #96BF3F",
"u+	c #719E34",
"v+	c #79A537",
". + @ # $ % & * = - ; > , ' @ ) ! ~ ! { ] ) ^ / . + @ # $ % & * = - ; > , ' @ ) ! ~ ! { ] ) ^ / ",
"( _ : < { ! [ } | 1 2 3 @ 4 5 $ 3 1 | 6 7 8 6 9 ( _ : < { ! [ } | 1 2 3 @ 4 5 $ 3 1 | 6 7 8 6 9 ",
"0 a b c ! d e f g h i j k 6 l m n * o p q 5 # 8 0 a b c ! d e f g h i j k 6 l m n * o p q 5 # 8 ",
"j r s t u 1 v w x y z A B C D E C * F u G H $ I j r s t u 1 v w x y z A B C D E C * F u G H $ I ",
"] v | 3 J K L u | m k g o k M u N O 4 P Q o J ) ] v | 3 J K L u | m k g o k M u N O 4 P Q o J ) ",
"k R 5 & S T U V # M i W X Q Y : H Z `  .$ z ..; k R 5 & S T U V # M i W X Q Y : H Z `  .$ z ..; ",
"% +.) $ @.#.$., { %.6 &.*.=.- -.;.>.,.J '.F ).!.% +.) $ @.#.$., { %.6 &.*.=.- -.;.>.,.J '.F ).!.",
"~.+.{.].^./.9 q = + $ (.~ _._.:.<.[.}.|.C 6 ) K ~.+.{.].^./.9 q = + $ (.~ _._.:.<.[.}.|.C 6 ) K ",
"u 1.%.J 2.2.3.}.{ 8 4.5.{ | u u 6 6.7.: 6 y 8.3 u 1.%.J 2.2.3.}.{ 8 4.5.9.9.9.9.9.9.7.: 6 y 8.3 ",
"A ~.0.i ! %.a.z i f # { b./ c.d.1.i = ~ u 7 u k A ~.0.i ! %.a.z i f 9.9.9.e.e.e.e.9.9.9.u 7 u k ",
"{ F f.g.F 5.p u p # z h. .i.j.k.l.m.n.8 o.p.M 7.{ F f.g.F 5.p u p # 9.e.e.e.e.e.e.e.e.9.9.p.M 7.",
"Y I b.-.7.y j u 9.g 3 q.4 r.j.s.9.t.u.v.w.x.y.' Y I b.-.7.y j u z.9.e.e.e.e.e.e.e.e.e.e.9.x.y.' ",
"A.j v | / 7.6 9.B.k F C./ C.D.E.9.9.! I F.G.J ! A.j v | / 7.6 3 | 9.9.e.9.9.9.9.e.e.e.e.9.G.J ! ",
"H.r o ) Q $.9.I.e.9.1.e J.K.k 9.e.I.9.b.i L.u D H.r o ) Q $.' # M.5 9.9.9.K.k 9.9.e.e.e.9.L.u D ",
"! N.7 O.$ 9.9.e.e.e.9.9.9.9.9.e.e.e.9.9.5 P.8 6 ! N.7 O.$ Q.R.L.S.` T.U.V.D W.X.9.e.e.e.9.P.8 6 ",
"p / O F # 9.e.e.e.e.e.e.e.e.e.e.e.e.e.9.H Y._ Z.p / O F # & w. .| 6 `. +' .+1.++9.e.e.e.9.Y._ Z.",
"Y.@ / p ) 9.e.e.e.e.e.e.I.I.e.e.e.e.e.9.F @+n.i Y.@ / p ) | #+$+%+o b ' O / |.:.9.e.e.e.9.@+n.i ",
"Z.1 J B . 9.e.e.e.e.e.e.I.I.I.e.e.e.e.9.3.k = m.Z.1 J B . 9 &+*+=+{.Z.H J 3.T.-+9.e.e.e.9.k = m.",
"A ;+>+g A 9.e.e.9.e.e.I.I.I.I.I.9.e.e.9.W 4 a $ A ;+>+g A C L.,+a ].'++ %.c.)+!+9.e.e.e.9.4 a $ ",
"O J C 1 ' 9.e.e.9.I.I.I.e.I.I.I.9.I.e.9.(.~+{+]+O J C 1 ' a j.^+S /+(+_+o.< _.9.e.e.e.e.9.~+{+]+",
"n 1 J :+n 9.e.I.I.I.I.I.9.I.I.I.I.I.e.9.< <+[+) n 9.9.9.9.9.9.}+|+Z.w.1+j 2+9.e.e.e.e.e.9.<+[+) ",
"6 g i 8 7 9.I.I.I.I.I.9.3+9.I.I.I.I.I.9.4+8.9.9.9.I.I.I.I.I.I.9.5+4.q -.>+* 9.e.e.e.e.9.4+8.m | ",
">+) 7 ) k 9.I.I.I.I.I.I.I.I.I.I.I.I.I.9.D 9.I.I.e.e.e.e.e.e.e.I.9.# 6+7+& 9.e.e.e.e.e.9.D . 8+| ",
"J + I Z.@ j 9.I.I.I.I.I.I.I.I.I.I.I.9.I.9.I.e.e.e.e.e.e.e.e.e.e.I.9.9+#.9.9.e.e.e.e.9.0+' F H 4.",
". + @ # $ % & 9.I.I.I.I.I.I.I.I.I.9.I.e.I.e.e.e.e.e.e.e.e.e.e.e.e.I.9.> 9.e.e.e.e.9.9.{ ] ) ^ / ",
"( _ : < { ! [ } 9.I.I.I.I.I.I.I.9.I.e.e.e.e.e.e.e.e.e.e.e.e.e.e.e.e.I.9.e.e.e.e.9.1 | 6 7 8 6 9 ",
"0 a b c ! d e f g 9.I.I.I.I.I.9.I.e.e.e.e.e.e.e.e.e.e.e.e.e.e.e.e.e.e.e.e.e.e.9.n * o p q 5 # 8 ",
"j r s t u 1 v w x 9.9.I.I.I.e.e.e.e.e.e.e.e.e.e.e.e.e.e.e.e.e.e.e.e.e.e.e.e.9.E C * F u G H $ I ",
"] v | 3 J K L u | m 9.9.I.e.e.e.e.e.e.e.e.e.e.e.e.e.e.e.e.e.e.e.e.e.e.e.9.9.M u N O 4 P Q o J ) ",
"k R 5 & S T U V # M i 9.e.e.e.e.e.e.e.e.e.e.e.e.e.e.e.e.e.e.e.e.e.e.e.e.9.Q Y : H Z `  .$ z ..; ",
"% +.) $ @.#.$., { %.6 9.e.e.e.e.e.e.e.e.e.e.e.e.e.e.e.e.e.e.e.e.e.e.e.e.9.=.- -.;.>.,.J '.F ).!.",
"~.+.{.].^./.9 q = + $ 9.e.e.e.e.e.e.e.e.e.e.e.e.e.e.e.e.e.e.e.e.e.e.e.9.9._._.:.<.[.}.|.C 6 ) K ",
"u 1.%.J 2.2.3.}.{ 8 4.9.e.e.e.e.e.e.e.e.e.e.e.e.e.e.e.e.e.e.e.e.e.e.e.9.{ | u u 6 6.7.: 6 y 8.3 ",
"A ~.0.i ! %.a.z i f # 9.e.e.e.e.e.e.e.e.e.e.e.e.e.e.e.e.e.e.e.e.e.e.e.9.b./ c.d.1.i = ~ u 7 u k ",
"{ F f.g.F 5.p u p # z 9.e.e.9.9.e.e.e.9.e.e.e.e.e.e.e.e.e.9.9.e.e.e.9.h. .i.j.k.l.m.n.8 o.p.M 7.",
"Y I b.-.7.y j u z.g 3 9.e.9.j.s.9.e.9.v.9.9.9.9.9.9.9.e.9.y j 9.e.9.3 q.4 r.j.s.@.t.u.v.w.x.y.' ",
"A.j v | / 7.6 3 | k F 9.I.9.D.E.9.I.9.I F.G.J ! A.9.9.I.9.7.6 9.I.9.F C./ C.D.E.a+C ! I F.G.J ! ",
"H.r o ) Q $.' # M.5 9.I.I.9.k 9.I.I.9.b.i L.u D H.9.I.I.9.$.9.I.I.9.1.e J.K.k b+c+z.++b.i L.u D ",
"! N.7 O.$ Q.R.L.S.` 9.9.9.9.W.9.9.9.9.5.5 P.8 6 ! 9.9.9.9.Q.9.9.9.9.T.U.V.D W.X.d+L.u 5.5 P.8 6 ",
"p / O F # & w. .| 6 `. +' .+1.++8.g | ) H Y._ Z.p / O F # & w. .| 6 `. +' .+1.++8.g | ) H Y._ Z.",
"Y.@ / p ) | #+$+%+o b ' O / |.:.}+| 2 e+F @+n.i Y.@ / p ) | #+$+%+o b ' O / |.:.}+| 2 e+F @+n.i ",
"Z.1 J B . 9 &+*+=+{.Z.H J 3.T.-+f+< ) b.3.k = m.Z.1 J B . 9 &+*+=+{.Z.H J 3.T.-+f+< ) b.3.k = m.",
"A ;+>+g A C L.,+a ].'++ %.c.)+!+g+h+i+i W 4 a $ A ;+>+g A C L.,+a ].'++ %.c.)+!+g+h+i+i W 4 a $ ",
"O J C 1 ' a j.^+S /+(+_+o.< _.j+k+l+U : (.~+{+]+O J C 1 ' a j.^+S /+(+_+o.< _.j+k+l+U : (.~+{+]+",
"n 1 J :+n = S }+|+Z.w.1+j 2+; m+%+=+n+o+< <+[+) n 1 J :+n = S }+|+Z.w.1+j 2+; m+%+=+n+o+< <+[+) ",
"6 g i 8 7 p+q+r+5+4.q -.>+* q.B L.s+t+L.4+8.m | 6 g i 8 7 p+q+r+5+4.q -.>+* q.B L.s+t+L.4+8.m | ",
">+) 7 ) k / D z n.# 6+7+& : i u u | Z.' D . 8+| >+) 7 ) k / D z n.# 6+7+& : i u u | Z.' D . 8+| ",
"J + I Z.@ j n.~.u+v+9+#.,.f H 3 J 5 0.0+' F H 4.J + I Z.@ j n.~.u+v+9+#.,.f H 3 J 5 0.0+' F H 4."};
