/* XPM */
static char * N21_xpm[] = {
"48 48 245 2",
"  	c None",
". 	c #8FB93D",
"+ 	c #85B13B",
"@ 	c #7EAA39",
"# 	c #86B13B",
"$ 	c #83AE3A",
"% 	c #8BB53D",
"& 	c #84AE3A",
"* 	c #7FAA39",
"= 	c #7DA938",
"- 	c #7FA838",
"; 	c #88B23B",
"> 	c #85AE3A",
", 	c #83AC3A",
"' 	c #87B13B",
") 	c #85B03B",
"! 	c #80AB39",
"~ 	c #7BA738",
"{ 	c #88B33C",
"] 	c #8AB53D",
"^ 	c #7EAA38",
"/ 	c #8CB63D",
"( 	c #7AA537",
"_ 	c #78A537",
": 	c #82AD3A",
"< 	c #7FA938",
"[ 	c #749D34",
"} 	c #7CA638",
"| 	c #8DB73D",
"1 	c #8EB73D",
"2 	c #86B23B",
"3 	c #87B23B",
"4 	c #75A236",
"5 	c #7CA838",
"6 	c #8AB43C",
"7 	c #84AF3B",
"8 	c #81AC3A",
"9 	c #92BB3F",
"0 	c #73A036",
"a 	c #81AB39",
"b 	c #88AF3B",
"c 	c #82AB39",
"d 	c #83AC39",
"e 	c #85AF3A",
"f 	c #8BB43C",
"g 	c #90B93E",
"h 	c #93BD3E",
"i 	c #8AB53C",
"j 	c #87B23C",
"k 	c #8FB93E",
"l 	c #93BB3E",
"m 	c #94BC3F",
"n 	c #81AC39",
"o 	c #8EB83E",
"p 	c #84AF3A",
"q 	c #7CA738",
"r 	c #8FB83E",
"s 	c #8CB43D",
"t 	c #89B23C",
"u 	c #89B43C",
"v 	c #95BE3F",
"w 	c #9AC140",
"x 	c #9CC040",
"y 	c #93BC3F",
"z 	c #8CB73D",
"A 	c #91BA3F",
"B 	c #94BD3F",
"C 	c #91BA3E",
"D 	c #8FB83D",
"E 	c #99BF40",
"F 	c #82AE3A",
"G 	c #78A436",
"H 	c #7FAB39",
"I 	c #7DA838",
"J 	c #8EB83D",
"K 	c #8DB63D",
"L 	c #89B23B",
"M 	c #88B23C",
"N 	c #93BD3F",
"O 	c #8BB63D",
"P 	c #80AB3A",
"Q 	c #80AC39",
"R 	c #85B13C",
"S 	c #82AC39",
"T 	c #7BA036",
"U 	c #81A638",
"V 	c #87B03B",
"W 	c #87B13C",
"X 	c #83AD3A",
"Y 	c #7EA939",
"Z 	c #7DA638",
"` 	c #7AA437",
" .	c #7BA838",
"..	c #82AE39",
"+.	c #77A337",
"@.	c #7BA336",
"#.	c #7FA437",
"$.	c #84AD3A",
"%.	c #85B03A",
"&.	c #77A437",
"*.	c #729E34",
"=.	c #7AA236",
"-.	c #8CB53D",
";.	c #8AB23C",
">.	c #769933",
",.	c #81A838",
"'.	c #89B53C",
").	c #7AA737",
"!.	c #8EB73C",
"~.	c #78A437",
"{.	c #88B33B",
"].	c #82AD39",
"^.	c #8CB33B",
"/.	c #8EB53D",
"(.	c #75A237",
"_.	c #85AD3A",
":.	c #8AB33C",
"<.	c #93B93E",
"[.	c #91B93D",
"}.	c #92BC3E",
"|.	c #94BE3F",
"1.	c #84B03B",
"2.	c #98BF40",
"3.	c #97C040",
"4.	c #80AC3A",
"5.	c #83AF3A",
"6.	c #92BD3F",
"7.	c #90BA3E",
"8.	c #92BB3E",
"9.	c #719F35",
"0.	c #8FBA3E",
"a.	c #8CB63C",
"b.	c #7EA838",
"c.	c #80A939",
"d.	c #7DA939",
"e.	c #81AD3A",
"f.	c #84B03A",
"g.	c #7CA737",
"h.	c #7FA537",
"i.	c #7DA135",
"j.	c #80A838",
"k.	c #7AA738",
"l.	c #7CA938",
"m.	c #6F9D34",
"n.	c #719D35",
"o.	c #91BB3E",
"p.	c #82AE3B",
"q.	c #709B34",
"r.	c #7DA337",
"s.	c #7EA938",
"t.	c #7BA938",
"u.	c #6F9C35",
"v.	c #749C34",
"w.	c #759C34",
"x.	c #7AA336",
"y.	c #000000",
"z.	c #79A538",
"A.	c #83AF3B",
"B.	c #7FAA38",
"C.	c #7BA537",
"D.	c #8FB73D",
"E.	c #8CB33C",
"F.	c #93BA3E",
"G.	c #22310A",
"H.	c #8DB83E",
"I.	c #695A5A",
"J.	c #95BD3F",
"K.	c #95BE40",
"L.	c #8DB83D",
"M.	c #89B33C",
"N.	c #FFFFFF",
"O.	c #8FB43C",
"P.	c #96BE3F",
"Q.	c #85AF3B",
"R.	c #7DA839",
"S.	c #9ABF40",
"T.	c #96BD40",
"U.	c #7FAA3A",
"V.	c #7AA637",
"W.	c #86B03B",
"X.	c #83AB39",
"Y.	c #77A436",
"Z.	c #86B13A",
"`.	c #799B34",
" +	c #7A9E34",
".+	c #98C140",
"++	c #92BC3F",
"@+	c #82AC3A",
"#+	c #749B34",
"$+	c #7EA236",
"%+	c #82A938",
"&+	c #7BA236",
"*+	c #7EA537",
"=+	c #7EA337",
"-+	c #74A035",
";+	c #779F35",
">+	c #769E35",
",+	c #83A838",
"'+	c #7DA336",
")+	c #84A938",
"!+	c #8EB93E",
"~+	c #8BB63C",
"{+	c #729C34",
"]+	c #90B83E",
"^+	c #84AE3B",
"/+	c #97BE40",
"(+	c #91B93E",
"_+	c #89B13B",
":+	c #7DA738",
"<+	c #8FB63D",
"[+	c #88B13B",
"}+	c #91BB3F",
"|+	c #E0B0B0",
"1+	c #8EB63D",
"2+	c #8EB73E",
"3+	c #7EAB39",
"4+	c #86AF3A",
"5+	c #77A136",
"6+	c #7EA638",
"7+	c #79A336",
"8+	c #86AE3A",
"9+	c #789734",
"0+	c #7C9E36",
"a+	c #90BA3D",
"b+	c #80A637",
"c+	c #82A437",
"d+	c #76A437",
"e+	c #90B63C",
"f+	c #98BB3F",
"g+	c #98C040",
"h+	c #99BE40",
"i+	c #80AD39",
"j+	c #81AA39",
"k+	c #7DA236",
"l+	c #8AB33B",
"m+	c #89B03B",
"n+	c #87B03C",
"o+	c #89B43D",
"p+	c #8CB53C",
"q+	c #96BF3F",
"r+	c #88B03B",
"s+	c #87AF3B",
"t+	c #719E34",
"u+	c #79A537",
"v+	c #84AB39",
". + @ # $ % & * = - ; > , ' @ ) ! ~ ! { ] ) ^ / . + @ # $ % & * = - ; > , ' @ ) ! ~ ! { ] ) ^ / ",
"( _ : < { ! [ } | 1 2 3 @ 4 5 $ 3 1 | 6 7 8 6 9 ( _ : < { ! [ } | 1 2 3 @ 4 5 $ 3 1 | 6 7 8 6 9 ",
"0 a b c ! d e f g h i j k 6 l m n * o p q 5 # 8 0 a b c ! d e f g h i j k 6 l m n * o p q 5 # 8 ",
"j r s t u 1 v w x y z A B C D E C * F u G H $ I j r s t u 1 v w x y z A B C D E C * F u G H $ I ",
"] v | 3 J K L u | m k g o k M u N O 4 P Q o J ) ] v | 3 J K L u | m k g o k M u N O 4 P Q o J ) ",
"k R 5 & S T U V # M i W X Q Y : H Z `  .$ z ..; k R 5 & S T U V # M i W X Q Y : H Z `  .$ z ..; ",
"% +.) $ @.#.$., { %.6 &.*.=.- -.;.>.,.J '.F ).!.% +.) $ @.#.$., { %.6 &.*.=.- -.;.>.,.J '.F ).!.",
"~.+.{.].^./.9 q = + $ (.~ _._.:.<.[.}.|.C 6 ) K ~.+.{.].^./.9 q = + $ (.~ _._.:.<.[.}.|.C 6 ) K ",
"u 1.%.J 2.2.3.}.{ 8 4.5.{ | u u 6 6.7.: 6 y 8.3 u 1.%.J 2.2.3.}.{ 8 4.5.{ | u u 6 6.7.: 6 y 8.3 ",
"A ~.9.i ! %.0.z i f # { a./ b.c.1.i = ~ u 7 u k A ~.9.i ! %.0.z i f # { a./ b.c.1.i = ~ u 7 u k ",
"{ F d.e.F 5.p u p # z f. .g.h.i.j.k.l.8 m.n.M 7.{ F d.e.F 5.p u p # z f. .g.h.i.j.k.l.8 m.n.M 7.",
"Y I a.-.7.y j u o.g 3 p.4 q.h.r.@.s.t.u.v.w.x.' Y I a.-.7.y j y.o.g 3 p.4 q.h.y.@.s.t.u.v.w.x.' ",
"z.j v | / 7.6 y.y.y.y.y.y.A.B.C.D.C ! I E.F.J ! z.j v | / 7.y.y.| k F A./ A.B.G.y.C ! I E.F.J ! ",
"H.r o ) Q y.y.y.I.I.I.I.y.y.y.J.K.o.L.a.i M.u D H.r o ) Q y.N.I.y.5 1.e O.P.y.I.N.y.L.a.i M.u D ",
"! Q.7 R.y.y.I.I.I.I.I.I.I.I.y.S.T.M.u 5.5 U.8 6 ! Q.7 R.y.y.I.I.I.y.y.y.y.y.I.I.I.y.y.5.5 U.8 6 ",
"p / O F y.I.I.I.I.I.I.I.I.I.I.y.8.g | ) H V._ W.p / O F y.I.I.I.I.I.I.I.I.I.I.I.I.I.y.) H V._ W.",
"V.@ / p y.I.I.I.I.y.y.y.y.I.y.y.X.| 2 Y.F Z.l.i V.@ / p y.I.I.I.I.I.N.N.I.I.I.I.I.I.y.Y.F Z.l.i ",
"W.1 J B y.I.I.I.y.y.W.H y.y.y.`. +< ) a.3.k = k.W.1 J B y.I.I.I.I.N.N.N.I.I.I.I.I.I.y.a.3.k = k.",
"A .+++g y.I.I.I.y.].@++ %.b.#+$+%+&+*+i W 4 a $ A .+++g y.I.I.y.N.N.N.N.N.I.I.y.I.I.y.i W 4 a $ ",
"O J C 1 y.I.I.I.I.y.=+-+m.< _.;+>+,+U : (.'+)+!+O J C 1 y.I.N.y.N.N.N.I.N.N.N.y.I.I.y.: (.'+)+!+",
"n 1 J ~+y.I.I.I.I.I.y.{+j ]+; ^+/+(+_+y.y.y.y.y.y.1 J ~+y.I.N.N.N.N.N.y.N.N.N.N.N.I.y.:+< <+[+) ",
"6 g i 8 7 y.I.I.I.I.y.y.++* p.B M.}+y.N.N.N.N.N.N.y.y.y.y.N.N.N.N.N.y.|+y.N.N.N.N.N.y.M.1+8.m | ",
"++) 7 ) k y.y.I.I.I.I.y.& : i u u y.N.I.I.I.I.I.I.I.N.N.y.N.N.N.N.N.N.N.N.N.N.N.N.N.y.' D . 2+| ",
"J + I W.@ j l.y.I.I.I.I.y.f H 3 y.N.I.I.I.I.I.I.I.I.I.I.N.y.N.N.N.N.N.N.N.N.N.N.N.y.9.3+' F H 4.",
". + @ # $ % & * y.I.I.I.y.y.@ y.N.I.I.I.I.I.I.I.I.I.I.I.I.N.y.N.N.N.N.N.N.N.N.N.y.~ ! { ] ) ^ / ",
"( _ : < { ! [ } | y.I.I.I.y.y.N.I.I.I.I.I.I.I.I.I.I.I.I.I.I.N.y.N.N.N.N.N.N.N.y.3 1 | 6 7 8 6 9 ",
"0 a b c ! d e f g h y.y.I.I.I.I.I.I.I.I.I.I.I.I.I.I.I.I.I.I.I.N.y.N.N.N.N.N.y.m n * o p q 5 # 8 ",
"j r s t u 1 v w x y z y.I.I.I.I.I.I.I.I.I.I.I.I.I.I.I.I.I.I.I.I.I.I.N.N.N.y.y.E C * F u G H $ I ",
"] v | 3 J K L u | m k y.I.I.I.I.I.I.I.I.I.I.I.I.I.I.I.I.I.I.I.I.I.I.I.N.y.y.M u N O 4 P Q o J ) ",
"k R 5 & S T U V # M i y.y.I.I.I.I.I.I.I.I.I.I.I.I.I.I.I.I.I.I.I.I.I.I.I.y.Q Y : H Z `  .$ z ..; ",
"% +.) $ @.#.$., { %.6 &.y.I.I.I.I.I.I.I.I.I.I.I.I.I.I.I.I.I.I.I.I.I.I.I.y.=.- -.;.>.,.J '.F ).!.",
"~.+.{.].^./.9 q = + $ (.y.I.I.I.I.I.I.I.I.I.I.I.I.I.I.I.I.I.I.I.I.I.I.I.y._._.:.<.[.}.|.C 6 ) K ",
"u 1.%.J 2.2.3.}.{ 8 4.5.{ y.I.I.I.y.y.I.I.I.y.I.I.I.I.I.y.I.I.I.y.y.I.I.y.| u u 6 6.7.: 6 y 8.3 ",
"A ~.9.i ! %.0.z i f # { a./ y.I.y.i = y.I.y.u y.y.y.y.y.! y.I.y.i f y.I.y./ b.c.1.i = ~ u 7 u k ",
"{ F d.e.F 5.p u p # z f. .g.y.I.y.k.l.y.I.y.M 7.{ F d.e.F y.I.y.p # y.I.y.g.h.i.j.k.l.8 m.n.M 7.",
"Y I a.-.7.y j u o.g 3 p.4 q.y.I.y.s.t.y.I.y.x.' Y I a.-.7.y.I.y.o.g y.I.y.q.h.r.@.s.t.u.v.w.x.' ",
"z.j v | / 7.6 3 | k F A./ A.y.N.y.C ! y.N.y.J ! z.j v | / y.N.y.| k y.N.y.A.B.C.D.C ! I E.F.J ! ",
"H.r o ) Q $.' # 4+5 1.e O.P.y.N.y.o.L.y.N.y.y.D H.r o ) Q y.N.y.4+5 y.N.y.P.k J.K.o.L.a.i M.u D ",
"! Q.7 R.$ 5+6+M.7+` 8+9+0+D y.N.N.y.u y.N.N.y.6 ! Q.7 R.$ y.N.N.y.` y.N.N.y.a+S.T.M.u 5.5 U.8 6 ",
"p / O F # & v. .| 6 b+c+' d+y.y.y.y.| y.y.y.y.W.p / O F # y.y.y.y.6 y.y.y.y.1.L.8.g | ) H V._ W.",
"V.@ / p ) | e+f+/+o b ' O / |.:.X.| 2 Y.F Z.l.i V.@ / p ) | e+f+/+o b ' O / |.:.X.| 2 Y.F Z.l.i ",
"W.1 J B . 9 g+h+(+{.W.H J 3.8+`. +< ) a.3.k = k.W.1 J B . 9 g+h+(+{.W.H J 3.8+`. +< ) a.3.k = k.",
"A .+++g A C M.i+a ].@++ %.b.#+$+%+&+*+i W 4 a $ A .+++g A C M.i+a ].@++ %.b.#+$+%+&+*+i W 4 a $ ",
"O J C 1 ' a h.j+S k+=+-+m.< _.;+>+,+U : (.'+)+!+O J C 1 ' a h.j+S k+=+-+m.< _.;+>+,+U : (.'+)+!+",
"n 1 J ~+n = S X.l+W.v.{+j ]+; ^+/+(+_+:+< <+[+) n 1 J ~+n = S X.l+W.v.{+j ]+; ^+/+(+_+:+< <+[+) ",
"6 g i 8 7 m+n+o+p+4.q -.++* p.B M.}+q+M.1+8.m | 6 g i 8 7 m+n+o+p+4.q -.++* p.B M.}+q+M.1+8.m | ",
"++) 7 ) k / D z l.# r+s+& : i u u | W.' D . 2+| ++) 7 ) k / D z l.# r+s+& : i u u | W.' D . 2+| ",
"J + I W.@ j l.~.t+u+v+#.,.f H 3 J 5 9.3+' F H 4.J + I W.@ j l.~.t+u+v+#.,.f H 3 J 5 9.3+' F H 4."};
