/* XPM */
static char * N22_xpm[] = {
"48 48 245 2",
"  	c None",
". 	c #8FB93D",
"+ 	c #85B13B",
"@ 	c #7EAA39",
"# 	c #86B13B",
"$ 	c #83AE3A",
"% 	c #8BB53D",
"& 	c #84AE3A",
"* 	c #7FAA39",
"= 	c #7DA938",
"- 	c #7FA838",
"; 	c #88B23B",
"> 	c #85AE3A",
", 	c #83AC3A",
"' 	c #87B13B",
") 	c #85B03B",
"! 	c #80AB39",
"~ 	c #7BA738",
"{ 	c #88B33C",
"] 	c #8AB53D",
"^ 	c #7EAA38",
"/ 	c #8CB63D",
"( 	c #7AA537",
"_ 	c #78A537",
": 	c #82AD3A",
"< 	c #7FA938",
"[ 	c #749D34",
"} 	c #7CA638",
"| 	c #8DB73D",
"1 	c #8EB73D",
"2 	c #86B23B",
"3 	c #87B23B",
"4 	c #75A236",
"5 	c #7CA838",
"6 	c #8AB43C",
"7 	c #84AF3B",
"8 	c #81AC3A",
"9 	c #92BB3F",
"0 	c #73A036",
"a 	c #81AB39",
"b 	c #88AF3B",
"c 	c #82AB39",
"d 	c #83AC39",
"e 	c #85AF3A",
"f 	c #8BB43C",
"g 	c #90B93E",
"h 	c #93BD3E",
"i 	c #8AB53C",
"j 	c #87B23C",
"k 	c #8FB93E",
"l 	c #93BB3E",
"m 	c #94BC3F",
"n 	c #81AC39",
"o 	c #8EB83E",
"p 	c #84AF3A",
"q 	c #7CA738",
"r 	c #8FB83E",
"s 	c #8CB43D",
"t 	c #89B23C",
"u 	c #89B43C",
"v 	c #95BE3F",
"w 	c #9AC140",
"x 	c #9CC040",
"y 	c #93BC3F",
"z 	c #8CB73D",
"A 	c #91BA3F",
"B 	c #94BD3F",
"C 	c #91BA3E",
"D 	c #8FB83D",
"E 	c #99BF40",
"F 	c #82AE3A",
"G 	c #78A436",
"H 	c #7FAB39",
"I 	c #7DA838",
"J 	c #8EB83D",
"K 	c #8DB63D",
"L 	c #89B23B",
"M 	c #88B23C",
"N 	c #93BD3F",
"O 	c #8BB63D",
"P 	c #80AB3A",
"Q 	c #80AC39",
"R 	c #85B13C",
"S 	c #82AC39",
"T 	c #7BA036",
"U 	c #81A638",
"V 	c #87B03B",
"W 	c #87B13C",
"X 	c #83AD3A",
"Y 	c #7EA939",
"Z 	c #7DA638",
"` 	c #7AA437",
" .	c #7BA838",
"..	c #82AE39",
"+.	c #77A337",
"@.	c #7BA336",
"#.	c #7FA437",
"$.	c #84AD3A",
"%.	c #85B03A",
"&.	c #77A437",
"*.	c #729E34",
"=.	c #7AA236",
"-.	c #8CB53D",
";.	c #8AB23C",
">.	c #769933",
",.	c #81A838",
"'.	c #89B53C",
").	c #7AA737",
"!.	c #8EB73C",
"~.	c #78A437",
"{.	c #88B33B",
"].	c #82AD39",
"^.	c #8CB33B",
"/.	c #8EB53D",
"(.	c #75A237",
"_.	c #85AD3A",
":.	c #8AB33C",
"<.	c #93B93E",
"[.	c #91B93D",
"}.	c #92BC3E",
"|.	c #94BE3F",
"1.	c #84B03B",
"2.	c #98BF40",
"3.	c #000000",
"4.	c #92BD3F",
"5.	c #90BA3E",
"6.	c #92BB3E",
"7.	c #97C040",
"8.	c #80AC3A",
"9.	c #83AF3A",
"0.	c #719F35",
"a.	c #695A5A",
"b.	c #7EA838",
"c.	c #80A939",
"d.	c #8FBA3E",
"e.	c #8CB63C",
"f.	c #7DA939",
"g.	c #7FA537",
"h.	c #7DA135",
"i.	c #80A838",
"j.	c #7AA738",
"k.	c #7CA938",
"l.	c #6F9D34",
"m.	c #719D35",
"n.	c #81AD3A",
"o.	c #84B03A",
"p.	c #7CA737",
"q.	c #7DA337",
"r.	c #7EA938",
"s.	c #7BA938",
"t.	c #6F9C35",
"u.	c #749C34",
"v.	c #759C34",
"w.	c #7AA336",
"x.	c #91BB3E",
"y.	c #82AE3B",
"z.	c #709B34",
"A.	c #79A538",
"B.	c #7BA537",
"C.	c #8FB73D",
"D.	c #8CB33C",
"E.	c #93BA3E",
"F.	c #83AF3B",
"G.	c #7FAA38",
"H.	c #22310A",
"I.	c #8DB83E",
"J.	c #95BD3F",
"K.	c #95BE40",
"L.	c #8DB83D",
"M.	c #89B33C",
"N.	c #FFFFFF",
"O.	c #8FB43C",
"P.	c #96BE3F",
"Q.	c #85AF3B",
"R.	c #79A336",
"S.	c #86AE3A",
"T.	c #789734",
"U.	c #7C9E36",
"V.	c #90BA3D",
"W.	c #9ABF40",
"X.	c #96BD40",
"Y.	c #7FAA3A",
"Z.	c #7DA839",
"`.	c #80A637",
" +	c #82A437",
".+	c #76A437",
"++	c #7AA637",
"@+	c #86B03B",
"#+	c #97BE40",
"$+	c #83AB39",
"%+	c #77A436",
"&+	c #86B13A",
"*+	c #91B93E",
"=+	c #799B34",
"-+	c #7A9E34",
";+	c #98C140",
">+	c #92BC3F",
",+	c #82AC3A",
"'+	c #749B34",
")+	c #7EA236",
"!+	c #82A938",
"~+	c #7BA236",
"{+	c #7EA537",
"]+	c #7DA236",
"^+	c #7EA337",
"/+	c #74A035",
"(+	c #779F35",
"_+	c #769E35",
":+	c #83A838",
"<+	c #7DA336",
"[+	c #84A938",
"}+	c #8EB93E",
"|+	c #729C34",
"1+	c #90B83E",
"2+	c #84AE3B",
"3+	c #8BB63C",
"4+	c #7DA738",
"5+	c #8FB63D",
"6+	c #88B13B",
"7+	c #E0B0B0",
"8+	c #8EB63D",
"9+	c #87AF3B",
"0+	c #8EB73E",
"a+	c #7EAB39",
"b+	c #86AF3A",
"c+	c #77A136",
"d+	c #7EA638",
"e+	c #90B63C",
"f+	c #98BB3F",
"g+	c #98C040",
"h+	c #99BE40",
"i+	c #80AD39",
"j+	c #81AA39",
"k+	c #8AB33B",
"l+	c #89B13B",
"m+	c #89B03B",
"n+	c #87B03C",
"o+	c #89B43D",
"p+	c #8CB53C",
"q+	c #91BB3F",
"r+	c #96BF3F",
"s+	c #88B03B",
"t+	c #719E34",
"u+	c #79A537",
"v+	c #84AB39",
". + @ # $ % & * = - ; > , ' @ ) ! ~ ! { ] ) ^ / . + @ # $ % & * = - ; > , ' @ ) ! ~ ! { ] ) ^ / ",
"( _ : < { ! [ } | 1 2 3 @ 4 5 $ 3 1 | 6 7 8 6 9 ( _ : < { ! [ } | 1 2 3 @ 4 5 $ 3 1 | 6 7 8 6 9 ",
"0 a b c ! d e f g h i j k 6 l m n * o p q 5 # 8 0 a b c ! d e f g h i j k 6 l m n * o p q 5 # 8 ",
"j r s t u 1 v w x y z A B C D E C * F u G H $ I j r s t u 1 v w x y z A B C D E C * F u G H $ I ",
"] v | 3 J K L u | m k g o k M u N O 4 P Q o J ) ] v | 3 J K L u | m k g o k M u N O 4 P Q o J ) ",
"k R 5 & S T U V # M i W X Q Y : H Z `  .$ z ..; k R 5 & S T U V # M i W X Q Y : H Z `  .$ z ..; ",
"% +.) $ @.#.$., { %.6 &.*.=.- -.;.>.,.J '.F ).!.% +.) $ @.#.$., { %.6 &.*.=.- -.;.>.,.J '.F ).!.",
"~.+.{.].^./.9 q = + $ (.~ _._.:.<.[.}.|.C 6 ) K ~.+.{.].^./.9 q = + $ (.~ _._.:.<.[.}.|.C 6 ) K ",
"u 1.%.J 2.2.3.3.3.3.3.3.{ | u u 6 4.5.: 6 y 6.3 u 1.%.J 2.2.7.}.{ 8 8.9.{ | u u 6 4.5.: 6 y 6.3 ",
"A ~.0.i 3.3.3.a.a.a.a.3.3.3.b.c.1.i = ~ u 7 u k A ~.0.i ! %.d.z i f # { e./ b.c.1.i = ~ u 7 u k ",
"{ F f.3.3.a.a.a.a.a.a.a.a.3.g.h.i.j.k.8 l.m.M 5.{ F f.n.F 9.p u p # z o. .p.g.h.i.j.k.8 l.m.M 5.",
"Y I e.3.a.a.a.a.a.a.a.a.a.a.3.q.@.r.s.t.u.v.w.' Y I e.-.5.y j 3.x.g 3 y.4 z.g.3.@.r.s.t.u.v.w.' ",
"A.j v 3.a.a.a.a.3.3.3.3.a.3.3.B.C.C ! I D.E.J ! A.j v | / 5.3.3.| k F F./ F.G.H.3.C ! I D.E.J ! ",
"I.r o 3.a.a.a.3.3.5 1.3.3.3.k J.K.x.L.e.i M.u D I.r o ) Q 3.N.a.3.5 1.e O.P.3.a.N.3.L.e.i M.u D ",
"! Q.7 3.a.a.a.3.R.` S.T.U.D V.W.X.M.u 9.5 Y.8 6 ! Q.7 Z.3.3.a.a.a.3.3.3.3.3.a.a.a.3.3.9.5 Y.8 6 ",
"p / O 3.a.a.a.3.| 6 `. +' .+1.L.6.g | ) H ++_ @+p / O F 3.a.a.a.a.a.a.a.a.a.a.a.a.a.3.) H ++_ @+",
"++@ / 3.a.a.a.3.#+o b ' O / |.:.$+| 2 %+F &+k.i ++@ / p 3.a.a.a.a.a.N.N.a.a.a.a.a.a.3.%+F &+k.i ",
"@+1 J 3.a.a.a.3.*+{.@+H J 7.S.=+-+< ) e.7.k = j.@+1 J B 3.a.a.a.a.N.N.N.a.a.a.a.a.a.3.e.7.k = j.",
"A ;+>+3.a.a.a.3.a ].,++ %.b.'+)+!+~+{+i W 4 a $ A ;+>+g 3.a.a.3.N.N.N.N.N.a.a.3.a.a.3.i W 4 a $ ",
"O J C 3.a.a.a.a.3.]+^+/+l.< _.(+_+:+U : (.<+[+}+O J C 1 3.a.N.3.N.N.N.a.N.N.N.3.a.a.3.: (.<+[+}+",
"n 1 J 3.a.a.a.a.a.3.u.|+j 1+; 2+#+3.3.3.3.3.3.) n 1 J 3+3.a.N.N.N.N.N.3.N.N.N.N.N.a.3.4+< 5+6+) ",
"6 g i 8 3.a.a.a.a.3.q -.>+* y.B 3.N.N.N.N.N.N.3.3.3.i 8 3.N.N.N.N.N.3.7+3.N.N.N.N.N.3.M.8+6.m | ",
">+) 7 ) 3.a.a.a.a.a.3.9+& : i 3.N.a.a.a.a.a.a.a.N.N.3.) 3.N.N.N.N.N.N.N.N.N.N.N.N.N.3.' D . 0+| ",
"J + I @+@ 3.a.a.a.a.3.3.,.f 3.N.a.a.a.a.a.a.a.a.a.a.N.3.N.3.N.N.N.N.N.N.N.N.N.N.N.3.0.a+' F H 8.",
". + @ # $ 3.3.a.a.a.a.3., 3.N.a.a.a.a.a.a.a.a.a.a.a.a.N.a.N.3.N.N.N.N.N.N.N.N.N.3.~ ! { ] ) ^ / ",
"( _ : < { ! [ 3.a.a.a.a.3.N.a.a.a.a.a.a.a.a.a.a.a.a.a.a.a.a.N.3.N.N.N.N.N.N.N.3.3 1 | 6 7 8 6 9 ",
"0 a b c ! d e f 3.a.a.a.a.a.a.a.a.a.a.a.a.a.a.a.a.a.a.a.a.a.a.N.3.N.N.N.N.N.3.m n * o p q 5 # 8 ",
"j r s t u 1 v w x 3.a.a.a.a.a.a.a.a.a.a.a.a.a.a.a.a.a.a.a.a.a.a.a.a.N.N.N.3.3.E C * F u G H $ I ",
"] v | 3 J K L u | m 3.3.a.a.a.a.a.a.a.a.a.a.a.a.a.a.a.a.a.a.a.a.a.a.a.N.3.3.M u N O 4 P Q o J ) ",
"k R 5 & S T U V # M i 3.a.a.a.a.a.a.a.a.a.a.a.a.a.a.a.a.a.a.a.a.a.a.a.a.3.Q Y : H Z `  .$ z ..; ",
"% +.) $ @.#.$., { %.6 3.a.a.a.a.a.a.a.a.a.a.a.a.a.a.a.a.a.a.a.a.a.a.a.a.3.=.- -.;.>.,.J '.F ).!.",
"~.+.{.].^./.9 q = + $ 3.3.a.a.a.a.a.a.a.a.a.a.a.a.a.a.a.a.a.a.a.a.a.a.a.3._._.:.<.[.}.|.C 6 ) K ",
"u 1.%.J 2.2.7.}.{ 8 8.9.3.a.a.a.a.a.a.a.a.a.a.a.a.a.a.a.a.a.a.a.a.a.a.a.3.| u u 6 4.5.: 6 y 6.3 ",
"A ~.0.i ! %.d.z i f # { 3.a.a.a.a.a.a.a.a.a.a.a.a.a.a.a.a.a.a.a.a.a.a.a.3./ b.c.1.i = ~ u 7 u k ",
"{ F f.n.F 9.p u p # z o. .3.a.a.a.3.3.a.a.a.a.a.a.a.a.a.3.a.a.a.3.3.a.a.3.p.g.h.i.j.k.8 l.m.M 5.",
"Y I e.-.5.y j u x.g 3 y.4 z.3.a.3.r.s.3.a.3.3.3.3.3.3.3.5.3.a.3.x.g 3.a.3.z.g.q.@.r.s.t.u.v.w.' ",
"A.j v | / 5.6 3 | k F F./ F.3.N.3.C ! 3.N.3.3.! A.j v | / 3.N.3.| k 3.N.3.F.G.B.C.C ! I D.E.J ! ",
"I.r o ) Q $.' # b+5 1.e O.P.3.N.N.3.L.3.N.N.3.D I.r o ) Q 3.N.N.3.5 3.N.N.3.k J.K.x.L.e.i M.u D ",
"! Q.7 Z.$ c+d+M.R.` S.T.U.D 3.3.3.3.u 3.3.3.3.6 ! Q.7 Z.$ 3.3.3.3.` 3.3.3.3.V.W.X.M.u 9.5 Y.8 6 ",
"p / O F # & u. .| 6 `. +' .+1.L.6.g | ) H ++_ @+p / O F # & u. .| 6 `. +' .+1.L.6.g | ) H ++_ @+",
"++@ / p ) | e+f+#+o b ' O / |.:.$+| 2 %+F &+k.i ++@ / p ) | e+f+#+o b ' O / |.:.$+| 2 %+F &+k.i ",
"@+1 J B . 9 g+h+*+{.@+H J 7.S.=+-+< ) e.7.k = j.@+1 J B . 9 g+h+*+{.@+H J 7.S.=+-+< ) e.7.k = j.",
"A ;+>+g A C M.i+a ].,++ %.b.'+)+!+~+{+i W 4 a $ A ;+>+g A C M.i+a ].,++ %.b.'+)+!+~+{+i W 4 a $ ",
"O J C 1 ' a g.j+S ]+^+/+l.< _.(+_+:+U : (.<+[+}+O J C 1 ' a g.j+S ]+^+/+l.< _.(+_+:+U : (.<+[+}+",
"n 1 J 3+n = S $+k+@+u.|+j 1+; 2+#+*+l+4+< 5+6+) n 1 J 3+n = S $+k+@+u.|+j 1+; 2+#+*+l+4+< 5+6+) ",
"6 g i 8 7 m+n+o+p+8.q -.>+* y.B M.q+r+M.8+6.m | 6 g i 8 7 m+n+o+p+8.q -.>+* y.B M.q+r+M.8+6.m | ",
">+) 7 ) k / D z k.# s+9+& : i u u | @+' D . 0+| >+) 7 ) k / D z k.# s+9+& : i u u | @+' D . 0+| ",
"J + I @+@ j k.~.t+u+v+#.,.f H 3 J 5 0.a+' F H 8.J + I @+@ j k.~.t+u+v+#.,.f H 3 J 5 0.a+' F H 8."};
