/* XPM */
static char * NF1_xpm[] = {
"48 48 7 1",
" 	c None",
".	c #0000FF",
"+	c #000000",
"@	c #000051",
"#	c #FFFFFF",
"$	c #695A5A",
"%	c #E0B0B0",
"................................................",
"................................................",
"................................................",
"................................................",
"................................................",
"................................................",
"................................................",
"................................................",
"................................................",
"................................................",
"................................................",
"........+.......+...............................",
".......+@.......++.................++++++.......",
"......+#$+.....+$#+..............+++$$$$+++.....",
".....++$$$+++++$$$++.............+$$$$$$$$++....",
".....+$$$$$$$$$$$$$+............+$$$$$$$$$$+....",
".....+$$$$$$##$$$$$+............++$++++$$$$+....",
".....+$$$$$$###$$$$+.............+++..++$$$+....",
".....+$$+$$#####+$$+...................+$$$+....",
".....+$$+###$###+#$+..................+$$$$+....",
".....+$#####+#####$+...++++++........+$$$$$+....",
".....+#####+%+#####++++######+......++$$$$+.....",
".....+#############+##$$$$$$$#+.....+$$$$++.....",
"......+###########+#$$$$$$$$$$#+...+$$$$+.......",
".......+#########+#$$$$$$$$$$$$#+.++$$$+........",
"........+#######+#$$$$$$$$$$$$$$#++$$$+.........",
".........+#####+#$$$$$$$$$$$$$$$$$$$++..........",
".........++###$$$$$$$$$$$$$$$$$$$$$$+...........",
"..........++#$$$$$$$$$$$$$$$$$$$$$$$+...........",
"...........+$$$$$$$$$$$$$$$$$$$$$$$++...........",
"...........+$$$$$$$$$$$$$$$$$$$$$$$+............",
"...........+$$$$$$$$$$$$$$$$$$$$$$$+............",
"...........+$$++$$$+$$$$$+$$$++$$$+.............",
"...........+$+..+$+.+++++.+$+..+$+..............",
"...........+$+..+$+.......+$+..+$+..............",
"...........+$+..+$+.......+$+..+$+..............",
"...........+#+..+#+.......+#+..+#+..............",
"...........+#+..+#+......++#+..+#+..............",
"..........+##+.+##+......+##+.+##+..............",
"..........++++.++++......++++.++++..............",
"................................................",
"................................................",
"................................................",
"................................................",
"................................................",
"................................................",
"................................................",
"................................................"};
