/* XPM */
static char * sheepB_xpm[] = {
"48 48 242 2",
"  	c None",
". 	c #8FB93D",
"+ 	c #85B13B",
"@ 	c #7EAA39",
"# 	c #86B13B",
"$ 	c #83AE3A",
"% 	c #8BB53D",
"& 	c #84AE3A",
"* 	c #7FAA39",
"= 	c #7DA938",
"- 	c #7FA838",
"; 	c #88B23B",
"> 	c #85AE3A",
", 	c #83AC3A",
"' 	c #87B13B",
") 	c #85B03B",
"! 	c #80AB39",
"~ 	c #7BA738",
"{ 	c #88B33C",
"] 	c #8AB53D",
"^ 	c #7EAA38",
"/ 	c #8CB63D",
"( 	c #7AA537",
"_ 	c #78A537",
": 	c #82AD3A",
"< 	c #7FA938",
"[ 	c #749D34",
"} 	c #7CA638",
"| 	c #8DB73D",
"1 	c #8EB73D",
"2 	c #86B23B",
"3 	c #87B23B",
"4 	c #75A236",
"5 	c #7CA838",
"6 	c #000000",
"7 	c #FFFFFF",
"8 	c #8AB43C",
"9 	c #84AF3B",
"0 	c #81AC3A",
"a 	c #92BB3F",
"b 	c #73A036",
"c 	c #81AB39",
"d 	c #88AF3B",
"e 	c #82AB39",
"f 	c #83AC39",
"g 	c #85AF3A",
"h 	c #8BB43C",
"i 	c #90B93E",
"j 	c #93BD3E",
"k 	c #8AB53C",
"l 	c #87B23C",
"m 	c #8FB93E",
"n 	c #93BB3E",
"o 	c #94BC3F",
"p 	c #81AC39",
"q 	c #8EB83E",
"r 	c #84AF3A",
"s 	c #7CA738",
"t 	c #8FB83E",
"u 	c #8CB43D",
"v 	c #89B23C",
"w 	c #89B43C",
"x 	c #95BE3F",
"y 	c #9AC140",
"z 	c #9CC040",
"A 	c #93BC3F",
"B 	c #8CB73D",
"C 	c #91BA3F",
"D 	c #94BD3F",
"E 	c #91BA3E",
"F 	c #8FB83D",
"G 	c #99BF40",
"H 	c #82AE3A",
"I 	c #78A436",
"J 	c #7FAB39",
"K 	c #7DA838",
"L 	c #8EB83D",
"M 	c #8DB63D",
"N 	c #89B23B",
"O 	c #88B23C",
"P 	c #93BD3F",
"Q 	c #8BB63D",
"R 	c #80AB3A",
"S 	c #80AC39",
"T 	c #85B13C",
"U 	c #82AC39",
"V 	c #7BA036",
"W 	c #81A638",
"X 	c #87B03B",
"Y 	c #87B13C",
"Z 	c #7EA939",
"` 	c #7DA638",
" .	c #7AA437",
"..	c #7BA838",
"+.	c #82AE39",
"@.	c #77A337",
"#.	c #7BA336",
"$.	c #7FA437",
"%.	c #84AD3A",
"&.	c #85B03A",
"*.	c #77A437",
"=.	c #8CB53D",
"-.	c #8AB23C",
";.	c #769933",
">.	c #81A838",
",.	c #89B53C",
"'.	c #7AA737",
").	c #8EB73C",
"!.	c #78A437",
"~.	c #88B33B",
"{.	c #82AD39",
"].	c #8CB33B",
"^.	c #8EB53D",
"/.	c #85AD3A",
"(.	c #8AB33C",
"_.	c #93B93E",
":.	c #91B93D",
"<.	c #92BC3E",
"[.	c #94BE3F",
"}.	c #84B03B",
"|.	c #98BF40",
"1.	c #97C040",
"2.	c #80AC3A",
"3.	c #92BD3F",
"4.	c #90BA3E",
"5.	c #92BB3E",
"6.	c #719F35",
"7.	c #8FBA3E",
"8.	c #7EA838",
"9.	c #80A939",
"0.	c #7DA939",
"a.	c #81AD3A",
"b.	c #83AF3A",
"c.	c #84B03A",
"d.	c #7CA737",
"e.	c #7FA537",
"f.	c #7DA135",
"g.	c #80A838",
"h.	c #7AA738",
"i.	c #7CA938",
"j.	c #6F9D34",
"k.	c #719D35",
"l.	c #8CB63C",
"m.	c #91BB3E",
"n.	c #82AE3B",
"o.	c #709B34",
"p.	c #7DA337",
"q.	c #7EA938",
"r.	c #7BA938",
"s.	c #6F9C35",
"t.	c #749C34",
"u.	c #759C34",
"v.	c #7AA336",
"w.	c #79A538",
"x.	c #83AF3B",
"y.	c #7FAA38",
"z.	c #7BA537",
"A.	c #8FB73D",
"B.	c #8CB33C",
"C.	c #93BA3E",
"D.	c #8DB83E",
"E.	c #86AF3A",
"F.	c #8FB43C",
"G.	c #96BE3F",
"H.	c #95BD3F",
"I.	c #95BE40",
"J.	c #8DB83D",
"K.	c #89B33C",
"L.	c #85AF3B",
"M.	c #7DA839",
"N.	c #77A136",
"O.	c #7EA638",
"P.	c #79A336",
"Q.	c #86AE3A",
"R.	c #789734",
"S.	c #7C9E36",
"T.	c #90BA3D",
"U.	c #9ABF40",
"V.	c #96BD40",
"W.	c #7FAA3A",
"X.	c #80A637",
"Y.	c #82A437",
"Z.	c #76A437",
"`.	c #7AA637",
" +	c #86B03B",
".+	c #90B63C",
"++	c #98BB3F",
"@+	c #97BE40",
"#+	c #83AB39",
"$+	c #77A436",
"%+	c #86B13A",
"&+	c #98C040",
"*+	c #99BE40",
"=+	c #91B93E",
"-+	c #799B34",
";+	c #7A9E34",
">+	c #98C140",
",+	c #92BC3F",
"'+	c #80AD39",
")+	c #82AC3A",
"!+	c #749B34",
"~+	c #3B5116",
"{+	c #7EA236",
"]+	c #82A938",
"^+	c #7BA236",
"/+	c #7EA537",
"(+	c #81AA39",
"_+	c #7DA236",
":+	c #7EA337",
"<+	c #74A035",
"[+	c #384B14",
"}+	c #779F35",
"|+	c #769E35",
"1+	c #83A838",
"2+	c #75A237",
"3+	c #7DA336",
"4+	c #84A938",
"5+	c #8EB93E",
"6+	c #8BB63C",
"7+	c #8AB33B",
"8+	c #729C34",
"9+	c #90B83E",
"0+	c #84AE3B",
"a+	c #89B13B",
"b+	c #7DA738",
"c+	c #8FB63D",
"d+	c #88B13B",
"e+	c #89B03B",
"f+	c #87B03C",
"g+	c #89B43D",
"h+	c #8CB53C",
"i+	c #91BB3F",
"j+	c #96BF3F",
"k+	c #8EB63D",
"l+	c #88B03B",
"m+	c #8EB73E",
"n+	c #719E34",
"o+	c #79A537",
"p+	c #84AB39",
"q+	c #7EAB39",
"r+	c #FF0000",
"s+	c #87AF3B",
". + @ # $ % & * = - ; > , ' @ ) ! ~ ! { ] ) ^ / . + @ # $ % & * = - ; > , ' @ ) ! ~ ! { ] ) ^ / ",
"( _ : < { ! [ } | 1 2 3 @ 4 5 $ 6 6 6 7 6 6 6 6 6 6 7 6 6 6 6 6 | 1 2 3 @ 4 5 $ 3 1 | 8 9 0 8 a ",
"b c d e ! f g h i j k l m 8 n 6 7 7 7 7 7 6 7 7 7 7 7 7 7 7 7 7 6 6 k l m 8 n o p * q r s 5 # 0 ",
"l t u v w 1 x y z A B C D E 6 7 7 6 7 7 7 7 6 7 7 7 7 6 7 7 7 6 6 7 6 C D E F G E * H w I J $ K ",
"] x | 3 L M N w | o m i q 6 6 7 7 7 6 7 7 7 7 7 6 7 7 6 6 7 6 7 7 7 7 6 q m O w P Q 4 R S q L ) ",
"m T 5 & U V W X # O k Y 6 6 7 6 6 7 7 7 7 6 6 7 6 6 7 7 7 7 7 7 6 6 7 6 6 S Z : J `  ...$ B +.; ",
"% @.) $ #.$.%., { &.8 *.6 7 6 6 7 7 7 7 6 6 7 7 7 7 6 7 6 7 7 7 7 6 7 7 6 6 - =.-.;.>.L ,.H '.).",
"!.@.~.{.].^.a s = + $ 6 6 7 7 7 7 7 7 7 7 7 7 6 7 7 7 7 6 7 7 6 7 7 7 7 7 6 /.(._.:.<.[.E 8 ) M ",
"w }.&.L |.|.1.<.{ 0 2.6 7 6 6 7 7 7 7 7 7 7 6 6 6 7 7 7 7 7 7 7 7 7 6 7 7 6 w w 8 3.4.: 8 A 5.3 ",
"C !.6.k ! &.7.B k h # 6 7 7 7 7 6 6 7 7 6 7 7 7 7 7 7 6 7 7 7 6 6 7 7 7 6 / 8.9.}.k = ~ w 9 w m ",
"{ H 0.a.H b.r w r # B c.6 7 7 7 7 6 6 7 7 7 7 7 7 7 7 7 7 7 6 6 7 7 7 6 6 d.e.f.g.h.i.0 j.k.O 4.",
"Z K l.=.4.A l w m.i 3 n.6 6 7 7 7 7 7 7 7 7 6 7 7 7 7 7 6 7 7 7 7 7 7 7 6 o.e.p.#.q.r.s.t.u.v.' ",
"w.l x | / 4.8 3 | m H x./ 6 6 6 7 6 7 7 6 7 7 7 7 7 7 7 7 7 6 6 7 6 6 6 / x.y.z.A.E ! K B.C.L ! ",
"D.t q ) S %.' # E.5 }.g F.G.m 6 7 6 7 7 7 7 7 7 7 6 7 7 7 7 7 6 7 6 }.g F.G.m H.I.m.J.l.k K.w F ",
"! L.9 M.$ N.O.K.P. .Q.R.S.F T.6 7 6 7 7 7 7 6 7 7 7 7 6 6 7 7 6 7 6 Q.R.S.F T.U.V.K.w b.5 W.0 8 ",
"r / Q H # & t...| 8 X.Y.' Z.}.6 7 6 7 7 7 6 7 7 7 7 7 7 6 7 7 6 7 6 X.Y.' Z.}.J.5.i | ) J `._  +",
"`.@ / r ) | .+++@+q d ' Q / [.6 7 6 7 7 6 6 7 7 7 7 7 6 7 7 7 6 7 6 d ' Q / [.(.#+| 2 $+H %+i.k ",
" +1 L D . a &+*+=+~. +J L 1.Q.6 7 6 7 7 7 7 7 7 7 6 7 7 7 7 7 6 7 6  +J L 1.Q.-+;+< ) l.1.m = h.",
"C >+,+i C E K.'+c {.)++ &.8.!+6 7 6 7 7 7 7 7 7 6 7 7 7 7 7 7 6 7 ~+)++ &.8.!+{+]+^+/+k Y 4 c $ ",
"Q L E 1 ' c e.(+U _+:+<+j.< 6 6 7 6 7 6 7 7 6 7 7 7 7 7 7 7 7 6 7 [+6 <+j.< /.}+|+1+W : 2+3+4+5+",
"p 1 L 6+p = U #+7+ +t.8+l 6 7 6 6 6 7 7 7 7 6 7 7 7 6 7 7 7 7 6 6 6 7 6 l 9+; 0+@+=+a+b+< c+d+) ",
"8 i k 0 9 e+f+g+h+2.s =.6 7 7 7 7 7 7 7 7 6 7 7 7 7 7 7 6 7 7 7 7 7 7 7 6 * n.D K.i+j+K.k+5.o | ",
",+) 9 ) m / F B i.# l+6 7 7 7 7 7 7 6 7 7 7 7 7 7 7 7 7 7 6 7 7 7 7 6 7 7 6 k w w |  +' F . m+| ",
"L + K  +@ l i.!.n+o+p+6 7 7 7 6 7 7 7 7 7 7 7 7 7 7 7 7 7 7 7 7 7 6 7 7 6 6 J 3 L 5 6.q+' H J 2.",
". + @ # $ % & * = - ; 6 6 7 6 7 6 7 7 7 7 7 7 6 6 7 6 7 7 7 7 7 6 7 7 7 7 6 @ ) ! ~ ! { ] ) ^ / ",
"( _ : < { ! [ } | 1 2 6 7 7 7 7 6 7 7 7 6 7 7 7 7 6 7 7 7 7 7 7 7 7 7 7 7 6 5 $ 3 1 | 8 9 0 8 a ",
"b c d e 6 6 6 6 6 6 6 6 7 7 7 7 6 7 7 6 7 7 7 6 7 7 7 7 7 7 6 7 7 6 7 7 7 6 6 6 6 6 6 6 6 5 # 0 ",
"l t u v 6 r+r+7 7 7 7 7 7 7 7 7 7 7 7 7 7 7 7 7 7 7 7 7 7 6 7 7 7 7 7 7 7 7 7 7 7 7 r+r+6 J $ K ",
"] x | 3 6 r+r+7 7 7 7 7 7 7 7 7 7 7 7 7 6 6 7 7 6 7 7 7 6 7 7 7 7 7 7 6 7 7 7 7 7 7 r+r+6 q L ) ",
"m T 5 & 6 r+r+6 6 6 6 6 7 7 6 6 7 7 7 7 7 6 7 6 7 6 7 6 7 7 7 7 7 7 7 7 7 6 6 6 6 6 r+r+6 B +.; ",
"% @.) $ #.$.%., { &.8 6 7 7 7 7 7 7 7 7 7 6 7 7 7 7 7 7 7 7 7 7 7 7 7 6 7 6 - =.-.;.>.L ,.H '.).",
"!.@.~.{.].^.a s = + $ 6 6 7 7 7 7 6 7 7 6 7 7 7 7 7 7 7 7 6 7 7 7 7 7 7 7 6 /.(._.:.<.[.E 8 ) M ",
"w }.&.L |.|.1.<.{ 0 2.6 7 7 6 7 7 7 7 7 7 7 7 7 7 7 7 7 7 7 7 7 7 7 6 7 7 6 w w 8 3.4.: 8 A 5.3 ",
"C !.6.k ! &.7.B k h # 6 7 7 7 7 6 7 7 7 7 7 7 7 7 6 7 7 7 7 7 7 7 7 7 7 7 6 8.9.}.k = ~ w 9 w m ",
"{ H 0.a.H b.r w r # B 6 7 6 7 7 7 6 7 7 7 7 7 7 7 7 7 7 6 7 7 7 7 7 7 7 6 6 e.f.g.h.i.0 j.k.O 4.",
"Z K l.=.4.A l w m.i 3 6 6 7 7 7 7 7 7 7 6 7 7 7 6 7 7 7 7 7 7 6 7 7 7 7 7 6 e.p.#.q.r.s.t.u.v.' ",
"w.l x | / 4.8 3 | m H 6 7 7 7 7 7 7 7 7 7 7 7 6 7 6 7 7 7 7 6 7 7 7 6 7 7 6 y.z.A.E ! K B.C.L ! ",
"D.t q ) S %.' # E.5 }.6 7 6 7 7 6 7 7 7 7 7 6 7 7 7 6 7 7 7 6 7 7 7 7 7 7 6 m H.I.m.J.l.k K.w F ",
"! L.9 M.$ N.O.K.P. .Q.6 7 6 7 7 6 7 7 6 7 7 7 6 7 6 7 7 7 7 7 7 6 7 7 7 7 6 T.U.V.K.w b.5 W.0 8 ",
"r / Q H # & t...| 8 X.Y.6 7 7 7 7 6 7 7 6 7 7 7 6 7 7 7 7 7 7 7 7 7 6 7 6 Z.}.J.5.i | ) J `._  +",
"`.@ / r ) | .+++@+q d ' Q 6 6 7 7 7 7 7 7 7 7 7 7 7 7 7 7 7 7 7 7 7 6 6 Q / [.(.#+| 2 $+H %+i.k ",
" +1 L D . a &+*+=+~. +J L 1.6 6 6 6 6 6 7 6 6 6 6 6 6 6 7 6 6 6 6 6 6 J L 1.Q.-+;+< ) l.1.m = h.",
"C >+,+i C E K.'+c {.)++ &.8.!+{+]+^+/+6 7 6 c $ C >+,+6 7 6 K.'+c {.)++ &.8.!+{+]+^+/+k Y 4 c $ ",
"Q L E 1 ' c e.(+U _+:+<+j.< /.}+|+1+W 6 7 6 4+5+Q L E 6 7 6 e.(+U _+:+<+j.< /.}+|+1+W : 2+3+4+5+",
"p 1 L 6+p = U #+7+ +t.8+l 9+; 0+@+=+a+6 7 6 d+) p 1 L 6 7 6 U #+7+ +t.8+l 9+; 0+@+=+a+b+< c+d+) ",
"8 i k 0 9 e+f+g+h+2.s =.,+* n.D K.i+6 r+r+r+6 | 8 i 6 r+r+r+6 g+h+2.s =.,+* n.D K.i+j+K.k+5.o | ",
",+) 9 ) m / F B i.# l+s+& : k w w 6 r+r+r+r+r+6 ,+6 r+r+r+r+r+6 i.# l+s+& : k w w |  +' F . m+| ",
"L + K  +@ l i.!.n+o+p+$.>.h J 3 L 6 6 6 6 6 6 6 L 6 6 6 6 6 6 6 n+o+p+$.>.h J 3 L 5 6.q+' H J 2."};
