/* XPM */
static char * SE2_xpm[] = {
"48 48 7 1",
" 	c None",
".	c #0000FF",
"+	c #000000",
"@	c #FFFFFF",
"#	c #FFE700",
"$	c #666666",
"%	c #FF0000",
"................................................",
"................................................",
"................................................",
"................................................",
"................+++@++++++@+++++................",
"...............+@@@@@+@@@@@@@@@@++..............",
"..............+#++@@@@+@@@@+@@@++@+.............",
".............+####+++@@@+@@++@+@@@@+............",
"............++#######+++++@@@@@@++@++...........",
"............+@+++########++++@@@@+@@++..........",
"...........++@@@@+++########+++@@@@@@+..........",
"...........+@++@@@@@++++#######++++@@+..........",
"...........+@@@@++@@@@@@+++#######++++..........",
"............+@@@@++@++++@@+++++######+..........",
"............++@@@@@@+$+$+++$+@@+++##+...........",
".............+++@+++$$$$$$$$$+++@+++............",
"...............+@++$$$$$$$$$$$++@+..............",
"...............+@+$$$$@$$$@$$$$+@+..............",
"...............+@+$$$$@+$$@+$$$+@+..............",
"...............+@+$$$$@+$$@+$$$+@+..............",
"...............+@+$$$$$$$$$$$$$+@+..............",
"...............+@+$$+$$$$$$$+$$+@+..............",
"..............++@+$$$+$$$$$+$$$+@++.............",
"......++++...+++++$$$$+++++$$$$+++++...++++.....",
"......%%%+..+@+##++$$$$$$$$$$$++##+@+..+%%%.....",
"......%%%+.+@@+##+@+$$$$$$$$$+@+##+@@+.+%%%.....",
"......+@@+.+@@+##+@@+$$$+$$$+@@+##+@++.+@@+.....",
"......+@@+.++@+##+@@@+++++++@@@+##+@@+.+###+....",
"......+@@+.+@@+##+@@+@@@@@@@+@@+##+@@+.+###+....",
"......+@@+++@@+##+@+@@@+@@@@@@++##+@@+++@@+.....",
"......+@@@@@@@+##+@@@@@@@@@@@+@+##+@@@@@@@+.....",
"......+@@@@@@@+##+@@++@@+@@@+@@+##++@@@@@@+.....",
"......++++++@+####+@@+@+@+@+@@+####+@++++++.....",
"...........++######+@@@@@@@@@+######++..........",
"...........+########+++++++++########+..........",
"...........+#########################+..........",
"...........+#########################+..........",
"...........+#########################+..........",
"...........+#########################+..........",
"...........+#########################+..........",
"...........+#########################+..........",
"...........+#########################+..........",
"............+#######################+...........",
".............+#####################+............",
"..............++++++@+++++++@++++++.............",
"..................+%%%+...+%%%+.................",
".................+%%%%%+.+%%%%%+................",
".................+++++++.+++++++................"};
