/* XPM */
static char * sheepF_xpm[] = {
"48 48 243 2",
"  	c None",
". 	c #8FB93D",
"+ 	c #85B13B",
"@ 	c #7EAA39",
"# 	c #86B13B",
"$ 	c #83AE3A",
"% 	c #8BB53D",
"& 	c #84AE3A",
"* 	c #7FAA39",
"= 	c #7DA938",
"- 	c #7FA838",
"; 	c #88B23B",
"> 	c #85AE3A",
", 	c #83AC3A",
"' 	c #87B13B",
") 	c #85B03B",
"! 	c #80AB39",
"~ 	c #7BA738",
"{ 	c #88B33C",
"] 	c #8AB53D",
"^ 	c #7EAA38",
"/ 	c #8CB63D",
"( 	c #7AA537",
"_ 	c #78A537",
": 	c #82AD3A",
"< 	c #7FA938",
"[ 	c #749D34",
"} 	c #7CA638",
"| 	c #8DB73D",
"1 	c #8EB73D",
"2 	c #86B23B",
"3 	c #87B23B",
"4 	c #75A236",
"5 	c #7CA838",
"6 	c #000000",
"7 	c #FFFFFF",
"8 	c #8AB43C",
"9 	c #84AF3B",
"0 	c #81AC3A",
"a 	c #92BB3F",
"b 	c #73A036",
"c 	c #81AB39",
"d 	c #88AF3B",
"e 	c #82AB39",
"f 	c #83AC39",
"g 	c #85AF3A",
"h 	c #8BB43C",
"i 	c #90B93E",
"j 	c #93BD3E",
"k 	c #8AB53C",
"l 	c #87B23C",
"m 	c #8FB93E",
"n 	c #93BB3E",
"o 	c #94BC3F",
"p 	c #81AC39",
"q 	c #8EB83E",
"r 	c #84AF3A",
"s 	c #7CA738",
"t 	c #8FB83E",
"u 	c #8CB43D",
"v 	c #89B23C",
"w 	c #89B43C",
"x 	c #95BE3F",
"y 	c #9AC140",
"z 	c #9CC040",
"A 	c #93BC3F",
"B 	c #8CB73D",
"C 	c #91BA3F",
"D 	c #94BD3F",
"E 	c #91BA3E",
"F 	c #8FB83D",
"G 	c #99BF40",
"H 	c #82AE3A",
"I 	c #78A436",
"J 	c #7FAB39",
"K 	c #7DA838",
"L 	c #8EB83D",
"M 	c #8DB63D",
"N 	c #89B23B",
"O 	c #88B23C",
"P 	c #93BD3F",
"Q 	c #8BB63D",
"R 	c #80AB3A",
"S 	c #80AC39",
"T 	c #85B13C",
"U 	c #82AC39",
"V 	c #7BA036",
"W 	c #81A638",
"X 	c #87B03B",
"Y 	c #87B13C",
"Z 	c #7EA939",
"` 	c #7DA638",
" .	c #7AA437",
"..	c #7BA838",
"+.	c #82AE39",
"@.	c #77A337",
"#.	c #7BA336",
"$.	c #7FA437",
"%.	c #84AD3A",
"&.	c #85B03A",
"*.	c #77A437",
"=.	c #8CB53D",
"-.	c #8AB23C",
";.	c #769933",
">.	c #81A838",
",.	c #89B53C",
"'.	c #7AA737",
").	c #8EB73C",
"!.	c #78A437",
"~.	c #88B33B",
"{.	c #82AD39",
"].	c #8CB33B",
"^.	c #8EB53D",
"/.	c #85AD3A",
"(.	c #8AB33C",
"_.	c #93B93E",
":.	c #91B93D",
"<.	c #92BC3E",
"[.	c #94BE3F",
"}.	c #84B03B",
"|.	c #98BF40",
"1.	c #97C040",
"2.	c #80AC3A",
"3.	c #92BD3F",
"4.	c #90BA3E",
"5.	c #92BB3E",
"6.	c #719F35",
"7.	c #8FBA3E",
"8.	c #7EA838",
"9.	c #80A939",
"0.	c #7DA939",
"a.	c #81AD3A",
"b.	c #83AF3A",
"c.	c #84B03A",
"d.	c #7CA737",
"e.	c #7FA537",
"f.	c #7DA135",
"g.	c #80A838",
"h.	c #7AA738",
"i.	c #7CA938",
"j.	c #6F9D34",
"k.	c #719D35",
"l.	c #8CB63C",
"m.	c #91BB3E",
"n.	c #82AE3B",
"o.	c #666666",
"p.	c #709B34",
"q.	c #7DA337",
"r.	c #7EA938",
"s.	c #7BA938",
"t.	c #6F9C35",
"u.	c #749C34",
"v.	c #759C34",
"w.	c #7AA336",
"x.	c #79A538",
"y.	c #83AF3B",
"z.	c #7FAA38",
"A.	c #7BA537",
"B.	c #8FB73D",
"C.	c #8CB33C",
"D.	c #93BA3E",
"E.	c #8DB83E",
"F.	c #86AF3A",
"G.	c #8FB43C",
"H.	c #96BE3F",
"I.	c #95BD3F",
"J.	c #95BE40",
"K.	c #8DB83D",
"L.	c #89B33C",
"M.	c #85AF3B",
"N.	c #7DA839",
"O.	c #77A136",
"P.	c #7EA638",
"Q.	c #79A336",
"R.	c #86AE3A",
"S.	c #789734",
"T.	c #7C9E36",
"U.	c #90BA3D",
"V.	c #9ABF40",
"W.	c #96BD40",
"X.	c #7FAA3A",
"Y.	c #80A637",
"Z.	c #82A437",
"`.	c #76A437",
" +	c #7AA637",
".+	c #86B03B",
"++	c #90B63C",
"@+	c #98BB3F",
"#+	c #97BE40",
"$+	c #83AB39",
"%+	c #77A436",
"&+	c #86B13A",
"*+	c #98C040",
"=+	c #99BE40",
"-+	c #91B93E",
";+	c #799B34",
">+	c #7A9E34",
",+	c #98C140",
"'+	c #92BC3F",
")+	c #80AD39",
"!+	c #82AC3A",
"~+	c #749B34",
"{+	c #3B5116",
"]+	c #7EA236",
"^+	c #82A938",
"/+	c #7BA236",
"(+	c #7EA537",
"_+	c #81AA39",
":+	c #7DA236",
"<+	c #7EA337",
"[+	c #74A035",
"}+	c #384B14",
"|+	c #779F35",
"1+	c #769E35",
"2+	c #83A838",
"3+	c #75A237",
"4+	c #7DA336",
"5+	c #84A938",
"6+	c #8EB93E",
"7+	c #8BB63C",
"8+	c #8AB33B",
"9+	c #729C34",
"0+	c #90B83E",
"a+	c #84AE3B",
"b+	c #89B13B",
"c+	c #7DA738",
"d+	c #8FB63D",
"e+	c #88B13B",
"f+	c #89B03B",
"g+	c #87B03C",
"h+	c #89B43D",
"i+	c #8CB53C",
"j+	c #91BB3F",
"k+	c #96BF3F",
"l+	c #8EB63D",
"m+	c #88B03B",
"n+	c #8EB73E",
"o+	c #719E34",
"p+	c #79A537",
"q+	c #84AB39",
"r+	c #7EAB39",
"s+	c #FF0000",
"t+	c #87AF3B",
". + @ # $ % & * = - ; > , ' @ ) ! ~ ! { ] ) ^ / . + @ # $ % & * = - ; > , ' @ ) ! ~ ! { ] ) ^ / ",
"( _ : < { ! [ } | 1 2 3 @ 4 5 $ 6 6 6 7 6 6 6 6 6 6 7 6 6 6 6 6 | 1 2 3 @ 4 5 $ 3 1 | 8 9 0 8 a ",
"b c d e ! f g h i j k l m 8 n 6 7 7 7 7 7 6 7 7 7 7 7 7 7 7 7 7 6 6 k l m 8 n o p * q r s 5 # 0 ",
"l t u v w 1 x y z A B C D E 6 7 7 6 7 7 7 7 6 7 7 7 7 6 7 7 7 6 6 7 6 C D E F G E * H w I J $ K ",
"] x | 3 L M N w | o m i q 6 6 7 7 7 6 7 7 7 7 7 6 7 7 6 6 7 6 7 7 7 7 6 q m O w P Q 4 R S q L ) ",
"m T 5 & U V W X # O k Y 6 6 7 6 6 7 7 7 7 6 6 7 6 6 7 7 7 7 7 7 6 6 7 6 6 S Z : J `  ...$ B +.; ",
"% @.) $ #.$.%., { &.8 *.6 7 6 6 7 7 7 7 6 6 7 7 7 7 6 7 6 7 7 7 7 6 7 7 6 6 - =.-.;.>.L ,.H '.).",
"!.@.~.{.].^.a s = + $ 6 6 7 7 7 7 7 7 7 7 7 7 6 7 7 7 7 6 7 7 7 7 7 7 7 7 6 /.(._.:.<.[.E 8 ) M ",
"w }.&.L |.|.1.<.{ 0 2.6 7 6 6 7 7 7 7 7 7 7 6 6 6 7 7 7 7 7 7 7 7 7 6 7 7 6 w w 8 3.4.: 8 A 5.3 ",
"C !.6.k ! &.7.B k h # 6 7 7 7 7 6 6 7 7 7 7 7 7 7 7 7 6 7 7 7 6 6 7 7 7 6 / 8.9.}.k = ~ w 9 w m ",
"{ H 0.a.H b.r w r # B c.6 7 7 7 7 6 6 7 6 6 6 6 7 7 6 6 7 7 6 6 7 7 7 6 6 d.e.f.g.h.i.0 j.k.O 4.",
"Z K l.=.4.A l w m.i 3 n.6 6 7 7 7 7 7 7 6 o.6 o.6 6 6 o.6 7 7 7 7 7 7 7 6 p.e.q.#.r.s.t.u.v.w.' ",
"x.l x | / 4.8 3 | m H y./ 6 6 6 7 6 6 6 o.o.o.o.o.o.o.o.o.6 6 6 7 6 6 6 / y.z.A.B.E ! K C.D.L ! ",
"E.t q ) S %.' # F.5 }.g G.H.m 6 7 6 6 o.o.o.o.o.o.o.o.o.o.o.6 6 7 6 }.g G.H.m I.J.m.K.l.k L.w F ",
"! M.9 N.$ O.P.L.Q. .R.S.T.F U.6 7 6 o.o.o.o.7 o.o.o.7 o.o.o.o.6 7 6 R.S.T.F U.V.W.L.w b.5 X.0 8 ",
"r / Q H # & u...| 8 Y.Z.' `.}.6 7 6 o.o.o.o.7 6 o.o.7 6 o.o.o.6 7 6 Y.Z.' `.}.K.5.i | ) J  +_ .+",
" +@ / r ) | ++@+#+q d ' Q / [.6 7 6 o.o.o.o.7 6 o.o.7 6 o.o.o.6 7 6 d ' Q / [.(.$+| 2 %+H &+i.k ",
".+1 L D . a *+=+-+~..+J L 1.R.6 7 6 o.o.o.o.o.o.o.o.o.o.o.o.o.6 7 6 .+J L 1.R.;+>+< ) l.1.m = h.",
"C ,+'+i C E L.)+c {.!++ &.8.~+6 7 6 o.o.6 o.o.o.o.o.o.o.6 o.o.6 7 {+!++ &.8.~+]+^+/+(+k Y 4 c $ ",
"Q L E 1 ' c e._+U :+<+[+j.< 6 6 7 6 o.o.o.6 o.o.o.o.o.6 o.o.o.6 7 }+6 [+j.< /.|+1+2+W : 3+4+5+6+",
"p 1 L 7+p = U $+8+.+u.9+l 6 7 6 6 6 o.o.o.o.6 6 6 6 6 o.o.o.o.6 6 6 7 6 l 0+; a+#+-+b+c+< d+e+) ",
"8 i k 0 9 f+g+h+i+2.s =.6 7 7 7 7 6 6 o.o.o.o.o.o.o.o.o.o.o.6 6 7 7 7 7 6 * n.D L.j+k+L.l+5.o | ",
"'+) 9 ) m / F B i.# m+6 7 7 7 7 7 7 7 6 o.o.o.o.o.o.o.o.o.6 7 7 7 7 6 7 7 6 k w w | .+' F . n+| ",
"L + K .+@ l i.!.o+p+q+6 7 7 7 6 7 7 7 7 6 o.o.o.6 o.o.o.6 7 7 7 7 6 7 7 6 6 J 3 L 5 6.r+' H J 2.",
". + @ # $ % & * = - ; 6 6 7 6 7 6 7 7 7 7 6 6 6 6 6 6 6 7 7 7 7 7 7 7 7 7 6 @ ) ! ~ ! { ] ) ^ / ",
"( _ : < { ! [ } | 1 2 6 7 7 7 7 7 7 7 7 6 7 7 7 7 7 7 7 6 7 7 7 7 7 7 7 7 6 5 $ 3 1 | 8 9 0 8 a ",
"b c d e 6 6 6 6 6 6 6 6 7 7 7 7 6 7 7 6 7 7 7 6 7 7 7 7 7 7 6 7 7 6 7 7 7 6 6 6 6 6 6 6 6 5 # 0 ",
"l t u v 6 s+s+7 7 7 7 7 7 7 7 7 7 7 7 7 7 7 7 7 7 7 7 7 7 6 7 7 7 7 7 7 7 7 7 7 7 7 s+s+6 J $ K ",
"] x | 3 6 s+s+7 7 7 7 7 7 7 7 7 7 7 7 7 6 6 7 7 6 7 7 7 6 7 7 7 7 7 7 6 7 7 7 7 7 7 s+s+6 q L ) ",
"m T 5 & 6 s+s+6 6 6 6 6 7 7 6 6 7 7 7 7 7 6 7 6 7 6 7 6 7 7 7 7 7 7 7 7 7 6 6 6 6 6 s+s+6 B +.; ",
"% @.) $ #.$.%., { &.8 6 7 7 7 6 6 7 7 7 7 7 7 7 7 7 7 7 7 7 7 7 6 6 7 7 7 6 - =.-.;.>.L ,.H '.).",
"!.@.~.{.].^.a s = + $ 6 6 7 7 7 6 7 7 7 6 7 7 7 7 7 7 7 7 6 7 7 6 7 7 6 7 6 /.(._.:.<.[.E 8 ) M ",
"w }.&.L |.|.1.<.{ 0 2.6 7 7 7 7 7 7 6 7 7 7 7 7 6 6 7 7 6 7 6 7 7 7 7 7 7 6 w w 8 3.4.: 8 A 5.3 ",
"C !.6.k ! &.7.B k h # 6 7 7 7 7 7 7 7 7 7 7 6 6 7 6 7 7 7 7 6 7 7 7 7 7 7 6 8.9.}.k = ~ w 9 w m ",
"{ H 0.a.H b.r w r # B 6 7 6 7 7 7 7 7 7 6 7 7 7 7 6 7 6 7 7 7 7 7 7 6 7 7 6 e.f.g.h.i.0 j.k.O 4.",
"Z K l.=.4.A l w m.i 3 6 7 7 7 7 6 7 7 7 6 7 7 7 7 7 7 7 7 7 7 7 6 6 7 7 7 6 e.q.#.r.s.t.u.v.w.' ",
"x.l x | / 4.8 3 | m H 6 7 7 6 6 7 7 7 7 7 7 7 7 7 7 7 7 7 6 7 7 7 7 7 7 7 6 z.A.B.E ! K C.D.L ! ",
"E.t q ) S %.' # F.5 }.6 7 7 6 7 7 7 7 6 7 6 7 6 7 7 6 7 7 6 7 7 7 7 7 7 7 6 m I.J.m.K.l.k L.w F ",
"! M.9 N.$ O.P.L.Q. .R.6 7 7 7 7 7 7 6 6 7 7 6 7 7 7 7 6 6 7 7 6 7 7 6 7 7 6 U.V.W.L.w b.5 X.0 8 ",
"r / Q H # & u...| 8 Y.Z.6 7 7 7 7 6 7 7 6 7 7 7 6 7 7 7 7 7 6 6 7 7 7 7 6 `.}.K.5.i | ) J  +_ .+",
" +@ / r ) | ++@+#+q d ' Q 6 6 7 7 7 7 7 7 7 7 7 7 7 7 7 7 7 7 7 7 7 6 6 Q / [.(.$+| 2 %+H &+i.k ",
".+1 L D . a *+=+-+~..+J L 1.6 6 6 6 6 6 7 6 6 6 6 6 6 6 7 6 6 6 6 6 6 J L 1.R.;+>+< ) l.1.m = h.",
"C ,+'+i C E L.)+c {.!++ &.8.~+]+^+/+(+6 7 6 c $ C ,+'+6 7 6 L.)+c {.!++ &.8.~+]+^+/+(+k Y 4 c $ ",
"Q L E 1 ' c e._+U :+<+[+j.< /.|+1+2+W 6 7 6 5+6+Q L E 6 7 6 e._+U :+<+[+j.< /.|+1+2+W : 3+4+5+6+",
"p 1 L 7+p = U $+8+.+u.9+l 0+; a+#+-+b+6 7 6 e+) p 1 L 6 7 6 U $+8+.+u.9+l 0+; a+#+-+b+c+< d+e+) ",
"8 i k 0 9 f+g+h+i+2.s =.'+* n.D L.j+6 s+s+s+6 | 8 i 6 s+s+s+6 h+i+2.s =.'+* n.D L.j+k+L.l+5.o | ",
"'+) 9 ) m / F B i.# m+t+& : k w w 6 s+s+s+s+s+6 '+6 s+s+s+s+s+6 i.# m+t+& : k w w | .+' F . n+| ",
"L + K .+@ l i.!.o+p+q+$.>.h J 3 L 6 6 6 6 6 6 6 L 6 6 6 6 6 6 6 o+p+q+$.>.h J 3 L 5 6.r+' H J 2."};
