/* XPM */
static char * SF2_xpm[] = {
"48 48 239 2",
"  	c None",
". 	c #8FB93D",
"+ 	c #85B13B",
"@ 	c #7EAA39",
"# 	c #86B13B",
"$ 	c #83AE3A",
"% 	c #8BB53D",
"& 	c #84AE3A",
"* 	c #7FAA39",
"= 	c #7DA938",
"- 	c #7FA838",
"; 	c #88B23B",
"> 	c #85AE3A",
", 	c #83AC3A",
"' 	c #87B13B",
") 	c #85B03B",
"! 	c #80AB39",
"~ 	c #7BA738",
"{ 	c #88B33C",
"] 	c #8AB53D",
"^ 	c #7EAA38",
"/ 	c #8CB63D",
"( 	c #7AA537",
"_ 	c #78A537",
": 	c #82AD3A",
"< 	c #7FA938",
"[ 	c #749D34",
"} 	c #7CA638",
"| 	c #8DB73D",
"1 	c #8EB73D",
"2 	c #86B23B",
"3 	c #87B23B",
"4 	c #75A236",
"5 	c #7CA838",
"6 	c #8AB43C",
"7 	c #84AF3B",
"8 	c #81AC3A",
"9 	c #92BB3F",
"0 	c #73A036",
"a 	c #81AB39",
"b 	c #88AF3B",
"c 	c #82AB39",
"d 	c #83AC39",
"e 	c #85AF3A",
"f 	c #8BB43C",
"g 	c #90B93E",
"h 	c #93BD3E",
"i 	c #8AB53C",
"j 	c #87B23C",
"k 	c #8FB93E",
"l 	c #93BB3E",
"m 	c #94BC3F",
"n 	c #81AC39",
"o 	c #8EB83E",
"p 	c #84AF3A",
"q 	c #7CA738",
"r 	c #8FB83E",
"s 	c #8CB43D",
"t 	c #89B23C",
"u 	c #89B43C",
"v 	c #95BE3F",
"w 	c #9AC140",
"x 	c #9CC040",
"y 	c #93BC3F",
"z 	c #8CB73D",
"A 	c #91BA3F",
"B 	c #94BD3F",
"C 	c #91BA3E",
"D 	c #8FB83D",
"E 	c #99BF40",
"F 	c #82AE3A",
"G 	c #78A436",
"H 	c #7FAB39",
"I 	c #7DA838",
"J 	c #8EB83D",
"K 	c #8DB63D",
"L 	c #89B23B",
"M 	c #88B23C",
"N 	c #000000",
"O 	c #FFFFFF",
"P 	c #93BD3F",
"Q 	c #8BB63D",
"R 	c #80AB3A",
"S 	c #80AC39",
"T 	c #85B13C",
"U 	c #82AC39",
"V 	c #7BA036",
"W 	c #81A638",
"X 	c #87B03B",
"Y 	c #87B13C",
"Z 	c #83AD3A",
"` 	c #7EA939",
" .	c #7DA638",
"..	c #7AA437",
"+.	c #7BA838",
"@.	c #82AE39",
"#.	c #77A337",
"$.	c #7BA336",
"%.	c #7FA437",
"&.	c #84AD3A",
"*.	c #85B03A",
"=.	c #77A437",
"-.	c #729E34",
";.	c #7AA236",
">.	c #8CB53D",
",.	c #8AB23C",
"'.	c #769933",
").	c #81A838",
"!.	c #89B53C",
"~.	c #7AA737",
"{.	c #8EB73C",
"].	c #78A437",
"^.	c #88B33B",
"/.	c #82AD39",
"(.	c #8CB33B",
"_.	c #8EB53D",
":.	c #75A237",
"<.	c #85AD3A",
"[.	c #8AB33C",
"}.	c #93B93E",
"|.	c #91B93D",
"1.	c #92BC3E",
"2.	c #94BE3F",
"3.	c #84B03B",
"4.	c #98BF40",
"5.	c #97C040",
"6.	c #80AC3A",
"7.	c #83AF3A",
"8.	c #92BD3F",
"9.	c #90BA3E",
"0.	c #92BB3E",
"a.	c #719F35",
"b.	c #8FBA3E",
"c.	c #7EA838",
"d.	c #80A939",
"e.	c #7DA939",
"f.	c #81AD3A",
"g.	c #7FA537",
"h.	c #7DA135",
"i.	c #80A838",
"j.	c #7AA738",
"k.	c #7CA938",
"l.	c #6F9D34",
"m.	c #719D35",
"n.	c #8CB63C",
"o.	c #91BB3E",
"p.	c #7DA337",
"q.	c #7EA938",
"r.	c #7BA938",
"s.	c #6F9C35",
"t.	c #749C34",
"u.	c #759C34",
"v.	c #7AA336",
"w.	c #79A538",
"x.	c #83AF3B",
"y.	c #7FAA38",
"z.	c #7BA537",
"A.	c #8FB73D",
"B.	c #8CB33C",
"C.	c #93BA3E",
"D.	c #8DB83E",
"E.	c #86AF3A",
"F.	c #96BE3F",
"G.	c #95BD3F",
"H.	c #95BE40",
"I.	c #8DB83D",
"J.	c #89B33C",
"K.	c #85AF3B",
"L.	c #7DA839",
"M.	c #77A136",
"N.	c #7EA638",
"O.	c #79A336",
"P.	c #86AE3A",
"Q.	c #789734",
"R.	c #666666",
"S.	c #90BA3D",
"T.	c #9ABF40",
"U.	c #96BD40",
"V.	c #7FAA3A",
"W.	c #80A637",
"X.	c #82A437",
"Y.	c #76A437",
"Z.	c #7AA637",
"`.	c #86B03B",
" +	c #90B63C",
".+	c #98BB3F",
"++	c #97BE40",
"@+	c #83AB39",
"#+	c #77A436",
"$+	c #86B13A",
"%+	c #98C040",
"&+	c #99BE40",
"*+	c #91B93E",
"=+	c #799B34",
"-+	c #7A9E34",
";+	c #98C140",
">+	c #92BC3F",
",+	c #80AD39",
"'+	c #82AC3A",
")+	c #749B34",
"!+	c #7EA236",
"~+	c #82A938",
"{+	c #7BA236",
"]+	c #7EA537",
"^+	c #81AA39",
"/+	c #7DA236",
"(+	c #7EA337",
"_+	c #74A035",
":+	c #779F35",
"<+	c #769E35",
"[+	c #83A838",
"}+	c #7DA336",
"|+	c #84A938",
"1+	c #8EB93E",
"2+	c #8BB63C",
"3+	c #8AB33B",
"4+	c #729C34",
"5+	c #90B83E",
"6+	c #84AE3B",
"7+	c #89B13B",
"8+	c #7DA738",
"9+	c #8FB63D",
"0+	c #88B13B",
"a+	c #89B03B",
"b+	c #87B03C",
"c+	c #89B43D",
"d+	c #8CB53C",
"e+	c #82AE3B",
"f+	c #91BB3F",
"g+	c #96BF3F",
"h+	c #8EB63D",
"i+	c #88B03B",
"j+	c #87AF3B",
"k+	c #8EB73E",
"l+	c #84AB39",
"m+	c #7EAB39",
"n+	c #FF0000",
"o+	c #719E34",
"p+	c #79A537",
". + @ # $ % & * = - ; > , ' @ ) ! ~ ! { ] ) ^ / . + @ # $ % & * = - ; > , ' @ ) ! ~ ! { ] ) ^ / ",
"( _ : < { ! [ } | 1 2 3 @ 4 5 $ 3 1 | 6 7 8 6 9 ( _ : < { ! [ } | 1 2 3 @ 4 5 $ 3 1 | 6 7 8 6 9 ",
"0 a b c ! d e f g h i j k 6 l m n * o p q 5 # 8 0 a b c ! d e f g h i j k 6 l m n * o p q 5 # 8 ",
"j r s t u 1 v w x y z A B C D E C * F u G H $ I j r s t u 1 v w x y z A B C D E C * F u G H $ I ",
"] v | 3 J K L u | m k g o k M u N N N O N N N N N N O N N N N N | m k g o k M u P Q 4 R S o J ) ",
"k T 5 & U V W X # M i Y Z S ` N O O O O O N O O O O O O O O O O N N i Y Z S ` : H  ...+.$ z @.; ",
"% #.) $ $.%.&., { *.6 =.-.;.N O O N O O O O N O O O O N O O O N N O N =.-.;.- >.,.'.).J !.F ~.{.",
"].#.^./.(._.9 q = + $ :.~ N N O O O N O O O O O N O O N N O N O O O O N ~ <.<.[.}.|.1.2.C 6 ) K ",
"u 3.*.J 4.4.5.1.{ 8 6.7.N N O N N O O O O N N O N N O O O O O O N N O N N | u u 6 8.9.: 6 y 0.3 ",
"A ].a.i ! *.b.z i f # { N O N N O O O O N N O O O O N O N O O O O N O O N N c.d.3.i = ~ u 7 u k ",
"{ F e.f.F 7.p u p # z N N O O O O O O O O O O N O O O O N O O O O O O O O N g.h.i.j.k.8 l.m.M 9.",
"` I n.>.9.y j u o.g 3 N O N N O O O O O O O N N N O O O O O O O O O N O O N g.p.$.q.r.s.t.u.v.' ",
"w.j v | / 9.6 3 | k F N O O O O N N O O O O O O O O O N O O O N N O O O N x.y.z.A.C ! I B.C.J ! ",
"D.r o ) S &.' # E.5 3.e N O O O O N N O N N N N O O N N O O N N O O O N N F.k G.H.o.I.n.i J.u D ",
"! K.7 L.$ M.N.J.O...P.Q.N N O O O O O O N R.N R.N N N R.N O O O O O O O N D S.T.U.J.u 7.5 V.8 6 ",
"p / Q F # & t.+.| 6 W.X.' N N N O N N N R.R.R.R.R.R.R.R.R.N N N O N N N ' Y.3.I.0.g | ) H Z._ `.",
"Z.@ / p ) |  +.+++o b ' Q / 2.N O N N R.R.R.R.R.R.R.R.R.R.R.N N O N b ' Q / 2.[.@+| 2 #+F $+k.i ",
"`.1 J B . 9 %+&+*+^.`.H J 5.P.N O N R.R.R.R.O R.R.R.O R.R.R.R.N O N `.H J 5.P.=+-+< ) n.5.k = j.",
"A ;+>+g A C J.,+a /.'++ *.c.)+N O N R.R.R.R.O N R.R.O N R.R.R.N O N '++ *.c.)+!+~+{+]+i Y 4 a $ ",
"Q J C 1 ' a g.^+U /+(+_+l.< <.N O N R.R.R.R.O N R.R.O N R.R.R.N O N (+_+l.< <.:+<+[+W : :.}+|+1+",
"n 1 J 2+n = U @+3+`.t.4+j 5+; N O N R.R.R.R.R.R.R.R.R.R.R.R.R.N O N t.4+j 5+; 6+++*+7+8+< 9+0+) ",
"6 g i 8 7 a+b+c+d+6.q >.>+* e+N O N R.R.N R.R.R.R.R.R.R.N R.R.N O N q >.>+* e+B J.f+g+J.h+0.m | ",
">+) 7 ) k / D z k.# i+j+& : N N O N R.R.R.N R.R.R.R.R.N R.R.R.N O N N j+& : i u u | `.' D . k+| ",
"J + I `.@ j N N N N l+%.).N O N N N R.R.R.R.N N N N N R.R.R.R.N N N O N ).f H N N N N m+' F H 6.",
". + @ # $ % n+n+n+N ; > N O O O O N N R.R.R.R.R.R.R.R.R.R.R.N N O O O O N ' @ N n+n+n+{ ] ) ^ / ",
"( _ : < { ! n+n+n+N 2 N O O O O O O O N R.R.R.R.R.R.R.R.R.N O O O O N O O N 5 N n+n+n+6 7 8 6 9 ",
"0 a b c ! d N O O N i N O O O N O O O O N R.R.R.N R.R.R.N O O O O N O O N N l N O O N p q 5 # 8 ",
"j r s t u 1 N O O N z N N O N O N O O O O N N N N N N N O O O O O O O O O N D N O O N u G H $ I ",
"] v | 3 J K N O O N k N O O O O O O O O N O O O O O O O N O O O O O O O O N M N O O N R S o J ) ",
"k T 5 & U V N O O N N N O O O O N O O N O O O N O O O O O O N O O N O O O N N N O O N +.$ z @.; ",
"% #.) $ $.%.N O O O O O O O O O O O O O O O O O O O O O O N O O O O O O O O O O O O N J !.F ~.{.",
"].#.^./.(._.N O O O O O O O O O O O O O N N O O N O O O N O O O O O O N O O O O O O N 2.C 6 ) K ",
"u 3.*.J 4.4.N N N N N N O O N N O O O O O N O N O N O N O O O O O O O O O N N N N N N : 6 y 0.3 ",
"A ].a.i ! *.b.z i f # N O O O N N O O O O O O O O O O O O O O O N N O O O N c.d.3.i = ~ u 7 u k ",
"{ F e.f.F 7.p u p # z N N O O O N O O O N O O O O O O O O N O O N O O N O N g.h.i.j.k.8 l.m.M 9.",
"` I n.>.9.y j u o.g 3 N O O O O O O N O O O O O N N O O N O N O O O O O O N g.p.$.q.r.s.t.u.v.' ",
"w.j v | / 9.6 3 | k F N O O O O O O O O O O N N O N O O O O N O O O O O O N y.z.A.C ! I B.C.J ! ",
"D.r o ) S &.' # E.5 3.N O N O O O O O O N O O O O N O N O O O O O O N O O N k G.H.o.I.n.i J.u D ",
"! K.7 L.$ M.N.J.O...P.N O O O O N O O O N O O O O O O O O O O O N N O O O N S.T.U.J.u 7.5 V.8 6 ",
"p / Q F # & t.+.| 6 W.N O O N N O O O O O O O O O O O O O N O O O O O O O N 3.I.0.g | ) H Z._ `.",
"Z.@ / p ) |  +.+++o b N O O N O O O O N O N O N O O N O O N O O O O O O O N 2.[.@+| 2 #+F $+k.i ",
"`.1 J B . 9 %+&+*+^.`.N O O O O O O N N O O N O O O O N N O O N O O N O O N P.=+-+< ) n.5.k = j.",
"A ;+>+g A C J.,+a /.'++ N O O O O N O O N O O O N O O O O O N N O O O O N c.)+!+~+{+]+i Y 4 a $ ",
"Q J C 1 ' a g.^+U /+(+_+l.N N O O O O O O O O O O O O O O O O O O O N N l.< <.:+<+[+W : :.}+|+1+",
"n 1 J 2+n = U @+3+`.t.4+j 5+N N N N N N O N N N N N N N O N N N N N N 4+j 5+; 6+++*+7+8+< 9+0+) ",
"6 g i 8 7 a+b+c+d+6.q >.>+* e+B J.f+N n+n+n+N | 6 g N n+n+n+N c+d+6.q >.>+* e+B J.f+g+J.h+0.m | ",
">+) 7 ) k / D z k.# i+j+& : i u u N n+n+n+n+n+N >+N n+n+n+n+n+N k.# i+j+& : i u u | `.' D . k+| ",
"J + I `.@ j k.].o+p+l+%.).f H 3 J N N N N N N N J N N N N N N N o+p+l+%.).f H 3 J 5 a.m+' F H 6."};
