/* XPM */
static char * SL2_xpm[] = {
"48 48 244 2",
"  	c None",
". 	c #8FB93D",
"+ 	c #85B13B",
"@ 	c #7EAA39",
"# 	c #86B13B",
"$ 	c #83AE3A",
"% 	c #8BB53D",
"& 	c #84AE3A",
"* 	c #7FAA39",
"= 	c #7DA938",
"- 	c #7FA838",
"; 	c #88B23B",
"> 	c #85AE3A",
", 	c #83AC3A",
"' 	c #87B13B",
") 	c #85B03B",
"! 	c #80AB39",
"~ 	c #7BA738",
"{ 	c #88B33C",
"] 	c #8AB53D",
"^ 	c #7EAA38",
"/ 	c #8CB63D",
"( 	c #7AA537",
"_ 	c #78A537",
": 	c #82AD3A",
"< 	c #7FA938",
"[ 	c #749D34",
"} 	c #7CA638",
"| 	c #8DB73D",
"1 	c #8EB73D",
"2 	c #86B23B",
"3 	c #87B23B",
"4 	c #75A236",
"5 	c #7CA838",
"6 	c #8AB43C",
"7 	c #84AF3B",
"8 	c #81AC3A",
"9 	c #92BB3F",
"0 	c #73A036",
"a 	c #81AB39",
"b 	c #88AF3B",
"c 	c #82AB39",
"d 	c #83AC39",
"e 	c #85AF3A",
"f 	c #8BB43C",
"g 	c #90B93E",
"h 	c #93BD3E",
"i 	c #8AB53C",
"j 	c #87B23C",
"k 	c #8FB93E",
"l 	c #93BB3E",
"m 	c #94BC3F",
"n 	c #81AC39",
"o 	c #8EB83E",
"p 	c #84AF3A",
"q 	c #7CA738",
"r 	c #8FB83E",
"s 	c #8CB43D",
"t 	c #89B23C",
"u 	c #89B43C",
"v 	c #95BE3F",
"w 	c #9AC140",
"x 	c #9CC040",
"y 	c #93BC3F",
"z 	c #8CB73D",
"A 	c #91BA3F",
"B 	c #94BD3F",
"C 	c #91BA3E",
"D 	c #8FB83D",
"E 	c #99BF40",
"F 	c #82AE3A",
"G 	c #78A436",
"H 	c #7FAB39",
"I 	c #7DA838",
"J 	c #8EB83D",
"K 	c #8DB63D",
"L 	c #89B23B",
"M 	c #88B23C",
"N 	c #000000",
"O 	c #93BD3F",
"P 	c #8BB63D",
"Q 	c #80AB3A",
"R 	c #80AC39",
"S 	c #85B13C",
"T 	c #82AC39",
"U 	c #7BA036",
"V 	c #81A638",
"W 	c #87B03B",
"X 	c #87B13C",
"Y 	c #83AD3A",
"Z 	c #7EA939",
"` 	c #FFFFFF",
" .	c #7DA638",
"..	c #7AA437",
"+.	c #7BA838",
"@.	c #82AE39",
"#.	c #77A337",
"$.	c #7BA336",
"%.	c #7FA437",
"&.	c #84AD3A",
"*.	c #85B03A",
"=.	c #77A437",
"-.	c #729E34",
";.	c #7AA236",
">.	c #8CB53D",
",.	c #8AB23C",
"'.	c #769933",
").	c #81A838",
"!.	c #89B53C",
"~.	c #7AA737",
"{.	c #8EB73C",
"].	c #78A437",
"^.	c #88B33B",
"/.	c #82AD39",
"(.	c #8CB33B",
"_.	c #8EB53D",
":.	c #75A237",
"<.	c #85AD3A",
"[.	c #8AB33C",
"}.	c #93B93E",
"|.	c #91B93D",
"1.	c #92BC3E",
"2.	c #94BE3F",
"3.	c #84B03B",
"4.	c #98BF40",
"5.	c #97C040",
"6.	c #80AC3A",
"7.	c #83AF3A",
"8.	c #92BD3F",
"9.	c #90BA3E",
"0.	c #92BB3E",
"a.	c #719F35",
"b.	c #8FBA3E",
"c.	c #8CB63C",
"d.	c #7EA838",
"e.	c #80A939",
"f.	c #7DA939",
"g.	c #81AD3A",
"h.	c #84B03A",
"i.	c #7CA737",
"j.	c #7FA537",
"k.	c #7DA135",
"l.	c #80A838",
"m.	c #7AA738",
"n.	c #7CA938",
"o.	c #6F9D34",
"p.	c #719D35",
"q.	c #91BB3E",
"r.	c #82AE3B",
"s.	c #709B34",
"t.	c #7DA337",
"u.	c #7EA938",
"v.	c #7BA938",
"w.	c #6F9C35",
"x.	c #749C34",
"y.	c #759C34",
"z.	c #7AA336",
"A.	c #79A538",
"B.	c #83AF3B",
"C.	c #7FAA38",
"D.	c #7BA537",
"E.	c #8FB73D",
"F.	c #8CB33C",
"G.	c #93BA3E",
"H.	c #8DB83E",
"I.	c #86AF3A",
"J.	c #8FB43C",
"K.	c #96BE3F",
"L.	c #95BD3F",
"M.	c #95BE40",
"N.	c #8DB83D",
"O.	c #89B33C",
"P.	c #85AF3B",
"Q.	c #7DA839",
"R.	c #77A136",
"S.	c #7EA638",
"T.	c #79A336",
"U.	c #86AE3A",
"V.	c #789734",
"W.	c #7C9E36",
"X.	c #90BA3D",
"Y.	c #666666",
"Z.	c #9ABF40",
"`.	c #96BD40",
" +	c #7FAA3A",
".+	c #80A637",
"++	c #82A437",
"@+	c #76A437",
"#+	c #7AA637",
"$+	c #86B03B",
"%+	c #90B63C",
"&+	c #98BB3F",
"*+	c #97BE40",
"=+	c #83AB39",
"-+	c #77A436",
";+	c #86B13A",
">+	c #98C040",
",+	c #99BE40",
"'+	c #91B93E",
")+	c #799B34",
"!+	c #7A9E34",
"~+	c #98C140",
"{+	c #92BC3F",
"]+	c #80AD39",
"^+	c #82AC3A",
"/+	c #749B34",
"(+	c #7EA236",
"_+	c #82A938",
":+	c #7BA236",
"<+	c #7EA537",
"[+	c #81AA39",
"}+	c #7DA236",
"|+	c #7EA337",
"1+	c #74A035",
"2+	c #779F35",
"3+	c #769E35",
"4+	c #83A838",
"5+	c #7DA336",
"6+	c #84A938",
"7+	c #8EB93E",
"8+	c #8BB63C",
"9+	c #8AB33B",
"0+	c #729C34",
"a+	c #90B83E",
"b+	c #84AE3B",
"c+	c #89B13B",
"d+	c #7DA738",
"e+	c #8FB63D",
"f+	c #88B13B",
"g+	c #89B03B",
"h+	c #87B03C",
"i+	c #89B43D",
"j+	c #8CB53C",
"k+	c #91BB3F",
"l+	c #96BF3F",
"m+	c #8EB63D",
"n+	c #88B03B",
"o+	c #87AF3B",
"p+	c #8EB73E",
"q+	c #719E34",
"r+	c #79A537",
"s+	c #84AB39",
"t+	c #7EAB39",
"u+	c #FF0000",
". + @ # $ % & * = - ; > , ' @ ) ! ~ ! { ] ) ^ / . + @ # $ % & * = - ; > , ' @ ) ! ~ ! { ] ) ^ / ",
"( _ : < { ! [ } | 1 2 3 @ 4 5 $ 3 1 | 6 7 8 6 9 ( _ : < { ! [ } | 1 2 3 @ 4 5 $ 3 1 | 6 7 8 6 9 ",
"0 a b c ! d e f g h i j k 6 l m n * o p q 5 # 8 0 a b c ! d e f g h i j k 6 l m n * o p q 5 # 8 ",
"j r s t u 1 v w x y z A B C D E C * F u G H $ I j r s t u 1 v w x y z A B C D E C * F u G H $ I ",
"] v | 3 J K L u | m k g o k M u N N N N N N N N N N N N N N N u | m k g o k M u O P 4 Q R o J ) ",
"k S 5 & T U V W # M i X Y R Z N N ` ` ` N N ` ` ` ` N ` ` ` N N N M i X Y R Z : H  ...+.$ z @.; ",
"% #.) $ $.%.&., { *.6 =.-.;.N N ` ` ` N ` ` ` ` N ` ` ` ` ` ` ` N N 6 =.-.;.- >.,.'.).J !.F ~.{.",
"].#.^./.(._.9 q = + $ :.~ N N ` ` N ` N ` ` ` N ` ` ` ` ` N ` ` ` N N :.~ <.<.[.}.|.1.2.C 6 ) K ",
"u 3.*.J 4.4.5.1.{ 8 6.7.{ N ` ` N N ` N N ` ` ` ` N N ` ` ` N ` ` ` N N { | u u 6 8.9.: 6 y 0.3 ",
"A ].a.i ! *.b.z i f # { c.N ` N ` ` ` ` N N ` ` ` ` N N ` ` N N ` N ` N N / d.e.3.i = ~ u 7 u k ",
"{ F f.g.F 7.p u p # z h.+.N ` ` ` ` N ` ` ` ` ` ` ` ` ` ` ` ` ` ` ` ` ` N i.j.k.l.m.n.8 o.p.M 9.",
"Z I c.>.9.y j u q.g 3 r.4 N ` ` ` N N N ` ` ` ` ` ` ` N N N ` ` ` N ` ` N s.j.t.$.u.v.w.x.y.z.' ",
"A.j v | / 9.6 3 | k F B./ N N ` ` ` ` ` ` ` ` ` N N ` ` N ` ` ` ` N N ` N B.C.D.E.C ! I F.G.J ! ",
"H.r o ) R &.' # I.5 3.e J.K.N N ` ` N N N N ` N N ` ` ` ` N ` ` N ` ` ` N K.k L.M.q.N.c.i O.u D ",
"! P.7 Q.$ R.S.O.T...U.V.W.D X.N N N Y.N Y.N ` ` ` ` ` ` ` ` N N ` ` ` ` N D X.Z.`.O.u 7.5  +8 6 ",
"p / P F # & x.+.| 6 .+++' @+3.N.N Y.Y.Y.Y.Y.N N N ` ` ` N ` ` N N N ` N N @+3.N.0.g | ) H #+_ $+",
"#+@ / p ) | %+&+*+o b ' P / 2.[.N Y.Y.Y.Y.Y.Y.N N ` ` ` N ` N N ` ` N N P / 2.[.=+| 2 -+F ;+n.i ",
"$+1 J B . 9 >+,+'+^.$+H J 5.U.)+N Y.Y.` Y.Y.Y.Y.N ` ` ` N ` ` ` ` N N H J 5.U.)+!+< ) c.5.k = m.",
"A ~+{+g A C O.]+a /.^++ *.d./+(+N Y.N ` Y.Y.Y.Y.N ` N ` N ` ` ` N N ^++ *.d./+(+_+:+<+i X 4 a $ ",
"P J C 1 ' a j.[+T }+|+1+o.< <.2+N Y.N ` Y.Y.Y.Y.N N ` ` N ` ` N N }+|+1+o.< <.2+3+4+V : :.5+6+7+",
"n 1 J 8+n = T =+9+$+x.0+j a+; b+N Y.Y.Y.Y.Y.Y.Y.N ` ` ` N N N N 9+$+x.0+j a+; b+*+'+c+d+< e+f+) ",
"6 g i 8 7 g+h+i+j+6.q >.{+* r.B N Y.Y.Y.Y.N Y.Y.N ` ` N N g+h+i+j+6.q >.{+* r.B O.k+l+O.m+0.m | ",
"{+) 7 ) k / D z n.# n+o+& : i u N Y.Y.Y.N Y.Y.Y.N ` ` ` N N N z n.# n+o+& : i u u | $+' D . p+| ",
"J + I $+@ j n.].q+r+s+%.).f H 3 N N N N Y.Y.Y.Y.N N N N N ` N N q+r+s+%.).f H 3 J 5 a.t+' F H 6.",
". + @ # $ % & * = - ; > , ' @ ) N Y.Y.Y.Y.Y.Y.N N ` ` ` ` ` ` N = - ; > , ' @ ) ! ~ ! { ] ) ^ / ",
"( _ : < { ! [ } | 1 2 3 @ 4 5 $ N N Y.Y.Y.Y.N ` ` ` ` ` ` ` ` N N 1 2 3 @ 4 5 $ 3 1 | 6 7 8 6 9 ",
"0 a b c ! d e f g h i j k 6 l m n N N N Y.N ` ` ` N N ` ` N N ` N h i j k 6 l m n * o p q 5 # 8 ",
"j r s t u 1 v w x y z A B C D E C * F N N ` ` ` ` N ` N ` N ` ` N y z A B C D E C * F u G H $ I ",
"] v | 3 J K L u | m k g o k M u O P 4 N ` N ` ` ` ` ` ` ` ` ` N N m k g o k M u O P 4 Q R o J ) ",
"k S 5 & T U V W # M i X Y R Z : H  ...N ` ` ` N ` ` N ` N ` ` ` N M i X Y R Z : H  ...+.$ z @.; ",
"% #.) $ $.%.&., { *.6 =.-.;.- >.,.'.N N ` ` ` N ` ` N ` ` N ` ` N *.6 =.-.;.- >.,.'.).J !.F ~.{.",
"].#.^./.(._.9 q = + $ :.~ <.<.[.}.|.N ` ` N ` N ` ` N ` N N ` ` N + $ :.~ <.<.[.}.|.1.2.C 6 ) K ",
"u 3.*.J 4.4.5.1.{ 8 6.7.{ | u u 6 c.N N ` ` ` N ` ` N ` ` ` ` N N 8 6.7.{ | u u 6 8.9.: 6 y 0.3 ",
"A ].a.i ! *.b.z i f # { c./ d.e.3.N u+u+N N N N ` ` N ` ` ` ` ` N f # { c./ d.e.3.i = ~ u 7 u k ",
"{ F f.g.F 7.p u p # z h.+.i.j.k.l.N u+u+` ` ` ` ` ` N ` ` N ` N N # z h.+.i.j.k.l.m.n.8 o.p.M 9.",
"Z I c.>.9.y j u q.g 3 r.4 s.j.t.N N u+u+` ` ` ` ` ` N ` N N ` N N g 3 r.4 s.j.t.$.u.v.w.x.y.z.' ",
"A.j v | / 9.6 3 | k F B./ B.C.D.N ` N N N N N N N N N ` ` ` ` ` N k F B./ B.C.D.E.C ! I F.G.J ! ",
"H.r o ) R &.' # I.5 3.e J.K.k L.N ` ` ` ` N ` ` ` ` ` N ` ` ` ` N 5 3.e J.K.k L.M.q.N.c.i O.u D ",
"! P.7 Q.$ R.S.O.T...U.V.W.D X.Z.N ` N ` ` ` ` ` ` ` ` ` ` ` ` ` N ..U.V.W.D X.Z.`.O.u 7.5  +8 6 ",
"p / P F # & x.+.| 6 .+++' @+3.N.N ` ` N ` ` ` ` ` ` ` ` N ` ` N N 6 .+++' @+3.N.0.g | ) H #+_ $+",
"#+@ / p ) | %+&+*+o b ' P / 2.[.N ` ` N N ` ` ` ` ` ` ` N N ` N *+o b ' P / 2.[.=+| 2 -+F ;+n.i ",
"$+1 J B . 9 >+,+'+^.$+H J 5.U.)+N N ` ` ` ` ` ` N ` ` ` N ` ` N '+^.$+H J 5.U.)+!+< ) c.5.k = m.",
"A ~+{+g A C O.]+a /.^++ *.d./+(+_+N ` ` ` N ` ` ` N ` ` ` ` N N a /.^++ *.d./+(+_+:+<+i X 4 a $ ",
"P J C 1 ' a j.[+T }+|+1+o.< <.2+3+N N ` ` ` ` ` ` ` ` ` ` N N [+T }+|+1+o.< <.2+3+4+V : :.5+6+7+",
"n 1 J 8+n = T =+9+$+x.0+j a+; b+*+'+N N N ` N N N N N ` N N T =+9+$+x.0+j a+; b+*+'+c+d+< e+f+) ",
"6 g i 8 7 g+h+i+j+6.q >.{+* r.B O.k+l+N u+u+N | 6 N u+u+N g+h+i+j+6.q >.{+* r.B O.k+l+O.m+0.m | ",
"{+) 7 ) k / D z n.# n+o+& : i u u | N u+u+u+N | N u+u+u+N / D z n.# n+o+& : i u u | $+' D . p+| ",
"J + I $+@ j n.].q+r+s+%.).f H 3 J 5 N N N N N 6.N N N N N j n.].q+r+s+%.).f H 3 J 5 a.t+' F H 6."};
