/* XPM */
static char * SR22_xpm[] = {
"48 48 245 2",
"  	c None",
". 	c #8FB93D",
"+ 	c #85B13B",
"@ 	c #7EAA39",
"# 	c #86B13B",
"$ 	c #83AE3A",
"% 	c #8BB53D",
"& 	c #84AE3A",
"* 	c #7FAA39",
"= 	c #7DA938",
"- 	c #7FA838",
"; 	c #88B23B",
"> 	c #85AE3A",
", 	c #83AC3A",
"' 	c #87B13B",
") 	c #85B03B",
"! 	c #80AB39",
"~ 	c #7BA738",
"{ 	c #88B33C",
"] 	c #8AB53D",
"^ 	c #7EAA38",
"/ 	c #8CB63D",
"( 	c #7AA537",
"_ 	c #78A537",
": 	c #82AD3A",
"< 	c #7FA938",
"[ 	c #749D34",
"} 	c #7CA638",
"| 	c #8DB73D",
"1 	c #8EB73D",
"2 	c #86B23B",
"3 	c #87B23B",
"4 	c #75A236",
"5 	c #7CA838",
"6 	c #8AB43C",
"7 	c #84AF3B",
"8 	c #81AC3A",
"9 	c #92BB3F",
"0 	c #73A036",
"a 	c #81AB39",
"b 	c #88AF3B",
"c 	c #82AB39",
"d 	c #83AC39",
"e 	c #85AF3A",
"f 	c #8BB43C",
"g 	c #90B93E",
"h 	c #93BD3E",
"i 	c #8AB53C",
"j 	c #87B23C",
"k 	c #8FB93E",
"l 	c #93BB3E",
"m 	c #94BC3F",
"n 	c #81AC39",
"o 	c #8EB83E",
"p 	c #84AF3A",
"q 	c #7CA738",
"r 	c #8FB83E",
"s 	c #8CB43D",
"t 	c #89B23C",
"u 	c #89B43C",
"v 	c #95BE3F",
"w 	c #9AC140",
"x 	c #9CC040",
"y 	c #93BC3F",
"z 	c #8CB73D",
"A 	c #91BA3F",
"B 	c #94BD3F",
"C 	c #91BA3E",
"D 	c #8FB83D",
"E 	c #99BF40",
"F 	c #82AE3A",
"G 	c #78A436",
"H 	c #7FAB39",
"I 	c #7DA838",
"J 	c #8EB83D",
"K 	c #8DB63D",
"L 	c #89B23B",
"M 	c #88B23C",
"N 	c #93BD3F",
"O 	c #000000",
"P 	c #8BB63D",
"Q 	c #80AB3A",
"R 	c #80AC39",
"S 	c #85B13C",
"T 	c #82AC39",
"U 	c #7BA036",
"V 	c #81A638",
"W 	c #87B03B",
"X 	c #87B13C",
"Y 	c #83AD3A",
"Z 	c #7EA939",
"` 	c #FFFFFF",
" .	c #7DA638",
"..	c #7AA437",
"+.	c #7BA838",
"@.	c #82AE39",
"#.	c #77A337",
"$.	c #7BA336",
"%.	c #7FA437",
"&.	c #84AD3A",
"*.	c #85B03A",
"=.	c #77A437",
"-.	c #729E34",
";.	c #7AA236",
">.	c #FFE700",
",.	c #8CB53D",
"'.	c #8AB23C",
").	c #769933",
"!.	c #81A838",
"~.	c #89B53C",
"{.	c #7AA737",
"].	c #8EB73C",
"^.	c #78A437",
"/.	c #88B33B",
"(.	c #82AD39",
"_.	c #8CB33B",
":.	c #8EB53D",
"<.	c #75A237",
"[.	c #85AD3A",
"}.	c #8AB33C",
"|.	c #93B93E",
"1.	c #91B93D",
"2.	c #92BC3E",
"3.	c #94BE3F",
"4.	c #84B03B",
"5.	c #98BF40",
"6.	c #97C040",
"7.	c #80AC3A",
"8.	c #83AF3A",
"9.	c #92BD3F",
"0.	c #90BA3E",
"a.	c #92BB3E",
"b.	c #719F35",
"c.	c #8FBA3E",
"d.	c #8CB63C",
"e.	c #7EA838",
"f.	c #80A939",
"g.	c #7DA939",
"h.	c #81AD3A",
"i.	c #84B03A",
"j.	c #7CA737",
"k.	c #7FA537",
"l.	c #7DA135",
"m.	c #80A838",
"n.	c #7AA738",
"o.	c #7CA938",
"p.	c #6F9D34",
"q.	c #719D35",
"r.	c #91BB3E",
"s.	c #82AE3B",
"t.	c #709B34",
"u.	c #7DA337",
"v.	c #7EA938",
"w.	c #7BA938",
"x.	c #6F9C35",
"y.	c #749C34",
"z.	c #759C34",
"A.	c #7AA336",
"B.	c #79A538",
"C.	c #83AF3B",
"D.	c #7FAA38",
"E.	c #7BA537",
"F.	c #8FB73D",
"G.	c #8CB33C",
"H.	c #93BA3E",
"I.	c #8DB83E",
"J.	c #86AF3A",
"K.	c #8FB43C",
"L.	c #96BE3F",
"M.	c #95BD3F",
"N.	c #95BE40",
"O.	c #8DB83D",
"P.	c #89B33C",
"Q.	c #85AF3B",
"R.	c #7DA839",
"S.	c #77A136",
"T.	c #7EA638",
"U.	c #79A336",
"V.	c #86AE3A",
"W.	c #666666",
"X.	c #789734",
"Y.	c #7C9E36",
"Z.	c #90BA3D",
"`.	c #9ABF40",
" +	c #96BD40",
".+	c #7FAA3A",
"++	c #80A637",
"@+	c #82A437",
"#+	c #76A437",
"$+	c #7AA637",
"%+	c #86B03B",
"&+	c #90B63C",
"*+	c #98BB3F",
"=+	c #97BE40",
"-+	c #83AB39",
";+	c #77A436",
">+	c #86B13A",
",+	c #98C040",
"'+	c #99BE40",
")+	c #91B93E",
"!+	c #799B34",
"~+	c #7A9E34",
"{+	c #98C140",
"]+	c #92BC3F",
"^+	c #80AD39",
"/+	c #82AC3A",
"(+	c #749B34",
"_+	c #7EA236",
":+	c #82A938",
"<+	c #7BA236",
"[+	c #7EA537",
"}+	c #81AA39",
"|+	c #7DA236",
"1+	c #7EA337",
"2+	c #74A035",
"3+	c #779F35",
"4+	c #769E35",
"5+	c #83A838",
"6+	c #7DA336",
"7+	c #84A938",
"8+	c #8EB93E",
"9+	c #8BB63C",
"0+	c #8AB33B",
"a+	c #729C34",
"b+	c #90B83E",
"c+	c #84AE3B",
"d+	c #89B13B",
"e+	c #7DA738",
"f+	c #8FB63D",
"g+	c #88B13B",
"h+	c #89B03B",
"i+	c #87B03C",
"j+	c #89B43D",
"k+	c #8CB53C",
"l+	c #91BB3F",
"m+	c #96BF3F",
"n+	c #8EB63D",
"o+	c #88B03B",
"p+	c #87AF3B",
"q+	c #8EB73E",
"r+	c #719E34",
"s+	c #79A537",
"t+	c #84AB39",
"u+	c #7EAB39",
"v+	c #FF0000",
". + @ # $ % & * = - ; > , ' @ ) ! ~ ! { ] ) ^ / . + @ # $ % & * = - ; > , ' @ ) ! ~ ! { ] ) ^ / ",
"( _ : < { ! [ } | 1 2 3 @ 4 5 $ 3 1 | 6 7 8 6 9 ( _ : < { ! [ } | 1 2 3 @ 4 5 $ 3 1 | 6 7 8 6 9 ",
"0 a b c ! d e f g h i j k 6 l m n * o p q 5 # 8 0 a b c ! d e f g h i j k 6 l m n * o p q 5 # 8 ",
"j r s t u 1 v w x y z A B C D E C * F u G H $ I j r s t u 1 v w x y z A B C D E C * F u G H $ I ",
"] v | 3 J K L u | m k g o k M u N O O O O O O O O O O O O O O O | m k g o k M u N P 4 Q R o J ) ",
"k S 5 & T U V W # M i X Y R Z O O O ` ` ` O ` ` ` ` O O ` ` ` O O M i X Y R Z : H  ...+.$ z @.; ",
"% #.) $ $.%.&., { *.6 =.-.;.O O ` ` ` ` ` ` ` O ` ` ` ` ` O O >.>.O 6 =.-.;.- ,.'.).!.J ~.F {.].",
"^.#./.(._.:.9 q = + $ <.~ O O ` ` ` O ` ` ` ` ` O ` ` O O >.>.>.>.>.O <.~ [.[.}.|.1.2.3.C 6 ) K ",
"u 4.*.J 5.5.6.2.{ 8 7.8.O O ` ` ` O ` ` ` ` ` ` O O O >.>.>.>.>.O O O 8.{ | u u 6 9.0.: 6 y a.3 ",
"A ^.b.i ! *.c.z i f # O O ` O ` O O ` ` O O O O >.>.>.>.>.>.O O ` ` O { d./ e.f.4.i = ~ u 7 u k ",
"{ F g.h.F 8.p u p # z O ` ` ` ` ` ` ` O >.>.>.>.>.>.>.>.O O ` ` ` ` O i.+.j.k.l.m.n.o.8 p.q.M 0.",
"Z I d.,.0.y j u r.g 3 O ` ` ` O O O O >.>.>.>.>.>.O O O ` ` ` ` ` ` O s.4 t.k.u.$.v.w.x.y.z.A.' ",
"B.j v | / 0.6 3 | k F O ` O O >.>.>.>.>.>.>.>.O O ` ` ` ` ` ` ` ` O O C./ C.D.E.F.C ! I G.H.J ! ",
"I.r o ) R &.' # J.5 4.O O >.>.>.>.>.>.>.O O O ` ` ` O O O O ` ` O O 4.e K.L.k M.N.r.O.d.i P.u D ",
"! Q.7 R.$ S.T.P.U...V.O O >.>.>.>.O O O ` ` ` ` ` ` O W.O W.O O O ..V.X.Y.D Z.`. +P.u 8.5 .+8 6 ",
"p / P F # & y.+.| 6 ++O >.>.O O O ` ` O ` ` ` O O O W.W.W.W.W.O | 6 ++@+' #+4.O.a.g | ) H $+_ %+",
"$+@ / p ) | &+*+=+o b O >.>.O ` ` ` ` O ` ` ` O O W.W.W.W.W.W.O =+o b ' P / 3.}.-+| 2 ;+F >+o.i ",
"%+1 J B . 9 ,+'+)+/.%+H O O O ` ` ` ` O ` ` ` O W.W.W.W.` W.W.O )+/.%+H J 6.V.!+~+< ) d.6.k = n.",
"A {+]+g A C P.^+a (./++ *.e.O O ` ` ` O ` O ` O W.W.W.W.` O W.O a (./++ *.e.(+_+:+<+[+i X 4 a $ ",
"P J C 1 ' a k.}+T |+1+2+p.< [.O O ` ` O ` ` O O W.W.W.W.` O W.O T |+1+2+p.< [.3+4+5+V : <.6+7+8+",
"n 1 J 9+n = T -+0+%+y.a+j b+; c+O O O O ` ` ` O W.W.W.W.W.W.W.O 0+%+y.a+j b+; c+=+)+d+e+< f+g+) ",
"6 g i 8 7 h+i+j+k+7.q ,.]+* s.B P.l+m+O O ` ` O W.W.O W.W.W.W.O k+7.q ,.]+* s.B P.l+m+P.n+a.m | ",
"]+) 7 ) k / D z o.# o+p+& : i u u O O O ` ` ` O W.W.W.O W.W.W.O o.# o+p+& : i u u | %+' D . q+| ",
"J + I %+@ j o.^.r+s+t+%.!.f H 3 O O ` O O O O O W.W.W.W.O O O O r+s+t+%.!.f H 3 J 5 b.u+' F H 7.",
". + @ # $ % & * = - ; > , ' @ ) O ` ` ` ` O >.O O W.W.W.W.W.W.O = - ; > , ' @ ) ! ~ ! { ] ) ^ / ",
"( _ : < { ! [ } | 1 2 3 @ 4 5 O O ` ` ` ` O >.>.O O W.W.W.W.O O | 1 2 3 @ 4 5 $ 3 1 | 6 7 8 6 9 ",
"0 a b c ! d e f g h i j k 6 l O ` O O ` O O >.>.O ` O W.O O O f g h i j k 6 l m n * o p q 5 # 8 ",
"j r s t u 1 v w x y z A B C D O ` ` O ` O >.>.>.O ` ` O O 1 v w x y z A B C D E C * F u G H $ I ",
"] v | 3 J K L u | m k g o k M O O ` ` O >.>.>.>.>.O O ` O K L u | m k g o k M u N P 4 Q R o J ) ",
"k S 5 & T U V W # M i X Y R Z O ` ` ` O >.O ` ` O >.O ` O U V W # M i X Y R Z : H  ...+.$ z @.; ",
"% #.) $ $.%.&., { *.6 =.-.;.- O ` ` O O >.O ` ` O >.O ` O O &., { *.6 =.-.;.- ,.'.).!.J ~.F {.].",
"^.#./.(._.:.9 q = + $ <.~ [.[.O O O ` O >.O ` ` O >.O ` ` O 9 q = + $ <.~ [.[.}.|.1.2.3.C 6 ) K ",
"u 4.*.J 5.5.6.2.{ 8 7.8.{ | u O ` ` ` O >.O ` ` O >.>.O O O 6.2.{ 8 7.8.{ | u u 6 9.0.: 6 y a.3 ",
"A ^.b.i ! *.c.z i f # { d./ e.O O O O >.>.O ` ` O O O O v+v+O z i f # { d./ e.f.4.i = ~ u 7 u k ",
"{ F g.h.F 8.p u p # z i.+.j.k.O >.>.>.>.>.O ` ` ` >.>.` v+v+O u p # z i.+.j.k.l.m.n.o.8 p.q.M 0.",
"Z I d.,.0.y j u r.g 3 s.4 t.k.O >.>.>.>.>.O ` ` ` >.>.` v+v+O O r.g 3 s.4 t.k.u.$.v.w.x.y.z.A.' ",
"B.j v | / 0.6 3 | k F C./ C.D.O >.>.>.>.>.O O O O O O O O O >.O | k F C./ C.D.E.F.C ! I G.H.J ! ",
"I.r o ) R &.' # J.5 4.e K.L.k O >.>.>.>.>.>.>.>.>.>.>.>.>.>.>.O J.5 4.e K.L.k M.N.r.O.d.i P.u D ",
"! Q.7 R.$ S.T.P.U...V.X.Y.D Z.O >.>.>.>.>.>.>.>.>.>.>.>.>.>.>.O U...V.X.Y.D Z.`. +P.u 8.5 .+8 6 ",
"p / P F # & y.+.| 6 ++@+' #+4.O O >.>.>.>.>.>.>.>.>.>.>.>.>.>.O | 6 ++@+' #+4.O.a.g | ) H $+_ %+",
"$+@ / p ) | &+*+=+o b ' P / 3.}.O >.>.>.>.>.>.>.>.>.>.>.>.>.>.O =+o b ' P / 3.}.-+| 2 ;+F >+o.i ",
"%+1 J B . 9 ,+'+)+/.%+H J 6.V.!+O >.>.>.>.>.>.>.>.>.>.>.>.>.O O )+/.%+H J 6.V.!+~+< ) d.6.k = n.",
"A {+]+g A C P.^+a (./++ *.e.(+_+O O >.>.>.>.>.>.>.>.>.>.>.>.O ^+a (./++ *.e.(+_+:+<+[+i X 4 a $ ",
"P J C 1 ' a k.}+T |+1+2+p.< [.3+4+O O >.>.>.>.>.>.>.>.>.>.O O }+T |+1+2+p.< [.3+4+5+V : <.6+7+8+",
"n 1 J 9+n = T -+0+%+y.a+j b+; c+=+)+O O ` O O O O O ` O O O T -+0+%+y.a+j b+; c+=+)+d+e+< f+g+) ",
"6 g i 8 7 h+i+j+k+7.q ,.]+* s.B P.l+m+O v+v+O | 6 O v+v+O h+i+j+k+7.q ,.]+* s.B P.l+m+P.n+a.m | ",
"]+) 7 ) k / D z o.# o+p+& : i u u | %+O v+v+v+O ]+O v+v+v+O D z o.# o+p+& : i u u | %+' D . q+| ",
"J + I %+@ j o.^.r+s+t+%.!.f H 3 J 5 b.O O O O O J O O O O O o.^.r+s+t+%.!.f H 3 J 5 b.u+' F H 7."};
