/* XPM */
static char * Conso2_xpm[] = {
"48 48 244 2",
"  	c None",
". 	c #8FB93D",
"+ 	c #85B13B",
"@ 	c #7EAA39",
"# 	c #86B13B",
"$ 	c #83AE3A",
"% 	c #8BB53D",
"& 	c #84AE3A",
"* 	c #7FAA39",
"= 	c #7DA938",
"- 	c #7FA838",
"; 	c #88B23B",
"> 	c #85AE3A",
", 	c #83AC3A",
"' 	c #87B13B",
") 	c #85B03B",
"! 	c #80AB39",
"~ 	c #7BA738",
"{ 	c #88B33C",
"] 	c #8AB53D",
"^ 	c #7EAA38",
"/ 	c #8CB63D",
"( 	c #7AA537",
"_ 	c #78A537",
": 	c #82AD3A",
"< 	c #7FA938",
"[ 	c #749D34",
"} 	c #7CA638",
"| 	c #8DB73D",
"1 	c #8EB73D",
"2 	c #86B23B",
"3 	c #87B23B",
"4 	c #75A236",
"5 	c #7CA838",
"6 	c #8AB43C",
"7 	c #84AF3B",
"8 	c #81AC3A",
"9 	c #92BB3F",
"0 	c #73A036",
"a 	c #81AB39",
"b 	c #88AF3B",
"c 	c #82AB39",
"d 	c #83AC39",
"e 	c #85AF3A",
"f 	c #8BB43C",
"g 	c #90B93E",
"h 	c #93BD3E",
"i 	c #8AB53C",
"j 	c #87B23C",
"k 	c #8FB93E",
"l 	c #93BB3E",
"m 	c #94BC3F",
"n 	c #81AC39",
"o 	c #8EB83E",
"p 	c #84AF3A",
"q 	c #7CA738",
"r 	c #8FB83E",
"s 	c #8CB43D",
"t 	c #89B23C",
"u 	c #89B43C",
"v 	c #95BE3F",
"w 	c #9AC140",
"x 	c #9CC040",
"y 	c #93BC3F",
"z 	c #8CB73D",
"A 	c #91BA3F",
"B 	c #94BD3F",
"C 	c #91BA3E",
"D 	c #8FB83D",
"E 	c #99BF40",
"F 	c #82AE3A",
"G 	c #78A436",
"H 	c #7FAB39",
"I 	c #7DA838",
"J 	c #8EB83D",
"K 	c #8DB63D",
"L 	c #89B23B",
"M 	c #88B23C",
"N 	c #93BD3F",
"O 	c #8BB63D",
"P 	c #80AB3A",
"Q 	c #80AC39",
"R 	c #85B13C",
"S 	c #82AC39",
"T 	c #7BA036",
"U 	c #81A638",
"V 	c #87B03B",
"W 	c #87B13C",
"X 	c #83AD3A",
"Y 	c #7EA939",
"Z 	c #7DA638",
"` 	c #7AA437",
" .	c #7BA838",
"..	c #82AE39",
"+.	c #77A337",
"@.	c #7BA336",
"#.	c #7FA437",
"$.	c #84AD3A",
"%.	c #85B03A",
"&.	c #77A437",
"*.	c #729E34",
"=.	c #7AA236",
"-.	c #8CB53D",
";.	c #8AB23C",
">.	c #769933",
",.	c #81A838",
"'.	c #89B53C",
").	c #7AA737",
"!.	c #8EB73C",
"~.	c #78A437",
"{.	c #88B33B",
"].	c #82AD39",
"^.	c #8CB33B",
"/.	c #8EB53D",
"(.	c #75A237",
"_.	c #85AD3A",
":.	c #8AB33C",
"<.	c #93B93E",
"[.	c #91B93D",
"}.	c #92BC3E",
"|.	c #94BE3F",
"1.	c #84B03B",
"2.	c #98BF40",
"3.	c #97C040",
"4.	c #80AC3A",
"5.	c #83AF3A",
"6.	c #92BD3F",
"7.	c #90BA3E",
"8.	c #92BB3E",
"9.	c #719F35",
"0.	c #8FBA3E",
"a.	c #8CB63C",
"b.	c #7EA838",
"c.	c #80A939",
"d.	c #7DA939",
"e.	c #81AD3A",
"f.	c #84B03A",
"g.	c #7CA737",
"h.	c #7FA537",
"i.	c #7DA135",
"j.	c #80A838",
"k.	c #7AA738",
"l.	c #7CA938",
"m.	c #6F9D34",
"n.	c #719D35",
"o.	c #91BB3E",
"p.	c #82AE3B",
"q.	c #709B34",
"r.	c #7DA337",
"s.	c #7EA938",
"t.	c #7BA938",
"u.	c #6F9C35",
"v.	c #749C34",
"w.	c #759C34",
"x.	c #7AA336",
"y.	c #79A538",
"z.	c #83AF3B",
"A.	c #7FAA38",
"B.	c #7BA537",
"C.	c #8FB73D",
"D.	c #8CB33C",
"E.	c #93BA3E",
"F.	c #000000",
"G.	c #8DB83E",
"H.	c #86AF3A",
"I.	c #8FB43C",
"J.	c #96BE3F",
"K.	c #95BD3F",
"L.	c #95BE40",
"M.	c #8DB83D",
"N.	c #89B33C",
"O.	c #0018E5",
"P.	c #85AF3B",
"Q.	c #7DA839",
"R.	c #77A136",
"S.	c #7EA638",
"T.	c #79A336",
"U.	c #86AE3A",
"V.	c #789734",
"W.	c #7C9E36",
"X.	c #90BA3D",
"Y.	c #9ABF40",
"Z.	c #96BD40",
"`.	c #7FAA3A",
" +	c #80A637",
".+	c #82A437",
"++	c #76A437",
"@+	c #7AA637",
"#+	c #00A0E5",
"$+	c #86B03B",
"%+	c #90B63C",
"&+	c #98BB3F",
"*+	c #97BE40",
"=+	c #83AB39",
"-+	c #77A436",
";+	c #86B13A",
">+	c #98C040",
",+	c #99BE40",
"'+	c #91B93E",
")+	c #799B34",
"!+	c #7A9E34",
"~+	c #98C140",
"{+	c #92BC3F",
"]+	c #80AD39",
"^+	c #82AC3A",
"/+	c #749B34",
"(+	c #7EA236",
"_+	c #82A938",
":+	c #7BA236",
"<+	c #7EA537",
"[+	c #81AA39",
"}+	c #7DA236",
"|+	c #7EA337",
"1+	c #74A035",
"2+	c #779F35",
"3+	c #769E35",
"4+	c #83A838",
"5+	c #7DA336",
"6+	c #84A938",
"7+	c #8EB93E",
"8+	c #8BB63C",
"9+	c #8AB33B",
"0+	c #729C34",
"a+	c #90B83E",
"b+	c #84AE3B",
"c+	c #89B13B",
"d+	c #7DA738",
"e+	c #8FB63D",
"f+	c #88B13B",
"g+	c #89B03B",
"h+	c #87B03C",
"i+	c #89B43D",
"j+	c #8CB53C",
"k+	c #91BB3F",
"l+	c #96BF3F",
"m+	c #8EB63D",
"n+	c #88B03B",
"o+	c #87AF3B",
"p+	c #8EB73E",
"q+	c #719E34",
"r+	c #79A537",
"s+	c #84AB39",
"t+	c #FFFFFF",
"u+	c #7EAB39",
". + @ # $ % & * = - ; > , ' @ ) ! ~ ! { ] ) ^ / . + @ # $ % & * = - ; > , ' @ ) ! ~ ! { ] ) ^ / ",
"( _ : < { ! [ } | 1 2 3 @ 4 5 $ 3 1 | 6 7 8 6 9 ( _ : < { ! [ } | 1 2 3 @ 4 5 $ 3 1 | 6 7 8 6 9 ",
"0 a b c ! d e f g h i j k 6 l m n * o p q 5 # 8 0 a b c ! d e f g h i j k 6 l m n * o p q 5 # 8 ",
"j r s t u 1 v w x y z A B C D E C * F u G H $ I j r s t u 1 v w x y z A B C D E C * F u G H $ I ",
"] v | 3 J K L u | m k g o k M u N O 4 P Q o J ) ] v | 3 J K L u | m k g o k M u N O 4 P Q o J ) ",
"k R 5 & S T U V # M i W X Q Y : H Z `  .$ z ..; k R 5 & S T U V # M i W X Q Y : H Z `  .$ z ..; ",
"% +.) $ @.#.$., { %.6 &.*.=.- -.;.>.,.J '.F ).!.% +.) $ @.#.$., { %.6 &.*.=.- -.;.>.,.J '.F ).!.",
"~.+.{.].^./.9 q = + $ (.~ _._.:.<.[.}.|.C 6 ) K ~.+.{.].^./.9 q = + $ (.~ _._.:.<.[.}.|.C 6 ) K ",
"u 1.%.J 2.2.3.}.{ 8 4.5.{ | u u 6 6.7.: 6 y 8.3 u 1.%.J 2.2.3.}.{ 8 4.5.{ | u u 6 6.7.: 6 y 8.3 ",
"A ~.9.i ! %.0.z i f # { a./ b.c.1.i = ~ u 7 u k A ~.9.i ! %.0.z i f # { a./ b.c.1.i = ~ u 7 u k ",
"{ F d.e.F 5.p u p # z f. .g.h.i.j.k.l.8 m.n.M 7.{ F d.e.F 5.p u p # z f. .g.h.i.j.k.l.8 m.n.M 7.",
"Y I a.-.7.y j u o.g 3 p.4 q.h.r.@.s.t.u.v.w.x.' Y I a.-.7.y j u o.g 3 p.4 q.h.r.@.s.t.u.v.w.x.' ",
"y.j v | / 7.6 3 | k F z./ z.A.B.C.C ! I D.E.J F.F.F.v | / 7.6 3 | k F z./ z.A.B.C.C ! I D.E.J ! ",
"G.r o ) Q $.' # H.5 1.e I.J.k K.L.o.M.a.i N.F.O.O.O.F.) Q $.' # H.5 1.e I.J.k K.L.o.M.a.i N.u D ",
"! P.7 Q.$ R.S.N.T.` U.V.W.D X.Y.Z.N.u 5.5 `.F.O.O.O.F.Q.$ R.S.N.T.` U.V.W.D X.Y.Z.N.u 5.5 `.8 6 ",
"p / O F # & v. .| 6  +.+' ++1.M.8.g | ) H @+_ #+#+#+O F # & v. .| 6  +.+' ++1.M.8.g | ) H @+_ $+",
"@+@ / p ) | %+&+*+o b ' O / |.:.=+| 2 -+F ;+F.#+#+#+F.p ) | %+&+*+o b ' O / |.:.=+| 2 -+F ;+l.i ",
"$+1 J B . 9 >+,+'+{.$+H J 3.U.)+!+< ) F.F.F.#+#+#+#+#+F.F.F.>+,+'+{.$+H J 3.U.)+!+< ) a.3.k = k.",
"A ~+{+g A C N.]+a ].^++ %.b./+(+_+:+F.#+#+#+#+#+#+#+#+#+#+#+F.]+a ].^++ %.b./+(+_+:+<+i W 4 a $ ",
"O J C 1 ' a h.[+S }+|+1+m.< _.2+3+4+F.#+#+#+#+#+#+#+#+#+#+#+F.[+S }+|+1+m.< _.2+3+4+U : (.5+6+7+",
"n 1 J 8+n = S =+9+$+v.0+j a+; b+*+'+F.#+#+#+#+#+#+#+#+#+#+#+F.=+9+$+v.0+j a+; b+*+'+c+d+< e+f+) ",
"6 g i 8 7 g+h+i+j+4.q -.{+* p.B N.k+F.#+#+#+#+#+#+#+#+#+#+#+F.i+j+4.q -.{+* p.B N.k+l+N.m+8.m | ",
"{+) 7 ) k / D z l.# n+o+& : i u u | F.O.O.O.O.O.O.O.O.O.O.O.F.z l.# n+o+& : i u u | $+' D . p+| ",
"J + I $+@ j l.~.q+r+s+#.,.f H 3 J 5 F.O.O.O.t+O.O.O.O.O.O.O.F.~.q+r+s+#.,.f H 3 J 5 9.u+' F H 4.",
". + @ # $ % & * = - ; > , ' @ ) ! ~ F.O.O.O.t+O.t+O.t+O.O.O.F.* = - ; > , ' @ ) ! ~ ! { ] ) ^ / ",
"( _ : < { ! [ } | 1 2 3 @ 4 5 $ 3 1 F.O.O.O.O.O.O.O.O.O.O.O.F.} | 1 2 3 @ 4 5 $ 3 1 | 6 7 8 6 9 ",
"0 a b c ! d e f g h i j k 6 l m n * F.#+#+#+#+#+#+#+#+#+#+#+F.f g h i j k 6 l m n * o p q 5 # 8 ",
"j r s t u 1 v w x y z A B C D E C * F.#+#+#+#+#+#+#+#+#+#+#+F.w x y z A B C D E C * F u G H $ I ",
"] v | 3 J K L u | m k g o k M u N O F.#+#+#+#+#+#+#+#+#+#+#+F.u | m k g o k M u N O 4 P Q o J ) ",
"k R 5 & S T U V # M i W X Q Y : H Z F.#+#+#+#+#+#+#+#+#+#+#+F.V # M i W X Q Y : H Z `  .$ z ..; ",
"% +.) $ @.#.$., { %.6 &.*.=.- -.;.>.F.#+#+#+#+#+#+#+#+#+#+#+F., { %.6 &.*.=.- -.;.>.,.J '.F ).!.",
"~.+.{.].^./.9 q = + $ (.~ _._.:.<.[.F.#+#+#+#+#+#+#+#+#+#+#+F.q = + $ (.~ _._.:.<.[.}.|.C 6 ) K ",
"u 1.%.J 2.2.3.}.{ 8 4.5.{ | u u 6 6.F.#+#+#+#+#+#+#+#+#+t+#+F.}.{ 8 4.5.{ | u u 6 6.7.: 6 y 8.3 ",
"A ~.9.i ! %.0.z i f # { a./ b.c.1.i F.#+#+#+#+#+#+#+#+#+t+#+F.z i f # { a./ b.c.1.i = ~ u 7 u k ",
"{ F d.e.F 5.p u p # z f. .g.h.i.j.k.F.#+#+#+#+#+#+#+#+#+t+#+F.u p # z f. .g.h.i.j.k.l.8 m.n.M 7.",
"Y I a.-.7.y j u o.g 3 p.4 q.h.r.@.s.F.#+#+#+#+#+#+#+#+#+#+#+F.u o.g 3 p.4 q.h.r.@.s.t.u.v.w.x.' ",
"y.j v | / 7.6 3 | k F z./ z.A.B.C.C F.#+#+#+#+#+#+#+#+#+#+#+F.3 | k F z./ z.A.B.C.C ! I D.E.J ! ",
"G.r o ) Q $.' # H.5 1.e I.J.k K.L.o.M.F.F.F.F.F.F.F.F.F.F.F.' # H.5 1.e I.J.k K.L.o.M.a.i N.u D ",
"! P.7 Q.$ R.S.N.T.` U.V.W.D X.Y.Z.N.u 5.5 `.8 6 ! P.7 Q.$ R.S.N.T.` U.V.W.D X.Y.Z.N.u 5.5 `.8 6 ",
"p / O F # & v. .| 6  +.+' ++1.M.8.g | ) H @+_ $+p / O F # & v. .| 6  +.+' ++1.M.8.g | ) H @+_ $+",
"@+@ / p ) | %+&+*+o b ' O / |.:.=+| 2 -+F ;+l.i @+@ / p ) | %+&+*+o b ' O / |.:.=+| 2 -+F ;+l.i ",
"$+1 J B . 9 >+,+'+{.$+H J 3.U.)+!+< ) a.3.k = k.$+1 J B . 9 >+,+'+{.$+H J 3.U.)+!+< ) a.3.k = k.",
"A ~+{+g A C N.]+a ].^++ %.b./+(+_+:+<+i W 4 a $ A ~+{+g A C N.]+a ].^++ %.b./+(+_+:+<+i W 4 a $ ",
"O J C 1 ' a h.[+S }+|+1+m.< _.2+3+4+U : (.5+6+7+O J C 1 ' a h.[+S }+|+1+m.< _.2+3+4+U : (.5+6+7+",
"n 1 J 8+n = S =+9+$+v.0+j a+; b+*+'+c+d+< e+f+) n 1 J 8+n = S =+9+$+v.0+j a+; b+*+'+c+d+< e+f+) ",
"6 g i 8 7 g+h+i+j+4.q -.{+* p.B N.k+l+N.m+8.m | 6 g i 8 7 g+h+i+j+4.q -.{+* p.B N.k+l+N.m+8.m | ",
"{+) 7 ) k / D z l.# n+o+& : i u u | $+' D . p+| {+) 7 ) k / D z l.# n+o+& : i u u | $+' D . p+| ",
"J + I $+@ j l.~.q+r+s+#.,.f H 3 J 5 9.u+' F H 4.J + I $+@ j l.~.q+r+s+#.,.f H 3 J 5 9.u+' F H 4."};
