/* XPM */
static char * Conso2_xpm[] = {
"48 48 244 2",
"  	c None",
". 	c #8FB93D",
"+ 	c #85B13B",
"@ 	c #7EAA39",
"# 	c #86B13B",
"$ 	c #83AE3A",
"% 	c #8BB53D",
"& 	c #84AE3A",
"* 	c #7FAA39",
"= 	c #7DA938",
"- 	c #7FA838",
"; 	c #88B23B",
"> 	c #85AE3A",
", 	c #83AC3A",
"' 	c #87B13B",
") 	c #85B03B",
"! 	c #80AB39",
"~ 	c #7BA738",
"{ 	c #88B33C",
"] 	c #8AB53D",
"^ 	c #7EAA38",
"/ 	c #8CB63D",
"( 	c #7AA537",
"_ 	c #78A537",
": 	c #82AD3A",
"< 	c #7FA938",
"[ 	c #749D34",
"} 	c #7CA638",
"| 	c #8DB73D",
"1 	c #8EB73D",
"2 	c #86B23B",
"3 	c #87B23B",
"4 	c #75A236",
"5 	c #7CA838",
"6 	c #8AB43C",
"7 	c #84AF3B",
"8 	c #81AC3A",
"9 	c #92BB3F",
"0 	c #73A036",
"a 	c #81AB39",
"b 	c #88AF3B",
"c 	c #82AB39",
"d 	c #83AC39",
"e 	c #85AF3A",
"f 	c #8BB43C",
"g 	c #90B93E",
"h 	c #93BD3E",
"i 	c #8AB53C",
"j 	c #87B23C",
"k 	c #8FB93E",
"l 	c #93BB3E",
"m 	c #94BC3F",
"n 	c #81AC39",
"o 	c #8EB83E",
"p 	c #84AF3A",
"q 	c #7CA738",
"r 	c #8FB83E",
"s 	c #8CB43D",
"t 	c #89B23C",
"u 	c #89B43C",
"v 	c #95BE3F",
"w 	c #9AC140",
"x 	c #9CC040",
"y 	c #93BC3F",
"z 	c #8CB73D",
"A 	c #91BA3F",
"B 	c #94BD3F",
"C 	c #91BA3E",
"D 	c #8FB83D",
"E 	c #99BF40",
"F 	c #82AE3A",
"G 	c #78A436",
"H 	c #7FAB39",
"I 	c #7DA838",
"J 	c #8EB83D",
"K 	c #8DB63D",
"L 	c #89B23B",
"M 	c #88B23C",
"N 	c #93BD3F",
"O 	c #8BB63D",
"P 	c #80AB3A",
"Q 	c #80AC39",
"R 	c #85B13C",
"S 	c #82AC39",
"T 	c #7BA036",
"U 	c #81A638",
"V 	c #87B03B",
"W 	c #87B13C",
"X 	c #83AD3A",
"Y 	c #7EA939",
"Z 	c #7DA638",
"` 	c #7AA437",
" .	c #7BA838",
"..	c #82AE39",
"+.	c #77A337",
"@.	c #7BA336",
"#.	c #7FA437",
"$.	c #84AD3A",
"%.	c #85B03A",
"&.	c #77A437",
"*.	c #729E34",
"=.	c #7AA236",
"-.	c #8CB53D",
";.	c #8AB23C",
">.	c #769933",
",.	c #8CB33C",
"'.	c #93BA3E",
").	c #000000",
"!.	c #90BA3E",
"~.	c #81A838",
"{.	c #89B53C",
"].	c #7AA737",
"^.	c #8EB73C",
"/.	c #78A437",
"(.	c #88B33B",
"_.	c #82AD39",
":.	c #8CB33B",
"<.	c #8EB53D",
"[.	c #75A237",
"}.	c #85AD3A",
"|.	c #8AB33C",
"1.	c #93B93E",
"2.	c #91B93D",
"3.	c #8DB83D",
"4.	c #8CB63C",
"5.	c #89B33C",
"6.	c #0018E5",
"7.	c #92BC3E",
"8.	c #94BE3F",
"9.	c #84B03B",
"0.	c #98BF40",
"a.	c #97C040",
"b.	c #80AC3A",
"c.	c #83AF3A",
"d.	c #92BD3F",
"e.	c #7FAA3A",
"f.	c #7DA839",
"g.	c #77A136",
"h.	c #7EA638",
"i.	c #92BB3E",
"j.	c #719F35",
"k.	c #8FBA3E",
"l.	c #7EA838",
"m.	c #80A939",
"n.	c #7AA637",
"o.	c #00A0E5",
"p.	c #749C34",
"q.	c #7DA939",
"r.	c #81AD3A",
"s.	c #84B03A",
"t.	c #7CA737",
"u.	c #7FA537",
"v.	c #7DA135",
"w.	c #80A838",
"x.	c #7AA738",
"y.	c #77A436",
"z.	c #86B13A",
"A.	c #90B63C",
"B.	c #7CA938",
"C.	c #6F9D34",
"D.	c #719D35",
"E.	c #91BB3E",
"F.	c #82AE3B",
"G.	c #709B34",
"H.	c #7DA337",
"I.	c #7EA938",
"J.	c #98C040",
"K.	c #7BA938",
"L.	c #6F9C35",
"M.	c #759C34",
"N.	c #7AA336",
"O.	c #79A538",
"P.	c #83AF3B",
"Q.	c #7FAA38",
"R.	c #7BA537",
"S.	c #8FB73D",
"T.	c #8DB83E",
"U.	c #86AF3A",
"V.	c #8FB43C",
"W.	c #96BE3F",
"X.	c #95BD3F",
"Y.	c #95BE40",
"Z.	c #85AF3B",
"`.	c #79A336",
" +	c #86AE3A",
".+	c #789734",
"++	c #7C9E36",
"@+	c #90BA3D",
"#+	c #9ABF40",
"$+	c #96BD40",
"%+	c #80A637",
"&+	c #82A437",
"*+	c #76A437",
"=+	c #86B03B",
"-+	c #98BB3F",
";+	c #97BE40",
">+	c #83AB39",
",+	c #99BE40",
"'+	c #91B93E",
")+	c #799B34",
"!+	c #7A9E34",
"~+	c #98C140",
"{+	c #92BC3F",
"]+	c #80AD39",
"^+	c #82AC3A",
"/+	c #749B34",
"(+	c #7EA236",
"_+	c #82A938",
":+	c #7BA236",
"<+	c #7EA537",
"[+	c #81AA39",
"}+	c #7DA236",
"|+	c #7EA337",
"1+	c #74A035",
"2+	c #779F35",
"3+	c #769E35",
"4+	c #83A838",
"5+	c #7DA336",
"6+	c #84A938",
"7+	c #8EB93E",
"8+	c #8BB63C",
"9+	c #8AB33B",
"0+	c #729C34",
"a+	c #90B83E",
"b+	c #84AE3B",
"c+	c #89B13B",
"d+	c #7DA738",
"e+	c #8FB63D",
"f+	c #88B13B",
"g+	c #89B03B",
"h+	c #87B03C",
"i+	c #89B43D",
"j+	c #8CB53C",
"k+	c #91BB3F",
"l+	c #FFFFFF",
"m+	c #96BF3F",
"n+	c #8EB63D",
"o+	c #88B03B",
"p+	c #87AF3B",
"q+	c #8EB73E",
"r+	c #719E34",
"s+	c #79A537",
"t+	c #84AB39",
"u+	c #7EAB39",
". + @ # $ % & * = - ; > , ' @ ) ! ~ ! { ] ) ^ / . + @ # $ % & * = - ; > , ' @ ) ! ~ ! { ] ) ^ / ",
"( _ : < { ! [ } | 1 2 3 @ 4 5 $ 3 1 | 6 7 8 6 9 ( _ : < { ! [ } | 1 2 3 @ 4 5 $ 3 1 | 6 7 8 6 9 ",
"0 a b c ! d e f g h i j k 6 l m n * o p q 5 # 8 0 a b c ! d e f g h i j k 6 l m n * o p q 5 # 8 ",
"j r s t u 1 v w x y z A B C D E C * F u G H $ I j r s t u 1 v w x y z A B C D E C * F u G H $ I ",
"] v | 3 J K L u | m k g o k M u N O 4 P Q o J ) ] v | 3 J K L u | m k g o k M u N O 4 P Q o J ) ",
"k R 5 & S T U V # M i W X Q Y : H Z `  .$ z ..; k R 5 & S T U V # M i W X Q Y : H Z `  .$ z ..; ",
"% +.) $ @.#.$., { %.6 &.*.=.- -.;.>.! I ,.'.J ).).).v | / !.6 , { %.6 &.*.=.- -.;.>.~.J {.F ].^.",
"/.+.(._.:.<.9 q = + $ [.~ }.}.|.1.2.3.4.i 5.).6.6.6.).) Q $.' q = + $ [.~ }.}.|.1.2.7.8.C 6 ) K ",
"u 9.%.J 0.0.a.7.{ 8 b.c.{ | u u 6 d.u c.5 e.).6.6.6.).f.$ g.h.7.{ 8 b.c.{ | u u 6 d.!.: 6 y i.3 ",
"A /.j.i ! %.k.z i f # { 4./ l.m.9.i | ) H n._ o.o.o.O F # & p.z i f # { 4./ l.m.9.i = ~ u 7 u k ",
"{ F q.r.F c.p u p # z s. .t.u.v.w.x.2 y.F z.).o.o.o.).p ) | A.u p # z s. .t.u.v.w.x.B.8 C.D.M !.",
"Y I 4.-.!.y j u E.g 3 F.4 G.u.H.@.I.) ).).).o.o.o.o.o.).).).J.u E.g 3 F.4 G.u.H.@.I.K.L.p.M.N.' ",
"O.j v | / !.6 3 | k F P./ P.Q.R.S.C ).o.o.o.o.o.o.o.o.o.o.o.).3 | k F P./ P.Q.R.S.C ! I ,.'.J ! ",
"T.r o ) Q $.' # U.5 9.e V.W.k X.Y.E.).o.o.o.o.o.o.o.o.o.o.o.).# U.5 9.e V.W.k X.Y.E.3.4.i 5.u D ",
"! Z.7 f.$ g.h.5.`.`  +.+++D @+#+$+5.).o.o.o.o.o.o.o.o.o.o.o.).5.`.`  +.+++D @+#+$+5.u c.5 e.8 6 ",
"p / O F # & p. .| 6 %+&+' *+9.3.i.g ).o.o.o.o.o.o.o.o.o.o.o.). .| 6 %+&+' *+9.3.i.g | ) H n._ =+",
"n.@ / p ) | A.-+;+o b ' O / 8.|.>+| ).o.o.o.o.o.o.o.o.o.o.o.).-+;+o b ' O / 8.|.>+| 2 y.F z.B.i ",
"=+1 J B . 9 J.,+'+(.=+H J a. +)+!+< ).o.o.o.o.o.o.o.o.o.o.o.).,+'+(.=+H J a. +)+!+< ) 4.a.k = x.",
"A ~+{+g A C 5.]+a _.^++ %.l./+(+_+:+).o.o.o.o.o.o.o.o.o.o.o.).]+a _.^++ %.l./+(+_+:+<+i W 4 a $ ",
"O J C 1 ' a u.[+S }+|+1+C.< }.2+3+4+).o.o.o.o.o.o.o.o.o.o.o.).[+S }+|+1+C.< }.2+3+4+U : [.5+6+7+",
"n 1 J 8+n = S >+9+=+p.0+j a+; b+;+'+).6.6.6.6.6.6.6.6.6.6.6.).>+9+=+p.0+j a+; b+;+'+c+d+< e+f+) ",
"6 g i 8 7 g+h+i+j+b.q -.{+* F.B 5.k+).6.6.6.l+6.6.6.6.6.6.6.).i+j+b.q -.{+* F.B 5.k+m+5.n+i.m | ",
"{+) 7 ) k / D z B.# o+p+& : i u u | ).6.6.6.l+6.l+6.l+6.6.6.).z B.# o+p+& : i u u | =+' D . q+| ",
"J + I =+@ j B./.r+s+t+#.~.f H 3 J 5 ).6.6.6.6.6.6.6.6.6.6.6.)./.r+s+t+#.~.f H 3 J 5 j.u+' F H b.",
". + @ # $ % & * = - ; > , ' @ ) ! ~ ).o.o.o.o.o.o.o.o.o.o.o.).* = - ; > , ' @ ) ! ~ ! { ] ) ^ / ",
"( _ : < { ! [ } | 1 2 3 @ 4 5 $ 3 1 ).o.o.o.o.o.o.o.o.o.o.o.).} | 1 2 3 @ 4 5 $ 3 1 | 6 7 8 6 9 ",
"0 a b c ! d e f g h i j k 6 l m n * ).o.o.o.o.o.o.o.o.o.o.o.).f g h i j k 6 l m n * o p q 5 # 8 ",
"j r s t u 1 v w x y z A B C D E C * ).o.o.o.o.o.o.o.o.o.o.o.).w x y z A B C D E C * F u G H $ I ",
"] v | 3 J K L u | m k g o k M u N O ).o.o.o.o.o.o.o.o.o.o.o.).u | m k g o k M u N O 4 P Q o J ) ",
"k R 5 & S T U V # M i W X Q Y : H Z ).o.o.o.o.o.o.o.o.o.o.o.).V # M i W X Q Y : H Z `  .$ z ..; ",
"% +.) $ @.#.$., { %.6 &.*.=.- -.;.>.).o.o.o.o.o.o.o.o.o.o.o.)., { %.6 &.*.=.- -.;.>.~.J {.F ].^.",
"/.+.(._.:.<.9 q = + $ [.~ }.}.|.1.2.).o.o.o.o.o.o.o.o.o.o.o.).q = + $ [.~ }.}.|.1.2.7.8.C 6 ) K ",
"u 9.%.J 0.0.a.7.{ 8 b.c.{ | u u 6 d.).o.o.o.o.o.o.o.o.o.o.o.).7.{ 8 b.c.{ | u u 6 d.!.: 6 y i.3 ",
"A /.j.i ! %.k.z i f # { 4./ l.m.9.i ).o.o.o.o.o.o.o.o.o.o.o.).z i f # { 4./ l.m.9.i = ~ u 7 u k ",
"{ F q.r.F c.p u p # z s. .t.u.v.w.x.).o.o.o.o.o.o.o.o.o.o.o.).u p # z s. .t.u.v.w.x.B.8 C.D.M !.",
"Y I 4.-.!.y j u E.g 3 F.4 G.u.H.@.I.).o.o.o.o.o.o.o.o.o.o.o.).u E.g 3 F.4 G.u.H.@.I.K.L.p.M.N.' ",
"O.j v | / !.6 3 | k F P./ P.Q.R.S.C ).o.o.o.o.o.o.o.o.o.l+o.).3 | k F P./ P.Q.R.S.C ! I ,.'.J ! ",
"T.r o ) Q $.' # U.5 9.e V.W.k X.Y.E.).o.o.o.o.o.o.o.o.o.l+o.).# U.5 9.e V.W.k X.Y.E.3.4.i 5.u D ",
"! Z.7 f.$ g.h.5.`.`  +.+++D @+#+$+5.).o.o.o.o.o.o.o.o.o.l+o.).5.`.`  +.+++D @+#+$+5.u c.5 e.8 6 ",
"p / O F # & p. .| 6 %+&+' *+9.3.i.g ).o.o.o.o.o.o.o.o.o.o.o.). .| 6 %+&+' *+9.3.i.g | ) H n._ =+",
"n.@ / p ) | A.-+;+o b ' O / 8.|.>+| ).o.o.o.o.o.o.o.o.o.o.o.).-+;+o b ' O / 8.|.>+| 2 y.F z.B.i ",
"=+1 J B . 9 J.,+'+(.=+H J a. +)+!+< 3.).).).).).).).).).).).' ,+'+(.=+H J a. +)+!+< ) 4.a.k = x.",
"A ~+{+g A C 5.]+a _.^++ %.l./+(+_+:+<+i W 4 a $ A ~+{+g A C 5.]+a _.^++ %.l./+(+_+:+<+i W 4 a $ ",
"O J C 1 ' a u.[+S }+|+1+C.< }.2+3+4+U : [.5+6+7+O J C 1 ' a u.[+S }+|+1+C.< }.2+3+4+U : [.5+6+7+",
"n 1 J 8+n = S >+9+=+p.0+j a+; b+;+'+c+d+< e+f+) n 1 J 8+n = S >+9+=+p.0+j a+; b+;+'+c+d+< e+f+) ",
"6 g i 8 7 g+h+i+j+b.q -.{+* F.B 5.k+m+5.n+i.m | 6 g i 8 7 g+h+i+j+b.q -.{+* F.B 5.k+m+5.n+i.m | ",
"{+) 7 ) k / D z B.# o+p+& : i u u | =+' D . q+| {+) 7 ) k / D z B.# o+p+& : i u u | =+' D . q+| ",
"J + I =+@ j B./.r+s+t+#.~.f H 3 J 5 j.u+' F H b.J + I =+@ j B./.r+s+t+#.~.f H 3 J 5 j.u+' F H b."};
