/* XPM */
static char * sheepYBC_xpm[] = {
"48 48 240 2",
"  	c None",
". 	c #8FB93D",
"+ 	c #85B13B",
"@ 	c #7EAA39",
"# 	c #86B13B",
"$ 	c #83AE3A",
"% 	c #8BB53D",
"& 	c #84AE3A",
"* 	c #7FAA39",
"= 	c #7DA938",
"- 	c #7FA838",
"; 	c #88B23B",
"> 	c #85AE3A",
", 	c #83AC3A",
"' 	c #87B13B",
") 	c #85B03B",
"! 	c #80AB39",
"~ 	c #7BA738",
"{ 	c #88B33C",
"] 	c #8AB53D",
"^ 	c #7EAA38",
"/ 	c #8CB63D",
"( 	c #7AA537",
"_ 	c #78A537",
": 	c #82AD3A",
"< 	c #7FA938",
"[ 	c #749D34",
"} 	c #7CA638",
"| 	c #8DB73D",
"1 	c #8EB73D",
"2 	c #86B23B",
"3 	c #87B23B",
"4 	c #75A236",
"5 	c #7CA838",
"6 	c #000000",
"7 	c #FFFFFF",
"8 	c #8AB43C",
"9 	c #84AF3B",
"0 	c #81AC3A",
"a 	c #92BB3F",
"b 	c #73A036",
"c 	c #81AB39",
"d 	c #88AF3B",
"e 	c #82AB39",
"f 	c #83AC39",
"g 	c #85AF3A",
"h 	c #8BB43C",
"i 	c #90B93E",
"j 	c #93BD3E",
"k 	c #8AB53C",
"l 	c #87B23C",
"m 	c #8FB93E",
"n 	c #93BB3E",
"o 	c #94BC3F",
"p 	c #81AC39",
"q 	c #8EB83E",
"r 	c #84AF3A",
"s 	c #7CA738",
"t 	c #8FB83E",
"u 	c #8CB43D",
"v 	c #89B23C",
"w 	c #89B43C",
"x 	c #95BE3F",
"y 	c #9AC140",
"z 	c #9CC040",
"A 	c #93BC3F",
"B 	c #8CB73D",
"C 	c #91BA3F",
"D 	c #94BD3F",
"E 	c #91BA3E",
"F 	c #FFE700",
"G 	c #8FB83D",
"H 	c #99BF40",
"I 	c #82AE3A",
"J 	c #78A436",
"K 	c #7FAB39",
"L 	c #7DA838",
"M 	c #8EB83D",
"N 	c #8DB63D",
"O 	c #89B23B",
"P 	c #88B23C",
"Q 	c #93BD3F",
"R 	c #8BB63D",
"S 	c #80AB3A",
"T 	c #80AC39",
"U 	c #85B13C",
"V 	c #82AC39",
"W 	c #7BA036",
"X 	c #81A638",
"Y 	c #87B03B",
"Z 	c #87B13C",
"` 	c #7EA939",
" .	c #7DA638",
"..	c #7AA437",
"+.	c #7BA838",
"@.	c #82AE39",
"#.	c #77A337",
"$.	c #7BA336",
"%.	c #7FA437",
"&.	c #84AD3A",
"*.	c #85B03A",
"=.	c #77A437",
"-.	c #8CB53D",
";.	c #8AB23C",
">.	c #769933",
",.	c #81A838",
"'.	c #89B53C",
").	c #7AA737",
"!.	c #8EB73C",
"~.	c #78A437",
"{.	c #88B33B",
"].	c #82AD39",
"^.	c #8CB33B",
"/.	c #8EB53D",
"(.	c #85AD3A",
"_.	c #8AB33C",
":.	c #93B93E",
"<.	c #91B93D",
"[.	c #92BC3E",
"}.	c #94BE3F",
"|.	c #84B03B",
"1.	c #98BF40",
"2.	c #97C040",
"3.	c #80AC3A",
"4.	c #92BD3F",
"5.	c #90BA3E",
"6.	c #92BB3E",
"7.	c #719F35",
"8.	c #8FBA3E",
"9.	c #7EA838",
"0.	c #80A939",
"a.	c #7DA939",
"b.	c #81AD3A",
"c.	c #83AF3A",
"d.	c #7CA737",
"e.	c #7FA537",
"f.	c #7DA135",
"g.	c #80A838",
"h.	c #7AA738",
"i.	c #7CA938",
"j.	c #6F9D34",
"k.	c #719D35",
"l.	c #8CB63C",
"m.	c #91BB3E",
"n.	c #709B34",
"o.	c #7DA337",
"p.	c #7EA938",
"q.	c #7BA938",
"r.	c #6F9C35",
"s.	c #749C34",
"t.	c #759C34",
"u.	c #7AA336",
"v.	c #79A538",
"w.	c #83AF3B",
"x.	c #7FAA38",
"y.	c #7BA537",
"z.	c #8FB73D",
"A.	c #8CB33C",
"B.	c #93BA3E",
"C.	c #8DB83E",
"D.	c #86AF3A",
"E.	c #8FB43C",
"F.	c #96BE3F",
"G.	c #95BD3F",
"H.	c #95BE40",
"I.	c #8DB83D",
"J.	c #89B33C",
"K.	c #85AF3B",
"L.	c #7DA839",
"M.	c #77A136",
"N.	c #7EA638",
"O.	c #79A336",
"P.	c #86AE3A",
"Q.	c #789734",
"R.	c #7C9E36",
"S.	c #90BA3D",
"T.	c #9ABF40",
"U.	c #96BD40",
"V.	c #7FAA3A",
"W.	c #80A637",
"X.	c #82A437",
"Y.	c #76A437",
"Z.	c #7AA637",
"`.	c #86B03B",
" +	c #90B63C",
".+	c #98BB3F",
"++	c #97BE40",
"@+	c #83AB39",
"#+	c #77A436",
"$+	c #86B13A",
"%+	c #98C040",
"&+	c #99BE40",
"*+	c #91B93E",
"=+	c #799B34",
"-+	c #7A9E34",
";+	c #98C140",
">+	c #92BC3F",
",+	c #80AD39",
"'+	c #82AC3A",
")+	c #749B34",
"!+	c #7EA236",
"~+	c #82A938",
"{+	c #7BA236",
"]+	c #7EA537",
"^+	c #81AA39",
"/+	c #7DA236",
"(+	c #7EA337",
"_+	c #74A035",
":+	c #779F35",
"<+	c #769E35",
"[+	c #83A838",
"}+	c #75A237",
"|+	c #7DA336",
"1+	c #84A938",
"2+	c #8EB93E",
"3+	c #8BB63C",
"4+	c #8AB33B",
"5+	c #729C34",
"6+	c #90B83E",
"7+	c #84AE3B",
"8+	c #89B13B",
"9+	c #7DA738",
"0+	c #8FB63D",
"a+	c #88B13B",
"b+	c #89B03B",
"c+	c #87B03C",
"d+	c #89B43D",
"e+	c #8CB53C",
"f+	c #82AE3B",
"g+	c #91BB3F",
"h+	c #96BF3F",
"i+	c #8EB63D",
"j+	c #88B03B",
"k+	c #8EB73E",
"l+	c #719E34",
"m+	c #79A537",
"n+	c #84AB39",
"o+	c #7EAB39",
"p+	c #FF0000",
"q+	c #87AF3B",
". + @ # $ % & * = - ; > , ' @ ) ! ~ ! { ] ) ^ / . + @ # $ % & * = - ; > , ' @ ) ! ~ ! { ] ) ^ / ",
"( _ : < { ! [ } | 1 2 3 @ 4 5 $ 6 6 6 7 6 6 6 6 6 6 7 6 6 6 6 6 | 1 2 3 @ 4 5 $ 3 1 | 8 9 0 8 a ",
"b c d e ! f g h i j k l m 8 n 6 7 7 7 7 7 6 7 7 7 7 7 7 7 7 7 7 6 6 k l m 8 n o p * q r s 5 # 0 ",
"l t u v w 1 x y z A B C D E 6 7 7 6 7 7 7 7 6 7 7 7 7 6 7 7 7 6 6 F 6 C D E G H E * I w J K $ L ",
"] x | 3 M N O w | o m i q 6 6 7 7 7 6 7 7 7 7 7 6 7 7 6 6 6 6 F F F F 6 q m P w Q R 4 S T q M ) ",
"m U 5 & V W X Y # P k Z 6 6 7 6 6 7 7 7 7 6 6 7 6 6 6 6 F F F F F F 6 6 6 T ` : K  ...+.$ B @.; ",
"% #.) $ $.%.&., { *.8 =.6 7 6 6 7 7 7 7 7 7 6 6 6 F F F F F F F 6 6 7 7 6 6 - -.;.>.,.M '.I ).!.",
"~.#.{.].^./.a s = + $ 6 6 7 7 7 7 7 6 6 6 6 F F F F F F 6 6 6 6 7 7 7 7 7 6 (._.:.<.[.}.E 8 ) N ",
"w |.*.M 1.1.2.[.{ 0 3.6 7 6 6 6 6 6 F F F F F F F F F 6 7 7 7 7 7 7 6 7 7 6 w w 8 4.5.: 8 A 6.3 ",
"C ~.7.k ! *.8.B k h # 6 6 6 F F F F F F F F F F 6 6 6 6 7 7 7 6 6 7 7 7 6 / 9.0.|.k = ~ w 9 w m ",
"{ I a.b.I c.r w r # B 6 F F F F F 6 6 6 6 6 6 6 7 7 7 7 7 7 6 6 7 7 7 6 6 d.e.f.g.h.i.0 j.k.P 5.",
"` L l.-.5.A l w m.i 3 6 F F F 6 6 7 7 7 7 7 6 7 7 7 7 7 6 7 7 7 7 7 7 7 6 n.e.o.$.p.q.r.s.t.u.' ",
"v.l x | / 5.8 3 | m I 6 6 6 6 6 7 6 7 7 6 7 7 7 7 7 7 7 7 7 6 6 7 6 6 6 / w.x.y.z.E ! L A.B.M ! ",
"C.t q ) T &.' # D.5 |.g E.F.m 6 7 6 7 7 7 7 7 7 7 6 7 7 7 7 7 6 7 6 |.g E.F.m G.H.m.I.l.k J.w G ",
"! K.9 L.$ M.N.J.O...P.Q.R.G S.6 7 6 7 7 7 7 6 7 7 7 7 6 6 7 7 6 7 6 P.Q.R.G S.T.U.J.w c.5 V.0 8 ",
"r / R I # & s.+.| 8 W.X.' Y.|.6 7 6 7 7 7 6 7 7 7 7 7 7 6 7 7 6 7 6 W.X.' Y.|.I.6.i | ) K Z._ `.",
"Z.@ / r ) |  +.+++q d ' R / }.6 7 6 7 7 6 6 7 7 7 7 7 6 7 7 7 6 7 6 d ' R / }._.@+| 2 #+I $+i.k ",
"`.1 M D . a %+&+*+{.`.K M 2.P.6 7 6 7 7 7 7 7 7 7 6 7 7 7 7 7 6 7 6 `.K M 2.P.=+-+< ) l.2.m = h.",
"C ;+>+i C E J.,+c ].'++ *.9.)+6 7 6 7 7 7 7 7 7 6 7 7 7 7 7 7 6 7 6 '++ *.9.)+!+~+{+]+k Z 4 c $ ",
"R M E 1 ' c e.^+V /+(+_+j.< 6 6 7 6 7 6 7 7 6 7 7 7 7 7 7 7 7 6 7 6 6 _+j.< (.:+<+[+X : }+|+1+2+",
"p 1 M 3+p = V @+4+`.s.5+l 6 6 6 6 6 7 7 7 7 6 7 7 7 6 7 7 7 7 6 6 6 6 6 l 6+; 7+++*+8+9+< 0+a+) ",
"8 i k 0 9 b+c+d+e+3.s -.6 7 6 F F 6 7 7 7 6 7 7 7 7 7 7 6 7 7 6 F F 6 7 6 * f+D J.g+h+J.i+6.o | ",
">+) 9 ) m / G B i.# j+6 7 7 6 F F 6 6 7 7 7 7 7 7 7 7 7 7 6 7 6 F F 6 7 7 6 k w w | `.' G . k+| ",
"M + L `.@ l i.~.l+m+n+6 7 7 6 F F 6 7 7 7 7 7 7 7 7 7 7 7 7 7 6 F F 6 7 6 6 K 3 M 5 7.o+' I K 3.",
". + @ # $ % & * = - ; 6 6 7 6 F F 6 7 7 7 7 7 6 6 7 6 7 7 7 7 6 F F 6 7 7 6 @ ) ! ~ ! { ] ) ^ / ",
"( _ : < { ! [ } | 1 2 6 7 7 6 F F 6 7 7 6 7 7 7 7 6 7 7 7 7 7 6 F F 6 7 7 6 5 $ 3 1 | 8 9 0 8 a ",
"b c d e 6 6 6 6 F F 6 6 7 7 6 F F 6 7 6 7 7 7 6 7 7 7 7 7 7 6 6 F F 6 6 7 6 6 6 6 6 6 6 6 5 # 0 ",
"l t u v 6 p+p+7 F F 7 7 7 7 6 F F 6 7 7 7 7 7 7 7 7 7 7 7 6 7 6 F F 6 7 7 7 7 7 7 7 p+p+6 K $ L ",
"] x | 3 6 p+p+7 F F 7 7 7 7 6 F F 6 7 7 6 6 7 7 6 7 7 7 6 7 7 6 F F 6 7 7 7 7 7 7 7 p+p+6 q M ) ",
"m U 5 & 6 p+p+6 F F 6 6 7 6 F F F F 6 7 7 6 7 6 7 6 7 6 7 7 6 F F F F 6 7 6 6 6 6 6 p+p+6 B @.; ",
"% #.) $ $.%.&., 6 6 8 6 6 F F F F F F 6 6 6 6 6 6 6 6 6 6 6 F F F F F F 6 6 - -.;.>.,.M '.I ).!.",
"~.#.{.].^./.a s = + $ 6 F F F F F F F F F F F F F F F F F F F F F F F F F 6 (._.:.<.[.}.E 8 ) N ",
"w |.*.M 1.1.2.[.{ 0 3.6 F F F F F F F F F F F F F F F F F F F F F F F F F 6 w w 8 4.5.: 8 A 6.3 ",
"C ~.7.k ! *.8.B k h # 6 F F F F F F F F F F F F F F F F F F F F F F F F F 6 9.0.|.k = ~ w 9 w m ",
"{ I a.b.I c.r w r # B 6 F F F F F F F F F F F F F F F F F F F F F F F F F 6 e.f.g.h.i.0 j.k.P 5.",
"` L l.-.5.A l w m.i 3 6 F F F F F F F F F F F F 6 F F F F F F F F F F F F 6 e.o.$.p.q.r.s.t.u.' ",
"v.l x | / 5.8 3 | m I 6 F F F F F F F F F F F 6 7 6 F F F F F F F F F F F 6 x.y.z.E ! L A.B.M ! ",
"C.t q ) T &.' # D.5 |.6 F F F F F F F F F F 6 7 7 7 6 F F F F F F F F F F 6 m G.H.m.I.l.k J.w G ",
"! K.9 L.$ M.N.J.O...P.6 F F F F F F F F F F F 6 7 6 F F F F F F F F F F F 6 S.T.U.J.w c.5 V.0 8 ",
"r / R I # & s.+.| 8 W.X.6 F F F F F F F F F F F 6 F F F F F F F F F F F 6 Y.|.I.6.i | ) K Z._ `.",
"Z.@ / r ) |  +.+++q d ' R 6 F F F F F F F F F F F F F F F F F F F F F 6 R / }._.@+| 2 #+I $+i.k ",
"`.1 M D . a %+&+*+{.`.K M 2.6 6 6 6 6 6 7 6 6 6 6 6 6 6 7 6 6 6 6 6 6 K M 2.P.=+-+< ) l.2.m = h.",
"C ;+>+i C E J.,+c ].'++ *.9.)+!+~+{+]+6 7 6 c $ C ;+>+6 7 6 J.,+c ].'++ *.9.)+!+~+{+]+k Z 4 c $ ",
"R M E 1 ' c e.^+V /+(+_+j.< (.:+<+[+X 6 7 6 1+2+R M E 6 7 6 e.^+V /+(+_+j.< (.:+<+[+X : }+|+1+2+",
"p 1 M 3+p = V @+4+`.s.5+l 6+; 7+++*+8+6 7 6 a+) p 1 M 6 7 6 V @+4+`.s.5+l 6+; 7+++*+8+9+< 0+a+) ",
"8 i k 0 9 b+c+d+e+3.s -.>+* f+D J.g+6 p+p+p+6 | 8 i 6 p+p+p+6 d+e+3.s -.>+* f+D J.g+h+J.i+6.o | ",
">+) 9 ) m / G B i.# j+q+& : k w w 6 p+p+p+p+p+6 >+6 p+p+p+p+p+6 i.# j+q+& : k w w | `.' G . k+| ",
"M + L `.@ l i.~.l+m+n+%.,.h K 3 M 6 6 6 6 6 6 6 M 6 6 6 6 6 6 6 l+m+n+%.,.h K 3 M 5 7.o+' I K 3."};
