/* XPM */
static char * sheep_Lfont_xpm[] = {
"48 48 244 2",
"  	c None",
". 	c #8FB93D",
"+ 	c #85B13B",
"@ 	c #7EAA39",
"# 	c #86B13B",
"$ 	c #83AE3A",
"% 	c #8BB53D",
"& 	c #84AE3A",
"* 	c #7FAA39",
"= 	c #7DA938",
"- 	c #7FA838",
"; 	c #88B23B",
"> 	c #85AE3A",
", 	c #83AC3A",
"' 	c #87B13B",
") 	c #85B03B",
"! 	c #80AB39",
"~ 	c #7BA738",
"{ 	c #88B33C",
"] 	c #8AB53D",
"^ 	c #7EAA38",
"/ 	c #8CB63D",
"( 	c #7AA537",
"_ 	c #78A537",
": 	c #82AD3A",
"< 	c #7FA938",
"[ 	c #749D34",
"} 	c #7CA638",
"| 	c #8DB73D",
"1 	c #8EB73D",
"2 	c #86B23B",
"3 	c #87B23B",
"4 	c #75A236",
"5 	c #000000",
"6 	c #7CA838",
"7 	c #8AB43C",
"8 	c #84AF3B",
"9 	c #81AC3A",
"0 	c #92BB3F",
"a 	c #73A036",
"b 	c #81AB39",
"c 	c #88AF3B",
"d 	c #82AB39",
"e 	c #83AC39",
"f 	c #85AF3A",
"g 	c #8BB43C",
"h 	c #90B93E",
"i 	c #93BD3E",
"j 	c #8AB53C",
"k 	c #87B23C",
"l 	c #8FB93E",
"m 	c #FFFFFF",
"n 	c #93BB3E",
"o 	c #94BC3F",
"p 	c #81AC39",
"q 	c #8EB83E",
"r 	c #84AF3A",
"s 	c #7CA738",
"t 	c #8FB83E",
"u 	c #8CB43D",
"v 	c #89B23C",
"w 	c #89B43C",
"x 	c #95BE3F",
"y 	c #9AC140",
"z 	c #9CC040",
"A 	c #93BC3F",
"B 	c #8CB73D",
"C 	c #91BA3F",
"D 	c #94BD3F",
"E 	c #91BA3E",
"F 	c #8FB83D",
"G 	c #99BF40",
"H 	c #82AE3A",
"I 	c #78A436",
"J 	c #7FAB39",
"K 	c #7DA838",
"L 	c #8EB83D",
"M 	c #8DB63D",
"N 	c #89B23B",
"O 	c #88B23C",
"P 	c #93BD3F",
"Q 	c #8BB63D",
"R 	c #80AB3A",
"S 	c #80AC39",
"T 	c #85B13C",
"U 	c #82AC39",
"V 	c #7BA036",
"W 	c #81A638",
"X 	c #87B03B",
"Y 	c #87B13C",
"Z 	c #83AD3A",
"` 	c #7EA939",
" .	c #7DA638",
"..	c #7AA437",
"+.	c #7BA838",
"@.	c #82AE39",
"#.	c #77A337",
"$.	c #7BA336",
"%.	c #7FA437",
"&.	c #84AD3A",
"*.	c #85B03A",
"=.	c #77A437",
"-.	c #729E34",
";.	c #7AA236",
">.	c #8CB53D",
",.	c #8AB23C",
"'.	c #769933",
").	c #81A838",
"!.	c #89B53C",
"~.	c #7AA737",
"{.	c #8EB73C",
"].	c #78A437",
"^.	c #88B33B",
"/.	c #82AD39",
"(.	c #8CB33B",
"_.	c #8EB53D",
":.	c #75A237",
"<.	c #85AD3A",
"[.	c #8AB33C",
"}.	c #93B93E",
"|.	c #91B93D",
"1.	c #92BC3E",
"2.	c #94BE3F",
"3.	c #84B03B",
"4.	c #98BF40",
"5.	c #97C040",
"6.	c #80AC3A",
"7.	c #83AF3A",
"8.	c #92BD3F",
"9.	c #90BA3E",
"0.	c #92BB3E",
"a.	c #719F35",
"b.	c #8FBA3E",
"c.	c #8CB63C",
"d.	c #7EA838",
"e.	c #80A939",
"f.	c #7DA939",
"g.	c #81AD3A",
"h.	c #84B03A",
"i.	c #7CA737",
"j.	c #7FA537",
"k.	c #7DA135",
"l.	c #80A838",
"m.	c #7AA738",
"n.	c #7CA938",
"o.	c #6F9D34",
"p.	c #719D35",
"q.	c #91BB3E",
"r.	c #82AE3B",
"s.	c #666666",
"t.	c #709B34",
"u.	c #7DA337",
"v.	c #7EA938",
"w.	c #7BA938",
"x.	c #6F9C35",
"y.	c #749C34",
"z.	c #759C34",
"A.	c #7AA336",
"B.	c #79A538",
"C.	c #83AF3B",
"D.	c #7FAA38",
"E.	c #7BA537",
"F.	c #8FB73D",
"G.	c #8CB33C",
"H.	c #93BA3E",
"I.	c #8DB83E",
"J.	c #86AF3A",
"K.	c #8FB43C",
"L.	c #96BE3F",
"M.	c #95BD3F",
"N.	c #95BE40",
"O.	c #8DB83D",
"P.	c #89B33C",
"Q.	c #85AF3B",
"R.	c #7DA839",
"S.	c #77A136",
"T.	c #7EA638",
"U.	c #79A336",
"V.	c #86AE3A",
"W.	c #789734",
"X.	c #7C9E36",
"Y.	c #90BA3D",
"Z.	c #9ABF40",
"`.	c #96BD40",
" +	c #7FAA3A",
".+	c #80A637",
"++	c #82A437",
"@+	c #76A437",
"#+	c #7AA637",
"$+	c #86B03B",
"%+	c #90B63C",
"&+	c #98BB3F",
"*+	c #97BE40",
"=+	c #83AB39",
"-+	c #77A436",
";+	c #86B13A",
">+	c #98C040",
",+	c #99BE40",
"'+	c #91B93E",
")+	c #799B34",
"!+	c #7A9E34",
"~+	c #98C140",
"{+	c #92BC3F",
"]+	c #80AD39",
"^+	c #82AC3A",
"/+	c #749B34",
"(+	c #7EA236",
"_+	c #82A938",
":+	c #7BA236",
"<+	c #7EA537",
"[+	c #81AA39",
"}+	c #7DA236",
"|+	c #7EA337",
"1+	c #74A035",
"2+	c #779F35",
"3+	c #769E35",
"4+	c #83A838",
"5+	c #7DA336",
"6+	c #84A938",
"7+	c #8EB93E",
"8+	c #8BB63C",
"9+	c #8AB33B",
"0+	c #729C34",
"a+	c #90B83E",
"b+	c #84AE3B",
"c+	c #89B13B",
"d+	c #7DA738",
"e+	c #8FB63D",
"f+	c #88B13B",
"g+	c #89B03B",
"h+	c #87B03C",
"i+	c #89B43D",
"j+	c #8CB53C",
"k+	c #91BB3F",
"l+	c #96BF3F",
"m+	c #8EB63D",
"n+	c #88B03B",
"o+	c #87AF3B",
"p+	c #8EB73E",
"q+	c #719E34",
"r+	c #79A537",
"s+	c #84AB39",
"t+	c #7EAB39",
"u+	c #FF0000",
". + @ # $ % & * = - ; > , ' @ ) ! ~ ! { ] ) ^ / . + @ # $ % & * = - ; > , ' @ ) ! ~ ! { ] ) ^ / ",
"( _ : < { ! [ } | 1 2 3 @ 4 5 5 5 5 5 5 5 5 5 5 5 5 5 5 5 ! [ } | 1 2 3 @ 4 6 $ 3 1 | 7 8 9 7 0 ",
"a b c d ! e f g h i j k l 5 5 m m m 5 5 m m m m 5 m m m 5 5 5 g h i j k l 7 n o p * q r s 6 # 9 ",
"k t u v w 1 x y z A B C 5 5 m m m 5 m m m m 5 m m m m m m m 5 5 z A B C D E F G E * H w I J $ K ",
"] x | 3 L M N w | o l 5 5 m m 5 m 5 m m m 5 m m m m m 5 m m m 5 5 o l h q l O w P Q 4 R S q L ) ",
"l T 6 & U V W X # O j 5 m m 5 5 m 5 5 m m m m 5 5 m m m 5 m m m 5 5 j Y Z S ` : J  ...+.$ B @.; ",
"% #.) $ $.%.&., { *.7 5 m 5 m m m m 5 5 m m m m 5 5 m m 5 5 m 5 m 5 5 =.-.;.- >.,.'.).L !.H ~.{.",
"].#.^./.(._.0 s = + $ 5 m m m m 5 m m m m m m m m m m m m m m m m m 5 :.~ <.<.[.}.|.1.2.E 7 ) M ",
"w 3.*.L 4.4.5.1.{ 9 6.5 m m m 5 5 5 m m m m m m m 5 5 5 m m m 5 m m 5 7.{ | w w 7 8.9.: 7 A 0.3 ",
"C ].a.j ! *.b.B j g # 5 5 m m m m m m m m m 5 5 m m 5 m m m m 5 5 m 5 { c./ d.e.3.j = ~ w 8 w l ",
"{ H f.g.H 7.r w r # B h.5 5 m m 5 5 5 5 m 5 5 m m m m 5 m m 5 m m m 5 h.+.i.j.k.l.m.n.9 o.p.O 9.",
"` K c.>.9.A k w q.h 3 r.4 5 5 5 s.5 s.5 m m m m m m m m 5 5 m m m m 5 r.4 t.j.u.$.v.w.x.y.z.A.' ",
"B.k x | / 9.7 3 | l H C./ C.5 s.s.s.s.s.5 5 5 m m m 5 m m 5 5 5 m 5 5 C./ C.D.E.F.E ! K G.H.L ! ",
"I.t q ) S &.' # J.6 3.f K.L.5 s.s.s.s.s.s.5 5 m m m 5 m 5 5 m m 5 5 3.f K.L.l M.N.q.O.c.j P.w F ",
"! Q.8 R.$ S.T.P.U...V.W.X.F 5 s.s.m s.s.s.s.5 m m m 5 m m m m 5 5 ..V.W.X.F Y.Z.`.P.w 7.6  +9 7 ",
"r / Q H # & y.+.| 7 .+++' @+5 s.5 m s.s.s.s.5 m 5 m 5 m m m 5 5 | 7 .+++' @+3.O.0.h | ) J #+_ $+",
"#+@ / r ) | %+&+*+q c ' Q / 5 s.5 m s.s.s.s.5 5 m m 5 m m 5 5 &+*+q c ' Q / 2.[.=+| 2 -+H ;+n.j ",
"$+1 L D . 0 >+,+'+^.$+J L 5.5 s.s.s.s.s.s.s.5 m m m 5 5 5 5 >+,+'+^.$+J L 5.V.)+!+< ) c.5.l = m.",
"C ~+{+h C E P.]+b /.^++ *.d.5 s.s.s.s.5 s.s.5 m m 5 5 h C E P.]+b /.^++ *.d./+(+_+:+<+j Y 4 b $ ",
"Q L E 1 ' b j.[+U }+|+1+o.< 5 s.s.s.5 s.s.s.5 m m m 5 5 5 b j.[+U }+|+1+o.< <.2+3+4+W : :.5+6+7+",
"p 1 L 8+p = U =+9+$+y.0+k a+5 5 5 5 s.s.s.s.5 5 5 5 5 m 5 5 U =+9+$+y.0+k a+; b+*+'+c+d+< e+f+) ",
"7 h j 9 8 g+h+i+j+6.s >.{+* 5 s.s.s.s.s.s.5 5 m m m m m m 5 h+i+j+6.s >.{+* r.D P.k+l+P.m+0.o | ",
"{+) 8 ) l / F B n.# n+o+& : 5 5 s.s.s.s.5 m m m m m m m m 5 5 B n.# n+o+& : j w w | $+' F . p+| ",
"L + K $+@ k n.].q+r+s+%.).g J 5 5 5 s.5 m m m 5 5 m m 5 5 m 5 ].q+r+s+%.).g J 3 L 6 a.t+' H J 6.",
". + @ # $ % & * = - ; > , ' @ ) ! 5 5 m m m m 5 m 5 m 5 m m 5 * = - ; > , ' @ ) ! ~ ! { ] ) ^ / ",
"( _ : < { ! [ } | 1 2 3 @ 4 6 $ 3 5 m 5 m m m m m m m m m 5 5 } | 1 2 3 @ 4 6 $ 3 1 | 7 8 9 7 0 ",
"a b c d ! e f g h i j k l 7 n o p 5 m m m 5 m m 5 m 5 m m m 5 g h i j k l 7 n o p * q r s 6 # 9 ",
"k t u v w 1 x y z A B C D E F G 5 5 m m m 5 m m 5 m m 5 m m 5 y z A B C D E F G E * H w I J $ K ",
"] x | 3 L M N w | o l h q l O w 5 m m 5 m 5 m m 5 m 5 5 m m 5 w | o l h q l O w P Q 4 R S q L ) ",
"l T 6 & U V W X # O j Y Z S ` : 5 m 5 m m 5 m m 5 m m m m 5 5 X # O j Y Z S ` : J  ...+.$ B @.; ",
"% #.) $ $.%.&., { *.7 =.-.;.- 5 5 m m m m 5 m m 5 m m m m m 5 , { *.7 =.-.;.- >.,.'.).L !.H ~.{.",
"].#.^./.(._.0 s = + $ :.~ <.<.5 m m m m m 5 m m 5 m m 5 m 5 5 s = + $ :.~ <.<.[.}.|.1.2.E 7 ) M ",
"w 3.*.L 4.4.5.1.{ 9 6.7.{ | 5 5 m m 5 m m 5 m 5 5 m 5 5 m 5 5 1.{ 9 6.7.{ | w w 7 8.9.: 7 A 0.3 ",
"C ].a.j ! *.b.B j g # { c./ 5 m m 5 5 m m 5 m m 5 m m m m m 5 B j g # { c./ d.e.3.j = ~ w 8 w l ",
"{ H f.g.H 7.r w r # B h.+.i.5 m m m m 5 m 5 m m 5 5 m m m m 5 w r # B h.+.i.j.k.l.m.n.9 o.p.O 9.",
"` K c.>.9.A k w q.h 3 r.4 t.5 m 5 m m m m 5 m m 5 m m m m m 5 w q.h 3 r.4 t.j.u.$.v.w.x.y.z.A.' ",
"B.k x | / 9.7 3 | l H C./ C.5 m m 5 m m 5 u+u+u+5 m 5 m m 5 5 3 | l H C./ C.D.E.F.E ! K G.H.L ! ",
"I.t q ) S &.' # J.6 3.f K.L.5 m m 5 5 m 5 u+u+u+5 m 5 5 m 5 ' # J.6 3.f K.L.l M.N.q.O.c.j P.w F ",
"! Q.8 R.$ S.T.P.U...V.W.X.F 5 5 m m m m m 5 5 5 5 m 5 m m 5 T.P.U...V.W.X.F Y.Z.`.P.w 7.6  +9 7 ",
"r / Q H # & y.+.| 7 .+++' @+3.5 m m m 5 m m m 5 m m m m 5 5 y.+.| 7 .+++' @+3.O.0.h | ) J #+_ $+",
"#+@ / r ) | %+&+*+q c ' Q / 2.5 5 m m m m m m m m m m 5 5 | %+&+*+q c ' Q / 2.[.=+| 2 -+H ;+n.j ",
"$+1 L D . 0 >+,+'+^.$+J L 5.V.)+5 5 5 m 5 5 5 5 5 m 5 5 . 0 >+,+'+^.$+J L 5.V.)+!+< ) c.5.l = m.",
"C ~+{+h C E P.]+b /.^++ *.d./+(+_+:+5 m 5 4 b $ 5 m 5 h C E P.]+b /.^++ *.d./+(+_+:+<+j Y 4 b $ ",
"Q L E 1 ' b j.[+U }+|+1+o.< <.2+3+4+5 m 5 5+6+7+5 m 5 1 ' b j.[+U }+|+1+o.< <.2+3+4+W : :.5+6+7+",
"p 1 L 8+p = U =+9+$+y.0+k a+; b+*+'+5 m 5 e+f+) 5 m 5 8+p = U =+9+$+y.0+k a+; b+*+'+c+d+< e+f+) ",
"7 h j 9 8 g+h+i+j+6.s >.{+* r.D P.5 u+u+5 0.o 5 u+u+5 9 8 g+h+i+j+6.s >.{+* r.D P.k+l+P.m+0.o | ",
"{+) 8 ) l / F B n.# n+o+& : j w 5 u+u+u+5 . 5 u+u+u+5 ) l / F B n.# n+o+& : j w w | $+' F . p+| ",
"L + K $+@ k n.].q+r+s+%.).g J 3 5 5 5 5 5 H 5 5 5 5 5 $+@ k n.].q+r+s+%.).g J 3 L 6 a.t+' H J 6."};
