/* XPM */
static char * SheepYCR_xpm[] = {
"48 48 245 2",
"  	c None",
". 	c #8FB93D",
"+ 	c #85B13B",
"@ 	c #7EAA39",
"# 	c #86B13B",
"$ 	c #83AE3A",
"% 	c #8BB53D",
"& 	c #84AE3A",
"* 	c #7FAA39",
"= 	c #7DA938",
"- 	c #7FA838",
"; 	c #88B23B",
"> 	c #85AE3A",
", 	c #83AC3A",
"' 	c #87B13B",
") 	c #85B03B",
"! 	c #80AB39",
"~ 	c #7BA738",
"{ 	c #88B33C",
"] 	c #8AB53D",
"^ 	c #7EAA38",
"/ 	c #8CB63D",
"( 	c #7AA537",
"_ 	c #78A537",
": 	c #82AD3A",
"< 	c #7FA938",
"[ 	c #749D34",
"} 	c #7CA638",
"| 	c #8DB73D",
"1 	c #8EB73D",
"2 	c #86B23B",
"3 	c #87B23B",
"4 	c #75A236",
"5 	c #7CA838",
"6 	c #000000",
"7 	c #8AB43C",
"8 	c #84AF3B",
"9 	c #81AC3A",
"0 	c #92BB3F",
"a 	c #73A036",
"b 	c #81AB39",
"c 	c #88AF3B",
"d 	c #82AB39",
"e 	c #83AC39",
"f 	c #85AF3A",
"g 	c #8BB43C",
"h 	c #90B93E",
"i 	c #93BD3E",
"j 	c #8AB53C",
"k 	c #87B23C",
"l 	c #8FB93E",
"m 	c #93BB3E",
"n 	c #FFFFFF",
"o 	c #94BC3F",
"p 	c #81AC39",
"q 	c #8EB83E",
"r 	c #84AF3A",
"s 	c #7CA738",
"t 	c #8FB83E",
"u 	c #8CB43D",
"v 	c #89B23C",
"w 	c #89B43C",
"x 	c #95BE3F",
"y 	c #9AC140",
"z 	c #9CC040",
"A 	c #93BC3F",
"B 	c #8CB73D",
"C 	c #91BA3F",
"D 	c #94BD3F",
"E 	c #91BA3E",
"F 	c #FFE700",
"G 	c #8FB83D",
"H 	c #99BF40",
"I 	c #82AE3A",
"J 	c #78A436",
"K 	c #7FAB39",
"L 	c #7DA838",
"M 	c #8EB83D",
"N 	c #8DB63D",
"O 	c #89B23B",
"P 	c #88B23C",
"Q 	c #93BD3F",
"R 	c #8BB63D",
"S 	c #80AB3A",
"T 	c #80AC39",
"U 	c #85B13C",
"V 	c #82AC39",
"W 	c #7BA036",
"X 	c #81A638",
"Y 	c #87B03B",
"Z 	c #87B13C",
"` 	c #83AD3A",
" .	c #7EA939",
"..	c #7DA638",
"+.	c #7AA437",
"@.	c #7BA838",
"#.	c #82AE39",
"$.	c #77A337",
"%.	c #7BA336",
"&.	c #7FA437",
"*.	c #84AD3A",
"=.	c #85B03A",
"-.	c #77A437",
";.	c #729E34",
">.	c #7AA236",
",.	c #8CB53D",
"'.	c #8AB23C",
").	c #769933",
"!.	c #81A838",
"~.	c #89B53C",
"{.	c #7AA737",
"].	c #8EB73C",
"^.	c #78A437",
"/.	c #88B33B",
"(.	c #82AD39",
"_.	c #8CB33B",
":.	c #8EB53D",
"<.	c #75A237",
"[.	c #85AD3A",
"}.	c #8AB33C",
"|.	c #93B93E",
"1.	c #91B93D",
"2.	c #92BC3E",
"3.	c #94BE3F",
"4.	c #84B03B",
"5.	c #98BF40",
"6.	c #97C040",
"7.	c #80AC3A",
"8.	c #83AF3A",
"9.	c #92BD3F",
"0.	c #90BA3E",
"a.	c #92BB3E",
"b.	c #719F35",
"c.	c #8FBA3E",
"d.	c #8CB63C",
"e.	c #7EA838",
"f.	c #80A939",
"g.	c #7DA939",
"h.	c #81AD3A",
"i.	c #84B03A",
"j.	c #7CA737",
"k.	c #7FA537",
"l.	c #7DA135",
"m.	c #80A838",
"n.	c #7AA738",
"o.	c #7CA938",
"p.	c #6F9D34",
"q.	c #719D35",
"r.	c #91BB3E",
"s.	c #666666",
"t.	c #82AE3B",
"u.	c #709B34",
"v.	c #7DA337",
"w.	c #7EA938",
"x.	c #7BA938",
"y.	c #6F9C35",
"z.	c #749C34",
"A.	c #759C34",
"B.	c #7AA336",
"C.	c #79A538",
"D.	c #83AF3B",
"E.	c #7FAA38",
"F.	c #7BA537",
"G.	c #8FB73D",
"H.	c #8CB33C",
"I.	c #93BA3E",
"J.	c #8DB83E",
"K.	c #86AF3A",
"L.	c #8FB43C",
"M.	c #96BE3F",
"N.	c #95BD3F",
"O.	c #95BE40",
"P.	c #8DB83D",
"Q.	c #89B33C",
"R.	c #85AF3B",
"S.	c #7DA839",
"T.	c #77A136",
"U.	c #7EA638",
"V.	c #79A336",
"W.	c #86AE3A",
"X.	c #789734",
"Y.	c #7C9E36",
"Z.	c #90BA3D",
"`.	c #9ABF40",
" +	c #96BD40",
".+	c #7FAA3A",
"++	c #80A637",
"@+	c #82A437",
"#+	c #76A437",
"$+	c #7AA637",
"%+	c #86B03B",
"&+	c #90B63C",
"*+	c #98BB3F",
"=+	c #97BE40",
"-+	c #83AB39",
";+	c #77A436",
">+	c #86B13A",
",+	c #98C040",
"'+	c #99BE40",
")+	c #91B93E",
"!+	c #799B34",
"~+	c #7A9E34",
"{+	c #98C140",
"]+	c #92BC3F",
"^+	c #80AD39",
"/+	c #82AC3A",
"(+	c #749B34",
"_+	c #7EA236",
":+	c #82A938",
"<+	c #7BA236",
"[+	c #7EA537",
"}+	c #81AA39",
"|+	c #7DA236",
"1+	c #7EA337",
"2+	c #74A035",
"3+	c #779F35",
"4+	c #769E35",
"5+	c #83A838",
"6+	c #7DA336",
"7+	c #84A938",
"8+	c #8EB93E",
"9+	c #8BB63C",
"0+	c #8AB33B",
"a+	c #729C34",
"b+	c #90B83E",
"c+	c #84AE3B",
"d+	c #89B13B",
"e+	c #7DA738",
"f+	c #8FB63D",
"g+	c #88B13B",
"h+	c #89B03B",
"i+	c #87B03C",
"j+	c #89B43D",
"k+	c #8CB53C",
"l+	c #91BB3F",
"m+	c #96BF3F",
"n+	c #8EB63D",
"o+	c #88B03B",
"p+	c #87AF3B",
"q+	c #8EB73E",
"r+	c #719E34",
"s+	c #79A537",
"t+	c #84AB39",
"u+	c #7EAB39",
"v+	c #FF0000",
". + @ # $ % & * = - ; > , ' @ ) ! ~ ! { ] ) ^ / . + @ # $ % & * = - ; > , ' @ ) ! ~ ! { ] ) ^ / ",
"( _ : < { ! [ } | 1 2 3 @ 4 5 $ 3 6 6 6 6 6 6 6 6 6 6 6 6 6 6 6 | 1 2 3 @ 4 5 $ 3 1 | 7 8 9 7 0 ",
"a b c d ! e f g h i j k l 7 m 6 6 6 n n n 6 n n n n 6 6 n n n 6 6 i j k l 7 m o p * q r s 5 # 9 ",
"k t u v w 1 x y z A B C D E 6 6 n n n n n n n 6 n n n n n 6 6 F F 6 B C D E G H E * I w J K $ L ",
"] x | 3 M N O w | o l h q 6 6 n n n 6 n n n n n 6 n n 6 6 F F F F F 6 h q l P w Q R 4 S T q M ) ",
"l U 5 & V W X Y # P j Z 6 6 n n n 6 n n n n n n 6 6 6 F F F F F 6 6 6 Z ` T  .: K ..+.@.$ B #.; ",
"% $.) $ %.&.*., { =.7 6 6 n 6 n 6 6 n n 6 6 6 6 F F F F F F 6 6 n n 6 -.;.>.- ,.'.).!.M ~.I {.].",
"^.$./.(._.:.0 s = + $ 6 n n n n n n n 6 F F F F F F F F 6 6 n n n n 6 <.~ [.[.}.|.1.2.3.E 7 ) N ",
"w 4.=.M 5.5.6.2.{ 9 7.6 n n n 6 6 6 6 F F F F F F 6 6 6 n n n n n n 6 8.{ | w w 7 9.0.: 7 A a.3 ",
"C ^.b.j ! =.c.B j g # 6 n 6 6 F F F F F F F F 6 6 n n n n n n n n 6 6 { d./ e.f.4.j = ~ w 8 w l ",
"{ I g.h.I 8.r w r # B 6 6 F F F F F F F 6 6 6 n n n 6 6 6 6 n n 6 6 B i.@.j.k.l.m.n.o.9 p.q.P 0.",
" .L d.,.0.A k w r.h 3 6 6 F F F F 6 6 6 n n n n n n 6 s.6 s.6 6 6 h 3 t.4 u.k.v.%.w.x.y.z.A.B.' ",
"C.k x | / 0.7 3 | l I 6 F F 6 6 6 n n 6 n n n 6 6 6 s.s.s.s.s.6 | l I D./ D.E.F.G.E ! L H.I.M ! ",
"J.t q ) T *.' # K.5 4.6 F F 6 n n n n 6 n n n 6 6 s.s.s.s.s.s.6 K.5 4.f L.M.l N.O.r.P.d.j Q.w G ",
"! R.8 S.$ T.U.Q.V.+.W.X.6 6 6 n n n n 6 n n n 6 s.s.s.s.n s.s.6 V.+.W.X.Y.G Z.`. +Q.w 8.5 .+9 7 ",
"r / R I # & z.@.| 7 ++@+' #+6 6 n n n 6 n 6 n 6 s.s.s.s.n 6 s.6 | 7 ++@+' #+4.P.a.h | ) K $+_ %+",
"$+@ / r ) | &+*+=+q c ' R / 3.6 6 n n 6 n n 6 6 s.s.s.s.n 6 s.6 =+q c ' R / 3.}.-+| 2 ;+I >+o.j ",
"%+1 M D . 0 ,+'+)+/.%+K M 6.W.!+6 6 6 6 n n n 6 s.s.s.s.s.s.s.6 )+/.%+K M 6.W.!+~+< ) d.6.l = n.",
"C {+]+h C E Q.^+b (./++ =.e.(+_+:+<+[+6 6 n n 6 s.s.6 s.s.s.s.6 b (./++ =.e.(+_+:+<+[+j Z 4 b $ ",
"R M E 1 ' b k.}+V |+1+2+p.< [.3+4+6 6 6 n n n 6 s.s.s.6 s.s.s.6 V |+1+2+p.< [.3+4+5+X : <.6+7+8+",
"p 1 M 9+p = V -+0+%+z.a+k b+; c+6 6 n 6 6 6 6 6 s.s.s.s.6 6 6 6 0+%+z.a+k b+; c+=+)+d+e+< f+g+) ",
"7 h j 9 8 h+i+j+k+7.s ,.]+* t.D 6 n n n n 6 F 6 6 s.s.s.s.s.s.6 k+7.s ,.]+* t.D Q.l+m+Q.n+a.o | ",
"]+) 8 ) l / G B o.# o+p+& : j 6 6 n n n n 6 F F 6 6 s.s.s.s.6 6 o.# o+p+& : j w w | %+' G . q+| ",
"M + L %+@ k o.^.r+s+t+&.!.g K 6 n 6 6 n 6 6 F F 6 n 6 s.6 6 6 ^.r+s+t+&.!.g K 3 M 5 b.u+' I K 7.",
". + @ # $ % & * = - ; > , ' @ 6 n n 6 n 6 F F F 6 n n 6 6 % & * = - ; > , ' @ ) ! ~ ! { ] ) ^ / ",
"( _ : < { ! [ } | 1 2 3 @ 4 5 6 6 n n 6 F F F F F 6 6 n 6 ! [ } | 1 2 3 @ 4 5 $ 3 1 | 7 8 9 7 0 ",
"a b c d ! e f g h i j k l 7 m 6 n n n 6 F 6 n n 6 F 6 n 6 e f g h i j k l 7 m o p * q r s 5 # 9 ",
"k t u v w 1 x y z A B C D E G 6 n n 6 6 F 6 n n 6 F 6 n 6 6 x y z A B C D E G H E * I w J K $ L ",
"] x | 3 M N O w | o l h q l P 6 6 6 n 6 F 6 n n 6 F 6 n n 6 O w | o l h q l P w Q R 4 S T q M ) ",
"l U 5 & V W X Y # P j Z ` T  .6 n n n 6 F 6 n n 6 F F 6 n 6 X Y # P j Z ` T  .: K ..+.@.$ B #.; ",
"% $.) $ %.&.*., { =.7 -.;.>.- 6 6 6 6 F F 6 n n 6 F F F 6 6 6 , { =.7 -.;.>.- ,.'.).!.M ~.I {.].",
"^.$./.(._.:.0 s = + $ <.~ [.[.6 F F F F F 6 n n 6 F F F F F 6 s = + $ <.~ [.[.}.|.1.2.3.E 7 ) N ",
"w 4.=.M 5.5.6.2.{ 9 7.8.{ | w 6 F F F F F 6 6 n 6 F F F F F 6 6 { 9 7.8.{ | w w 7 9.0.: 7 A a.3 ",
"C ^.b.j ! =.c.B j g # { d./ e.6 F F F F F 6 F F 6 F F F F F F 6 j g # { d./ e.f.4.j = ~ w 8 w l ",
"{ I g.h.I 8.r w r # B i.@.j.k.6 F F F F F 6 F F 6 F F F F F F 6 r # B i.@.j.k.l.m.n.o.9 p.q.P 0.",
" .L d.,.0.A k w r.h 3 t.4 u.k.6 F F F F F 6 n n 6 F F F F F F 6 r.h 3 t.4 u.k.v.%.w.x.y.z.A.B.' ",
"C.k x | / 0.7 3 | l I D./ D.E.6 6 F F F F 6 v+v+v+6 F F F F F 6 | l I D./ D.E.F.G.E ! L H.I.M ! ",
"J.t q ) T *.' # K.5 4.f L.M.l N.6 F F F F 6 v+v+v+6 F F F F F 6 K.5 4.f L.M.l N.O.r.P.d.j Q.w G ",
"! R.8 S.$ T.U.Q.V.+.W.X.Y.G Z.`.6 F F F F 6 6 6 6 F F F F F 6 6 V.+.W.X.Y.G Z.`. +Q.w 8.5 .+9 7 ",
"r / R I # & z.@.| 7 ++@+' #+4.P.6 6 F F F F F F F F F F F F 6 @.| 7 ++@+' #+4.P.a.h | ) K $+_ %+",
"$+@ / r ) | &+*+=+q c ' R / 3.}.-+6 6 F F F F F F F F F F 6 6 *+=+q c ' R / 3.}.-+| 2 ;+I >+o.j ",
"%+1 M D . 0 ,+'+)+/.%+K M 6.W.!+~+< 6 6 n 6 6 6 6 6 n 6 6 6 ,+'+)+/.%+K M 6.W.!+~+< ) d.6.l = n.",
"C {+]+h C E Q.^+b (./++ =.e.(+_+:+<+[+6 n 6 b $ C 6 n 6 C E Q.^+b (./++ =.e.(+_+:+<+[+j Z 4 b $ ",
"R M E 1 ' b k.}+V |+1+2+p.< [.3+4+5+X 6 n 6 7+8+R 6 n 6 ' b k.}+V |+1+2+p.< [.3+4+5+X : <.6+7+8+",
"p 1 M 9+p = V -+0+%+z.a+k b+; c+=+)+d+6 n 6 g+) p 6 n 6 p = V -+0+%+z.a+k b+; c+=+)+d+e+< f+g+) ",
"7 h j 9 8 h+i+j+k+7.s ,.]+* t.D Q.l+m+6 v+v+6 | 7 6 v+v+6 h+i+j+k+7.s ,.]+* t.D Q.l+m+Q.n+a.o | ",
"]+) 8 ) l / G B o.# o+p+& : j w w | %+6 v+v+v+6 ]+6 v+v+v+6 G B o.# o+p+& : j w w | %+' G . q+| ",
"M + L %+@ k o.^.r+s+t+&.!.g K 3 M 5 b.6 6 6 6 6 M 6 6 6 6 6 o.^.r+s+t+&.!.g K 3 M 5 b.u+' I K 7."};
