/* XPM */
static char * sheepYFC_xpm[] = {
"48 48 241 2",
"  	c None",
". 	c #8FB93D",
"+ 	c #85B13B",
"@ 	c #7EAA39",
"# 	c #86B13B",
"$ 	c #83AE3A",
"% 	c #8BB53D",
"& 	c #84AE3A",
"* 	c #7FAA39",
"= 	c #7DA938",
"- 	c #7FA838",
"; 	c #88B23B",
"> 	c #85AE3A",
", 	c #83AC3A",
"' 	c #87B13B",
") 	c #85B03B",
"! 	c #80AB39",
"~ 	c #7BA738",
"{ 	c #88B33C",
"] 	c #8AB53D",
"^ 	c #7EAA38",
"/ 	c #8CB63D",
"( 	c #7AA537",
"_ 	c #78A537",
": 	c #82AD3A",
"< 	c #7FA938",
"[ 	c #749D34",
"} 	c #7CA638",
"| 	c #8DB73D",
"1 	c #8EB73D",
"2 	c #86B23B",
"3 	c #87B23B",
"4 	c #75A236",
"5 	c #7CA838",
"6 	c #000000",
"7 	c #FFFFFF",
"8 	c #8AB43C",
"9 	c #84AF3B",
"0 	c #81AC3A",
"a 	c #92BB3F",
"b 	c #73A036",
"c 	c #81AB39",
"d 	c #88AF3B",
"e 	c #82AB39",
"f 	c #83AC39",
"g 	c #85AF3A",
"h 	c #8BB43C",
"i 	c #90B93E",
"j 	c #93BD3E",
"k 	c #8AB53C",
"l 	c #87B23C",
"m 	c #8FB93E",
"n 	c #93BB3E",
"o 	c #94BC3F",
"p 	c #81AC39",
"q 	c #8EB83E",
"r 	c #84AF3A",
"s 	c #7CA738",
"t 	c #8FB83E",
"u 	c #8CB43D",
"v 	c #89B23C",
"w 	c #89B43C",
"x 	c #95BE3F",
"y 	c #9AC140",
"z 	c #9CC040",
"A 	c #93BC3F",
"B 	c #8CB73D",
"C 	c #91BA3F",
"D 	c #94BD3F",
"E 	c #91BA3E",
"F 	c #FFE700",
"G 	c #8FB83D",
"H 	c #99BF40",
"I 	c #82AE3A",
"J 	c #78A436",
"K 	c #7FAB39",
"L 	c #7DA838",
"M 	c #8EB83D",
"N 	c #8DB63D",
"O 	c #89B23B",
"P 	c #88B23C",
"Q 	c #93BD3F",
"R 	c #8BB63D",
"S 	c #80AB3A",
"T 	c #80AC39",
"U 	c #85B13C",
"V 	c #82AC39",
"W 	c #7BA036",
"X 	c #81A638",
"Y 	c #87B03B",
"Z 	c #87B13C",
"` 	c #7EA939",
" .	c #7DA638",
"..	c #7AA437",
"+.	c #7BA838",
"@.	c #82AE39",
"#.	c #77A337",
"$.	c #7BA336",
"%.	c #7FA437",
"&.	c #84AD3A",
"*.	c #85B03A",
"=.	c #77A437",
"-.	c #8CB53D",
";.	c #8AB23C",
">.	c #769933",
",.	c #81A838",
"'.	c #89B53C",
").	c #7AA737",
"!.	c #8EB73C",
"~.	c #78A437",
"{.	c #88B33B",
"].	c #82AD39",
"^.	c #8CB33B",
"/.	c #8EB53D",
"(.	c #85AD3A",
"_.	c #8AB33C",
":.	c #93B93E",
"<.	c #91B93D",
"[.	c #92BC3E",
"}.	c #94BE3F",
"|.	c #84B03B",
"1.	c #98BF40",
"2.	c #97C040",
"3.	c #80AC3A",
"4.	c #92BD3F",
"5.	c #90BA3E",
"6.	c #92BB3E",
"7.	c #719F35",
"8.	c #8FBA3E",
"9.	c #7EA838",
"0.	c #80A939",
"a.	c #7DA939",
"b.	c #81AD3A",
"c.	c #83AF3A",
"d.	c #84B03A",
"e.	c #7FA537",
"f.	c #7DA135",
"g.	c #80A838",
"h.	c #7AA738",
"i.	c #7CA938",
"j.	c #6F9D34",
"k.	c #719D35",
"l.	c #8CB63C",
"m.	c #91BB3E",
"n.	c #82AE3B",
"o.	c #666666",
"p.	c #709B34",
"q.	c #7DA337",
"r.	c #7EA938",
"s.	c #7BA938",
"t.	c #6F9C35",
"u.	c #749C34",
"v.	c #759C34",
"w.	c #7AA336",
"x.	c #79A538",
"y.	c #83AF3B",
"z.	c #7FAA38",
"A.	c #7BA537",
"B.	c #8FB73D",
"C.	c #8CB33C",
"D.	c #93BA3E",
"E.	c #8DB83E",
"F.	c #86AF3A",
"G.	c #8FB43C",
"H.	c #96BE3F",
"I.	c #95BD3F",
"J.	c #95BE40",
"K.	c #8DB83D",
"L.	c #89B33C",
"M.	c #85AF3B",
"N.	c #7DA839",
"O.	c #77A136",
"P.	c #7EA638",
"Q.	c #79A336",
"R.	c #86AE3A",
"S.	c #789734",
"T.	c #7C9E36",
"U.	c #90BA3D",
"V.	c #9ABF40",
"W.	c #96BD40",
"X.	c #7FAA3A",
"Y.	c #80A637",
"Z.	c #82A437",
"`.	c #76A437",
" +	c #7AA637",
".+	c #86B03B",
"++	c #90B63C",
"@+	c #98BB3F",
"#+	c #97BE40",
"$+	c #83AB39",
"%+	c #77A436",
"&+	c #86B13A",
"*+	c #98C040",
"=+	c #99BE40",
"-+	c #91B93E",
";+	c #799B34",
">+	c #7A9E34",
",+	c #98C140",
"'+	c #92BC3F",
")+	c #80AD39",
"!+	c #82AC3A",
"~+	c #749B34",
"{+	c #7EA236",
"]+	c #82A938",
"^+	c #7BA236",
"/+	c #7EA537",
"(+	c #81AA39",
"_+	c #7DA236",
":+	c #7EA337",
"<+	c #74A035",
"[+	c #779F35",
"}+	c #769E35",
"|+	c #83A838",
"1+	c #75A237",
"2+	c #7DA336",
"3+	c #84A938",
"4+	c #8EB93E",
"5+	c #8BB63C",
"6+	c #8AB33B",
"7+	c #729C34",
"8+	c #90B83E",
"9+	c #84AE3B",
"0+	c #89B13B",
"a+	c #7DA738",
"b+	c #8FB63D",
"c+	c #88B13B",
"d+	c #89B03B",
"e+	c #87B03C",
"f+	c #89B43D",
"g+	c #8CB53C",
"h+	c #91BB3F",
"i+	c #96BF3F",
"j+	c #8EB63D",
"k+	c #88B03B",
"l+	c #8EB73E",
"m+	c #719E34",
"n+	c #79A537",
"o+	c #84AB39",
"p+	c #7EAB39",
"q+	c #FF0000",
"r+	c #87AF3B",
". + @ # $ % & * = - ; > , ' @ ) ! ~ ! { ] ) ^ / . + @ # $ % & * = - ; > , ' @ ) ! ~ ! { ] ) ^ / ",
"( _ : < { ! [ } | 1 2 3 @ 4 5 $ 6 6 6 7 6 6 6 6 6 6 7 6 6 6 6 6 | 1 2 3 @ 4 5 $ 3 1 | 8 9 0 8 a ",
"b c d e ! f g h i j k l m 8 n 6 7 7 7 7 7 6 7 7 7 7 7 7 7 7 7 7 6 6 k l m 8 n o p * q r s 5 # 0 ",
"l t u v w 1 x y z A B C D E 6 F 6 6 7 7 7 7 6 7 7 7 7 6 7 7 7 6 6 7 6 C D E G H E * I w J K $ L ",
"] x | 3 M N O w | o m i q 6 F F F F 6 6 6 7 7 7 6 7 7 6 6 7 6 7 7 7 7 6 q m P w Q R 4 S T q M ) ",
"m U 5 & V W X Y # P k Z 6 6 F F F F F F F 6 6 6 6 6 7 7 7 7 7 7 6 6 7 6 6 T ` : K  ...+.$ B @.; ",
"% #.) $ $.%.&., { *.8 =.6 7 6 6 6 F F F F F F F F 6 6 6 6 7 7 7 7 6 7 7 6 6 - -.;.>.,.M '.I ).!.",
"~.#.{.].^./.a s = + $ 6 6 7 7 7 7 6 6 6 F F F F F F F F 6 6 6 7 7 7 7 7 7 6 (._.:.<.[.}.E 8 ) N ",
"w |.*.M 1.1.2.[.{ 0 3.6 7 6 6 7 7 7 7 7 6 6 6 6 F F F F F F F 6 6 6 6 7 7 6 w w 8 4.5.: 8 A 6.3 ",
"C ~.7.k ! *.8.B k h # 6 7 7 7 7 6 6 7 7 7 7 7 7 6 6 6 F F F F F F F 6 6 6 6 9.0.|.k = ~ w 9 w m ",
"{ I a.b.I c.r w r # B d.6 7 7 7 7 6 6 7 6 6 6 6 7 7 6 6 6 6 6 F F F F F F 6 e.f.g.h.i.0 j.k.P 5.",
"` L l.-.5.A l w m.i 3 n.6 6 7 7 7 7 7 7 6 o.6 o.6 6 6 o.6 7 7 6 6 6 F F 6 p.e.q.$.r.s.t.u.v.w.' ",
"x.l x | / 5.8 3 | m I y./ 6 6 6 7 6 6 6 o.o.o.o.o.o.o.o.o.6 6 6 7 6 6 6 / y.z.A.B.E ! L C.D.M ! ",
"E.t q ) T &.' # F.5 |.g G.H.m 6 7 6 6 o.o.o.o.o.o.o.o.o.o.o.6 6 7 6 |.g G.H.m I.J.m.K.l.k L.w G ",
"! M.9 N.$ O.P.L.Q...R.S.T.G U.6 7 6 o.o.o.o.7 o.o.o.7 o.o.o.o.6 7 6 R.S.T.G U.V.W.L.w c.5 X.0 8 ",
"r / R I # & u.+.| 8 Y.Z.' `.|.6 7 6 o.o.o.o.7 6 o.o.7 6 o.o.o.6 7 6 Y.Z.' `.|.K.6.i | ) K  +_ .+",
" +@ / r ) | ++@+#+q d ' R / }.6 7 6 o.o.o.o.7 6 o.o.7 6 o.o.o.6 7 6 d ' R / }._.$+| 2 %+I &+i.k ",
".+1 M D . a *+=+-+{..+K M 2.R.6 7 6 o.o.o.o.o.o.o.o.o.o.o.o.o.6 7 6 .+K M 2.R.;+>+< ) l.2.m = h.",
"C ,+'+i C E L.)+c ].!++ *.9.~+6 7 6 o.o.6 o.o.o.o.o.o.o.6 o.o.6 7 6 !++ *.9.~+{+]+^+/+k Z 4 c $ ",
"R M E 1 ' c e.(+V _+:+<+j.< 6 6 7 6 o.o.o.6 o.o.o.o.o.6 o.o.o.6 7 6 6 <+j.< (.[+}+|+X : 1+2+3+4+",
"p 1 M 5+p = V $+6+.+u.7+l 6 6 6 6 6 o.o.o.o.6 6 6 6 6 o.o.o.o.6 6 6 6 6 l 8+; 9+#+-+0+a+< b+c+) ",
"8 i k 0 9 d+e+f+g+3.s -.6 7 6 F F 6 6 o.o.o.o.o.o.o.o.o.o.o.6 6 F F 6 7 6 * n.D L.h+i+L.j+6.o | ",
"'+) 9 ) m / G B i.# k+6 7 7 6 F F 6 7 6 o.o.o.o.o.o.o.o.o.6 7 6 F F 6 7 7 6 k w w | .+' G . l+| ",
"M + L .+@ l i.~.m+n+o+6 7 7 6 F F 6 7 7 6 o.o.o.6 o.o.o.6 7 7 6 F F 6 7 6 6 K 3 M 5 7.p+' I K 3.",
". + @ # $ % & * = - ; 6 6 7 6 F F 6 7 7 7 6 6 6 6 6 6 6 7 7 7 6 F F 6 7 7 6 @ ) ! ~ ! { ] ) ^ / ",
"( _ : < { ! [ } | 1 2 6 7 7 6 F F 6 7 7 6 7 7 7 7 7 7 7 6 7 7 6 F F 6 7 7 6 5 $ 3 1 | 8 9 0 8 a ",
"b c d e 6 6 6 6 6 6 6 6 7 7 6 F F 6 7 6 7 7 7 6 7 7 7 7 7 7 6 6 F F 6 7 7 6 6 F F 6 6 6 6 5 # 0 ",
"l t u v 6 q+q+7 7 7 7 7 7 7 6 F F 6 7 7 7 7 7 7 7 7 7 7 7 6 7 6 F F 6 7 7 7 6 F F 6 q+q+6 K $ L ",
"] x | 3 6 q+q+7 7 7 7 7 7 7 6 F F 6 7 7 6 6 7 7 6 7 7 7 6 7 7 6 F F 6 6 7 7 6 F F 6 q+q+6 q M ) ",
"m U 5 & 6 q+q+6 6 6 6 6 7 6 F F F F 6 7 7 6 7 6 7 6 7 6 7 7 6 F F F F 6 7 6 6 F F 6 q+q+6 B @.; ",
"% #.) $ $.%.&., { *.8 6 6 F F F F F F 6 7 7 7 7 7 7 7 7 7 6 F F F F F F 6 6 - 6 6 >.,.M '.I ).!.",
"~.#.{.].^./.a s = + $ 6 F F F F F F F F 6 6 6 6 6 6 6 6 6 F F F F F F F F 6 (._.:.<.[.}.E 8 ) N ",
"w |.*.M 1.1.2.[.{ 0 3.6 F F F F F F F F F F F F F F F F F F F F F F F F F 6 w w 8 4.5.: 8 A 6.3 ",
"C ~.7.k ! *.8.B k h # 6 F F F F F F F F F F F F F F F F F F F F F F F F F 6 9.0.|.k = ~ w 9 w m ",
"{ I a.b.I c.r w r # B 6 F F F F F F F F F F F F F F F F F F F F F F F F F 6 e.f.g.h.i.0 j.k.P 5.",
"` L l.-.5.A l w m.i 3 6 F F F F F F F F F F F F F F F F F F F F F F F F F 6 e.q.$.r.s.t.u.v.w.' ",
"x.l x | / 5.8 3 | m I 6 F F F F F F F F F F F F F F F F F F F F F F F F F 6 z.A.B.E ! L C.D.M ! ",
"E.t q ) T &.' # F.5 |.6 F F F F F F F F F F F F F F F F F F F F F F F F F 6 m I.J.m.K.l.k L.w G ",
"! M.9 N.$ O.P.L.Q...R.6 F F F F F F F F F F F F F F F F F F F F F F F F F 6 U.V.W.L.w c.5 X.0 8 ",
"r / R I # & u.+.| 8 Y.Z.6 F F F F F F F F F F F F F F F F F F F F F F F 6 `.|.K.6.i | ) K  +_ .+",
" +@ / r ) | ++@+#+q d ' R 6 F F F F F F F F F F F F F F F F F F F F F 6 R / }._.$+| 2 %+I &+i.k ",
".+1 M D . a *+=+-+{..+K M 2.6 6 6 6 6 6 7 6 6 6 6 6 6 6 7 6 6 6 6 6 6 K M 2.R.;+>+< ) l.2.m = h.",
"C ,+'+i C E L.)+c ].!++ *.9.~+{+]+^+/+6 7 6 c $ C ,+'+6 7 6 L.)+c ].!++ *.9.~+{+]+^+/+k Z 4 c $ ",
"R M E 1 ' c e.(+V _+:+<+j.< (.[+}+|+X 6 7 6 3+4+R M E 6 7 6 e.(+V _+:+<+j.< (.[+}+|+X : 1+2+3+4+",
"p 1 M 5+p = V $+6+.+u.7+l 8+; 9+#+-+0+6 7 6 c+) p 1 M 6 7 6 V $+6+.+u.7+l 8+; 9+#+-+0+a+< b+c+) ",
"8 i k 0 9 d+e+f+g+3.s -.'+* n.D L.h+6 q+q+q+6 | 8 i 6 q+q+q+6 f+g+3.s -.'+* n.D L.h+i+L.j+6.o | ",
"'+) 9 ) m / G B i.# k+r+& : k w w 6 q+q+q+q+q+6 '+6 q+q+q+q+q+6 i.# k+r+& : k w w | .+' G . l+| ",
"M + L .+@ l i.~.m+n+o+%.,.h K 3 M 6 6 6 6 6 6 6 M 6 6 6 6 6 6 6 m+n+o+%.,.h K 3 M 5 7.p+' I K 3."};
