/* XPM */
static char * SheepYCL_xpm[] = {
"48 48 245 2",
"  	c None",
". 	c #8CB63D",
"+ 	c #7EAA38",
"@ 	c #85B03B",
"# 	c #8AB53D",
"$ 	c #88B33C",
"% 	c #80AB39",
"& 	c #7BA738",
"* 	c #7EAA39",
"= 	c #87B13B",
"- 	c #83AC3A",
"; 	c #85AE3A",
"> 	c #88B23B",
", 	c #7FA838",
"' 	c #7DA938",
") 	c #7FAA39",
"! 	c #84AE3A",
"~ 	c #8BB53D",
"{ 	c #83AE3A",
"] 	c #86B13B",
"^ 	c #85B13B",
"/ 	c #8FB93D",
"( 	c #92BB3F",
"_ 	c #8AB43C",
": 	c #81AC3A",
"< 	c #84AF3B",
"[ 	c #8DB73D",
"} 	c #8EB73D",
"| 	c #87B23B",
"1 	c #7CA838",
"2 	c #75A236",
"3 	c #86B23B",
"4 	c #000000",
"5 	c #7CA638",
"6 	c #749D34",
"7 	c #7FA938",
"8 	c #82AD3A",
"9 	c #78A537",
"0 	c #7AA537",
"a 	c #7CA738",
"b 	c #84AF3A",
"c 	c #8EB83E",
"d 	c #81AC39",
"e 	c #94BC3F",
"f 	c #93BB3E",
"g 	c #8FB93E",
"h 	c #87B23C",
"i 	c #8AB53C",
"j 	c #93BD3E",
"k 	c #FFFFFF",
"l 	c #90B93E",
"m 	c #8BB43C",
"n 	c #85AF3A",
"o 	c #83AC39",
"p 	c #82AB39",
"q 	c #88AF3B",
"r 	c #81AB39",
"s 	c #73A036",
"t 	c #7DA838",
"u 	c #7FAB39",
"v 	c #78A436",
"w 	c #89B43C",
"x 	c #82AE3A",
"y 	c #91BA3E",
"z 	c #99BF40",
"A 	c #8FB83D",
"B 	c #94BD3F",
"C 	c #91BA3F",
"D 	c #8CB73D",
"E 	c #FFE700",
"F 	c #93BC3F",
"G 	c #9CC040",
"H 	c #9AC140",
"I 	c #95BE3F",
"J 	c #89B23C",
"K 	c #8CB43D",
"L 	c #8FB83E",
"M 	c #8EB83D",
"N 	c #80AC39",
"O 	c #80AB3A",
"P 	c #8BB63D",
"Q 	c #93BD3F",
"R 	c #88B23C",
"S 	c #89B23B",
"T 	c #8DB63D",
"U 	c #82AE39",
"V 	c #7BA838",
"W 	c #7AA437",
"X 	c #7DA638",
"Y 	c #7EA939",
"Z 	c #83AD3A",
"` 	c #87B13C",
" .	c #87B03B",
"..	c #81A638",
"+.	c #7BA036",
"@.	c #82AC39",
"#.	c #85B13C",
"$.	c #8EB73C",
"%.	c #7AA737",
"&.	c #89B53C",
"*.	c #81A838",
"=.	c #769933",
"-.	c #8AB23C",
";.	c #8CB53D",
">.	c #7AA236",
",.	c #729E34",
"'.	c #77A437",
").	c #85B03A",
"!.	c #84AD3A",
"~.	c #7FA437",
"{.	c #7BA336",
"].	c #77A337",
"^.	c #94BE3F",
"/.	c #92BC3E",
"(.	c #91B93D",
"_.	c #93B93E",
":.	c #8AB33C",
"<.	c #85AD3A",
"[.	c #75A237",
"}.	c #8EB53D",
"|.	c #8CB33B",
"1.	c #82AD39",
"2.	c #88B33B",
"3.	c #78A437",
"4.	c #92BB3E",
"5.	c #90BA3E",
"6.	c #92BD3F",
"7.	c #83AF3A",
"8.	c #80AC3A",
"9.	c #97C040",
"0.	c #98BF40",
"a.	c #84B03B",
"b.	c #80A939",
"c.	c #7EA838",
"d.	c #8CB63C",
"e.	c #8FBA3E",
"f.	c #719F35",
"g.	c #719D35",
"h.	c #6F9D34",
"i.	c #7CA938",
"j.	c #7AA738",
"k.	c #80A838",
"l.	c #7DA135",
"m.	c #7FA537",
"n.	c #7CA737",
"o.	c #84B03A",
"p.	c #81AD3A",
"q.	c #7DA939",
"r.	c #7AA336",
"s.	c #759C34",
"t.	c #749C34",
"u.	c #6F9C35",
"v.	c #7BA938",
"w.	c #7EA938",
"x.	c #7DA337",
"y.	c #709B34",
"z.	c #82AE3B",
"A.	c #666666",
"B.	c #91BB3E",
"C.	c #93BA3E",
"D.	c #8CB33C",
"E.	c #8FB73D",
"F.	c #7BA537",
"G.	c #7FAA38",
"H.	c #83AF3B",
"I.	c #79A538",
"J.	c #89B33C",
"K.	c #8DB83D",
"L.	c #95BE40",
"M.	c #95BD3F",
"N.	c #96BE3F",
"O.	c #8FB43C",
"P.	c #86AF3A",
"Q.	c #8DB83E",
"R.	c #7FAA3A",
"S.	c #96BD40",
"T.	c #9ABF40",
"U.	c #90BA3D",
"V.	c #7C9E36",
"W.	c #789734",
"X.	c #86AE3A",
"Y.	c #79A336",
"Z.	c #7EA638",
"`.	c #77A136",
" +	c #7DA839",
".+	c #85AF3B",
"++	c #86B03B",
"@+	c #7AA637",
"#+	c #76A437",
"$+	c #82A437",
"%+	c #80A637",
"&+	c #86B13A",
"*+	c #77A436",
"=+	c #83AB39",
"-+	c #97BE40",
";+	c #98BB3F",
">+	c #90B63C",
",+	c #7A9E34",
"'+	c #799B34",
")+	c #91B93E",
"!+	c #99BE40",
"~+	c #98C040",
"{+	c #7EA537",
"]+	c #7BA236",
"^+	c #82A938",
"/+	c #7EA236",
"(+	c #749B34",
"_+	c #82AC3A",
":+	c #80AD39",
"<+	c #92BC3F",
"[+	c #98C140",
"}+	c #8EB93E",
"|+	c #84A938",
"1+	c #7DA336",
"2+	c #83A838",
"3+	c #769E35",
"4+	c #779F35",
"5+	c #74A035",
"6+	c #7EA337",
"7+	c #7DA236",
"8+	c #81AA39",
"9+	c #88B13B",
"0+	c #8FB63D",
"a+	c #7DA738",
"b+	c #89B13B",
"c+	c #84AE3B",
"d+	c #90B83E",
"e+	c #729C34",
"f+	c #8AB33B",
"g+	c #8BB63C",
"h+	c #8EB63D",
"i+	c #96BF3F",
"j+	c #91BB3F",
"k+	c #8CB53C",
"l+	c #89B43D",
"m+	c #87B03C",
"n+	c #89B03B",
"o+	c #8EB73E",
"p+	c #87AF3B",
"q+	c #88B03B",
"r+	c #7EAB39",
"s+	c #84AB39",
"t+	c #79A537",
"u+	c #719E34",
"v+	c #FF0000",
". + @ # $ % & % @ * = - ; > , ' ) ! ~ { ] * ^ / . + @ # $ % & % @ * = - ; > , ' ) ! ~ { ] * ^ / ",
"( _ : < _ [ } | { 1 2 * | 3 } [ 4 4 4 4 4 4 4 4 4 4 4 4 4 4 4 | { 1 2 * | 3 } [ 5 6 % $ 7 8 9 0 ",
": ] 1 a b c ) d e f _ g h i j 4 4 k k k 4 4 k k k k 4 k k k 4 4 4 f _ g h i j l m n o % p q r s ",
"t { u v w x ) y z A y B C D 4 E E 4 4 k k k k k 4 k k k k k k k 4 4 y B C D F G H I } w J K L h ",
"@ M c N O 2 P Q w R g c l 4 E E E E E 4 4 k k 4 k k k k k 4 k k k 4 4 c l g e [ w S T M | [ I # ",
"> U D { V W X u 8 Y N Z ` 4 4 4 E E E E E 4 4 4 k k k k k k 4 k k k 4 4 ` i R ]  ...+.@.! 1 #.g ",
"$.%.x &.M *.=.-.;., >.,.'.4 k k 4 4 E E E E E E 4 4 4 4 k k 4 4 k 4 k 4 4 _ ).$ - !.~.{.{ @ ].~ ",
"T @ _ y ^./.(._.:.<.<.& [.4 k k k k 4 4 E E E E E E E E 4 k k k k k k k 4 { ^ ' a ( }.|.1.2.].3.",
"| 4.F _ 8 5.6._ w w [ $ 7.4 k k k k k k 4 4 4 E E E E E E 4 4 4 4 k k k 4 8.: $ /.9.0.0.M ).a.w ",
"g w < w & ' i a.b.c.. d.$ 4 4 k k k k k k k k 4 4 E E E E E E E E 4 4 k 4 ] m i D e.).% i f.3.C ",
"5.R g.h.: i.j.k.l.m.n.V o.D 4 4 k k 4 4 4 4 k k k 4 4 4 E E E E E E E 4 4 D ] b w b 7.x p.q.x $ ",
"= r.s.t.u.v.w.{.x.m.y.2 z.| l 4 4 4 A.4 A.4 k k k k k k 4 4 4 E E E E 4 4 | l B.w h F 5.;.d.t Y ",
"% M C.D.t % y E.F.G.H.. H.x g [ 4 A.A.A.A.A.4 4 4 k k k 4 k k 4 4 4 E E 4 x g [ | _ 5.. [ I h I.",
"A w J.i d.K.B.L.M.g N.O.n a.1 P.4 A.A.A.A.A.A.4 4 k k k 4 k k k k 4 E E 4 a.1 P.] = !.N @ c L Q.",
"_ : R.1 7.w J.S.T.U.A V.W.X.W Y.4 A.A.k A.A.A.A.4 k k k 4 k k k k 4 4 4 W.X.W Y.J.Z.`.{  +< .+% ",
"++9 @+u @ [ l 4.K.a.#+= $+%+_ [ 4 A.4 k A.A.A.A.4 k 4 k 4 k k k 4 4 #+= $+%+_ [ V t.! ] x P . b ",
"i i.&+x *+3 [ =+:.^.. P = q c -+4 A.4 k A.A.A.A.4 4 k k 4 k k 4 4 ^.. P = q c -+;+>+[ @ b . * @+",
"j.' g 9.d.@ 7 ,+'+X.9.M u ++2.)+4 A.A.A.A.A.A.A.4 k k k 4 4 4 4 '+X.9.M u ++2.)+!+~+( / B M } ++",
"{ r 2 ` i {+]+^+/+(+c.).^ _+1.r 4 A.A.A.A.4 A.A.4 k k 4 4 {+]+^+/+(+c.).^ _+1.r :+J.y C l <+[+C ",
"}+|+1+[.8 ..2+3+4+<.7 h.5+6+7+@.4 A.A.A.4 A.A.A.4 k k k 4 4 4 3+4+<.7 h.5+6+7+@.8+m.r = } y M P ",
"@ 9+0+7 a+b+)+-+c+> d+h e+t.++f+4 4 4 4 A.A.A.A.4 4 4 4 4 k 4 4 c+> d+h e+t.++f+=+@.' d g+M } d ",
"[ e 4.h+J.i+j+J.B z.) <+;.a 8.k+4 A.A.A.A.A.A.4 4 E 4 k k k k 4 B z.) <+;.a 8.k+l+m+n+< : i l _ ",
"[ o+/ A = ++[ w w i 8 ! p+q+] i.4 4 A.A.A.A.4 4 E E 4 k k k k 4 4 i 8 ! p+q+] i.D A . g @ < @ <+",
"8.u x = r+f.1 M | u m *.~.s+t+u+3.4 4 4 A.4 k 4 E E 4 4 k 4 4 k 4 u m *.~.s+t+u+3.i.h * ++t ^ M ",
". + @ # $ % & % @ * = - ; > , ' ) ! ~ 4 4 k k 4 E E E 4 k 4 k k 4 * = - ; > , ' ) ! ~ { ] * ^ / ",
"( _ : < _ [ } | { 1 2 * | 3 } [ 5 6 % 4 k 4 4 E E E E E 4 k k 4 4 1 2 * | 3 } [ 5 6 % $ 7 8 9 0 ",
": ] 1 a b c ) d e f _ g h i j l m n o 4 k 4 E 4 k k 4 E 4 k k k 4 f _ g h i j l m n o % p q r s ",
"t { u v w x ) y z A y B C D F G H I 4 4 k 4 E 4 k k 4 E 4 4 k k 4 A y B C D F G H I } w J K L h ",
"@ M c N O 2 P Q w R g c l g e [ w S 4 k k 4 E 4 k k 4 E 4 k 4 4 4 R g c l g e [ w S T M | [ I # ",
"> U D { V W X u 8 Y N Z ` i R ]  ...4 k 4 E E 4 k k 4 E 4 k k k 4 Y N Z ` i R ]  ...+.@.! 1 #.g ",
"$.%.x &.M *.=.-.;., >.,.'._ ).$ - 4 4 4 E E E 4 k k 4 E E 4 4 4 4 , >.,.'._ ).$ - !.~.{.{ @ ].~ ",
"T @ _ y ^./.(._.:.<.<.& [.{ ^ ' a 4 E E E E E 4 k k 4 E E E E E 4 <.<.& [.{ ^ ' a ( }.|.1.2.].3.",
"| 4.F _ 8 5.6._ w w [ $ 7.8.: $ 4 4 E E E E E 4 k 4 4 E E E E E 4 w [ $ 7.8.: $ /.9.0.0.M ).a.w ",
"g w < w & ' i a.b.c.. d.$ ] m i 4 E E E E E E 4 E E 4 E E E E E 4 c.. d.$ ] m i D e.).% i f.3.C ",
"5.R g.h.: i.j.k.l.m.n.V o.D ] b 4 E E E E E E 4 E E 4 E E E E E 4 m.n.V o.D ] b w b 7.x p.q.x $ ",
"= r.s.t.u.v.w.{.x.m.y.2 z.| l B.4 E E E E E E 4 k k 4 E E E E E 4 m.y.2 z.| l B.w h F 5.;.d.t Y ",
"% M C.D.t % y E.F.G.H.. H.x g [ 4 E E E E E 4 v+v+v+4 E E E E 4 4 G.H.. H.x g [ | _ 5.. [ I h I.",
"A w J.i d.K.B.L.M.g N.O.n a.1 P.4 E E E E E 4 v+v+v+4 E E E E 4 M.g N.O.n a.1 P.] = !.N @ c L Q.",
"_ : R.1 7.w J.S.T.U.A V.W.X.W Y.4 4 E E E E E 4 4 4 4 E E E E 4 T.U.A V.W.X.W Y.J.Z.`.{  +< .+% ",
"++9 @+u @ [ l 4.K.a.#+= $+%+_ [ V 4 E E E E E E E E E E E E 4 4 K.a.#+= $+%+_ [ V t.! ] x P . b ",
"i i.&+x *+3 [ =+:.^.. P = q c -+;+4 4 E E E E E E E E E E 4 4 =+:.^.. P = q c -+;+>+[ @ b . * @+",
"j.' g 9.d.@ 7 ,+'+X.9.M u ++2.)+!+~+4 4 4 k 4 4 4 4 4 k 4 4 7 ,+'+X.9.M u ++2.)+!+~+( / B M } ++",
"{ r 2 ` i {+]+^+/+(+c.).^ _+1.r :+J.y C 4 k 4 C { r 4 k 4 {+]+^+/+(+c.).^ _+1.r :+J.y C l <+[+C ",
"}+|+1+[.8 ..2+3+4+<.7 h.5+6+7+@.8+m.r = 4 k 4 P }+|+4 k 4 ..2+3+4+<.7 h.5+6+7+@.8+m.r = } y M P ",
"@ 9+0+7 a+b+)+-+c+> d+h e+t.++f+=+@.' d 4 k 4 d @ 9+4 k 4 b+)+-+c+> d+h e+t.++f+=+@.' d g+M } d ",
"[ e 4.h+J.i+j+J.B z.) <+;.a 8.k+l+m+n+4 v+v+4 _ [ 4 v+v+4 i+j+J.B z.) <+;.a 8.k+l+m+n+< : i l _ ",
"[ o+/ A = ++[ w w i 8 ! p+q+] i.D A 4 v+v+v+4 <+4 v+v+v+4 ++[ w w i 8 ! p+q+] i.D A . g @ < @ <+",
"8.u x = r+f.1 M | u m *.~.s+t+u+3.i.4 4 4 4 4 M 4 4 4 4 4 f.1 M | u m *.~.s+t+u+3.i.h * ++t ^ M "};
