/* XPM */
static char * Shower_xpm[] = {
"48 48 244 2",
"  	c None",
". 	c #8FB93D",
"+ 	c #85B13B",
"@ 	c #7EAA39",
"# 	c #86B13B",
"$ 	c #83AE3A",
"% 	c #8BB53D",
"& 	c #84AE3A",
"* 	c #7FAA39",
"= 	c #7DA938",
"- 	c #7FA838",
"; 	c #88B23B",
"> 	c #85AE3A",
", 	c #83AC3A",
"' 	c #87B13B",
") 	c #85B03B",
"! 	c #80AB39",
"~ 	c #7BA738",
"{ 	c #88B33C",
"] 	c #8AB53D",
"^ 	c #7EAA38",
"/ 	c #8CB63D",
"( 	c #7AA537",
"_ 	c #78A537",
": 	c #82AD3A",
"< 	c #7FA938",
"[ 	c #749D34",
"} 	c #7CA638",
"| 	c #8DB73D",
"1 	c #8EB73D",
"2 	c #86B23B",
"3 	c #87B23B",
"4 	c #75A236",
"5 	c #7CA838",
"6 	c #8AB43C",
"7 	c #84AF3B",
"8 	c #81AC3A",
"9 	c #92BB3F",
"0 	c #73A036",
"a 	c #81AB39",
"b 	c #88AF3B",
"c 	c #82AB39",
"d 	c #83AC39",
"e 	c #85AF3A",
"f 	c #8BB43C",
"g 	c #90B93E",
"h 	c #93BD3E",
"i 	c #8AB53C",
"j 	c #87B23C",
"k 	c #8FB93E",
"l 	c #93BB3E",
"m 	c #94BC3F",
"n 	c #81AC39",
"o 	c #8EB83E",
"p 	c #84AF3A",
"q 	c #7CA738",
"r 	c #8FB83E",
"s 	c #8CB43D",
"t 	c #89B23C",
"u 	c #89B43C",
"v 	c #95BE3F",
"w 	c #9AC140",
"x 	c #9CC040",
"y 	c #93BC3F",
"z 	c #8CB73D",
"A 	c #91BA3F",
"B 	c #94BD3F",
"C 	c #91BA3E",
"D 	c #8FB83D",
"E 	c #99BF40",
"F 	c #82AE3A",
"G 	c #78A436",
"H 	c #7FAB39",
"I 	c #7DA838",
"J 	c #8EB83D",
"K 	c #8DB63D",
"L 	c #89B23B",
"M 	c #88B23C",
"N 	c #93BD3F",
"O 	c #8BB63D",
"P 	c #80AB3A",
"Q 	c #80AC39",
"R 	c #85B13C",
"S 	c #82AC39",
"T 	c #7BA036",
"U 	c #81A638",
"V 	c #87B03B",
"W 	c #87B13C",
"X 	c #83AD3A",
"Y 	c #7EA939",
"Z 	c #7DA638",
"` 	c #7AA437",
" .	c #7BA838",
"..	c #82AE39",
"+.	c #77A337",
"@.	c #7BA336",
"#.	c #7FA437",
"$.	c #84AD3A",
"%.	c #85B03A",
"&.	c #77A437",
"*.	c #729E34",
"=.	c #7AA236",
"-.	c #8CB53D",
";.	c #8AB23C",
">.	c #769933",
",.	c #81A838",
"'.	c #89B53C",
").	c #7AA737",
"!.	c #8EB73C",
"~.	c #585858",
"{.	c #78A437",
"].	c #88B33B",
"^.	c #82AD39",
"/.	c #8CB33B",
"(.	c #8EB53D",
"_.	c #75A237",
":.	c #85AD3A",
"<.	c #8AB33C",
"[.	c #93B93E",
"}.	c #91B93D",
"|.	c #92BC3E",
"1.	c #94BE3F",
"2.	c #84B03B",
"3.	c #98BF40",
"4.	c #97C040",
"5.	c #80AC3A",
"6.	c #83AF3A",
"7.	c #92BD3F",
"8.	c #90BA3E",
"9.	c #92BB3E",
"0.	c #719F35",
"a.	c #8FBA3E",
"b.	c #8CB63C",
"c.	c #7EA838",
"d.	c #80A939",
"e.	c #7DA939",
"f.	c #81AD3A",
"g.	c #84B03A",
"h.	c #7CA737",
"i.	c #7FA537",
"j.	c #7DA135",
"k.	c #80A838",
"l.	c #7AA738",
"m.	c #7CA938",
"n.	c #6F9D34",
"o.	c #719D35",
"p.	c #91BB3E",
"q.	c #82AE3B",
"r.	c #709B34",
"s.	c #7DA337",
"t.	c #7EA938",
"u.	c #7BA938",
"v.	c #6F9C35",
"w.	c #749C34",
"x.	c #759C34",
"y.	c #7AA336",
"z.	c #79A538",
"A.	c #83AF3B",
"B.	c #7FAA38",
"C.	c #7BA537",
"D.	c #8FB73D",
"E.	c #8CB33C",
"F.	c #93BA3E",
"G.	c #8DB83E",
"H.	c #86AF3A",
"I.	c #8FB43C",
"J.	c #96BE3F",
"K.	c #95BD3F",
"L.	c #95BE40",
"M.	c #8DB83D",
"N.	c #271BFD",
"O.	c #1BBFFD",
"P.	c #89B33C",
"Q.	c #85AF3B",
"R.	c #7DA839",
"S.	c #77A136",
"T.	c #7EA638",
"U.	c #79A336",
"V.	c #86AE3A",
"W.	c #789734",
"X.	c #7C9E36",
"Y.	c #90BA3D",
"Z.	c #9ABF40",
"`.	c #96BD40",
" +	c #7FAA3A",
".+	c #80A637",
"++	c #82A437",
"@+	c #76A437",
"#+	c #7AA637",
"$+	c #86B03B",
"%+	c #90B63C",
"&+	c #98BB3F",
"*+	c #97BE40",
"=+	c #83AB39",
"-+	c #77A436",
";+	c #86B13A",
">+	c #98C040",
",+	c #99BE40",
"'+	c #91B93E",
")+	c #799B34",
"!+	c #7A9E34",
"~+	c #98C140",
"{+	c #92BC3F",
"]+	c #80AD39",
"^+	c #82AC3A",
"/+	c #749B34",
"(+	c #7EA236",
"_+	c #82A938",
":+	c #7BA236",
"<+	c #7EA537",
"[+	c #81AA39",
"}+	c #7DA236",
"|+	c #7EA337",
"1+	c #74A035",
"2+	c #779F35",
"3+	c #769E35",
"4+	c #83A838",
"5+	c #7DA336",
"6+	c #84A938",
"7+	c #8EB93E",
"8+	c #8BB63C",
"9+	c #8AB33B",
"0+	c #729C34",
"a+	c #90B83E",
"b+	c #84AE3B",
"c+	c #89B13B",
"d+	c #8FB63D",
"e+	c #88B13B",
"f+	c #7DA738",
"g+	c #89B03B",
"h+	c #87B03C",
"i+	c #89B43D",
"j+	c #8CB53C",
"k+	c #91BB3F",
"l+	c #96BF3F",
"m+	c #8EB63D",
"n+	c #88B03B",
"o+	c #87AF3B",
"p+	c #8EB73E",
"q+	c #719E34",
"r+	c #79A537",
"s+	c #84AB39",
"t+	c #7EAB39",
"u+	c #000000",
". + @ # $ % & * = - ; > , ' @ ) ! ~ ! { ] ) ^ / . + @ # $ % & * = - ; > , ' @ ) ! ~ ! { ] ) ^ / ",
"( _ : < { ! [ } | 1 2 3 @ 4 5 $ 3 1 | 6 7 8 6 9 ( _ : < { ! [ } | 1 2 3 @ 4 5 $ 3 1 | 6 7 8 6 9 ",
"0 a b c ! d e f g h i j k 6 l m n * o p q 5 # 8 0 a b c ! d e f g h i j k 6 l m n * o p q 5 # 8 ",
"j r s t u 1 v w x y z A B C D E C * F u G H $ I j r s t u 1 v w x y z A B C D E C * F u G H $ I ",
"] v | 3 J K L u | m k g o k M u N O 4 P Q o J ) ] v | 3 J K L u | m k g o k M u N O 4 P Q o J ) ",
"k R 5 & S T U V # M i W X Q Y : H Z `  .$ z ..; k R 5 & S T U V # M i W X Q Y : H Z `  .$ z ..; ",
"% +.) $ @.#.$., { %.6 &.*.=.- -.;.>.,.J '.F ).!.~.+.) $ @.#.$., { %.6 &.*.=.- -.;.>.,.J '.F ).!.",
"{.+.].^./.(.9 q = + $ _.~ :.:.<.[.}.|.1.C 6 ) ~.~.~.].^./.(.9 q = + $ _.~ :.:.<.[.}.|.1.C 6 ) K ",
"u 2.%.J 3.3.4.|.{ 8 5.6.{ | u u 6 7.8.: 6 y 9.~.~.~.%.J 3.3.4.|.{ 8 5.6.{ | u u 6 7.8.: 6 y 9.3 ",
"A {.0.i ! %.a.z i f # { b./ c.d.2.i = ~ u 7 ~.~.~.~.~.i ! %.a.z i f # { b./ c.d.2.i = ~ u 7 u k ",
"{ F e.f.F 6.p u p # z g. .h.i.j.k.l.m.8 n.~.~.~.~.~.~.~.F 6.p u p # z g. .h.i.j.k.l.m.8 n.o.M 8.",
"Y I b.-.8.y j u p.g 3 q.4 r.i.s.@.t.u.v.~.~.~.~.~.~.~.~.~.y j u p.g 3 q.4 r.i.s.@.t.u.v.w.x.y.' ",
"z.j v | / 8.6 3 | k F A./ A.B.C.D.C ! ~.~.~.~.~.~.~.~.~.~.~.6 3 | k F A./ A.B.C.D.C ! I E.F.J ! ",
"G.r o ) Q $.' # H.5 2.e I.J.k K.L.p.M.N.i O.u ~.N.~.o O.Q N.' # H.5 2.e I.J.k K.L.p.M.b.i P.u D ",
"! Q.7 R.$ S.T.P.U.` V.W.X.D Y.Z.`.P.u N.5  +8 ~.N.~.7 N.$ N.T.P.U.` V.W.X.D Y.Z.`.P.u 6.5  +8 6 ",
"p / O F # & w. .| 6 .+++' @+2.M.9.g | O.H N._ ~.O.~.O N.# O.w. .| 6 .+++' @+2.M.9.g | ) H #+_ $+",
"#+@ / p ) | %+&+*+o b ' O / 1.<.=+| 2 -+F N.m.~.~.~./ p ) O.%+&+*+o b ' O / 1.<.=+| 2 -+F ;+m.i ",
"$+1 J B . 9 >+,+'+].$+H J 4.V.)+!+< ) b.4.O.= ~.N.~.J B . 9 >+,+'+].$+H J 4.V.)+!+< ) b.4.k = l.",
"A ~+{+g A C P.]+a ^.^++ %.c./+(+_+:+<+i W 4 a ~.~.~.{+g A C P.]+a ^.^++ %.c./+(+_+:+<+i W 4 a $ ",
"O J C 1 ' a i.[+S }+|+1+n.< :.2+3+4+U N._.5+6+~.~.~.C N.' a i.[+S }+|+1+n.< :.2+3+4+U : _.5+6+7+",
"n 1 J 8+n = S =+9+$+w.0+j a+; b+*+'+c+N.< d+e+~.O.~.J O.n N.S =+9+$+w.0+j a+; b+*+'+c+f+< d+e+) ",
"6 g i 8 7 g+h+i+j+5.q -.{+* q.B P.k+l+O.m+O.m ~.N.~.i 8 7 N.h+i+j+5.q -.{+* q.B P.k+l+P.m+9.m | ",
"{+) 7 ) k / D z m.# n+o+& : i u u | $+' D N.p+~.N.~.7 O.k O.D z m.# n+o+& : i u u | $+' D . p+| ",
"J + I $+@ j m.{.q+r+s+#.,.f H 3 J 5 0.t+' N.H ~.~.~.I N.@ j m.{.q+r+s+#.,.f H 3 J 5 0.t+' F H 5.",
". + @ # $ % & * = - ; > , ' @ ) ! ~ ! { ] ) ^ ~.~.~.@ # $ O.& * = - ; > , ' @ ) ! ~ ! { ] ) ^ / ",
"( _ : < { ! [ } | 1 2 3 @ 4 5 $ 3 1 | N.7 8 6 ~.O.~.: < { N.[ } | 1 2 3 @ 4 5 $ 3 1 | 6 7 8 6 9 ",
"0 a b c ! d e f g h i j k 6 l m n * o N.q 5 # ~.N.~.b c ! N.e f g h i j k 6 l m n * o p q 5 # 8 ",
"j r s t u 1 v w x y z A B C D E C * F O.G O.$ ~.N.~.s N.u N.v w x y z A B C D E C * F u G H $ I ",
"] v | 3 J K L u | m k g o k M u N O 4 P Q N.J ~.O.~.| O.J K L u | m k g o k M u N O 4 P Q o J ) ",
"k R 5 & S T U V # M i W X Q Y : H Z `  .$ N...~.~.~.5 & S T U V # M i W X Q Y : H Z `  .$ z ..; ",
"% +.) $ @.#.$., { %.6 &.*.=.- -.;.>.,.N.'.F ).~.~.~.) N.@.N.$., { %.6 &.*.=.- -.;.>.,.J '.F ).!.",
"{.+.].^./.(.9 q = + $ _.~ :.:.<.[.}.|.N.C 6 ) ~.N.~.].O./.N.9 q = + $ _.~ :.:.<.[.}.|.1.C 6 ) K ",
"u 2.%.J 3.3.4.|.{ 8 5.6.{ | u u 6 7.8.O.6 y 9.~.N.~.%.J 3.3.4.|.{ 8 5.6.{ | u u 6 7.8.: 6 y 9.3 ",
"A {.0.i ! %.a.z i f # { b./ c.d.u+u+u+u+u+N.u+~.O.~.u+N.u+u+u+u+u+f # { b./ c.d.2.i = ~ u 7 u k ",
"{ F e.f.F 6.p u p # z g. .h.i.u+~.~.~.~.~.N.~.~.~.~.~.N.~.N.~.~.~.u+z g. .h.i.j.k.l.m.8 n.o.M 8.",
"Y I b.-.8.y j u p.g 3 q.4 r.u+~.~.~.~.~.~.O.~.~.~.N.~.O.~.~.~.~.~.~.u+q.4 r.i.s.@.t.u.v.w.x.y.' ",
"z.j v | / 8.6 3 | k F A./ u+N.~.~.u+~.N.~.~.~.~.~.~.~.~.~.~.~.u+~.~.~.u+/ A.B.C.D.C ! I E.F.J ! ",
"G.r o ) Q $.' # H.5 2.e u+~.O.N.u+~.~.O.N.~.~.~.~.~.~.~.~.~.~.~.u+O.N.N.u+J.k K.L.p.M.b.i P.u D ",
"! Q.7 R.$ S.T.P.U.` V.u+~.~.~.u+O.~.~.u+~.~.~.~.u+~.~.~.~.u+~.~.N.u+~.~.~.u+Y.Z.`.P.u 6.5  +8 6 ",
"p / O F # & w. .| 6 u+~.~.~.u+~.N.~.u+~.~.~.~.u+N.u+~.~.O.N.u+N.O.~.u+~.~.~.u+M.9.g | ) H #+_ $+",
"#+@ / p ) | %+&+*+u+~.~.~.u+~.~.~.u+~.~.N.~.u+N.O.O.u+~.N.~.~.u+~.~.~.u+~.~.~.u+=+| 2 -+F ;+m.i ",
"$+1 J B . 9 >+,+'+].u+~.~.N.u+~.~.~.u+~.~.~.~.u+N.u+~.~.~.~.u+~.~.~.u+N.O.~.u+)+!+< ) b.4.k = l.",
"A ~+{+g A C P.]+a ^.^+u+~.N.O.u+~.O.N.u+~.~.~.~.u+~.~.~.~.u+~.N.N.u+~.~.N.u+/+(+_+:+<+i W 4 a $ ",
"O J C 1 ' a i.[+S }+|+1+u+~.~.~.u+N.~.~.~.~.~.~.~.~.~.~.~.~.~.O.u+~.~.~.u+< :.2+3+4+U : _.5+6+7+",
"n 1 J 8+n = S =+9+$+w.0+j u+~.~.~.~.~.~.~.~.~.~.~.~.~.~.~.~.~.~.~.~.~.u+j a+; b+*+'+c+f+< d+e+) ",
"6 g i 8 7 g+h+i+j+5.q -.{+* u+u+u+u+u+u+u+u+u+u+u+u+u+u+u+u+u+u+u+u+u+-.{+* q.B P.k+l+P.m+9.m | ",
"{+) 7 ) k / D z m.# n+o+& : i u u | $+' D . p+| {+) 7 ) k / D z m.# n+o+& : i u u | $+' D . p+| ",
"J + I $+@ j m.{.q+r+s+#.,.f H 3 J 5 0.t+' F H 5.J + I $+@ j m.{.q+r+s+#.,.f H 3 J 5 0.t+' F H 5."};
