/* XPM */
static char * ShowerSansFont_xpm[] = {
"48 48 244 2",
"  	c #8FB93D",
". 	c #85B13B",
"+ 	c #7EAA39",
"@ 	c #86B13B",
"# 	c #83AE3A",
"$ 	c #8BB53D",
"% 	c #84AE3A",
"& 	c #7FAA39",
"* 	c #7DA938",
"= 	c #7FA838",
"- 	c #88B23B",
"; 	c #85AE3A",
"> 	c #83AC3A",
", 	c #87B13B",
"' 	c #85B03B",
") 	c #80AB39",
"! 	c #7BA738",
"~ 	c #88B33C",
"{ 	c #8AB53D",
"] 	c #7EAA38",
"^ 	c #8CB63D",
"/ 	c #7AA537",
"( 	c #78A537",
"_ 	c #82AD3A",
": 	c #7FA938",
"< 	c #749D34",
"[ 	c #7CA638",
"} 	c #8DB73D",
"| 	c #8EB73D",
"1 	c #86B23B",
"2 	c #87B23B",
"3 	c #75A236",
"4 	c #7CA838",
"5 	c #8AB43C",
"6 	c #84AF3B",
"7 	c #81AC3A",
"8 	c #92BB3F",
"9 	c #000000",
"0 	c #73A036",
"a 	c #81AB39",
"b 	c #88AF3B",
"c 	c #82AB39",
"d 	c #83AC39",
"e 	c #85AF3A",
"f 	c #8BB43C",
"g 	c #90B93E",
"h 	c #93BD3E",
"i 	c #8AB53C",
"j 	c #87B23C",
"k 	c #8FB93E",
"l 	c #93BB3E",
"m 	c #94BC3F",
"n 	c #81AC39",
"o 	c #8A8A8A",
"p 	c #8EB83E",
"q 	c #84AF3A",
"r 	c #7CA738",
"s 	c #8FB83E",
"t 	c #8CB43D",
"u 	c #89B23C",
"v 	c #89B43C",
"w 	c #95BE3F",
"x 	c #9AC140",
"y 	c #9CC040",
"z 	c #93BC3F",
"A 	c #8CB73D",
"B 	c #91BA3F",
"C 	c #94BD3F",
"D 	c #91BA3E",
"E 	c #8FB83D",
"F 	c #99BF40",
"G 	c #585858",
"H 	c #82AE3A",
"I 	c #78A436",
"J 	c #7FAB39",
"K 	c #7DA838",
"L 	c #8EB83D",
"M 	c #8DB63D",
"N 	c #89B23B",
"O 	c #88B23C",
"P 	c #93BD3F",
"Q 	c #8BB63D",
"R 	c #80AB3A",
"S 	c #80AC39",
"T 	c #85B13C",
"U 	c #82AC39",
"V 	c #7BA036",
"W 	c #81A638",
"X 	c #87B03B",
"Y 	c #87B13C",
"Z 	c #83AD3A",
"` 	c #7EA939",
" .	c #7DA638",
"..	c #7AA437",
"+.	c #7BA838",
"@.	c #82AE39",
"#.	c #77A337",
"$.	c #7BA336",
"%.	c #7FA437",
"&.	c #84AD3A",
"*.	c #85B03A",
"=.	c #77A437",
"-.	c #729E34",
";.	c #7AA236",
">.	c #8CB53D",
",.	c #8AB23C",
"'.	c #769933",
").	c #81A838",
"!.	c #89B53C",
"~.	c #7AA737",
"{.	c #8EB73C",
"].	c #78A437",
"^.	c #88B33B",
"/.	c #82AD39",
"(.	c #8CB33B",
"_.	c #8EB53D",
":.	c #75A237",
"<.	c #85AD3A",
"[.	c #92BC3E",
"}.	c #8AB33C",
"|.	c #93B93E",
"1.	c #91B93D",
"2.	c #94BE3F",
"3.	c #84B03B",
"4.	c #98BF40",
"5.	c #97C040",
"6.	c #80AC3A",
"7.	c #83AF3A",
"8.	c #90BA3E",
"9.	c #92BD3F",
"0.	c #92BB3E",
"a.	c #719F35",
"b.	c #8FBA3E",
"c.	c #8CB63C",
"d.	c #271BFD",
"e.	c #1BBFFD",
"f.	c #7EA838",
"g.	c #80A939",
"h.	c #7DA939",
"i.	c #81AD3A",
"j.	c #84B03A",
"k.	c #7CA737",
"l.	c #7CA938",
"m.	c #719D35",
"n.	c #7FA537",
"o.	c #7DA135",
"p.	c #80A838",
"q.	c #7AA738",
"r.	c #6F9D34",
"s.	c #91BB3E",
"t.	c #82AE3B",
"u.	c #709B34",
"v.	c #7BA938",
"w.	c #6F9C35",
"x.	c #759C34",
"y.	c #7DA337",
"z.	c #7EA938",
"A.	c #749C34",
"B.	c #7AA336",
"C.	c #79A538",
"D.	c #83AF3B",
"E.	c #93BA3E",
"F.	c #7FAA38",
"G.	c #7BA537",
"H.	c #8FB73D",
"I.	c #8CB33C",
"J.	c #8DB83E",
"K.	c #86AF3A",
"L.	c #8FB43C",
"M.	c #96BE3F",
"N.	c #8DB83D",
"O.	c #89B33C",
"P.	c #95BD3F",
"Q.	c #95BE40",
"R.	c #85AF3B",
"S.	c #7DA839",
"T.	c #77A136",
"U.	c #7EA638",
"V.	c #79A336",
"W.	c #86AE3A",
"X.	c #789734",
"Y.	c #7C9E36",
"Z.	c #7FAA3A",
"`.	c #90BA3D",
" +	c #9ABF40",
".+	c #96BD40",
"++	c #80A637",
"@+	c #82A437",
"#+	c #76A437",
"$+	c #7AA637",
"%+	c #86B03B",
"&+	c #90B63C",
"*+	c #98BB3F",
"=+	c #97BE40",
"-+	c #77A436",
";+	c #86B13A",
">+	c #83AB39",
",+	c #98C040",
"'+	c #99BE40",
")+	c #91B93E",
"!+	c #799B34",
"~+	c #7A9E34",
"{+	c #98C140",
"]+	c #92BC3F",
"^+	c #80AD39",
"/+	c #82AC3A",
"(+	c #7EA537",
"_+	c #749B34",
":+	c #7EA236",
"<+	c #82A938",
"[+	c #7BA236",
"}+	c #81AA39",
"|+	c #7DA236",
"1+	c #7EA337",
"2+	c #74A035",
"3+	c #7DA336",
"4+	c #8EB93E",
"5+	c #779F35",
"6+	c #769E35",
"7+	c #83A838",
"8+	c #84A938",
"9+	c #8BB63C",
"0+	c #8AB33B",
"a+	c #729C34",
"b+	c #90B83E",
"c+	c #89B13B",
"d+	c #7DA738",
"e+	c #8FB63D",
"f+	c #88B13B",
"g+	c #84AE3B",
"h+	c #89B03B",
"i+	c #87B03C",
"j+	c #89B43D",
"k+	c #8CB53C",
"l+	c #96BF3F",
"m+	c #91BB3F",
"n+	c #8EB63D",
"o+	c #88B03B",
"p+	c #87AF3B",
"q+	c #8EB73E",
"r+	c #719E34",
"s+	c #79A537",
"t+	c #84AB39",
"u+	c #7EAB39",
"  . + @ # $ % & * = - ; > , + ' ) ! ) ~ { ' ] ^   . + @ # $ % & * = - ; > , + ' ) ! ) ~ { ' ] ^ ",
"/ ( _ : ~ ) < [ } | 1 2 + 3 4 # 2 | } 5 6 7 5 8 9 ( _ : ~ ) < [ } | 1 2 + 3 4 # 2 | } 5 6 7 5 8 ",
"0 a b c ) d e f g h i j k 5 l m n & 9 9 9 9 9 9 o 9 b c ) d e f g h i j k 5 l m n & p q r 4 @ 7 ",
"j s t u v | w x y z A B C D E F D 9 o G G G 9 G G o 9 u v | w x y z A B C D E F D & H v I J # K ",
"{ w } 2 L M N v } m k g p k O v 9 o G G G G 9 G G G 9 2 L M N v } m k g p k O v P Q 3 R S p L ' ",
"k T 4 % U V W X @ O i Y Z S ` 9 o G G 9 9 9 G G G G o 9 U V W X @ O i Y Z S ` _ J  ...+.# A @.- ",
"$ #.' # $.%.&.> ~ *.5 =.-.;.9 o G G 9 L 9 G G G G G G o 9 %.&.> ~ *.5 =.-.;.= >.,.'.).L !.H ~.{.",
"].#.^./.(._.8 r * . # :.! <.9 G G 9 [.9 G G G G G G G G G 9 8 r * . # :.! <.<.}.|.1.[.2.D 5 ' M ",
"v 3.*.L 4.4.5.[.~ 7 6.7.~ } 9 G G 9 8.9 9 9 9 9 9 9 9 9 9 9 5.[.~ 7 6.7.~ } v v 5 9.8._ 5 z 0.2 ",
"B ].a.i ) *.b.A i f @ ~ c.^ 9 G G 9 * ! d.6 e.k d.].e.i d.*.b.A i f @ ~ c.^ f.g.3.i * ! v 6 v k ",
"~ H h.i.H 7.q v q @ A j.+.k.9 G G 9 l.7 d.m.d.8.d.H h.i.d.7.q v q @ A j.+.k.n.o.p.q.l.7 r.m.O 8.",
"` K c.>.8.z j v s.g 2 t.3 u.9 o G 9 v.w.e.x.d., e.K d.>.e.z j v s.g 2 t.3 u.n.y.$.z.v.w.A.x.B., ",
"C.j w } ^ 8.5 2 } k H D.^ D.9 o G 9 ) K e.E.L ) C.j d.} ^ 8.5 2 } k H D.^ D.F.G.H.D ) K I.E.L ) ",
"J.s p ' S &., @ K.4 3.e L.M.9 o G 9 N.c.i O.v E d.s e.' S &., @ K.4 3.e L.M.k P.Q.s.N.c.i O.v E ",
") R.6 S.# T.U.O.V...W.X.Y.E 9 o G 9 v 7.4 Z.7 5 ) R.6 S.# T.U.O.V...W.X.Y.E `. +.+O.v 7.4 Z.7 5 ",
"q ^ Q H @ % A.+.} 5 ++@+, #+9 o G 9 } ' J $+d.%+q ^ Q H d.% A.+.} 5 ++@+, #+3.N.0.g } ' J $+( %+",
"$++ ^ q ' } &+*+=+p b , Q ^ 9 G G 9 1 -+d.;+e.i e.+ ^ q d.} &+*+=+p b , Q ^ 2.}.>+} 1 -+H ;+l.i ",
"%+| L C   8 ,+'+)+^.%+J L 5.9 G G 9 ' c.d.k * q.d.| e.C e.8 ,+'+)+^.%+J L 5.W.!+~+: ' c.5.k * q.",
"B {+]+g B D O.^+a /./+. *.f.9 G G 9 (+i e.3 e.# d.{+d.g B D O.^+a /./+. *.f._+:+<+[+(+i Y 3 a # ",
"Q L D | , a n.}+U |+1+2+r.: 9 G G 9 W _ :.3+d.4+Q L d.| , a n.}+U |+1+2+r.: <.5+6+7+W _ :.3+8+4+",
"n | L 9+n * U >+0+%+A.a+j b+9 G G 9 c+d+e.e+f+' n | L 9+n * U >+0+%+A.a+j b+- g+=+)+c+d+: e+f+' ",
"5 g i 7 6 h+i+j+k+6.r >.]+& 9 G G 9 l+O.d.0.m } e.g i 7 d.h+i+j+k+6.r >.]+& t.C O.m+l+O.n+0.m } ",
"]+' 6 ' k ^ E A l.@ o+p+% _ 9 G G 9 %+, d.  q+} d.' 6 ' d.^ E A l.@ o+p+% _ i v v } %+, E   q+} ",
"L . K %++ j l.].r+s+t+%.).f 9 G G 9 a.u+d.H d.6.d.. e.%+e.j l.].r+s+t+%.).f J 2 L 4 a.u+, H J 6.",
"  . + @ # $ % & * = - ; > , 9 G G 9 ) ~ { ' e.^ e.. d.@ # $ % & * = - ; > , + ' ) ! ) ~ { ' ] ^ ",
"/ ( _ : ~ ) < [ } | 1 2 + 3 9 G G 9 } 5 d.7 5 8 / ( d.: d.) < [ } | 1 2 + 3 4 # 2 | } 5 6 7 5 8 ",
"0 a b c ) d e f g h i j k 5 9 G G 9 p q d.4 d.7 0 a b c d.d e f g h i j k 5 l m n & p q r 4 @ 7 ",
"j s t u v | w x y z A B C D 9 G G 9 H v d.J d.K d.s e.u e.| w x y z A B C D E F D & H v I J # K ",
"{ w } 2 L M N v } m k g p k 9 G G 9 3 R S p e.' e.w d.2 L M N v } m k g p k O v P Q 3 R S p L ' ",
"k T 4 % U V W X @ O i Y Z S 9 G G 9 ..+.# A @.- k T d.% U V W X @ O i Y Z S ` _ J  ...+.# A @.- ",
"$ #.' # $.%.&.> ~ *.5 =.-.;.9 G G 9 ).L d.H d.{.$ #.' # d.%.&.> ~ *.5 =.-.;.= >.,.'.).L !.H ~.{.",
"].#.^./.(._.8 r * . # :.! <.9 G G 9 [.2.d.5 e.M d.#.^./.d._.8 r * . # :.! <.<.}.|.1.[.2.D 5 ' M ",
"v 3.*.L 4.4.5.[.~ 7 6.7.~ } 9 G G 9 8._ 5 z 0.2 d.3.*.L e.4.5.[.~ 7 6.7.~ } v v 5 9.8._ 5 z 0.2 ",
"B ].a.i ) *.b.A i f @ ~ 9 9 9 G G 9 9 9 9 d.9 9 e.9 9 d.9 9 9 9 9 9 9 9 9 ^ f.g.3.i * ! v 6 v k ",
"~ H h.i.H 7.q v q @ A 9 o o G G G G G d.G d.G G G G G d.G G G G G G G G G 9 n.o.p.q.l.7 r.m.O 8.",
"` K c.>.8.z j v s.g 9 o G G G G G G G G G e.G d.G G G e.G G G G G G 9 G G G 9 y.$.z.v.w.A.x.B., ",
"C.j w } ^ 8.5 2 } 9 o G G 9 G G G G G G G G G G G G G G G d.G 9 G d.G 9 G G d.9 H.D ) K I.E.L ) ",
"J.s p ' S &., @ 9 d.d.e.9 G G G 9 G G G G G G G G G G G d.e.G G 9 e.G G 9 d.e.G 9 s.N.c.i O.v E ",
") R.6 S.# T.U.9 o G G 9 d.G G 9 G G G 9 G G G G 9 G G G G 9 G G G 9 G G e.9 G G G 9 v 7.4 Z.7 5 ",
"q ^ Q H @ % 9 o G G 9 G e.d.9 d.e.d.9 d.e.G G 9 d.9 G G G G 9 G G G 9 G d.G 9 G G G 9 ' J $+( %+",
"$++ ^ q ' 9 o G G 9 G G G 9 G G d.9 G G d.G 9 e.e.d.9 G d.G G 9 d.G G 9 G G G 9 G G G 9 H ;+l.i ",
"%+| L C   8 9 o e.d.9 G G G 9 G G G 9 G G G G 9 d.9 G G G G 9 G G G 9 G G G 9 d.G G 9 c.5.k * q.",
"B {+]+g B D O.9 d.G G 9 d.d.G 9 G d.G 9 G G G G 9 G G G G 9 d.e.G 9 d.e.G 9 e.d.G 9 (+i Y 3 a # ",
"Q L D | , a n.}+9 o G G 9 e.G G 9 e.G G G G G G G G G G G G G d.9 G G d.9 G G G 9 7+W _ :.3+8+4+",
"n | L 9+n * U >+0+9 o G G G G G G G G G G G G G G G G G G G G G G G G G G G G 9 =+)+c+d+: e+f+' ",
"5 g i 7 6 h+i+j+k+6.9 9 9 9 9 9 9 9 9 9 9 9 9 9 9 9 9 9 9 9 9 9 9 9 9 9 9 9 9 C O.m+l+O.n+0.m } ",
"]+' 6 ' k ^ E A l.@ o+p+% _ i v v } %+, E   q+} ]+' 6 ' k ^ E A l.@ o+p+% _ i v v } %+, E   q+} ",
"L . K %++ j l.].r+s+t+%.).f J 2 L 4 a.u+, H J 6.L . K %++ j l.].r+s+t+%.).f J 2 L 4 a.u+, H J 6."};
